<svg xmlns="http://www.w3.org/2000/svg" xmlns:xlink="http://www.w3.org/1999/xlink" width="103" height="103" viewBox="0 0 103 103">
  <defs>
    <filter id="Path_978624" x="0" y="0" width="103" height="103" filterUnits="userSpaceOnUse">
      <feOffset dy="3" input="SourceAlpha"/>
      <feGaussianBlur stdDeviation="3" result="blur"/>
      <feFlood flood-opacity="0.161"/>
      <feComposite operator="in" in2="blur"/>
      <feComposite in="SourceGraphic"/>
    </filter>
    <clipPath id="clip-path">
      <rect id="Rectangle_405911" data-name="Rectangle 405911" width="48.973" height="48.802" fill="none"/>
    </clipPath>
  </defs>
  <g id="Group_1151298" data-name="Group 1151298" transform="translate(-201 -320)">
    <g transform="matrix(1, 0, 0, 1, 201, 320)" filter="url(#Path_978624)">
      <g id="Path_978624-2" data-name="Path 978624" transform="translate(9 6)" fill="#ffd8d1">
        <path d="M 42.5 83.5 C 36.96437835693359 83.5 31.59512901306152 82.41617584228516 26.54141235351562 80.27863311767578 C 21.65934181213379 78.21369171142578 17.27447128295898 75.25723266601562 13.50862312316895 71.49137878417969 C 9.742764472961426 67.72553253173828 6.786305904388428 63.34066009521484 4.721364498138428 58.45858764648438 C 2.583823442459106 53.40486907958984 1.5 48.03562164306641 1.5 42.5 C 1.5 36.96437835693359 2.583823442459106 31.59512901306152 4.721364498138428 26.54141235351562 C 6.786305904388428 21.65934181213379 9.742764472961426 17.27447128295898 13.50862312316895 13.50862312316895 C 17.27447128295898 9.742764472961426 21.65934181213379 6.786305904388428 26.54141235351562 4.721364498138428 C 31.59512901306152 2.583823442459106 36.96437835693359 1.5 42.5 1.5 C 48.03562164306641 1.5 53.40486907958984 2.583823442459106 58.45858764648438 4.721364498138428 C 63.34066009521484 6.786305904388428 67.72553253173828 9.742764472961426 71.49137878417969 13.50862312316895 C 75.25723266601562 17.27447128295898 78.21369171142578 21.65934181213379 80.27863311767578 26.54141235351562 C 82.41617584228516 31.59512901306152 83.5 36.96437835693359 83.5 42.5 C 83.5 48.03562164306641 82.41617584228516 53.40486907958984 80.27863311767578 58.45858764648438 C 78.21369171142578 63.34066009521484 75.25723266601562 67.72553253173828 71.49137878417969 71.49137878417969 C 67.72553253173828 75.25723266601562 63.34066009521484 78.21369171142578 58.45858764648438 80.27863311767578 C 53.40486907958984 82.41617584228516 48.03562164306641 83.5 42.5 83.5 Z" stroke="none"/>
        <path d="M 42.5 3 C 37.16621398925781 3 31.99356079101562 4.043960571289062 27.125732421875 6.102882385253906 C 22.42246627807617 8.092185974121094 18.19785308837891 10.94070434570312 14.56928253173828 14.56928253173828 C 10.94070434570312 18.19785308837891 8.092185974121094 22.42246627807617 6.102882385253906 27.125732421875 C 4.043960571289062 31.99356079101562 3 37.16621398925781 3 42.5 C 3 47.83378601074219 4.043960571289062 53.00643920898438 6.102882385253906 57.87425231933594 C 8.092185974121094 62.57753372192383 10.94070434570312 66.80213165283203 14.56928253173828 70.43071746826172 C 18.19786834716797 74.05929565429688 22.42246627807617 76.90781402587891 27.125732421875 78.89711761474609 C 31.99356079101562 80.95603942871094 37.16621398925781 82 42.5 82 C 47.83378601074219 82 53.00642395019531 80.95603942871094 57.87425231933594 78.89711761474609 C 62.57753372192383 76.90781402587891 66.80213165283203 74.05929565429688 70.43071746826172 70.43071746826172 C 74.05929565429688 66.80213165283203 76.90781402587891 62.57753372192383 78.89711761474609 57.87425231933594 C 80.95603942871094 53.00642395019531 82 47.83378601074219 82 42.5 C 82 37.16621398925781 80.95603942871094 31.99356079101562 78.89711761474609 27.125732421875 C 76.90781402587891 22.42246627807617 74.05929565429688 18.19786834716797 70.43071746826172 14.56928253173828 C 66.80213165283203 10.94070434570312 62.57753372192383 8.092185974121094 57.87425231933594 6.102882385253906 C 53.00643920898438 4.043960571289062 47.83378601074219 3 42.5 3 M 42.5 0 C 65.97209167480469 0 85 19.02789306640625 85 42.5 C 85 65.97209167480469 65.97209167480469 85 42.5 85 C 19.02789306640625 85 0 65.97209167480469 0 42.5 C 0 19.02789306640625 19.02789306640625 0 42.5 0 Z" stroke="none" fill="#ff7e67"/>
      </g>
    </g>
    <g id="Group_1151299" data-name="Group 1151299" transform="translate(228.013 344.099)">
      <g id="Group_1151299-2" data-name="Group 1151299" clip-path="url(#clip-path)">
        <path id="Path_990233" data-name="Path 990233" d="M17.4,0V10.872a5.243,5.243,0,0,0,2.46,1.622,5.532,5.532,0,1,1,9.25,0l.952-.376c1.67-1.219,3.1-2.746,4.657-4.1V0h14.17V14.169H36.738l-5.907,5.114A3.035,3.035,0,0,0,30,20.712V33.847H31.67A2.436,2.436,0,0,1,33.687,30.7c1.124-.122,2.442.1,3.588,0,.42-2.167.692-4.847,2.858-6,.032-.137-.02-.161-.1-.247-.266-.3-.78-.606-1.087-.979a4.725,4.725,0,1,1,7.464-.216c-.121.164-.877.834-.77.951A5.222,5.222,0,0,1,48.6,27.4c.461,1.4.412,5.22.3,6.8a6.288,6.288,0,0,1-1.578,3.586c1.749.043,1.722,1.982,1.575,3.3-.062.551-.659,1.426-1.23,1.426H45.742v4.723h1.575V48.8H1.657V47.228H3.232V42.505H1.313c-.572,0-1.169-.876-1.23-1.426-.147-1.315-.174-3.255,1.575-3.3A6.287,6.287,0,0,1,.079,34.2c-.116-1.577-.166-5.394.3-6.8A5.222,5.222,0,0,1,3.33,24.2c.107-.117-.649-.786-.77-.951a4.733,4.733,0,0,1,5.519-7.191,4.771,4.771,0,0,1,.763,8.487c2.081,1.441,2.458,3.812,2.856,6.144,1.145.1,2.464-.118,3.588,0A2.447,2.447,0,0,1,17.3,33.847h1.673V20.712a3.037,3.037,0,0,0-.834-1.43l-5.907-5.114H.083V0ZM15.827,1.574H1.657v11.02h8.758C8.859,10.8,5.461,9.5,6.6,6.567a3.121,3.121,0,0,1,5.193-.812l4.033,3.691Zm31.489,0H36.3v4.92c.384-.093.635-.533.938-.785,3.514-2.919,7.331,1.337,4.181,4.377-.887.856-2.016,1.582-2.855,2.508h8.758ZM23.973,5.538c-5.239.608-4.056,8.924,1.424,7.72,4.691-1.03,3.595-8.3-1.424-7.72m4.45,22.012V20.515c0-.987,1.148-2.17,1.818-2.807,3.335-3.17,7.162-5.988,10.482-9.2,1-1.357-.681-2.914-2.156-1.861-2.829,2.02-6.131,6.679-9.434,7.589-.932.257-1.9.261-2.833.517l.546,6.741L24.451,23.9,22.128,21.5l.546-6.741c-.957-.26-1.954-.263-2.91-.539-3.073-.885-6.651-5.5-9.3-7.524-1.47-1.123-3.213.4-2.211,1.817,3.325,3.2,7.147,6.028,10.482,9.2.735.7,1.818,1.808,1.818,2.905V27.55Zm-3.64-12.594h-.592L23.7,20.808l.752.831.824-.831ZM5.865,17.343c-3.913.568-3.255,6.76.948,6.26,4.026-.479,3.355-6.885-.948-6.26m36.212,0c-3.912.568-3.255,6.76.948,6.26,4.025-.479,3.355-6.885-.948-6.26M1.657,28.681c-.189,1.593.141,3.534,0,5.166H6.971L5.687,28.683c.057-.374,1.11-.359,1.429-.545L8.543,33.5a.884.884,0,0,0,.736.347c1.89.174,4.066-.122,5.986-.026a.793.793,0,0,0-.174-1.555c-1.128-.131-3.533.322-4.377-.346-.8-.634-.889-3.6-1.6-4.8a4.057,4.057,0,0,0-7.459,1.555m45.659,5.166V28.681c0-2.353-2.983-3.907-5.119-3.347-3.2.838-2.585,3.725-3.492,5.954-.647,1.591-3.409.818-4.823.982a.793.793,0,0,0-.174,1.555c1.92-.1,4.1.2,5.986.026a.884.884,0,0,0,.736-.347l1.428-5.367c.319.186,1.372.171,1.429.545L42,33.847ZM23.7,29.124H20.551v4.723H23.7Zm4.723,0H25.274v4.723h3.149Zm-26.372,6.3c1.3,3.4,5.118,2.016,7.814,2.37A2.512,2.512,0,0,1,11.892,39.9c.207,1.916-.306,4.564.023,6.373a1.182,1.182,0,0,0,2.329-.084c-.158-2.34.255-5.046-.019-7.343-.179-1.5-1.791-3.422-3.367-3.422Zm32.67,0H14.253c.218.38.541.676.768,1.053.185.306.51,1.262.756,1.31l17.326,0a.316.316,0,0,0,.291-.1c.123-.149.387-.924.56-1.211.227-.376.55-.673.768-1.053m12.2,0H38.116A4.575,4.575,0,0,0,35.7,36.747c-1.833,2.12-.645,6.77-.973,9.439a1.182,1.182,0,0,0,2.329.084c.329-1.809-.184-4.457.023-6.373a2.512,2.512,0,0,1,2.026-2.106c2.706-.355,6.5,1.026,7.815-2.37m-36.606,5.51c.071-.4.015-1.574-.541-1.574H1.657v1.574Zm11.808-1.574h-6.3V46.49c0,.137-.263.516-.2.738h6.495Zm3.149,0H23.7v7.871h1.574Zm7.872,0h-6.3v7.871h6.495c.066-.222-.2-.6-.2-.738Zm14.17,0H39.2c-.556,0-.612,1.179-.541,1.574h8.66ZM6.381,42.505H4.806v4.723H6.381Zm3.936,0H7.955v4.723h2.558c.066-.222-.2-.6-.2-.738Zm30.7,0H38.657V46.49c0,.137-.263.516-.2.738h2.558Zm3.149,0H42.593v4.723h1.574Z" transform="translate(0)" fill="#010101"/>
        <path id="Path_990234" data-name="Path 990234" d="M60.822,53.222H52.95V46.285c0-1.1-1.083-2.207-1.818-2.9-3.335-3.17-7.157-5.994-10.482-9.2-1-1.414.741-2.94,2.211-1.817,2.651,2.025,6.229,6.639,9.3,7.524.956.275,1.953.279,2.91.539l-.546,6.741,2.323,2.405,2.395-2.405L58.7,40.428c.93-.255,1.9-.26,2.833-.517,3.3-.91,6.6-5.569,9.434-7.589,1.475-1.053,3.151.5,2.156,1.861-3.32,3.21-7.147,6.028-10.482,9.2-.67.637-1.818,1.82-1.818,2.807Z" transform="translate(-32.399 -25.672)" fill="#fc816d"/>
        <path id="Path_990235" data-name="Path 990235" d="M22.578,7.987v7.871l-4.033-3.691a3.121,3.121,0,0,0-5.193.812c-1.14,2.935,2.258,4.229,3.814,6.027H8.408V7.987Z" transform="translate(-6.751 -6.413)" fill="#e4e8eb"/>
        <path id="Path_990236" data-name="Path 990236" d="M195.146,7.987v11.02h-8.758c.839-.926,1.968-1.651,2.855-2.508,3.15-3.04-.667-7.3-4.181-4.377-.3.252-.554.691-.937.785V7.987Zm-1.575,1.574H192v1.574h1.574Zm0,3.148H192v1.574h1.574Zm0,3.149h-3.149v1.574h3.149Z" transform="translate(-147.83 -6.413)" fill="#e4e8eb"/>
        <path id="Path_990237" data-name="Path 990237" d="M8.163,131.347a4.057,4.057,0,0,1,7.459-1.555c.709,1.193.8,4.164,1.6,4.8.844.668,3.249.215,4.377.346a.793.793,0,0,1,.174,1.555c-1.92-.1-4.1.2-5.986.026a.885.885,0,0,1-.736-.347L13.621,130.8c-.319.186-1.372.171-1.429.545l1.285,5.164H8.163c.141-1.631-.189-3.572,0-5.166" transform="translate(-6.506 -102.666)" fill="#f9d56f"/>
        <path id="Path_990238" data-name="Path 990238" d="M182.261,136.565h-5.314l1.285-5.164c-.057-.374-1.11-.359-1.429-.545l-1.428,5.367a.885.885,0,0,1-.736.347c-1.89.174-4.066-.122-5.986-.026a.793.793,0,0,1,.174-1.555c1.414-.164,4.177.609,4.823-.982.906-2.229.293-5.116,3.492-5.954,2.136-.56,5.119.994,5.119,3.348Z" transform="translate(-134.945 -102.718)" fill="#fad56f"/>
        <path id="Path_990239" data-name="Path 990239" d="M107.9,27.957c5.019-.582,6.114,6.691,1.424,7.721-5.479,1.2-6.663-7.113-1.424-7.721" transform="translate(-83.93 -22.42)" fill="#eeceb2"/>
        <path id="Path_990240" data-name="Path 990240" d="M10.4,179.692h8.807c1.576,0,3.189,1.924,3.367,3.422.274,2.3-.14,5,.019,7.343a1.182,1.182,0,0,1-2.329.084c-.329-1.809.184-4.457-.023-6.373a2.512,2.512,0,0,0-2.026-2.106c-2.7-.354-6.511,1.029-7.815-2.37" transform="translate(-8.354 -144.271)" fill="#828e9a"/>
        <path id="Path_990241" data-name="Path 990241" d="M188.049,179.692c-1.315,3.4-5.108,2.015-7.815,2.37a2.512,2.512,0,0,0-2.026,2.106c-.207,1.916.306,4.564-.023,6.373a1.182,1.182,0,0,1-2.329-.084c.328-2.669-.86-7.319.973-9.439a4.575,4.575,0,0,1,2.413-1.326Z" transform="translate(-141.126 -144.271)" fill="#828e9a"/>
        <path id="Path_990242" data-name="Path 990242" d="M92.773,179.692c-.218.38-.541.676-.768,1.053-.173.287-.437,1.062-.56,1.211a.316.316,0,0,1-.291.1l-17.326,0c-.246-.048-.572-1-.756-1.31-.227-.376-.55-.673-.768-1.053Z" transform="translate(-58.052 -144.271)" fill="#cd9d75"/>
        <path id="Path_990243" data-name="Path 990243" d="M19.168,87.8c4.3-.625,4.973,5.782.948,6.26-4.2.5-4.86-5.692-.948-6.26" transform="translate(-13.303 -70.462)" fill="#edcdb2"/>
        <path id="Path_990244" data-name="Path 990244" d="M202.872,87.8c4.3-.625,4.973,5.782.948,6.26-4.2.5-4.86-5.692-.948-6.26" transform="translate(-160.795 -70.462)" fill="#edcdb2"/>
        <rect id="Rectangle_405903" data-name="Rectangle 405903" width="3.149" height="4.723" transform="translate(20.551 29.124)" fill="#828e9a"/>
        <rect id="Rectangle_405904" data-name="Rectangle 405904" width="3.149" height="4.723" transform="translate(25.274 29.124)" fill="#828e9a"/>
        <path id="Path_990245" data-name="Path 990245" d="M17.067,201.232H8.408v-1.574h8.118c.556,0,.612,1.179.541,1.574" transform="translate(-6.751 -160.301)" fill="#cd9d75"/>
        <path id="Path_990246" data-name="Path 990246" d="M204.668,199.657v1.574h-8.659c-.071-.4-.015-1.574.541-1.574Z" transform="translate(-157.351 -160.3)" fill="#cd9d75"/>
        <rect id="Rectangle_405905" data-name="Rectangle 405905" width="1.574" height="7.871" transform="translate(23.7 39.357)" fill="#b17847"/>
        <rect id="Rectangle_405906" data-name="Rectangle 405906" width="1.574" height="4.723" transform="translate(4.806 42.505)" fill="#b17847"/>
        <rect id="Rectangle_405907" data-name="Rectangle 405907" width="1.574" height="4.723" transform="translate(42.593 42.505)" fill="#b17847"/>
        <path id="Path_990247" data-name="Path 990247" d="M121.309,75.867l.492,5.853-.824.831-.752-.831.492-5.853Z" transform="translate(-96.526 -60.912)" fill="#dee2e5"/>
        <rect id="Rectangle_405908" data-name="Rectangle 405908" width="3.149" height="1.574" transform="translate(42.593 9.446)"/>
        <rect id="Rectangle_405909" data-name="Rectangle 405909" width="1.574" height="1.574" transform="translate(44.167 3.149)"/>
        <rect id="Rectangle_405910" data-name="Rectangle 405910" width="1.574" height="1.574" transform="translate(44.167 6.297)"/>
      </g>
    </g>
  </g>
</svg>
