<svg xmlns="http://www.w3.org/2000/svg" xmlns:xlink="http://www.w3.org/1999/xlink" width="108" height="108" viewBox="0 0 108 108">
  <defs>
    <filter id="Path_978624" x="0" y="0" width="108" height="108" filterUnits="userSpaceOnUse">
      <feOffset dy="3" input="SourceAlpha"/>
      <feGaussianBlur stdDeviation="3" result="blur"/>
      <feFlood flood-opacity="0.161"/>
      <feComposite operator="in" in2="blur"/>
      <feComposite in="SourceGraphic"/>
    </filter>
    <clipPath id="clip-path">
      <rect id="Rectangle_405850" data-name="Rectangle 405850" width="60.995" height="58.386" fill="none"/>
    </clipPath>
  </defs>
  <g id="Group_1151643" data-name="Group 1151643" transform="translate(-171 -7413.001)">
    <g id="Group_1145532" data-name="Group 1145532" transform="translate(-31 1401.001)">
      <g transform="matrix(1, 0, 0, 1, 202, 6012)" filter="url(#Path_978624)">
        <g id="Path_978624-2" data-name="Path 978624" transform="translate(9 6)" fill="#f5e9a1">
          <path d="M 45 88.5 C 39.12687683105469 88.5 33.43022537231445 87.35007476806641 28.06830024719238 85.08217620849609 C 22.88852500915527 82.89131164550781 18.23629951477051 79.75458526611328 14.2408504486084 75.75914764404297 C 10.24541282653809 71.76370239257812 7.108687400817871 67.11147308349609 4.917825222015381 61.93170166015625 C 2.649924993515015 56.56977462768555 1.5 50.87312316894531 1.5 45 C 1.5 39.12687683105469 2.649924993515015 33.43022537231445 4.917825222015381 28.06830024719238 C 7.108687400817871 22.88852500915527 10.24541282653809 18.23629951477051 14.2408504486084 14.2408504486084 C 18.23629951477051 10.24541282653809 22.88852500915527 7.108687400817871 28.06830024719238 4.917825222015381 C 33.43022537231445 2.649924993515015 39.12687683105469 1.5 45 1.5 C 50.87312316894531 1.5 56.56977462768555 2.649924993515015 61.93170166015625 4.917825222015381 C 67.11147308349609 7.108687400817871 71.76370239257812 10.24541282653809 75.75914764404297 14.2408504486084 C 79.75458526611328 18.23629951477051 82.89131164550781 22.88852500915527 85.08217620849609 28.06830024719238 C 87.35007476806641 33.43022537231445 88.5 39.12687683105469 88.5 45 C 88.5 50.87312316894531 87.35007476806641 56.56977462768555 85.08217620849609 61.93170166015625 C 82.89131164550781 67.11147308349609 79.75458526611328 71.76370239257812 75.75914764404297 75.75914764404297 C 71.76370239257812 79.75458526611328 67.11147308349609 82.89131164550781 61.93170166015625 85.08217620849609 C 56.56977462768555 87.35007476806641 50.87312316894531 88.5 45 88.5 Z" stroke="none"/>
          <path d="M 45 3 C 39.32871246337891 3 33.82865524291992 4.110054016113281 28.65262985229492 6.299339294433594 C 23.65165710449219 8.414573669433594 19.15968322753906 11.44334411621094 15.301513671875 15.301513671875 C 11.44334411621094 19.15968322753906 8.414573669433594 23.65165710449219 6.299339294433594 28.65262985229492 C 4.110054016113281 33.82865524291992 3 39.32871246337891 3 45 C 3 50.67128753662109 4.110054016113281 56.17134475708008 6.299339294433594 61.34737396240234 C 8.414573669433594 66.34834289550781 11.44334411621094 70.84031677246094 15.301513671875 74.698486328125 C 19.15968322753906 78.55665588378906 23.65165710449219 81.58542633056641 28.65262985229492 83.70066070556641 C 33.82865524291992 85.88994598388672 39.32871246337891 87 45 87 C 50.67128753662109 87 56.17134475708008 85.88994598388672 61.34737396240234 83.70066070556641 C 66.34834289550781 81.58542633056641 70.84031677246094 78.55665588378906 74.698486328125 74.698486328125 C 78.55665588378906 70.84031677246094 81.58542633056641 66.34834289550781 83.70066070556641 61.34737396240234 C 85.88994598388672 56.17134475708008 87 50.67128753662109 87 45 C 87 39.32871246337891 85.88994598388672 33.82865524291992 83.70066070556641 28.65262985229492 C 81.58542633056641 23.65165710449219 78.55665588378906 19.15968322753906 74.698486328125 15.301513671875 C 70.84031677246094 11.44334411621094 66.34834289550781 8.414573669433594 61.34737396240234 6.299339294433594 C 56.17134475708008 4.110054016113281 50.67128753662109 3 45 3 M 45 0 C 69.85281372070312 0 90 20.14718627929688 90 45 C 90 69.85281372070312 69.85281372070312 90 45 90 C 20.14718627929688 90 0 69.85281372070312 0 45 C 0 20.14718627929688 20.14718627929688 0 45 0 Z" stroke="none" fill="#bcac89"/>
        </g>
      </g>
      <g id="Group_1145587" data-name="Group 1145587" transform="translate(225.503 6033.807)">
        <g id="Group_1145586" data-name="Group 1145586" clip-path="url(#clip-path)">
          <path id="Path_979795" data-name="Path 979795" d="M152.454,28.613v1.31c-.84,2.91-4.205,4.173-5.836,6.372-1.762,2.376,1.642,6.989.391,10.157-1.4,3.542-7.118,1.85-9.8,3.18-1.409.7-1.177,2.848-2.857,2.681a1.371,1.371,0,0,1-.238-1.786c1.875-4.151,6.02-2.793,9.533-3.628,1.889-.449,2-1.45,1.75-3.188-.592-4.145-2.748-6.261.983-9.8,1.2-1.137,4.532-3.144,4.264-4.97-.326-2.221-5.33-4.242-6.2-7.14-.811-2.691,1.151-5.667,1.083-8.253-.066-2.538-3.3-2.129-5.036-2.324-3.97-.444-5.032-.551-6.752-4.325-.616-1.351-1.566-5.075-3.372-5.083-1.5-.007-4.654,2.578-6.292,3.238-3.916,1.577-5.811-1.341-8.971-2.744-1.93-.857-2.654-.473-3.6,1.367-1.264,2.456-1.675,6-4.664,7.007-.807.271-2.82.857-2.973-.412-.142-1.181,1.771-1.055,2.534-1.337,2.65-.979,2.6-7.3,5.892-8.638,3.606-1.462,7.022,3.9,10.186,3.4,3.059-.484,6.985-5.922,10.335-2.655,1.8,1.753,2.514,6.546,4.17,7.621,2.8,1.818,10.516-.878,10.363,5.13-.064,2.522-2.257,6.375-.605,8.455,1.751,2.205,4.955,3.407,5.72,6.368" transform="translate(-91.46 0.001)" fill="#040403"/>
          <path id="Path_979796" data-name="Path 979796" d="M10.138,81.782c.119,1.024-1.174,1.035-1.783,1.254-1.514.543-1.489,1.552-1.3,2.958.443,3.239,2.426,6.16-.135,9.127C5.74,96.49,1.736,98.782,1.8,100.654c.061,1.916,4.556,4.374,5.7,6.218,1.914,3.082-.564,6.219-.562,9.281,0,1.776,1.313,2.087,2.8,2.294,4.752.664,6.68-.584,9,4.46.609,1.325,1.513,4.836,3.168,5.059,1.832.247,5.511-3.35,7.839-3.659,3.768-.5,6.34,3.545,9.058,3.675,1.752.083,1.854-2.644,3.259-2.256a1.491,1.491,0,0,1,.583.891,6.215,6.215,0,0,1-1.358,2.2,4.988,4.988,0,0,1-1.845.954H38.246c-2.216-.567-3.912-2.242-5.93-3.181a3.435,3.435,0,0,0-3.624,0c-2.048.955-3.758,2.7-6.049,3.181H21.453c-3.567-1.041-3.487-5.671-5.43-8.088-1.156-1.438-3.791-1.144-5.467-1.322-4.407-.467-6.006-1.677-5.127-6.315.383-2.019,1.736-4.688.305-6.49-1.982-2.5-7.261-4.626-5.308-8.636,1.1-2.259,5.247-4.288,5.842-6.186,1-3.171-3.891-9.442,1.371-11.373.692-.254,2.37-.695,2.5.414" transform="translate(0 -71.39)" fill="#030403"/>
          <path id="Path_979797" data-name="Path 979797" d="M93.737,63.93c-1.26.185-2.5.541-3.767.7A28.308,28.308,0,0,1,58.006,37.135c2.561-2.967.578-5.887.135-9.127-.192-1.406-.216-2.415,1.3-2.958.609-.219,1.9-.23,1.783-1.254l2.263-.119c.153,1.268,2.165.683,2.973.412,2.989-1,3.4-4.552,4.664-7.007.947-1.84,1.671-2.223,3.6-1.367,3.16,1.4,5.055,4.321,8.971,2.744,1.638-.66,4.794-3.245,6.292-3.238,1.806.008,2.756,3.733,3.372,5.083,1.72,3.773,2.781,3.881,6.751,4.325,1.737.194,4.97-.214,5.036,2.323.067,2.586-1.894,5.563-1.083,8.253.873,2.9,5.877,4.919,6.2,7.14.268,1.825-3.065,3.833-4.264,4.97-3.731,3.538-1.575,5.654-.983,9.8.248,1.738.139,2.739-1.75,3.188-3.513.835-7.657-.523-9.533,3.628m2.025-30.964a8.907,8.907,0,0,0-1.429-1.786c1.044-.871-.839-2.207-1.492-2.736A18.185,18.185,0,1,0,79.624,60.714c14.022,1.432,24.227-13.1,18.264-25.884-.362-.776-1.033-2.5-2.127-1.863" transform="translate(-51.084 -13.405)" fill="#b3e354"/>
          <path id="Path_979798" data-name="Path 979798" d="M55.9,225.65a1.37,1.37,0,0,0,.238,1.786l-.834,2.025c-1.405-.388-1.507,2.34-3.259,2.256-2.718-.129-5.29-4.175-9.058-3.675-2.328.309-6.006,3.906-7.839,3.659-1.654-.223-2.559-3.734-3.168-5.059-2.318-5.045-4.246-3.8-9-4.461-1.489-.208-2.8-.518-2.8-2.294,0-3.062,2.476-6.2.562-9.281-1.145-1.844-5.64-4.3-5.7-6.218-.06-1.872,3.944-4.164,5.127-5.534A28.308,28.308,0,0,0,52.13,226.349c1.266-.158,2.507-.514,3.767-.7" transform="translate(-13.244 -175.124)" fill="#a2d94a"/>
          <path id="Path_979799" data-name="Path 979799" d="M146.39,112.478a8.91,8.91,0,0,1,1.429,1.786c-.969.564.28,2.127.579,2.816a16.383,16.383,0,1,1-5.184-6.368c.552.405,2.105,1.994,2.623,1.969a1.723,1.723,0,0,0,.554-.2M124.356,125.7v2.382a.914.914,0,0,0-.827.781,25.973,25.973,0,0,0,0,4.151c.229,1.684,2.138,1.873,3.5,1.736a2.246,2.246,0,0,0,2.046-1.552l12.478,0a2.516,2.516,0,0,0,1.859-2.2c.017-.35-.192-.782-.132-1.043.011-.046.569-.425.72-.621a2.705,2.705,0,0,0,.466-2.133c-.037-.265-.319-.763-.312-.846.018-.221.83-.815.807-1.906a4.355,4.355,0,0,0-.807-1.9c-.007-.083.274-.58.312-.845.27-1.913-.839-2.987-2.671-3.144-1.792-.153-5.3.838-5.308-1.848,0-1.6.877-2.618.253-4.41-.563-1.617-3.009-3.4-4.2-1.449-.918,1.506-1.439,4.513-2.181,6.275a7.428,7.428,0,0,1-1.487,2.329c-.16.067-.583-.519-.792-.642a6.188,6.188,0,0,0-2.728-.262c-2.853.279-1.554,4.592-1.838,6.494a.9.9,0,0,0,.831.658" transform="translate(-103.141 -94.702)" fill="#f7f5f6"/>
          <path id="Path_979800" data-name="Path 979800" d="M133.076,99.208a1.724,1.724,0,0,1-.554.2c-.518.025-2.071-1.564-2.623-1.969a16.38,16.38,0,1,0,5.184,6.368c-.3-.688-1.548-2.252-.579-2.816,1.094-.637,1.765,1.087,2.127,1.863,5.963,12.782-4.242,27.316-18.264,25.884a18.185,18.185,0,1,1,13.216-32.269c.653.528,2.536,1.865,1.492,2.736" transform="translate(-89.828 -81.433)" fill="#040403"/>
          <path id="Path_979801" data-name="Path 979801" d="M171.07,143.836a.9.9,0,0,1-.831-.658c.283-1.9-1.016-6.214,1.838-6.494a6.188,6.188,0,0,1,2.728.262c.208.122.631.708.792.642a7.428,7.428,0,0,0,1.487-2.329c.742-1.761,1.263-4.769,2.181-6.275,1.188-1.949,3.634-.168,4.2,1.449.624,1.793-.257,2.806-.253,4.41.008,2.686,3.516,1.695,5.308,1.848,1.832.157,2.941,1.231,2.671,3.144-.037.265-.319.762-.312.846a4.355,4.355,0,0,1,.807,1.9c.023,1.09-.789,1.685-.807,1.906-.007.083.274.58.312.846a2.706,2.706,0,0,1-.466,2.133c-.151.2-.71.574-.72.621-.06.261.148.694.132,1.043a2.516,2.516,0,0,1-1.859,2.2l-12.478,0a2.246,2.246,0,0,1-2.046,1.551c-1.364.138-3.273-.052-3.5-1.736a25.974,25.974,0,0,1,0-4.151.913.913,0,0,1,.827-.781c.339-.017.953.344.953.655v4.049a2.346,2.346,0,0,0,1.917.012,7.07,7.07,0,0,0,.108-2.1c.041-3.352-.03-6.71,0-10.063l-.2-.281a6.271,6.271,0,0,0-.877-.017c-.269.006-.837-.105-.936.2-.207,1.308.231,3.258-.042,4.483a.911.911,0,0,1-.927.681m4.764,5c.008.237-.007.478,0,.715l11.739.006c.528.025.679-.232.648-.721,0-.069.029-.157-.017-.216-1.4-.442-2.674.519-2.6-1.57.683-.823,3.323.112,3.752-.719a.873.873,0,0,0,.059-.472c-.076-1.535-3.387.04-3.787-1.276a2.812,2.812,0,0,1-.025-.748c.668-1.185,4.224.336,4.288-1.191.06-1.443-3.05-.532-3.9-.922-.461-.21-.393-.8-.386-1.222.753-1.138,3.753.306,3.811-1.191a1.1,1.1,0,0,0-.109-.515c-.248-.382-3.439-.144-4.123-.2a3.691,3.691,0,0,1-3.745-4.23c.117-1.469,1.25-3.607-.715-4.349-1.279,3.421-1.716,7.427-4.862,9.728.038,3.022-.129,6.069-.022,9.088" transform="translate(-149.856 -112.841)" fill="#040303"/>
          <path id="Path_979802" data-name="Path 979802" d="M179.678,214.708l.008,9.7c.092.584.534.708,1.064.663a7.07,7.07,0,0,1-.108,2.1,2.345,2.345,0,0,1-1.917-.012V223.1c0-.311-.613-.672-.953-.655v-2.382a.911.911,0,0,0,.927-.68c.273-1.225-.165-3.175.042-4.483.1-.3.667-.189.936-.2" transform="translate(-156.558 -189.072)" fill="#63d5f3"/>
          <path id="Path_979803" data-name="Path 979803" d="M217.427,162.783c-.107-3.019.061-6.066.022-9.088,3.146-2.3,3.584-6.308,4.862-9.728,1.965.742.832,2.88.715,4.349a3.691,3.691,0,0,0,3.745,4.23c.684.051,3.876-.186,4.123.2a1.1,1.1,0,0,1,.109.515c-.912.139-2.525-.212-3.342.053-.524.17-.462.708-.469,1.138s-.075,1.011.386,1.222c.852.39,3.962-.521,3.9.922-1.031.168-2.929-.238-3.846.025-.521.15-.442.757-.442,1.166a2.812,2.812,0,0,0,.025.748c.4,1.316,3.711-.259,3.787,1.276-.828.139-3.36-.375-3.75.479a1.735,1.735,0,0,0-.061.712c-.071,2.089,1.2,1.128,2.6,1.57.047.059.013.147.017.216Z" transform="translate(-191.449 -126.787)" fill="#fcd0a3"/>
          <path id="Path_979804" data-name="Path 979804" d="M194.814,225.131c-.53.046-.973-.079-1.064-.662l-.007-9.7a6.274,6.274,0,0,1,.877.017l.2.281c-.03,3.354.04,6.711,0,10.063" transform="translate(-170.622 -189.134)" fill="#95e4fb"/>
          <path id="Path_979805" data-name="Path 979805" d="M230.065,301.645c.031.489-.12.746-.648.721l-11.739-.006c-.006-.237.009-.478,0-.715Z" transform="translate(-191.7 -265.648)" fill="#fdbc85"/>
          <path id="Path_979806" data-name="Path 979806" d="M303.3,276.484a.873.873,0,0,1-.059.472c-.429.831-3.069-.1-3.752.719a1.737,1.737,0,0,1,.061-.712c.39-.854,2.922-.34,3.75-.479" transform="translate(-263.742 -243.464)" fill="#f1b480"/>
          <path id="Path_979807" data-name="Path 979807" d="M303.789,249.262c-.064,1.527-3.62.006-4.288,1.191,0-.409-.079-1.016.442-1.166.917-.263,2.815.143,3.846-.025" transform="translate(-263.757 -219.458)" fill="#f9b983"/>
          <path id="Path_979808" data-name="Path 979808" d="M303.345,221.445c-.059,1.5-3.058.053-3.811,1.191.008-.431-.055-.968.469-1.138.816-.265,2.43.087,3.342-.053" transform="translate(-263.789 -194.975)" fill="#fcbb85"/>
        </g>
      </g>
    </g>
  </g>
</svg>
