<svg xmlns="http://www.w3.org/2000/svg" xmlns:xlink="http://www.w3.org/1999/xlink" width="108" height="108" viewBox="0 0 108 108">
  <defs>
    <filter id="Path_978624" x="0" y="0" width="108" height="108" filterUnits="userSpaceOnUse">
      <feOffset dy="3" input="SourceAlpha"/>
      <feGaussianBlur stdDeviation="3" result="blur"/>
      <feFlood flood-opacity="0.161"/>
      <feComposite operator="in" in2="blur"/>
      <feComposite in="SourceGraphic"/>
    </filter>
  </defs>
  <g id="Group_1151626" data-name="Group 1151626" transform="translate(-739 -2997)">
    <g id="Group_1151587" data-name="Group 1151587">
      <g id="Group_1151338" data-name="Group 1151338" transform="translate(525 43)">
        <g id="Group_1151334" data-name="Group 1151334" transform="translate(13 2634)">
          <g transform="matrix(1, 0, 0, 1, 201, 320)" filter="url(#Path_978624)">
            <g id="Path_978624-2" data-name="Path 978624" transform="translate(9 6)" fill="#f8f4ec">
              <path d="M 45 88.5 C 39.12687683105469 88.5 33.43022537231445 87.35007476806641 28.06830024719238 85.08217620849609 C 22.88852500915527 82.89131164550781 18.23629951477051 79.75458526611328 14.2408504486084 75.75914764404297 C 10.24541282653809 71.76370239257812 7.108687400817871 67.11147308349609 4.917825222015381 61.93170166015625 C 2.649924993515015 56.56977462768555 1.5 50.87312316894531 1.5 45 C 1.5 39.12687683105469 2.649924993515015 33.43022537231445 4.917825222015381 28.06830024719238 C 7.108687400817871 22.88852500915527 10.24541282653809 18.23629951477051 14.2408504486084 14.2408504486084 C 18.23629951477051 10.24541282653809 22.88852500915527 7.108687400817871 28.06830024719238 4.917825222015381 C 33.43022537231445 2.649924993515015 39.12687683105469 1.5 45 1.5 C 50.87312316894531 1.5 56.56977462768555 2.649924993515015 61.93170166015625 4.917825222015381 C 67.11147308349609 7.108687400817871 71.76370239257812 10.24541282653809 75.75914764404297 14.2408504486084 C 79.75458526611328 18.23629951477051 82.89131164550781 22.88852500915527 85.08217620849609 28.06830024719238 C 87.35007476806641 33.43022537231445 88.5 39.12687683105469 88.5 45 C 88.5 50.87312316894531 87.35007476806641 56.56977462768555 85.08217620849609 61.93170166015625 C 82.89131164550781 67.11147308349609 79.75458526611328 71.76370239257812 75.75914764404297 75.75914764404297 C 71.76370239257812 79.75458526611328 67.11147308349609 82.89131164550781 61.93170166015625 85.08217620849609 C 56.56977462768555 87.35007476806641 50.87312316894531 88.5 45 88.5 Z" stroke="none"/>
              <path d="M 45 3 C 39.32871246337891 3 33.82865524291992 4.110054016113281 28.65262985229492 6.299339294433594 C 23.65165710449219 8.414573669433594 19.15968322753906 11.44334411621094 15.301513671875 15.301513671875 C 11.44334411621094 19.15968322753906 8.414573669433594 23.65165710449219 6.299339294433594 28.65262985229492 C 4.110054016113281 33.82865524291992 3 39.32871246337891 3 45 C 3 50.67128753662109 4.110054016113281 56.17134475708008 6.299339294433594 61.34737396240234 C 8.414573669433594 66.34834289550781 11.44334411621094 70.84031677246094 15.301513671875 74.698486328125 C 19.15968322753906 78.55665588378906 23.65165710449219 81.58542633056641 28.65262985229492 83.70066070556641 C 33.82865524291992 85.88994598388672 39.32871246337891 87 45 87 C 50.67128753662109 87 56.17134475708008 85.88994598388672 61.34737396240234 83.70066070556641 C 66.34834289550781 81.58542633056641 70.84031677246094 78.55665588378906 74.698486328125 74.698486328125 C 78.55665588378906 70.84031677246094 81.58542633056641 66.34834289550781 83.70066070556641 61.34737396240234 C 85.88994598388672 56.17134475708008 87 50.67128753662109 87 45 C 87 39.32871246337891 85.88994598388672 33.82865524291992 83.70066070556641 28.65262985229492 C 81.58542633056641 23.65165710449219 78.55665588378906 19.15968322753906 74.698486328125 15.301513671875 C 70.84031677246094 11.44334411621094 66.34834289550781 8.414573669433594 61.34737396240234 6.299339294433594 C 56.17134475708008 4.110054016113281 50.67128753662109 3 45 3 M 45 0 C 69.85281372070312 0 90 20.14718627929688 90 45 C 90 69.85281372070312 69.85281372070312 90 45 90 C 20.14718627929688 90 0 69.85281372070312 0 45 C 0 20.14718627929688 20.14718627929688 0 45 0 Z" stroke="none" fill="#decba5"/>
            </g>
          </g>
        </g>
      </g>
      <g id="Group_1145584" data-name="Group 1145584" transform="translate(754.852 3022.271)">
        <g id="Group_1145585" data-name="Group 1145585" transform="translate(12.328)">
          <path id="Path_979780" data-name="Path 979780" d="M60.646,0V11.464a5.529,5.529,0,0,0,2.594,1.711,5.833,5.833,0,1,1,9.753,0l1-.4c1.76-1.285,3.264-2.9,4.911-4.323V0H93.849V14.939H81.035l-6.228,5.392a3.2,3.2,0,0,0-.879,1.507v13.85h1.764a2.569,2.569,0,0,1,2.127-3.321c1.185-.129,2.575.1,3.783,0,.443-2.285.729-5.111,3.013-6.325.034-.144-.021-.17-.1-.26-.281-.319-.823-.639-1.146-1.032a4.982,4.982,0,1,1,7.87-.228c-.128.173-.925.879-.812,1a5.506,5.506,0,0,1,3.116,3.369c.487,1.478.434,5.5.312,7.166a6.63,6.63,0,0,1-1.664,3.782c1.844.045,1.816,2.09,1.66,3.477-.065.581-.694,1.5-1.3,1.5H90.528V49.8h1.66v1.66H44.045V49.8H45.7v-4.98H43.682c-.6,0-1.232-.923-1.3-1.5-.155-1.387-.184-3.432,1.661-3.477a6.629,6.629,0,0,1-1.664-3.782c-.122-1.662-.175-5.688.312-7.166a5.505,5.505,0,0,1,3.116-3.369c.112-.123-.685-.829-.812-1a4.992,4.992,0,1,1,6.624,1.367c2.194,1.519,2.592,4.02,3.012,6.479,1.208.106,2.6-.124,3.783,0a2.58,2.58,0,0,1,2.126,3.321h1.764V21.839a3.2,3.2,0,0,0-.879-1.507L55.2,14.939H42.385V0Zm-1.66,1.66H44.045v11.62h9.235c-1.641-1.9-5.224-3.261-4.022-6.355a3.291,3.291,0,0,1,5.476-.857L58.986,9.96Zm33.2,0H80.567V6.847c.4-.1.669-.562.989-.827,3.705-3.078,7.731,1.41,4.408,4.615-.936.9-2.126,1.668-3.01,2.644h9.235ZM67.575,5.839c-5.524.641-4.276,9.41,1.5,8.141,4.946-1.086,3.791-8.754-1.5-8.141m4.692,23.21V21.631c0-1.041,1.211-2.288,1.917-2.96,3.516-3.342,7.552-6.314,11.052-9.7,1.049-1.431-.718-3.072-2.273-1.962-2.983,2.13-6.465,7.043-9.947,8-.983.271-2.007.275-2.987.545l.576,7.108L68.079,25.2l-2.45-2.536.576-7.108c-1.009-.274-2.06-.277-3.068-.568-3.24-.933-7.013-5.8-9.809-7.933C51.778,5.873,49.94,7.482,51,8.973c3.506,3.378,7.536,6.356,11.052,9.7.775.736,1.917,1.906,1.917,3.063v7.314Zm-3.839-13.28H67.8l-.519,6.172.793.876.868-.876ZM48.482,18.286c-4.126.6-3.432,7.128,1,6.6,4.245-.5,3.538-7.26-1-6.6m38.183,0c-4.125.6-3.432,7.128,1,6.6,4.244-.5,3.538-7.26-1-6.6M44.045,30.242c-.2,1.68.148,3.727,0,5.447h5.6l-1.355-5.445c.06-.394,1.17-.378,1.506-.575l1.506,5.659a.933.933,0,0,0,.776.365c1.992.183,4.288-.128,6.312-.027a.836.836,0,0,0-.183-1.64c-1.19-.138-3.725.339-4.615-.365-.844-.668-.938-3.8-1.685-5.059a4.278,4.278,0,0,0-7.865,1.639m48.144,5.447V30.242c0-2.481-3.145-4.12-5.4-3.53-3.372.884-2.726,3.928-3.682,6.278-.682,1.677-3.595.863-5.086,1.036a.836.836,0,0,0-.183,1.64c2.024-.1,4.32.21,6.312.027a.933.933,0,0,0,.776-.365l1.505-5.659c.336.2,1.446.18,1.507.575l-1.355,5.445Zm-24.9-4.98h-3.32v4.98h3.32Zm4.98,0h-3.32v4.98h3.32ZM44.46,37.349c1.375,3.584,5.4,2.125,8.24,2.5a2.649,2.649,0,0,1,2.137,2.221c.218,2.02-.323,4.812.024,6.72a1.246,1.246,0,0,0,2.456-.089c-.167-2.468.269-5.321-.02-7.742-.189-1.58-1.889-3.608-3.551-3.608Zm34.447,0H57.326c.23.4.57.713.81,1.11.195.323.538,1.331.8,1.381l18.268,0a.333.333,0,0,0,.306-.109c.13-.157.408-.974.59-1.277.239-.4.58-.709.809-1.11m12.866,0H82.487a4.824,4.824,0,0,0-2.544,1.4c-1.933,2.236-.68,7.138-1.026,9.952a1.246,1.246,0,0,0,2.456.089c.347-1.907-.194-4.7.024-6.72a2.649,2.649,0,0,1,2.136-2.221c2.854-.375,6.853,1.082,8.24-2.5m-38.6,5.81c.074-.417.015-1.66-.571-1.66h-8.56v1.66ZM65.626,41.5H58.986V49.02c0,.145-.277.544-.207.778h6.848Zm3.32,0h-1.66v8.3h1.66Zm8.3,0h-6.64v8.3h6.848c.069-.234-.208-.633-.208-.778Zm14.941,0h-8.56c-.586,0-.645,1.243-.571,1.66h9.131Zm-43.163,3.32h-1.66V49.8h1.66Zm4.15,0h-2.49V49.8h2.7c.07-.234-.208-.633-.208-.778Zm32.373,0h-2.49v4.2c0,.145-.277.544-.207.778h2.7Zm3.32,0h-1.66V49.8h1.66Z" transform="translate(-42.297)" fill="#010101"/>
          <path id="Path_979781" data-name="Path 979781" d="M104.233,54.378h-8.3V47.063c0-1.157-1.142-2.327-1.917-3.063-3.516-3.342-7.547-6.32-11.052-9.7-1.057-1.491.781-3.1,2.331-1.916,2.8,2.136,6.568,7,9.808,7.933,1.008.29,2.059.294,3.068.568L97.6,48l2.45,2.536L102.57,48l-.576-7.108c.981-.269,2-.274,2.988-.545,3.482-.959,6.964-5.872,9.947-8,1.556-1.11,3.323.531,2.273,1.962-3.5,3.385-7.536,6.356-11.052,9.7-.706.671-1.917,1.919-1.917,2.959Z" transform="translate(-74.264 -25.329)" fill="#fc816d"/>
          <path id="Path_979782" data-name="Path 979782" d="M65.646,7.986v8.3l-4.253-3.892a3.291,3.291,0,0,0-5.476.857c-1.2,3.094,2.381,4.459,4.022,6.355H50.705V7.986Z" transform="translate(-48.957 -6.326)" fill="#e4e8eb"/>
          <path id="Path_979783" data-name="Path 979783" d="M238.043,7.986v11.62h-9.235c.885-.976,2.075-1.741,3.01-2.644,3.322-3.206-.7-7.693-4.408-4.615-.319.265-.584.729-.989.827V7.986Zm-1.66,1.66h-1.66v1.66h1.66Zm0,3.32h-1.66v1.66h1.66Zm0,3.32h-3.32v1.66h3.32Z" transform="translate(-188.152 -6.326)" fill="#e4e8eb"/>
          <path id="Path_979784" data-name="Path 979784" d="M50.463,131.536a4.278,4.278,0,0,1,7.865-1.639c.747,1.258.841,4.391,1.685,5.059.89.7,3.426.227,4.615.365a.836.836,0,0,1,.183,1.64c-2.024-.1-4.32.211-6.312.027a.933.933,0,0,1-.776-.366l-1.506-5.659c-.336.2-1.446.18-1.506.575l1.355,5.445h-5.6c.148-1.72-.2-3.767,0-5.447" transform="translate(-48.716 -101.294)" fill="#f9d56f"/>
          <path id="Path_979785" data-name="Path 979785" d="M225.33,137.035h-5.6l1.355-5.445c-.06-.395-1.17-.378-1.507-.575l-1.506,5.659a.933.933,0,0,1-.776.366c-1.992.183-4.288-.128-6.312-.027a.836.836,0,0,1,.183-1.64c1.491-.173,4.4.642,5.086-1.036.956-2.351.309-5.395,3.682-6.278,2.252-.59,5.4,1.049,5.4,3.53Z" transform="translate(-175.439 -101.346)" fill="#fad56f"/>
          <path id="Path_979786" data-name="Path 979786" d="M150.384,27.958c5.292-.614,6.447,7.055,1.5,8.141-5.778,1.269-7.025-7.5-1.5-8.141" transform="translate(-125.107 -22.119)" fill="#eeceb2"/>
          <path id="Path_979787" data-name="Path 979787" d="M52.7,179.691h9.286c1.662,0,3.362,2.029,3.551,3.608.289,2.422-.147,5.275.02,7.743a1.246,1.246,0,0,1-2.456.089c-.347-1.907.194-4.7-.024-6.72a2.649,2.649,0,0,0-2.136-2.221c-2.843-.373-6.865,1.085-8.24-2.5" transform="translate(-50.539 -142.342)" fill="#828e9a"/>
          <path id="Path_979788" data-name="Path 979788" d="M231.014,179.691c-1.387,3.581-5.386,2.124-8.24,2.5a2.649,2.649,0,0,0-2.136,2.221c-.218,2.02.323,4.812-.024,6.72a1.246,1.246,0,0,1-2.456-.089c.346-2.814-.907-7.717,1.026-9.953a4.824,4.824,0,0,1,2.544-1.4Z" transform="translate(-181.538 -142.342)" fill="#828e9a"/>
          <path id="Path_979789" data-name="Path 979789" d="M136.184,179.691c-.23.4-.57.713-.81,1.11-.182.3-.46,1.12-.59,1.277a.333.333,0,0,1-.306.109l-18.268,0c-.26-.05-.6-1.059-.8-1.381-.239-.4-.58-.709-.809-1.11Z" transform="translate(-99.574 -142.342)" fill="#cd9d75"/>
          <path id="Path_979790" data-name="Path 979790" d="M61.607,87.807c4.537-.659,5.244,6.1,1,6.6-4.431.527-5.125-6-1-6.6" transform="translate(-55.423 -69.52)" fill="#edcdb2"/>
          <path id="Path_979791" data-name="Path 979791" d="M245.311,87.807c4.537-.659,5.244,6.1,1,6.6-4.431.527-5.125-6-1-6.6" transform="translate(-200.944 -69.52)" fill="#edcdb2"/>
          <rect id="Rectangle_405842" data-name="Rectangle 405842" width="3.32" height="4.98" transform="translate(21.669 30.709)" fill="#828e9a"/>
          <rect id="Rectangle_405843" data-name="Rectangle 405843" width="3.32" height="4.98" transform="translate(26.65 30.709)" fill="#828e9a"/>
          <path id="Path_979792" data-name="Path 979792" d="M59.836,201.317H50.705v-1.66h8.56c.586,0,.645,1.243.571,1.66" transform="translate(-48.957 -158.158)" fill="#cd9d75"/>
          <path id="Path_979793" data-name="Path 979793" d="M247.437,199.657v1.66h-9.131c-.074-.417-.015-1.66.571-1.66Z" transform="translate(-197.546 -158.158)" fill="#cd9d75"/>
          <rect id="Rectangle_405844" data-name="Rectangle 405844" width="1.66" height="8.3" transform="translate(24.989 41.499)" fill="#b17847"/>
          <rect id="Rectangle_405845" data-name="Rectangle 405845" width="1.66" height="4.98" transform="translate(5.068 44.818)" fill="#b17847"/>
          <rect id="Rectangle_405846" data-name="Rectangle 405846" width="1.66" height="4.98" transform="translate(44.911 44.818)" fill="#b17847"/>
          <path id="Path_979794" data-name="Path 979794" d="M163.665,75.867l.519,6.172-.868.876-.793-.876.519-6.172Z" transform="translate(-137.533 -60.098)" fill="#dee2e5"/>
          <rect id="Rectangle_405847" data-name="Rectangle 405847" width="3.32" height="1.66" transform="translate(44.911 9.96)"/>
          <rect id="Rectangle_405848" data-name="Rectangle 405848" width="1.66" height="1.66" transform="translate(46.571 3.32)"/>
          <rect id="Rectangle_405849" data-name="Rectangle 405849" width="1.66" height="1.66" transform="translate(46.571 6.64)"/>
        </g>
      </g>
    </g>
  </g>
</svg>
