<svg xmlns="http://www.w3.org/2000/svg" xmlns:xlink="http://www.w3.org/1999/xlink" width="108" height="108" viewBox="0 0 108 108">
  <defs>
    <filter id="Fondo" x="0" y="0" width="108" height="108" filterUnits="userSpaceOnUse">
      <feOffset dy="3" input="SourceAlpha"/>
      <feGaussianBlur stdDeviation="3" result="blur"/>
      <feFlood flood-opacity="0.161"/>
      <feComposite operator="in" in2="blur"/>
      <feComposite in="SourceGraphic"/>
    </filter>
  </defs>
  <g id="Group_1157337" data-name="Group 1157337" transform="translate(-121.166 -1478)">
    <g id="Icono" transform="translate(130.166 789)">
      <g transform="matrix(1, 0, 0, 1, -9, 689)" filter="url(#Fondo)">
        <g id="Fondo-2" data-name="Fondo" transform="translate(9 6)" fill="#effdfc" stroke="#70efea" stroke-width="3">
          <circle cx="45" cy="45" r="45" stroke="none"/>
          <circle cx="45" cy="45" r="43.5" fill="none"/>
        </g>
      </g>
      <g id="Group_1157017" data-name="Group 1157017" transform="translate(-146.857 673.692)">
        <g id="users_391194" transform="translate(165.272 42)">
          <path id="Path_903443" data-name="Path 903443" d="M42.511,29.77h0A12.621,12.621,0,0,0,29.89,42.391v5.743H55.132V42.391A12.621,12.621,0,0,0,42.511,29.77Z" transform="translate(-26.786 -28.955)" fill="#515262"/>
          <path id="Path_903444" data-name="Path 903444" d="M127.858,29.079h.006a12.752,12.752,0,0,0-2.724.33,12.657,12.657,0,0,1,9.9,12.363v5.66h5.43v-5.66A12.672,12.672,0,0,0,127.858,29.079Z" transform="translate(-112.145 -28.336)" opacity="0.1"/>
          <path id="Path_903445" data-name="Path 903445" d="M20.846,174.69a3.1,3.1,0,0,0-3.1,3.1h0a3.1,3.1,0,0,0,3.1,3.1h1.507v-6.2H20.846Z" transform="translate(-15.903 -158.826)" fill="#e6b696"/>
          <path id="Path_903446" data-name="Path 903446" d="M37.665,373.436a16.134,16.134,0,0,0-9.06-8.948l-.065-.025H16.969a16.134,16.134,0,0,0-9.125,8.972H37.665Z" transform="translate(-7.03 -328.893)" fill="#ff6465"/>
          <path id="Path_903447" data-name="Path 903447" d="M104.781,307.108v-5.824H98.22v5.824a15.994,15.994,0,0,0-2.5.737,6,6,0,0,0,11.571,0A16.007,16.007,0,0,0,104.781,307.108Z" transform="translate(-85.776 -272.274)" fill="#e6b696"/>
          <path id="Path_903448" data-name="Path 903448" d="M216.99,373.436a16.134,16.134,0,0,1,9.06-8.948l.065-.025h11.571a16.135,16.135,0,0,1,9.125,8.972H216.99Z" transform="translate(-194.457 -328.893)" fill="#a5eb78"/>
          <path id="Path_903449" data-name="Path 903449" d="M307.368,307.108v-5.824h6.561v5.824a15.994,15.994,0,0,1,2.5.737,6,6,0,0,1-11.571,0A16.006,16.006,0,0,1,307.368,307.108Z" transform="translate(-273.204 -272.274)" fill="#e6b696"/>
          <path id="Path_903450" data-name="Path 903450" d="M120.056,299.923v5.511a13.867,13.867,0,0,0,6.516,0v-5.511h-6.516Z" transform="translate(-107.589 -271.054)" opacity="0.1"/>
          <path id="Path_903451" data-name="Path 903451" d="M329.2,299.924v5.511a13.865,13.865,0,0,0,6.516,0v-5.511H329.2Z" transform="translate(-295.017 -271.055)" opacity="0.1"/>
          <path id="Path_903452" data-name="Path 903452" d="M66.041,109.156a1.943,1.943,0,0,1-1.943-1.943,1.943,1.943,0,1,1-3.886,0,1.943,1.943,0,1,1-3.886,0,1.943,1.943,0,1,1-3.886,0,1.941,1.941,0,0,1-3.481,1.185,9.908,9.908,0,0,0-1.485,5.233v5.441a10.8,10.8,0,0,0,21.59,0v-5.441a9.909,9.909,0,0,0-1.485-5.233A1.938,1.938,0,0,1,66.041,109.156Z" transform="translate(-42.544 -98.356)" fill="#f0c5a6"/>
          <path id="Path_903453" data-name="Path 903453" d="M251.659,29.77h0a12.621,12.621,0,0,0-12.621,12.621v5.743H264.28V42.391A12.621,12.621,0,0,0,251.659,29.77Z" transform="translate(-214.215 -28.955)" fill="#ffd782"/>
          <path id="Path_903454" data-name="Path 903454" d="M337,29.079h.006a12.752,12.752,0,0,0-2.724.33,12.657,12.657,0,0,1,9.9,12.363v5.66h5.43v-5.66A12.672,12.672,0,0,0,337,29.079Z" transform="translate(-299.572 -28.336)" opacity="0.1"/>
          <path id="Path_903455" data-name="Path 903455" d="M451.4,174.69a3.1,3.1,0,0,1,3.1,3.1h0a3.1,3.1,0,0,1-3.1,3.1h-1.507v-6.2H451.4Z" transform="translate(-403.175 -158.826)" fill="#e6b696"/>
          <path id="Path_903456" data-name="Path 903456" d="M259.64,109.156a1.943,1.943,0,0,0,1.943-1.943,1.943,1.943,0,1,0,3.886,0,1.943,1.943,0,1,0,3.886,0,1.943,1.943,0,1,0,3.886,0,1.942,1.942,0,0,0,3.481,1.185,9.909,9.909,0,0,1,1.485,5.233v5.441a10.8,10.8,0,0,1-21.59,0v-5.441A9.908,9.908,0,0,1,258.1,108.4,1.939,1.939,0,0,0,259.64,109.156Z" transform="translate(-229.969 -98.356)" fill="#f0c5a6"/>
          <path id="Path_903457" data-name="Path 903457" d="M147.085,61.142h0a12.621,12.621,0,0,0-12.621,12.621v5.743h25.242V73.763A12.621,12.621,0,0,0,147.085,61.142Z" transform="translate(-120.501 -57.069)" fill="#5a4146"/>
          <path id="Path_903458" data-name="Path 903458" d="M232.431,60.451h.006a12.752,12.752,0,0,0-2.724.33,12.657,12.657,0,0,1,9.9,12.363V78.8h5.43v-5.66A12.672,12.672,0,0,0,232.431,60.451Z" transform="translate(-205.858 -56.45)" opacity="0.1"/>
          <g id="Group_1143006" data-name="Group 1143006" transform="translate(12.702 19.122)">
            <path id="Path_903459" data-name="Path 903459" d="M125.419,206.062a3.1,3.1,0,0,0-3.1,3.1h0a3.1,3.1,0,0,0,3.1,3.1h1.507v-6.2h-1.507Z" transform="translate(-122.319 -206.062)" fill="#e6b273"/>
            <path id="Path_903460" data-name="Path 903460" d="M346.827,206.062a3.1,3.1,0,0,1,3.1,3.1h0a3.1,3.1,0,0,1-3.1,3.1H345.32v-6.2h1.507Z" transform="translate(-322.162 -206.062)" fill="#e6b273"/>
          </g>
          <path id="Path_903461" data-name="Path 903461" d="M142.239,404.808a16.134,16.134,0,0,0-9.06-8.948l-.065-.025H121.543a16.134,16.134,0,0,0-9.125,8.972h29.821Z" transform="translate(-100.744 -357.007)" fill="#6ab2cc"/>
          <path id="Path_903462" data-name="Path 903462" d="M209.355,338.481v-5.824h-6.561v5.824a15.986,15.986,0,0,0-2.5.737,6,6,0,0,0,11.571,0A15.975,15.975,0,0,0,209.355,338.481Z" transform="translate(-179.49 -300.389)" fill="#f0c087"/>
          <path id="Path_903463" data-name="Path 903463" d="M224.629,331.3v5.511a13.867,13.867,0,0,0,6.516,0V331.3h-6.516Z" transform="translate(-201.302 -299.168)" opacity="0.1"/>
          <path id="Path_903464" data-name="Path 903464" d="M170.614,140.528a1.943,1.943,0,0,1-1.943-1.943,1.943,1.943,0,0,1-3.886,0,1.943,1.943,0,0,1-3.886,0,1.943,1.943,0,0,1-3.886,0,1.942,1.942,0,0,1-3.481,1.185A9.908,9.908,0,0,0,152.047,145v5.441a10.8,10.8,0,0,0,21.59,0V145a9.909,9.909,0,0,0-1.485-5.233A1.939,1.939,0,0,1,170.614,140.528Z" transform="translate(-136.258 -126.47)" fill="#f0c087"/>
          <path id="Path_903468" data-name="Path 903468" d="M53.11,66.162A16.887,16.887,0,0,0,41.54,56.11V53.5a11.65,11.65,0,0,0,7.322-8.752,3.91,3.91,0,0,0,2.019-6.735V35.361a13.462,13.462,0,0,0-4.435-9.975.814.814,0,0,0-1.092,1.209,11.83,11.83,0,0,1,3.9,8.766V37.11q-.1-.026-.2-.048c0-.041,0-.083,0-.124a10.887,10.887,0,0,0-.908-4.081,10.4,10.4,0,0,0-.694-1.319.814.814,0,0,0-1.337-.069,1.127,1.127,0,0,1-2.022-.687.814.814,0,1,0-1.629,0,1.129,1.129,0,0,1-2.257,0,.814.814,0,1,0-1.629,0,1.119,1.119,0,0,1-.121.5,1.152,1.152,0,0,1-.335.4l-.017.012a13.416,13.416,0,0,0-1.781-2.326l-.028-.029a13.46,13.46,0,0,0-5.216-3.384c-.07-.025-.48-.215-.532-.177A11.819,11.819,0,0,1,42.8,24.836a.814.814,0,0,0,.74-1.451,13.442,13.442,0,0,0-15.025,1.937,13.448,13.448,0,0,0-3.862,0A13.434,13.434,0,0,0,7.9,24.438a.814.814,0,1,0,.95,1.324,11.81,11.81,0,0,1,13.774.017A13.448,13.448,0,0,0,17.213,29a13.7,13.7,0,0,0-1.457,1.667,11.879,11.879,0,0,0-.687,1.026l-.017-.013a1.151,1.151,0,0,1-.455-.9.814.814,0,0,0-1.629,0,1.129,1.129,0,0,1-2.257,0,.814.814,0,0,0-1.629,0,1.127,1.127,0,0,1-2.022.687.814.814,0,0,0-1.337.069,10.659,10.659,0,0,0-1.5,4.17,11.293,11.293,0,0,0-.1,1.23c0,.041,0,.083,0,.124-.066.014-.132.03-.2.048V35.36a11.823,11.823,0,0,1,2.7-7.517A.814.814,0,1,0,5.366,26.8,13.456,13.456,0,0,0,2.29,35.36v2.655A3.91,3.91,0,0,0,4.309,44.75,11.649,11.649,0,0,0,11.631,53.5v2.607A16.781,16.781,0,0,0,5.654,58.94a.814.814,0,0,0,.972,1.307,15.276,15.276,0,0,1,2.833-1.668c-.219.1,1.491,2.183,1.665,2.342a6.816,6.816,0,0,0,4.6,1.794h.121a16.965,16.965,0,0,0-2.8,2.94H2.078a15.267,15.267,0,0,1,2.265-3.322.814.814,0,0,0-1.214-1.086A16.851,16.851,0,0,0,.06,66.162a.814.814,0,0,0,.755,1.12H11.97a16.769,16.769,0,0,0-1.05,2.137.815.815,0,0,0,.755,1.12H41.5a.814.814,0,0,0,.755-1.12A16.749,16.749,0,0,0,41.2,67.282H52.355a.815.815,0,0,0,.755-1.12Zm-13.2-12.176v2.772a.814.814,0,0,0,.649.8,15.208,15.208,0,0,1,1.631.434l-.022.051a5.146,5.146,0,0,1-1.326,1.773,5.188,5.188,0,0,1-8.121-1.773l-.022-.051a15.225,15.225,0,0,1,1.631-.434.814.814,0,0,0,.649-.8V53.986l.125.025A11.64,11.64,0,0,0,39.824,54Zm-8.64,7.395a5.186,5.186,0,0,1-9.431-.132l.046-.015a15.445,15.445,0,0,1,1.584-.42.814.814,0,0,0,.649-.8V57.244l.088.018a11.648,11.648,0,0,0,4.651.021l.194-.039v2.772a.814.814,0,0,0,.649.8,15.044,15.044,0,0,1,1.58.418l.051.017-.022.05Zm-16.289-15.1a2.283,2.283,0,0,1-.471-4.015,2.344,2.344,0,0,1,.454-.242l.011,0V45.9c0,.119,0,.237.006.355C14.982,46.262,14.981,46.27,14.982,46.279ZM18.813,36.8a2.748,2.748,0,0,0,1.943-.8,2.753,2.753,0,0,0,3.886,0,2.75,2.75,0,0,0,1.663.788,2.781,2.781,0,0,0,.28.014,2.749,2.749,0,0,0,1.943-.8,2.753,2.753,0,0,0,3.886,0,2.758,2.758,0,0,0,3.24.48,9.127,9.127,0,0,1,.912,3.983V45.9c0,.3-.014.593-.04.888l0,.044a10.041,10.041,0,0,1-2.589,5.815l-.218.23a9.99,9.99,0,0,1-4.385,2.62l-.015,0a10.007,10.007,0,0,1-5.458,0l-.015,0A10.14,10.14,0,0,1,16.7,47.271l0-.015A9.925,9.925,0,0,1,16.6,45.9V40.457a9.129,9.129,0,0,1,.912-3.983,2.714,2.714,0,0,0,.461.194A2.762,2.762,0,0,0,18.813,36.8Zm12.564,22.76q-.346-.1-.7-.19v-.552q.248-.123.5-.236c-.024.011.484.924.55,1.026.016.024.031.05.047.074l-.043-.013Q31.555,59.61,31.377,59.557Zm0-2.823h0l-.073.028c-.206.081-.412.168-.618.258v-.259a11.592,11.592,0,0,0,2.669-1.433v.782A16.877,16.877,0,0,0,31.372,56.734Zm6.817-10.486c0-.116.006-.233.006-.35v-3.88l.01,0a2.308,2.308,0,0,1,.427.224l.028.019a2.283,2.283,0,0,1-.471,4.015C38.189,46.269,38.189,46.258,38.189,46.248Zm-18.368,9.08a11.594,11.594,0,0,0,2.669,1.433v.259c-.207-.09-.415-.178-.625-.261l-.065-.025h0a16.848,16.848,0,0,0-1.977-.624v-.782h0Zm2.67,4.04q-.531.132-1.052.3l-.042.013c.114-.171.221-.349.319-.529s.2-.377.278-.571q.25.113.5.235v.553ZM49.048,43.022c0-.01,0-.021,0-.032,0-.116.006-.233.006-.35V38.76l.011,0a2.293,2.293,0,0,1,.426.224l.027.019a2.283,2.283,0,0,1-.471,4.015Zm-7.717-9.482a2.749,2.749,0,0,0,1.943-.8,2.757,2.757,0,0,0,3.24.48,9.129,9.129,0,0,1,.912,3.983V42.64c0,.393-.032.783-.069,1.174a10.007,10.007,0,0,1-7.137,8.414l-.046.014a10.088,10.088,0,0,1-4.046.292l-.014,0a11.6,11.6,0,0,0,.807-1.347l.006-.011a11.665,11.665,0,0,0,1.056-3.059l0-.023c.005-.028.011-.055.016-.083a3.91,3.91,0,0,0,2.019-6.735V38.619a13.394,13.394,0,0,0-.554-3.819l0-.014a13.578,13.578,0,0,0-.606-1.641l.013-.009a4.4,4.4,0,0,0,.514-.4,2.757,2.757,0,0,0,1.946.806Zm-12.1-6.429q.536.123,1.058.3a11.964,11.964,0,0,1,4.873,3.1,11.834,11.834,0,0,1,2.68,4.535l.01.031a11.876,11.876,0,0,1,.492,2.45l0,.03c.032.354.048.709.048,1.064v1.749c-.066-.018-.131-.034-.2-.048,0-.041,0-.083,0-.124a10.733,10.733,0,0,0-1.6-5.4.814.814,0,0,0-1.337-.069,1.127,1.127,0,0,1-2.022-.687.814.814,0,0,0-1.629,0,1.129,1.129,0,0,1-2.257,0,.814.814,0,0,0-1.629,0,1.129,1.129,0,1,1-2.257,0,.814.814,0,0,0-1.629,0,1.129,1.129,0,1,1-2.257,0,.814.814,0,0,0-1.629,0,1.127,1.127,0,0,1-2.021.687.814.814,0,0,0-1.337.069,10.544,10.544,0,0,0-1.011,2.127,11.2,11.2,0,0,0-.481,1.96A10.574,10.574,0,0,0,14.98,40.2c0,.039,0,.077,0,.116-.066.014-.132.03-.2.048V38.619a11.806,11.806,0,0,1,.821-4.326,11.969,11.969,0,0,1,6.639-6.65,11.756,11.756,0,0,1,6.989-.533ZM4.122,43.022a2.289,2.289,0,0,1-1.464-2.133,2.317,2.317,0,0,1,1.447-2.125l.011,0v3.88c0,.117,0,.234.006.35C4.122,43,4.122,43.011,4.122,43.022Zm1.692.792a10.057,10.057,0,0,1-.069-1.174V37.2a9.129,9.129,0,0,1,.912-3.983,2.758,2.758,0,0,0,3.24-.48,2.753,2.753,0,0,0,3.89,0,5.063,5.063,0,0,0,.476.379l.037.024.014.009c-.117.263-.225.53-.325.8s-.2.557-.281.84l0,.014a13.394,13.394,0,0,0-.554,3.819v2.655a3.91,3.91,0,0,0,2.019,6.735c.006.03.011.059.017.089l0,.012a11.671,11.671,0,0,0,1.87,4.422l-.014,0a9.979,9.979,0,0,1-11.23-8.72Zm6.8,13.742a.814.814,0,0,0,.649-.8V53.986l.085.017a11.664,11.664,0,0,0,4.847-.017v2.773a.814.814,0,0,0,.649.8A8.133,8.133,0,0,1,20.472,58a5.421,5.421,0,0,1-3.218,2.858,5.167,5.167,0,0,1-1.528.232,5.255,5.255,0,0,1-4.064-1.967,3.537,3.537,0,0,1-.674-1.128A10.692,10.692,0,0,1,12.611,57.556Zm.327,11.356a15.378,15.378,0,0,1,5.923-6.32l.009-.005a15.647,15.647,0,0,1,1.449-.747,9.125,9.125,0,0,0,.59,1.094,6.822,6.822,0,0,0,11.943-1.095c.4.18.791.376,1.174.59a15.385,15.385,0,0,1,4.431,3.735q.263.325.508.665a15.267,15.267,0,0,1,1.268,2.083H12.938Zm27.187-3.258a16.954,16.954,0,0,0-2.8-2.94h.121a6.905,6.905,0,0,0,5.4-2.659,6.815,6.815,0,0,0,.869-1.477,15.357,15.357,0,0,1,7.38,7.074Z" transform="translate(-0.001 -21.925)"/>
        </g>
      </g>
    </g>
  </g>
</svg>
