<svg xmlns="http://www.w3.org/2000/svg" xmlns:xlink="http://www.w3.org/1999/xlink" width="108" height="108" viewBox="0 0 108 108">
  <defs>
    <filter id="Path_978624" x="0" y="0" width="108" height="108" filterUnits="userSpaceOnUse">
      <feOffset dy="3" input="SourceAlpha"/>
      <feGaussianBlur stdDeviation="3" result="blur"/>
      <feFlood flood-opacity="0.161"/>
      <feComposite operator="in" in2="blur"/>
      <feComposite in="SourceGraphic"/>
    </filter>
    <clipPath id="clip-path">
      <rect id="Rectangle_405841" data-name="Rectangle 405841" width="58.827" height="57.854" fill="none"/>
    </clipPath>
  </defs>
  <g id="Group_1151680" data-name="Group 1151680" transform="translate(-200 -4356.71)">
    <g id="Group_1145467" data-name="Group 1145467" transform="translate(-1 4036.71)">
      <g transform="matrix(1, 0, 0, 1, 201, 320)" filter="url(#Path_978624)">
        <g id="Path_978624-2" data-name="Path 978624" transform="translate(9 6)" fill="#ffd8d1">
          <path d="M 45 88.5 C 39.12687683105469 88.5 33.43022537231445 87.35007476806641 28.06830024719238 85.08217620849609 C 22.88852500915527 82.89131164550781 18.23629951477051 79.75458526611328 14.2408504486084 75.75914764404297 C 10.24541282653809 71.76370239257812 7.108687400817871 67.11147308349609 4.917825222015381 61.93170166015625 C 2.649924993515015 56.56977462768555 1.5 50.87312316894531 1.5 45 C 1.5 39.12687683105469 2.649924993515015 33.43022537231445 4.917825222015381 28.06830024719238 C 7.108687400817871 22.88852500915527 10.24541282653809 18.23629951477051 14.2408504486084 14.2408504486084 C 18.23629951477051 10.24541282653809 22.88852500915527 7.108687400817871 28.06830024719238 4.917825222015381 C 33.43022537231445 2.649924993515015 39.12687683105469 1.5 45 1.5 C 50.87312316894531 1.5 56.56977462768555 2.649924993515015 61.93170166015625 4.917825222015381 C 67.11147308349609 7.108687400817871 71.76370239257812 10.24541282653809 75.75914764404297 14.2408504486084 C 79.75458526611328 18.23629951477051 82.89131164550781 22.88852500915527 85.08217620849609 28.06830024719238 C 87.35007476806641 33.43022537231445 88.5 39.12687683105469 88.5 45 C 88.5 50.87312316894531 87.35007476806641 56.56977462768555 85.08217620849609 61.93170166015625 C 82.89131164550781 67.11147308349609 79.75458526611328 71.76370239257812 75.75914764404297 75.75914764404297 C 71.76370239257812 79.75458526611328 67.11147308349609 82.89131164550781 61.93170166015625 85.08217620849609 C 56.56977462768555 87.35007476806641 50.87312316894531 88.5 45 88.5 Z" stroke="none"/>
          <path d="M 45 3 C 39.32871246337891 3 33.82865524291992 4.110054016113281 28.65262985229492 6.299339294433594 C 23.65165710449219 8.414573669433594 19.15968322753906 11.44334411621094 15.301513671875 15.301513671875 C 11.44334411621094 19.15968322753906 8.414573669433594 23.65165710449219 6.299339294433594 28.65262985229492 C 4.110054016113281 33.82865524291992 3 39.32871246337891 3 45 C 3 50.67128753662109 4.110054016113281 56.17134475708008 6.299339294433594 61.34737396240234 C 8.414573669433594 66.34834289550781 11.44334411621094 70.84031677246094 15.301513671875 74.698486328125 C 19.15968322753906 78.55665588378906 23.65165710449219 81.58542633056641 28.65262985229492 83.70066070556641 C 33.82865524291992 85.88994598388672 39.32871246337891 87 45 87 C 50.67128753662109 87 56.17134475708008 85.88994598388672 61.34737396240234 83.70066070556641 C 66.34834289550781 81.58542633056641 70.84031677246094 78.55665588378906 74.698486328125 74.698486328125 C 78.55665588378906 70.84031677246094 81.58542633056641 66.34834289550781 83.70066070556641 61.34737396240234 C 85.88994598388672 56.17134475708008 87 50.67128753662109 87 45 C 87 39.32871246337891 85.88994598388672 33.82865524291992 83.70066070556641 28.65262985229492 C 81.58542633056641 23.65165710449219 78.55665588378906 19.15968322753906 74.698486328125 15.301513671875 C 70.84031677246094 11.44334411621094 66.34834289550781 8.414573669433594 61.34737396240234 6.299339294433594 C 56.17134475708008 4.110054016113281 50.67128753662109 3 45 3 M 45 0 C 69.85281372070312 0 90 20.14718627929688 90 45 C 90 69.85281372070312 69.85281372070312 90 45 90 C 20.14718627929688 90 0 69.85281372070312 0 45 C 0 20.14718627929688 20.14718627929688 0 45 0 Z" stroke="none" fill="#ff7e67"/>
        </g>
      </g>
      <g id="Group_1145582" data-name="Group 1145582" transform="translate(228.173 341.399)">
        <g id="Group_1145581" data-name="Group 1145581" clip-path="url(#clip-path)">
          <path id="Path_979752" data-name="Path 979752" d="M16.344,34.8a1.488,1.488,0,0,1-.111-.508c.073-.884,2.694-1.922,3.387-2.586L32.857,15.326c.293-.517-.437-1.062-.586-1.563a2.078,2.078,0,0,1,.906-2.472c.9-.693,2.17-1.248,3.192-.478C42.027,19.426,47.4,28.329,52.7,37.175a1.983,1.983,0,0,1-.772,2.042c-.986.82-2.554,1.521-3.634.472-.262-.254-.757-1.324-1.007-1.331L30.461,42.026a12.3,12.3,0,0,1,.591,1.3,7.23,7.23,0,0,1,.116,1.433,2.972,2.972,0,0,1,1.946,3.334,2.942,2.942,0,0,1,1.815,4.066,2.8,2.8,0,0,1,.871,4.212,19.678,19.678,0,0,1-4.188,2.7,9.923,9.923,0,0,0-1.253.239c-1.393.553-2.821,2.034-4.351,2.42-1.894.477-3.6-.278-5.454-.548-.29.682-1.381,1.108-1.742,1.616-.18.253-.159.578-.3.845a5.31,5.31,0,0,1-2.48,2.225L1.94,65.894A2.165,2.165,0,0,1,.054,64.223a17.728,17.728,0,0,1,.1-3.785,2.4,2.4,0,0,1,.406-.626l8.626-6.865c.422-.38.938-.04,1.334-.154.221-.064,1.036-.99,1.453-1.191.572-.276,1.043-.018,1.526-.393l2.368-3.523c-.423-1-1.2.107-1.93.257-1.465.3-2.121-.272-2.878-1.381a22.614,22.614,0,0,1-2.168-3.8A2.611,2.611,0,0,1,10.7,39.827a5.129,5.129,0,0,1,.269-2.2c.4-.814,2.759-2.823,3.422-1.685.832,1.428-1.914,1.5-1.956,2.931-.024.83,1.274,2.4,1.726,3.151.415.688,2.03,3.694,2.526,3.959a.355.355,0,0,0,.33.044,15.605,15.605,0,0,1,1.69-2.5,16.923,16.923,0,0,1,4.629-2.716,3.11,3.11,0,0,1,.81-.052c-.577-1.034-1.215-2.035-1.834-3.044a5.142,5.142,0,0,0-.347-.4,2.9,2.9,0,0,0-.132-.379c-.662-1.061-1.3-2.138-2.006-3.173C19,33.9,17.046,35.988,16.344,34.8m19.969-16.18c-1.112.738-1.656-1.186-2.126-1.718-.1-.109-.144-.187-.286-.064l-12.7,15.724a1.239,1.239,0,0,0,.168.363c.6,1.253,1.591,2.411,2.316,3.6a46.888,46.888,0,0,0,2.587,4.355c.091.114.16.231.331.226L46.3,36.861a.87.87,0,0,0-.063-.454,42.5,42.5,0,0,0-2.807-4.366c-2.076-3.386-4.07-6.877-6.242-10.225-.43-.923.109-.853.16-1.251.67-.326,1.031-.041,1.427.467l8.213,13.189,2.4,4.079c.3.465,1.654-.424,1.6-.783-.677-1.091-1.335-2.191-2-3.287-.176-.289-.485-.589-.622-.813-.293-.48-.556-1.086-.87-1.6-4-6.513-8.068-12.986-12.042-19.516-.284-.373-1.544.522-1.549.738-.015.571,2.424,3.726,2.706,4.538a1.2,1.2,0,0,1-.3,1.034M11.486,41.353c-.51.3-1.044.447-.853,1.16.054.2,2.033,3.375,2.206,3.534.556.511,1.517-.121,1.423-.495L11.8,41.572Zm5.776,15.132a31.933,31.933,0,0,0,2.383,2.724c1.64.156,4.1,1.192,5.681.921a15.861,15.861,0,0,0,2.99-1.6c1.024-.737-1.028-.905-1.445-1.038-1.24-.4-1.932-1.591-2.608-2.613-.93-1.4-1.735-2.931-2.653-4.347-.381-.223-1.312,1.42-2.228.677-1.106-.895.78-1.806,1.256-2.423a3.624,3.624,0,0,0,.468-.794c.284-.7.153-1.523.977-1.835a3.018,3.018,0,0,1,2.525.344c.233.4.546.763.8,1.148.509.76.564,1.618,1.759,1.011.512-.26.832-.516.766-1.126A1.606,1.606,0,0,0,27.727,47a31.261,31.261,0,0,0-2.267-3.7,1.746,1.746,0,0,0-2.309-.6c-4.408,1.811-5.487,6.2-8.25,9.537-.253.306-.765.428-.568.811,1.006,1.122,1.951,2.3,2.929,3.443M28.853,43.058c-.325-.151-1.129-.209-1.328.113-.1.157.3.757.409.955.062.108.224.069.231.08.052.082.2.8.355.911a1.116,1.116,0,0,0,.333-2.058m2.066,3.557a1.287,1.287,0,0,0-1.368-.1c-.129.187.219.91.22,1.137a7.92,7.92,0,0,1-.465,1.521c-.07.135-.265.023-.223.2.98-.308,3.393-1.666,1.836-2.753M26.78,51.9a3.319,3.319,0,0,1-1.368-.756c-.661-.657-1.075-2.222-1.791-3.029-.182-.206-.289-.415-.619-.354-.054.459-.452.911-.289,1.369,1.53,2.14,2.673,4.65,4.428,6.6.56.319.995.246,1.021-.464.015-.414-.471-.541-.746-.844A2.889,2.889,0,0,1,26.78,51.9m1.73,1.024a1.1,1.1,0,0,0,1.292.665,25.97,25.97,0,0,0,3.038-1.786c.679-.53.96-1.3.146-1.863a.969.969,0,0,0-1.037-.175,35.067,35.067,0,0,0-3.09,1.844,1.18,1.18,0,0,0-.349,1.315m-14.116,4.59c1.095,1.294,2.14,2.649,3.283,3.9l.8-.568-.006-.225c-.977-1.289-2.118-2.448-3.16-3.678-.027-.032-.028-.189-.111-.287-.894-1.054-1.822-2.1-2.716-3.141-.223-.044-.921.527-.833.822.839,1.123,1.84,2.114,2.741,3.18m15.379-.8a1,1,0,0,0,1.294.663A26.872,26.872,0,0,0,34.241,55.5a1.031,1.031,0,0,0-.108-1.772c-.446-.279-.554-.255-1.032-.056a23.227,23.227,0,0,0-2.792,1.683c-.55.422-.782.673-.537,1.357m-16.3,2.525L9.9,54.9l-.259-.024L1.877,60.925a11.847,11.847,0,0,0-.114,2.737c.025.2.043.348.234.454,2.483.1,4.976.065,7.46.057,1.815-.006,4.308.2,6.027,0,.491-.058,1.309-.887,1.12-1.344Z" transform="translate(0 -8.041)" fill="#030302"/>
          <path id="Path_979753" data-name="Path 979753" d="M63.632,115.469l-7.8,4.7c-.451-.75-1.751-2.322-1.726-3.151.042-1.427,2.788-1.5,1.956-2.931l1.951-1.148c.7,1.192,2.66-.9,3.485-1.027.7,1.034,1.344,2.111,2.007,3.173a2.931,2.931,0,0,1,.132.379" transform="translate(-41.664 -86.19)" fill="#fb6e5a"/>
          <path id="Path_979754" data-name="Path 979754" d="M187.577.04a.9.9,0,0,1,1.13,1.129L186.165,7.7a.873.873,0,0,1-1.6-.683,55.7,55.7,0,0,1,2.5-6.45c.1-.171.327-.468.512-.523" transform="translate(-142.115 0)" fill="#050505"/>
          <path id="Path_979755" data-name="Path 979755" d="M219.062,83.379a6.069,6.069,0,0,1,1.352-.023c1.936.088,3.986.533,5.943.6a.9.9,0,0,1-.2,1.791l-6.865-.694c-.876-.2-.966-1.46-.229-1.673" transform="translate(-168.321 -64.173)" fill="#040404"/>
          <path id="Path_979756" data-name="Path 979756" d="M206.83,43.031a.864.864,0,0,1,.721,1.531,53.638,53.638,0,0,1-4.74,2.949c-1.078.361-1.715-.515-1.065-1.409Z" transform="translate(-155.167 -33.123)" fill="#050505"/>
          <path id="Path_979757" data-name="Path 979757" d="M107.353,39.821c.072.5,1.087,1.525,1.033,1.951-.051.4-.59.328-.16,1.251,2.172,3.347,4.166,6.838,6.242,10.225l-19.74,4.475c-.725-1.185-1.714-2.343-2.316-3.6a1.238,1.238,0,0,1-.167-.363l12.7-15.725c.142-.122.19-.045.286.064.47.532,1.014,2.456,2.126,1.718" transform="translate(-71.039 -29.246)" fill="#fbce64"/>
          <path id="Path_979758" data-name="Path 979758" d="M122.789,104.4a42.506,42.506,0,0,1,2.807,4.366.87.87,0,0,1,.063.454l-19.692,4.237c-.171.006-.24-.111-.331-.226a46.891,46.891,0,0,1-2.587-4.355Z" transform="translate(-79.36 -80.404)" fill="#f3b254"/>
          <path id="Path_979759" data-name="Path 979759" d="M75.805,154.9a3.039,3.039,0,0,1-2.525.115c-.258-.385-.57-.749-.8-1.148-.029-.05,0-.269-.089-.422a1.649,1.649,0,0,0-2.3-.82l-.134.9c-.823.312-.692,1.139-.977,1.835a3.628,3.628,0,0,1-.468.794c-.476.617-2.362,1.528-1.256,2.423.917.742,1.848-.9,2.228-.678.918,1.416,1.723,2.942,2.653,4.347a10.842,10.842,0,0,1-2.176,1.439c-1.667.757-3.1.158-4.825.168-.978-1.145-1.923-2.321-2.929-3.443-.2-.383.314-.506.568-.812,2.763-3.336,3.842-7.727,8.25-9.537a1.746,1.746,0,0,1,2.309.6,31.329,31.329,0,0,1,2.266,3.7,1.609,1.609,0,0,1,.209.536" transform="translate(-47.869 -115.408)" fill="#fce3cd"/>
          <path id="Path_979760" data-name="Path 979760" d="M15.273,213.029c-2.484.009-4.977.041-7.46-.057-.191-.106-.209-.259-.234-.454a11.846,11.846,0,0,1,.114-2.737l7.762-6.049.259.024,3.578,4.339Z" transform="translate(-5.815 -156.897)" fill="#395365"/>
          <path id="Path_979761" data-name="Path 979761" d="M161.938,39.365l-1.377.8-8.213-13.189c-.4-.508-.757-.793-1.427-.467.054-.426-.961-1.449-1.033-1.951a1.2,1.2,0,0,0,.3-1.034c-.283-.812-2.721-3.967-2.706-4.538.005-.217,1.266-1.111,1.549-.738,3.974,6.53,8.041,13,12.042,19.516.314.511.577,1.117.87,1.6" transform="translate(-113.574 -13.987)" fill="#f86d59"/>
          <path id="Path_979762" data-name="Path 979762" d="M69.416,127.367a5.1,5.1,0,0,1,.347.4c.619,1.009,1.257,2.011,1.834,3.044a3.123,3.123,0,0,0-.81.052,16.928,16.928,0,0,0-4.629,2.716,15.6,15.6,0,0,0-1.69,2.5.353.353,0,0,1-.33-.044c-.5-.264-2.111-3.27-2.526-3.959Z" transform="translate(-47.448 -98.087)" fill="#d53d38"/>
          <path id="Path_979763" data-name="Path 979763" d="M75.092,205.349c1.723-.01,3.157.589,4.825-.168a10.827,10.827,0,0,0,2.176-1.439c.676,1.022,1.368,2.217,2.608,2.614.417.133,2.469.3,1.445,1.038a15.862,15.862,0,0,1-2.991,1.6c-1.581.271-4.041-.765-5.681-.921a31.9,31.9,0,0,1-2.383-2.724" transform="translate(-57.83 -156.905)" fill="#ebd1ba"/>
          <path id="Path_979764" data-name="Path 979764" d="M41.144,227.645l4.017-4.934,3.131,3.592c.189.458-.629,1.286-1.12,1.344-1.719.2-4.212-.008-6.027,0" transform="translate(-31.686 -171.513)" fill="#17414d"/>
          <path id="Path_979765" data-name="Path 979765" d="M102.742,176.9a2.889,2.889,0,0,0,.637,2.518c.276.3.761.429.746.844-.026.71-.461.782-1.021.464-1.754-1.946-2.9-4.456-4.428-6.6-.163-.458.235-.91.289-1.369.33-.062.437.148.619.354.715.807,1.129,2.372,1.79,3.029a3.317,3.317,0,0,0,1.368.756" transform="translate(-75.962 -133.038)" fill="#32485a"/>
          <path id="Path_979766" data-name="Path 979766" d="M205.77,110.395c.137.224.445.524.622.813.668,1.1,1.327,2.2,2,3.287.056.359-1.3,1.247-1.6.783l-2.4-4.079Z" transform="translate(-157.406 -85.017)" fill="#d23d37"/>
          <path id="Path_979767" data-name="Path 979767" d="M46.975,144.908l.319.22,2.457,3.98c.094.373-.867,1.006-1.423.495-.172-.159-2.152-3.332-2.206-3.534-.191-.713.343-.863.853-1.16" transform="translate(-35.489 -111.596)" fill="#32485a"/>
          <path id="Path_979768" data-name="Path 979768" d="M63.529,212.727c1.042,1.23,2.183,2.389,3.16,3.678l.006.225-.8.568c-1.143-1.248-2.188-2.6-3.283-3.9Z" transform="translate(-48.218 -163.824)" fill="#909da3"/>
          <path id="Path_979769" data-name="Path 979769" d="M124.017,185.261a2.293,2.293,0,0,0,.9-.3,21.917,21.917,0,0,0,3.281-2.113,4.534,4.534,0,0,0,.291-.569c.814.567.533,1.332-.146,1.863a25.973,25.973,0,0,1-3.038,1.786,1.1,1.1,0,0,1-1.292-.665" transform="translate(-95.507 -140.374)" fill="#e9d0b9"/>
          <path id="Path_979770" data-name="Path 979770" d="M129.508,201.734a1.086,1.086,0,0,0,.619-.126,17.781,17.781,0,0,0,3.517-2.337c.137-.171.27-.258.225-.521a1.031,1.031,0,0,1,.108,1.772A26.89,26.89,0,0,1,130.8,202.4a1,1,0,0,1-1.294-.663" transform="translate(-99.736 -153.061)" fill="#e9d0b9"/>
          <path id="Path_979771" data-name="Path 979771" d="M128.247,181.441a4.532,4.532,0,0,1-.291.569,21.879,21.879,0,0,1-3.281,2.113,2.294,2.294,0,0,1-.9.3,1.18,1.18,0,0,1,.349-1.315,35.04,35.04,0,0,1,3.09-1.844.969.969,0,0,1,1.037.175" transform="translate(-95.262 -139.538)" fill="#f9e1ca"/>
          <path id="Path_979772" data-name="Path 979772" d="M54.32,201.236l-.918.574c-.9-1.065-1.9-2.057-2.741-3.18-.089-.3.61-.866.833-.822.894,1.04,1.823,2.087,2.716,3.141.083.1.083.255.111.287" transform="translate(-39.008 -152.334)" fill="#c5ced7"/>
          <path id="Path_979773" data-name="Path 979773" d="M133.543,198.055c.045.262-.088.35-.225.521a17.783,17.783,0,0,1-3.517,2.337,1.086,1.086,0,0,1-.619.126c-.245-.684-.013-.935.537-1.357A23.2,23.2,0,0,1,132.51,198c.479-.2.587-.223,1.033.056" transform="translate(-99.41 -152.365)" fill="#f9e1ca"/>
          <path id="Path_979774" data-name="Path 979774" d="M128.332,167.8c1.558,1.087-.856,2.445-1.836,2.753-.042-.176.153-.064.223-.2a7.9,7.9,0,0,0,.465-1.521c.513-.009.937-.62,1.148-1.033" transform="translate(-97.412 -129.226)" fill="#e4cbb4"/>
          <path id="Path_979775" data-name="Path 979775" d="M98.585,162.593a3.018,3.018,0,0,0-2.525-.344l.134-.9a1.65,1.65,0,0,1,2.3.82c.086.153.06.372.089.422" transform="translate(-73.977 -124.133)" fill="#e7ceb7"/>
          <path id="Path_979776" data-name="Path 979776" d="M113.063,171.794c.066.61-.254.867-.766,1.126-1.195.606-1.25-.252-1.759-1.012a3.039,3.039,0,0,0,2.525-.115" transform="translate(-85.127 -132.301)" fill="#e7ceb6"/>
          <path id="Path_979777" data-name="Path 979777" d="M123.208,152.326a1.116,1.116,0,0,1-.333,2.058c-.16-.111-.3-.829-.355-.91a3.1,3.1,0,0,0,.688-1.148" transform="translate(-94.355 -117.309)" fill="#e4cbb4"/>
          <path id="Path_979778" data-name="Path 979778" d="M129.822,166.965c-.211.413-.634,1.024-1.148,1.033,0-.227-.35-.95-.22-1.137a1.287,1.287,0,0,1,1.368.1" transform="translate(-98.902 -128.39)" fill="#f8e0c9"/>
          <path id="Path_979779" data-name="Path 979779" d="M121.013,151.918a3.1,3.1,0,0,1-.689,1.148c-.007-.01-.169.028-.231-.08-.113-.2-.506-.8-.409-.955.2-.322,1-.264,1.328-.113" transform="translate(-92.159 -116.901)" fill="#f6dec8"/>
        </g>
      </g>
    </g>
  </g>
</svg>
