<svg xmlns="http://www.w3.org/2000/svg" xmlns:xlink="http://www.w3.org/1999/xlink" width="108" height="108" viewBox="0 0 108 108">
  <defs>
    <filter id="Fondo" x="0" y="0" width="108" height="108" filterUnits="userSpaceOnUse">
      <feOffset dy="3" input="SourceAlpha"/>
      <feGaussianBlur stdDeviation="3" result="blur"/>
      <feFlood flood-opacity="0.161"/>
      <feComposite operator="in" in2="blur"/>
      <feComposite in="SourceGraphic"/>
    </filter>
    <clipPath id="clip-path">
      <rect id="Rectangle_405856" data-name="Rectangle 405856" width="74.457" height="65.052" fill="none"/>
    </clipPath>
  </defs>
  <g id="Group_1151657" data-name="Group 1151657" transform="translate(-177 -1478)">
    <g id="Icono" transform="translate(186 789)">
      <g transform="matrix(1, 0, 0, 1, -9, 689)" filter="url(#Fondo)">
        <g id="Fondo-2" data-name="Fondo" transform="translate(9 6)" fill="#effdfc" stroke="#70efea" stroke-width="3">
          <circle cx="45" cy="45" r="45" stroke="none"/>
          <circle cx="45" cy="45" r="43.5" fill="none"/>
        </g>
      </g>
      <g id="Group_1145596" data-name="Group 1145596" transform="translate(2 689.79)">
        <path id="Path_979881" data-name="Path 979881" d="M0,0V.152L.151,0Z" transform="translate(0 0)" fill="#fefefe"/>
        <path id="Path_979882" data-name="Path 979882" d="M0,273.652H.151L0,273.5Z" transform="translate(0 -190.481)" fill="#fefefe"/>
        <path id="Path_979883" data-name="Path 979883" d="M311.5,273.652h.152V273.5Z" transform="translate(-216.945 -190.481)" fill="#fefefe"/>
        <g id="Group_1145595" data-name="Group 1145595" transform="translate(6.543 14.12)">
          <g id="Group_1145594" data-name="Group 1145594" clip-path="url(#clip-path)">
            <path id="Path_979884" data-name="Path 979884" d="M39.216,126.954a1.834,1.834,0,0,0,1.129.6c.512,0,2.143-.747,2.905-.9,3.064-.6,11.175-.579,14.163.216,11.106,2.953,12.958,18.252,2.9,23.853-3.473,1.935-6.537,1.594-10.362,1.752L47.175,155.1c-.035-.773.184-1.876-.481-2.429-.591-.491-1.287-.221-1.953-.3-8.026-1-13.467-8.372-11.377-16.358.218-.834.98-1.987.6-2.789a5.179,5.179,0,0,0-.448-.561,7.707,7.707,0,0,1,1.544-2.375c1.076.992,2.788-.66,1.781-1.781a8.179,8.179,0,0,1,2.375-1.544m.563,8.934c-4.347.686-3.589,7.625,1.146,7.082,4.546-.521,3.8-7.863-1.146-7.082m9.5,0c-4.347.686-3.589,7.625,1.146,7.082,4.546-.521,3.8-7.863-1.146-7.082m9.5,0c-4.347.686-3.589,7.625,1.146,7.082,4.546-.521,3.8-7.863-1.146-7.082" transform="translate(-25.084 -96.336)" fill="#fdfdfd"/>
            <path id="Path_979885" data-name="Path 979885" d="M31.583,97.2c-.578-1.085.546-1.706,1.363-2.021,4.437-1.715,9.907-.641,14.586-.945A15.611,15.611,0,0,1,60.14,87.341c8.149-.408,16.107-.5,21.063,6.974A15.4,15.4,0,0,1,69.586,118.1c-.162,1.289.714,4.947-1.6,4.506-.877-.167-3.637-3.663-4.58-4.325l-4.2-.167a15.906,15.906,0,0,1-10.385,6.721c-1.841.277-3.644.065-5.494.206l-4.71,4.434c-2.229.51-1.445-3.3-1.579-4.486A15.437,15.437,0,0,1,23.4,105.7c.264-1.03.912-3.631,2.485-2.8a5.255,5.255,0,0,1,.448.561c.38.8-.382,1.956-.6,2.79-2.09,7.986,3.351,15.359,11.377,16.358.666.083,1.362-.187,1.953.3.666.553.447,1.656.482,2.429l2.781-2.621c3.825-.158,6.888.183,10.362-1.752,10.053-5.6,8.2-20.9-2.9-23.853-2.988-.795-11.1-.819-14.163-.216-.762.15-2.393.895-2.905.9a1.834,1.834,0,0,1-1.129-.6m28.86,18.642H64.3l2.79,2.612c.018-1.481-.276-2.512,1.5-2.716,2.591-.3,3.994-.379,6.329-1.746,10.039-5.874,7.751-21.224-3.553-23.857-2.657-.619-9.272-.484-12.179-.3-2.8.176-7.29,2.151-8.848,4.571a.5.5,0,0,0-.114.421c9.077,2.118,13.981,12.518,10.214,21.017" transform="translate(-17.45 -66.583)" fill="#030303"/>
            <path id="Path_979886" data-name="Path 979886" d="M74.415,58.325a12.4,12.4,0,0,1,8.5,2.122,11.379,11.379,0,0,1,1.749,1.577,1.229,1.229,0,0,1-1.223,1.826c-.445-.074-1.6-1.227-2.119-1.572a9.808,9.808,0,0,0-11.43.426c-.686.5-1.205,1.533-2.25,1.02-.865-.424-.8-1.314-.267-1.993,1.313-1.677,4.956-3.205,7.044-3.406" transform="translate(-51.043 -44.533)" fill="#030303"/>
            <path id="Path_979887" data-name="Path 979887" d="M167.369,29.436a12.346,12.346,0,0,1,8.067,2.075c.849.584,2.455,1.641,1.9,2.79-.841,1.757-2.4-.2-3.21-.772a9.791,9.791,0,0,0-10.91-.166c-.64.409-1.769,1.641-2.414,1.624a1.2,1.2,0,0,1-1.08-1.675,6.858,6.858,0,0,1,1.619-1.586,12.535,12.535,0,0,1,6.023-2.29" transform="translate(-121.669 -22.53)" fill="#030303"/>
            <path id="Path_979888" data-name="Path 979888" d="M185.153,54.172c-1.083,1.094-2.083-.49-3.084-.932a4.7,4.7,0,0,0-4.753.518c-.683.432-1.281,1.4-2.22.4-1.491-1.594,2.237-3.3,3.443-3.569a7.2,7.2,0,0,1,4.278.362c1,.392,3.59,1.956,2.336,3.222" transform="translate(-133.175 -38.556)" fill="#040404"/>
            <path id="Path_979889" data-name="Path 979889" d="M86.719,79.336A7.219,7.219,0,0,1,92.21,80.9c.639.566,1.164,1.158.574,2-.844,1.206-1.864-.064-2.554-.5a4.72,4.72,0,0,0-5.352.191c-.294.186-.567.6-.857.686a1.175,1.175,0,0,1-1.375-1.849,6.891,6.891,0,0,1,4.073-2.1" transform="translate(-62.755 -60.559)" fill="#030303"/>
            <path id="Path_979890" data-name="Path 979890" d="M42.542,134.57c1.006,1.121-.706,2.773-1.781,1.781a2.42,2.42,0,0,1-.365-.893,1.259,1.259,0,0,1,2.146-.888" transform="translate(-30.784 -102.408)" fill="#070707"/>
            <path id="Path_979891" data-name="Path 979891" d="M52.577,166.63c4.949-.781,5.693,6.561,1.146,7.082-4.735.543-5.494-6.4-1.146-7.082M52.93,169a1.194,1.194,0,0,0,.539,2.324A1.194,1.194,0,1,0,52.93,169" transform="translate(-37.881 -127.078)" fill="#020303"/>
            <path id="Path_979892" data-name="Path 979892" d="M92.513,166.63c4.949-.781,5.693,6.561,1.146,7.082-4.735.543-5.494-6.4-1.146-7.082M92.866,169a1.194,1.194,0,0,0,.539,2.324A1.194,1.194,0,1,0,92.866,169" transform="translate(-68.316 -127.078)" fill="#020303"/>
            <path id="Path_979893" data-name="Path 979893" d="M132.449,166.63c4.949-.781,5.693,6.561,1.146,7.082-4.735.543-5.494-6.4-1.146-7.082M132.8,169a1.194,1.194,0,0,0,.539,2.324A1.194,1.194,0,1,0,132.8,169" transform="translate(-98.751 -127.078)" fill="#020303"/>
            <path id="Path_979894" data-name="Path 979894" d="M147.959,123.816c3.767-8.5-1.137-18.9-10.214-21.017a.5.5,0,0,1,.114-.421c1.558-2.42,6.045-4.4,8.848-4.571,2.907-.182,9.522-.317,12.179.3,11.3,2.633,13.592,17.983,3.553,23.857-2.336,1.367-3.739,1.448-6.329,1.746-1.776.2-1.483,1.235-1.5,2.716l-2.79-2.612Z" transform="translate(-104.967 -74.557)" fill="#fdcc68"/>
            <path id="Path_979895" data-name="Path 979895" d="M60.463,176.654A1.193,1.193,0,1,1,61,178.978a1.193,1.193,0,0,1-.539-2.324" transform="translate(-45.414 -134.731)" fill="#32d0ee"/>
            <path id="Path_979896" data-name="Path 979896" d="M100.4,176.654a1.193,1.193,0,1,1,.539,2.324,1.193,1.193,0,0,1-.539-2.324" transform="translate(-75.849 -134.731)" fill="#32d0ee"/>
            <path id="Path_979897" data-name="Path 979897" d="M140.335,176.654a1.193,1.193,0,1,1,.539,2.324,1.193,1.193,0,0,1-.539-2.324" transform="translate(-106.284 -134.731)" fill="#32d0ee"/>
          </g>
        </g>
      </g>
    </g>
  </g>
</svg>
