<svg xmlns="http://www.w3.org/2000/svg" xmlns:xlink="http://www.w3.org/1999/xlink" width="108" height="108" viewBox="0 0 108 108">
  <defs>
    <filter id="Fondo" x="0" y="0" width="108" height="108" filterUnits="userSpaceOnUse">
      <feOffset dy="3" input="SourceAlpha"/>
      <feGaussianBlur stdDeviation="3" result="blur"/>
      <feFlood flood-opacity="0.161"/>
      <feComposite operator="in" in2="blur"/>
      <feComposite in="SourceGraphic"/>
    </filter>
  </defs>
  <g id="Group_1151658" data-name="Group 1151658" transform="translate(-121.169 -1478)">
    <g id="Icono" transform="translate(130.169 789)">
      <g transform="matrix(1, 0, 0, 1, -9, 689)" filter="url(#Fondo)">
        <g id="Fondo-2" data-name="Fondo" transform="translate(9 6)" fill="#effdfc" stroke="#70efea" stroke-width="3">
          <circle cx="45" cy="45" r="45" stroke="none"/>
          <circle cx="45" cy="45" r="43.5" fill="none"/>
        </g>
      </g>
      <g id="generacion-futura" transform="translate(14.367 682.02)">
        <path id="Path_989775" data-name="Path 989775" d="M29.7,265.4a5.453,5.453,0,0,0-1.92-.348H24.142a6.992,6.992,0,0,1-2.252.373H18.928a6.993,6.993,0,0,1-2.252-.373H13.034A5.558,5.558,0,0,0,7.6,269.584h0a1.872,1.872,0,0,0-.1.605v11.907a1.888,1.888,0,0,0,1.879,1.886H22.3v-4.028a.6.6,0,0,1,.6-.6h1.3A13.3,13.3,0,0,1,29.7,265.4Z" transform="translate(-6.603 -203.988)" fill="#ffdc48"/>
        <path id="Path_989776" data-name="Path 989776" d="M22.295,303.988H12.979c-1.033,0-1.565-.445-1.565-1.482V294.1a1.888,1.888,0,0,0-1.879-1.886H9.379A1.888,1.888,0,0,0,7.5,294.1v11.907a1.888,1.888,0,0,0,1.879,1.886H22.295v-3.9Z" transform="translate(-6.603 -227.9)" fill="#fea613"/>
        <path id="Path_989777" data-name="Path 989777" d="M22.295,306.128H11.173a1.888,1.888,0,0,1-1.879-1.886V292.335c0-.03,0-.058,0-.087a1.887,1.887,0,0,0-1.8,1.882v11.907a1.888,1.888,0,0,0,1.879,1.886H22.295v-1.795Z" transform="translate(-6.603 -227.93)" fill="#fe9901"/>
        <path id="Path_989778" data-name="Path 989778" d="M131.139,389.546a.6.6,0,0,0,.6.6h2.855a.6.6,0,0,0,.6-.6v-4.36a.6.6,0,0,0-.6-.6h-2.855a.6.6,0,0,0-.6.6Z" transform="translate(-115.447 -309.221)" fill="#fed2a4"/>
        <path id="Path_989779" data-name="Path 989779" d="M22.933,54.643h1.931V52.466a1,1,0,0,1,.994-1h5.69a5.806,5.806,0,0,0,3.674-1.316.986.986,0,0,1,1.253,0,5.807,5.807,0,0,0,3.674,1.316h.871a1,1,0,0,1,.994,1v2.176h1.931a2.172,2.172,0,0,1,.63.094v-8.19a5.7,5.7,0,0,0-5.648-5.711H27.951A5.7,5.7,0,0,0,22.3,46.547v8.19A2.174,2.174,0,0,1,22.933,54.643Z" transform="translate(-19.634 -6.603)" fill="#d78878"/>
        <path id="Path_989780" data-name="Path 989780" d="M22.934,54.643h1.931V52.466a1,1,0,0,1,.994-1h.633V46.547a5.7,5.7,0,0,1,5.648-5.711H27.952A5.7,5.7,0,0,0,22.3,46.547v8.19a2.172,2.172,0,0,1,.63-.094Z" transform="translate(-19.635 -6.603)" fill="#ca6e59"/>
        <g id="Group_1150846" data-name="Group 1150846" transform="translate(1.084 43.318)">
          <path id="Path_989781" data-name="Path 989781" d="M97.393,267.443H94.432a7.04,7.04,0,0,1-1.165-.1v1.6a2.183,2.183,0,0,0,2.164,2.188h.962a2.183,2.183,0,0,0,2.164-2.188v-1.6A7.038,7.038,0,0,1,97.393,267.443Z" transform="translate(-83.19 -249.326)" fill="#fed2a4"/>
          <path id="Path_989782" data-name="Path 989782" d="M13.2,162.44v-6.223H11.271a2.235,2.235,0,0,0-2.216,2.24v2.169a2.235,2.235,0,0,0,2.216,2.24h1.945C13.207,162.725,13.2,162.584,13.2,162.44Z" transform="translate(-9.055 -151.495)" fill="#fed2a4"/>
          <path id="Path_989783" data-name="Path 989783" d="M188.865,156.217h-1.931v6.223c0,.143-.005.285-.014.427h1.945a2.235,2.235,0,0,0,2.216-2.24v-2.169a2.235,2.235,0,0,0-2.216-2.24Z" transform="translate(-165.637 -151.495)" fill="#fed2a4"/>
          <path id="Path_989784" data-name="Path 989784" d="M50.8,134.876A7.142,7.142,0,0,1,43.71,127.7v-8.4a1,1,0,0,1,.994-1h5.69a5.806,5.806,0,0,0,3.674-1.316.986.986,0,0,1,1.253,0A5.807,5.807,0,0,0,59,118.3h.871a1,1,0,0,1,.994,1v8.4a7.142,7.142,0,0,1-7.094,7.173Z" transform="translate(-39.563 -116.759)" fill="#fed2a4"/>
        </g>
        <path id="Path_989785" data-name="Path 989785" d="M46.7,139.065a.9.9,0,1,1,0-1.756v-6.67a1,1,0,0,1,.994-1H44.7a1,1,0,0,0-.994,1v8.4a7.142,7.142,0,0,0,7.095,7.173H53.78A7.141,7.141,0,0,1,46.7,139.065Z" transform="translate(-38.479 -84.776)" fill="#ffbd86"/>
        <path id="Path_989786" data-name="Path 989786" d="M299.561,212.369a5.448,5.448,0,0,1,1.918-.349h3.642a7.175,7.175,0,0,1-4.833-6.442h-1.723a2.156,2.156,0,0,1-1.642-.766v6.164A13.371,13.371,0,0,1,299.561,212.369Z" transform="translate(-261.393 -150.957)" fill="#fe9901"/>
        <path id="Path_989787" data-name="Path 989787" d="M434.38,205.578h-1.723a7.175,7.175,0,0,1-4.833,6.442h3.642a5.514,5.514,0,0,1,4.556,2.424v-9.633A2.155,2.155,0,0,1,434.38,205.578Z" transform="translate(-376.63 -150.957)" fill="#fe9901"/>
        <path id="Path_989788" data-name="Path 989788" d="M298.565,54.711h1.714V52.467a1,1,0,0,1,.994-1h5.69a5.806,5.806,0,0,0,3.674-1.316.986.986,0,0,1,1.253,0,5.807,5.807,0,0,0,3.674,1.316h.871a1,1,0,0,1,.994,1v2.245h1.714a2.156,2.156,0,0,1,1.642.766V50.815a9.936,9.936,0,0,0-9.871-9.979h-4.12a9.936,9.936,0,0,0-9.87,9.979v4.662A2.156,2.156,0,0,1,298.565,54.711Z" transform="translate(-261.393 -6.603)" fill="#fe9901"/>
        <path id="Path_989789" data-name="Path 989789" d="M299.561,212.369a5.441,5.441,0,0,1,1.631-.341v-3.295a7.178,7.178,0,0,1-.9-3.155h-1.723a2.155,2.155,0,0,1-1.642-.766v6.164A13.368,13.368,0,0,1,299.561,212.369Z" transform="translate(-261.394 -150.957)" fill="#fb8801"/>
        <path id="Path_989790" data-name="Path 989790" d="M298.565,54.712h1.714V52.468a1,1,0,0,1,.912-1v-.651a9.936,9.936,0,0,1,9.8-9.977l-.074,0h-4.12a9.936,9.936,0,0,0-9.87,9.979v4.662A2.155,2.155,0,0,1,298.565,54.712Z" transform="translate(-261.393 -6.603)" fill="#fb8801"/>
        <path id="Path_989791" data-name="Path 989791" d="M324.459,279.355h1.3a.6.6,0,0,1,.6.6v.123h9.316c1.033,0,1.565-.445,1.565-1.482v-8.407a1.888,1.888,0,0,1,1.879-1.886h.156a1.885,1.885,0,0,1,1.777,1.282,5.558,5.558,0,0,0-5.432-4.533h-3.642a6.993,6.993,0,0,1-2.252.373h-2.961a6.994,6.994,0,0,1-2.252-.373h-3.642a5.452,5.452,0,0,0-1.92.348,13.3,13.3,0,0,1,5.508,13.956Z" transform="translate(-280.785 -203.988)" fill="#b3dafe"/>
        <path id="Path_989792" data-name="Path 989792" d="M378.649,267.443h-2.961a7.039,7.039,0,0,1-1.165-.1v1.6a2.183,2.183,0,0,0,2.164,2.188h.962a2.183,2.183,0,0,0,2.164-2.188v-1.6A7.04,7.04,0,0,1,378.649,267.443Z" transform="translate(-329.707 -206.007)" fill="#d78878"/>
        <path id="Path_989793" data-name="Path 989793" d="M376.915,268.947v-1.5h-1.229a7.039,7.039,0,0,1-1.165-.1v1.6a2.183,2.183,0,0,0,2.164,2.188h.962a2.117,2.117,0,0,0,.716-.126A2.193,2.193,0,0,1,376.915,268.947Z" transform="translate(-329.707 -206.007)" fill="#ca6e59"/>
        <path id="Path_989794" data-name="Path 989794" d="M296.395,162.945v-6.154h-1.714a2.188,2.188,0,0,0-2.17,2.194v2.124a2.188,2.188,0,0,0,2.17,2.194H296.4Q296.395,163.126,296.395,162.945Z" transform="translate(-257.509 -108.682)" fill="#d78878"/>
        <path id="Path_989795" data-name="Path 989795" d="M469.938,156.792h-1.714v6.154q0,.18-.009.358h1.723a2.188,2.188,0,0,0,2.17-2.194v-2.124A2.188,2.188,0,0,0,469.938,156.792Z" transform="translate(-412.188 -108.683)" fill="#d78878"/>
        <path id="Path_989796" data-name="Path 989796" d="M332.06,134.876a7.142,7.142,0,0,1-7.095-7.173v-8.4a1,1,0,0,1,.994-1h5.69a5.806,5.806,0,0,0,3.674-1.316.986.986,0,0,1,1.253,0,5.806,5.806,0,0,0,3.674,1.316h.871a1,1,0,0,1,.994,1v8.4a7.142,7.142,0,0,1-7.094,7.173Z" transform="translate(-286.08 -73.441)" fill="#d78878"/>
        <path id="Path_989797" data-name="Path 989797" d="M327.958,139.08a.916.916,0,0,1-.1.006.9.9,0,1,1,.1-1.789v-6.656a1,1,0,0,1,.994-1H325.96a1,1,0,0,0-.994,1v8.4a7.142,7.142,0,0,0,7.095,7.173h2.976A7.141,7.141,0,0,1,327.958,139.08Z" transform="translate(-286.08 -84.777)" fill="#ca6e59"/>
        <path id="Path_989798" data-name="Path 989798" d="M157.622,248.631A13.318,13.318,0,0,0,144.581,264.9h1.554a.6.6,0,0,1,.6.6v4.176a13.408,13.408,0,0,0,21.778,0V265.5a.6.6,0,0,1,.6-.6h1.554a13.318,13.318,0,0,0-13.041-16.269Z" transform="translate(-126.989 -189.533)" fill="#08a9f1"/>
        <path id="Path_989799" data-name="Path 989799" d="M154.8,273.938a13.292,13.292,0,0,1,0-23.986,4.024,4.024,0,0,1,2.82-1.321A13.318,13.318,0,0,0,144.581,264.9h1.554a.6.6,0,0,1,.6.6v4.176a13.373,13.373,0,0,0,10.889,5.585A4.023,4.023,0,0,1,154.8,273.938Z" transform="translate(-126.989 -189.533)" fill="#0290cf"/>
        <ellipse id="Ellipse_11558" data-name="Ellipse 11558" cx="6.485" cy="13.314" rx="6.485" ry="13.314" transform="translate(24.149 59.098)" fill="#97d729"/>
        <path id="Path_989800" data-name="Path 989800" d="M204.8,261.945c0-6.3,2.129-11.571,4.989-12.958a3.4,3.4,0,0,0-1.5-.357c-3.581,0-6.485,5.961-6.485,13.314s2.9,13.314,6.485,13.314a3.406,3.406,0,0,0,1.5-.357c-2.86-1.387-4.989-6.661-4.989-12.958Z" transform="translate(-177.66 -189.533)" fill="#8bc727"/>
        <path id="Path_989801" data-name="Path 989801" d="M393.777,292.213h-.156a1.888,1.888,0,0,0-1.879,1.886v8.406c0,1.037-.532,1.482-1.565,1.482h-9.315v3.9h12.916a1.888,1.888,0,0,0,1.879-1.886V294.1A1.888,1.888,0,0,0,393.777,292.213Z" transform="translate(-335.287 -227.9)" fill="#8ac9fe"/>
        <path id="Path_989802" data-name="Path 989802" d="M351.052,389.546a.6.6,0,0,1-.6.6H347.6a.6.6,0,0,1-.6-.6v-4.36a.6.6,0,0,1,.6-.6h2.855a.6.6,0,0,1,.6.6Z" transform="translate(-305.478 -309.221)" fill="#d78878"/>
        <path id="Path_989803" data-name="Path 989803" d="M78.193,158.635a.9.9,0,0,0,.9-.9v-1.223a.9.9,0,1,0-1.795,0v1.223A.9.9,0,0,0,78.193,158.635Z" transform="translate(-68.047 -107.649)"/>
        <path id="Path_989804" data-name="Path 989804" d="M139.347,158.635a.9.9,0,0,0,.9-.9v-1.223a.9.9,0,1,0-1.795,0v1.223A.9.9,0,0,0,139.347,158.635Z" transform="translate(-121.883 -107.649)"/>
        <path id="Path_989805" data-name="Path 989805" d="M84.463,209.985a3.7,3.7,0,1,0,7.4,0,.9.9,0,1,0-1.795,0,1.9,1.9,0,1,1-3.807,0,.9.9,0,1,0-1.795,0Z" transform="translate(-74.356 -154.721)"/>
        <path id="Path_989806" data-name="Path 989806" d="M105.228,174.812h.847a.9.9,0,1,0,0-1.795h-.309V171.96a.9.9,0,0,0-1.795,0v1.6A1.258,1.258,0,0,0,105.228,174.812Z" transform="translate(-91.531 -121.247)"/>
        <path id="Path_989807" data-name="Path 989807" d="M360.347,157.738v-1.223a.9.9,0,1,0-1.795,0v1.223a.9.9,0,1,0,1.795,0Z" transform="translate(-315.648 -107.649)"/>
        <path id="Path_989808" data-name="Path 989808" d="M420.6,155.618a.9.9,0,0,0-.9.9v1.223a.9.9,0,0,0,1.795,0v-1.223A.9.9,0,0,0,420.6,155.618Z" transform="translate(-369.484 -107.65)"/>
        <path id="Path_989809" data-name="Path 989809" d="M372.219,209.088a.9.9,0,0,0-.9.9,1.9,1.9,0,1,1-3.807,0,.9.9,0,1,0-1.795,0,3.7,3.7,0,1,0,7.4,0A.9.9,0,0,0,372.219,209.088Z" transform="translate(-321.957 -154.721)"/>
        <path id="Path_989810" data-name="Path 989810" d="M386.483,174.812h.847a.9.9,0,1,0,0-1.795h-.309V171.96a.9.9,0,1,0-1.795,0v1.6A1.258,1.258,0,0,0,386.483,174.812Z" transform="translate(-339.131 -121.247)"/>
        <circle id="Ellipse_11559" data-name="Ellipse 11559" cx="0.897" cy="0.897" r="0.897" transform="translate(7.138 52.514)"/>
        <circle id="Ellipse_11560" data-name="Ellipse 11560" cx="0.897" cy="0.897" r="0.897" transform="translate(18.607 52.514)"/>
        <circle id="Ellipse_11561" data-name="Ellipse 11561" cx="0.897" cy="0.897" r="0.897" transform="translate(40.882 52.514)"/>
        <circle id="Ellipse_11562" data-name="Ellipse 11562" cx="0.897" cy="0.897" r="0.897" transform="translate(52.351 52.514)"/>
        <path id="Path_989811" data-name="Path 989811" d="M61.137,65.361a6.484,6.484,0,0,0-.848-2.138V54.159a3.091,3.091,0,0,0,.528-1.732V50.3a3.091,3.091,0,0,0-.528-1.732V44.213A10.835,10.835,0,0,0,49.52,33.336H45.4A10.835,10.835,0,0,0,34.632,44.213V48.57A3.091,3.091,0,0,0,34.1,50.3v2.124a3.091,3.091,0,0,0,.528,1.732V58.77a14.308,14.308,0,0,0-11.656,1.655,6.342,6.342,0,0,0-1.8-.259h-.452a8.084,8.084,0,0,0,2.44-4.578h1.143a3.129,3.129,0,0,0,3.113-3.138V50.28a3.143,3.143,0,0,0-1.585-2.732v-1.96a.9.9,0,0,0-1.795,0v1.555h-.767V45.864a1.9,1.9,0,0,0-1.891-1.9h-.871a4.907,4.907,0,0,1-3.1-1.113,1.883,1.883,0,0,0-2.392,0,4.906,4.906,0,0,1-3.1,1.113H6.224a1.9,1.9,0,0,0-1.891,1.9v1.279H3.566v-7.2a4.787,4.787,0,0,1,4.75-4.813H19.294a4.787,4.787,0,0,1,4.75,4.813V41.4a.9.9,0,1,0,1.795,0V39.944a6.584,6.584,0,0,0-6.545-6.608H8.317a6.584,6.584,0,0,0-6.545,6.608v7.6A3.144,3.144,0,0,0,.186,50.28v2.169A3.129,3.129,0,0,0,3.3,55.587H4.442a8.084,8.084,0,0,0,2.441,4.578H6.431a6.457,6.457,0,0,0-6.3,5.2A2.779,2.779,0,0,0,0,66.2V78.107A2.783,2.783,0,0,0,2.776,80.89h12.13a1.5,1.5,0,0,0,1.384.93h2.855a1.485,1.485,0,0,0,.665-.158,14.285,14.285,0,0,0,21.645,0,1.484,1.484,0,0,0,.665.158h2.855a1.5,1.5,0,0,0,1.384-.93h3.48a.9.9,0,1,0,0-1.795H46.471v-2.11h8.418a2.2,2.2,0,0,0,2.463-2.38V66.2a.986.986,0,0,1,.981-.989h.157a.986.986,0,0,1,.981.989V78.106a.986.986,0,0,1-.981.989H54.028a.9.9,0,0,0,0,1.795H58.49a2.783,2.783,0,0,0,2.776-2.784V66.2A2.778,2.778,0,0,0,61.137,65.361ZM23.278,48.937h1.034A1.332,1.332,0,0,1,25.63,50.28v2.169a1.332,1.332,0,0,1-1.318,1.343H23.278ZM4.333,53.792H3.3a1.332,1.332,0,0,1-1.318-1.343V50.28A1.332,1.332,0,0,1,3.3,48.937H4.333Zm22.037,6.95a14.467,14.467,0,0,0-2.141,4.5H20.455a12.53,12.53,0,0,1,5.915-4.5Zm-2.591,6.293a26.227,26.227,0,0,0-.514,4.479H18.191a12.28,12.28,0,0,1,1.2-4.479ZM6.128,54.263v-8.4a.1.1,0,0,1,.1-.107h5.69a6.706,6.706,0,0,0,4.243-1.52.089.089,0,0,1,.114,0,6.706,6.706,0,0,0,4.243,1.52h.871a.1.1,0,0,1,.1.107v8.4a6.243,6.243,0,0,1-6.2,6.275H12.325A6.244,6.244,0,0,1,6.128,54.263Zm9.426,8.063v.614a1.28,1.28,0,0,1-1.267,1.291h-.962a1.28,1.28,0,0,1-1.267-1.291v-.614c.089,0,.178.007.267.007h2.961C15.376,62.333,15.464,62.329,15.553,62.326Zm.737,12.143a1.5,1.5,0,0,0-1.277.721H6.377c-.322,0-.45,0-.563-.115s-.1-.236-.1-.469V72.751a.9.9,0,1,0-1.795,0v1.855a2.2,2.2,0,0,0,2.463,2.38h8.418V79.1H2.776a.986.986,0,0,1-.981-.989V66.2a.986.986,0,0,1,.981-.989h.157a.986.986,0,0,1,.981.989v2.363a.9.9,0,1,0,1.795,0V66.2a2.784,2.784,0,0,0-2.63-2.78,4.591,4.591,0,0,1,3.352-1.459H9.924c.112.036.225.068.339.1v.881a3.077,3.077,0,0,0,3.062,3.086h.962a3.077,3.077,0,0,0,3.062-3.086V62.06c.114-.031.227-.063.339-.1h3.288A14.141,14.141,0,0,0,16.514,74.47H16.29Zm2.556,5.556H16.59V76.264h2.257Zm.3-5.556h-.814q-.1-.571-.14-1.16h5.073a26.229,26.229,0,0,0,.514,4.479H20.641V75.965A1.5,1.5,0,0,0,19.146,74.469Zm1.5,5.367v-.253h3.588a14.469,14.469,0,0,0,2.14,4.5A12.527,12.527,0,0,1,20.641,79.837Zm9.094,4.813a6.207,6.207,0,0,1-2.881-3.216,14.971,14.971,0,0,1-.744-1.85h3.625Zm0-6.861h-4.12a24.192,24.192,0,0,1-.553-4.479h4.673Zm0-6.274H25.063a24.192,24.192,0,0,1,.553-4.479h4.12Zm0-6.274H26.11a14.977,14.977,0,0,1,.744-1.85,6.207,6.207,0,0,1,2.881-3.216Zm6.692-21.028A9.038,9.038,0,0,1,45.4,35.131h4.12a9.038,9.038,0,0,1,8.973,9.082V47.3a3.037,3.037,0,0,0-.744-.092h-.816V45.864a1.9,1.9,0,0,0-1.891-1.9h-.871a4.907,4.907,0,0,1-3.1-1.113,1.883,1.883,0,0,0-2.392,0,4.906,4.906,0,0,1-3.1,1.113h-5.69a1.9,1.9,0,0,0-1.891,1.9v1.347h-.816a3.042,3.042,0,0,0-.744.092ZM48.941,60.538H45.98a6.244,6.244,0,0,1-6.2-6.275v-8.4a.1.1,0,0,1,.1-.107h5.69a6.705,6.705,0,0,0,4.243-1.52.089.089,0,0,1,.115,0,6.706,6.706,0,0,0,4.244,1.52h.871a.1.1,0,0,1,.1.107v8.4a6.243,6.243,0,0,1-6.2,6.275Zm.267,1.788v.614a1.28,1.28,0,0,1-1.267,1.291H46.98a1.28,1.28,0,0,1-1.267-1.291v-.614c.089,0,.178.007.267.007h2.961c.09,0,.178,0,.267-.007Zm-8.671-2.161h-.452a6.338,6.338,0,0,0-1.8.259,14.279,14.279,0,0,0-1.863-1v-4a3.042,3.042,0,0,0,.744.093h.914A8.084,8.084,0,0,0,40.538,60.166ZM35.9,50.3a1.286,1.286,0,0,1,1.272-1.3h.816v4.717h-.816a1.286,1.286,0,0,1-1.272-1.3Zm4.912,14.939H37.037a14.465,14.465,0,0,0-2.141-4.5A12.532,12.532,0,0,1,40.811,65.241Zm1.065,1.795a12.28,12.28,0,0,1,1.2,4.479H38a26.215,26.215,0,0,0-.514-4.479ZM31.53,60.175a6.207,6.207,0,0,1,2.881,3.216,14.977,14.977,0,0,1,.744,1.85H31.53Zm0,6.861h4.12a24.21,24.21,0,0,1,.553,4.479H31.53Zm0,6.274H36.2a24.2,24.2,0,0,1-.553,4.479H31.53Zm0,11.34V79.584h3.625a14.953,14.953,0,0,1-.744,1.85A6.207,6.207,0,0,1,31.53,84.65Zm9.094-4.813A12.529,12.529,0,0,1,34.9,84.08a14.471,14.471,0,0,0,2.14-4.5h3.588Zm0-3.872v1.824H37.487A26.217,26.217,0,0,0,38,73.31h5.073q-.043.588-.14,1.16H42.12a1.5,1.5,0,0,0-1.5,1.5Zm4.052,4.061H42.42V76.264h2.257ZM55.557,66.2v8.406c0,.233.024.34-.1.469s-.241.115-.563.115H46.253a1.5,1.5,0,0,0-1.277-.721h-.224a14.141,14.141,0,0,0-4.461-12.509h3.288c.112.036.225.068.339.1v.881a3.077,3.077,0,0,0,3.062,3.086h.962A3.077,3.077,0,0,0,51,62.94v-.881c.114-.031.227-.063.339-.1h3.493a4.59,4.59,0,0,1,3.352,1.459A2.784,2.784,0,0,0,55.557,66.2Zm2.936-4.877a6.351,6.351,0,0,0-3.658-1.157h-.452a8.084,8.084,0,0,0,2.453-4.647h.914a3.043,3.043,0,0,0,.744-.092Zm.528-8.9a1.286,1.286,0,0,1-1.272,1.3h-.816V49.006h.816a1.286,1.286,0,0,1,1.272,1.3Z" transform="translate(0)"/>
      </g>
    </g>
  </g>
</svg>
