<svg xmlns="http://www.w3.org/2000/svg" xmlns:xlink="http://www.w3.org/1999/xlink" width="108" height="108" viewBox="0 0 108 108">
  <defs>
    <filter id="Fondo" x="0" y="0" width="108" height="108" filterUnits="userSpaceOnUse">
      <feOffset dy="3" input="SourceAlpha"/>
      <feGaussianBlur stdDeviation="3" result="blur"/>
      <feFlood flood-opacity="0.161"/>
      <feComposite operator="in" in2="blur"/>
      <feComposite in="SourceGraphic"/>
    </filter>
    <clipPath id="clip-path">
      <rect id="Rectangle_405912" data-name="Rectangle 405912" width="57.797" height="55.325" fill="none"/>
    </clipPath>
  </defs>
  <g id="Group_1151666" data-name="Group 1151666" transform="translate(-121.169 -1478)">
    <g id="Icono" transform="translate(130.169 789)">
      <g transform="matrix(1, 0, 0, 1, -9, 689)" filter="url(#Fondo)">
        <g id="Fondo-2" data-name="Fondo" transform="translate(9 6)" fill="#effdfc" stroke="#70efea" stroke-width="3">
          <circle cx="45" cy="45" r="45" stroke="none"/>
          <circle cx="45" cy="45" r="43.5" fill="none"/>
        </g>
      </g>
      <g id="Group_1151303" data-name="Group 1151303" transform="translate(16.102 712.337)">
        <g id="Group_1151302" data-name="Group 1151302" clip-path="url(#clip-path)">
          <path id="Path_990249" data-name="Path 990249" d="M149.906,27.112v1.241c-.8,2.757-3.985,3.954-5.53,6.037-1.67,2.251,1.556,6.622.371,9.624-1.326,3.356-6.745,1.753-9.288,3.014-1.335.662-1.116,2.7-2.708,2.54a1.3,1.3,0,0,1-.226-1.693c1.777-3.933,5.7-2.647,9.033-3.438,1.79-.425,1.893-1.374,1.658-3.02-.561-3.928-2.6-5.933.932-9.286,1.136-1.077,4.294-2.98,4.04-4.709-.309-2.1-5.051-4.019-5.878-6.766-.768-2.549,1.09-5.37,1.027-7.82-.063-2.4-3.126-2.018-4.772-2.2-3.762-.421-4.768-.523-6.4-4.1-.583-1.28-1.484-4.809-3.2-4.817-1.419-.006-4.41,2.443-5.962,3.068-3.711,1.494-5.506-1.271-8.5-2.6-1.829-.812-2.515-.449-3.412,1.3-1.2,2.327-1.587,5.688-4.42,6.64-.765.257-2.672.812-2.817-.39-.135-1.119,1.678-1,2.4-1.267,2.511-.928,2.461-6.92,5.583-8.185C115.261-1.1,118.5,3.974,121.5,3.5c2.9-.458,6.619-5.611,9.793-2.516,1.7,1.661,2.382,6.2,3.951,7.221,2.653,1.723,9.965-.832,9.819,4.861-.061,2.389-2.139,6.041-.573,8.012,1.659,2.089,4.7,3.228,5.42,6.034" transform="translate(-92.109 0.001)" fill="#040403"/>
          <path id="Path_990250" data-name="Path 990250" d="M9.607,81.744c.113.97-1.113.981-1.69,1.188-1.434.515-1.411,1.471-1.229,2.8.42,3.069,2.3,5.837-.128,8.648-1.121,1.3-4.915,3.47-4.858,5.244.058,1.815,4.317,4.145,5.4,5.892,1.814,2.921-.534,5.893-.532,8.794,0,1.683,1.244,1.977,2.655,2.174,4.5.629,6.329-.553,8.526,4.227.577,1.255,1.434,4.582,3,4.794,1.736.234,5.222-3.174,7.428-3.467,3.571-.474,6.008,3.36,8.583,3.482,1.66.079,1.757-2.505,3.088-2.138a1.413,1.413,0,0,1,.552.844,5.889,5.889,0,0,1-1.287,2.089,4.727,4.727,0,0,1-1.748.9H36.241c-2.1-.537-3.707-2.125-5.619-3.014a3.255,3.255,0,0,0-3.434,0c-1.94.9-3.561,2.558-5.732,3.014H20.328c-3.38-.986-3.3-5.374-5.145-7.664-1.1-1.363-3.593-1.084-5.18-1.252-4.176-.443-5.691-1.589-4.858-5.984.363-1.913,1.645-4.442.289-6.149C3.556,103.808-1.447,101.789.4,97.99c1.043-2.14,4.972-4.063,5.536-5.862.943-3-3.687-8.947,1.3-10.776.656-.241,2.246-.658,2.368.393" transform="translate(0 -71.897)" fill="#030403"/>
          <path id="Path_990251" data-name="Path 990251" d="M91.863,61.377c-1.194.176-2.37.513-3.57.663A26.824,26.824,0,0,1,58.006,35.986c2.427-2.811.548-5.579.128-8.648-.182-1.332-.2-2.288,1.229-2.8.577-.207,1.8-.218,1.69-1.188l2.144-.113c.145,1.2,2.052.647,2.817.39,2.833-.952,3.222-4.313,4.42-6.64.9-1.744,1.583-2.107,3.412-1.3,2.995,1.329,4.79,4.094,8.5,2.6,1.552-.625,4.543-3.075,5.962-3.068,1.711.008,2.612,3.537,3.2,4.817,1.63,3.575,2.636,3.677,6.4,4.1,1.646.184,4.71-.2,4.772,2.2.064,2.45-1.795,5.271-1.027,7.82.827,2.747,5.569,4.661,5.878,6.766.254,1.73-2.9,3.632-4.04,4.709-3.535,3.353-1.492,5.358-.932,9.286.235,1.646.132,2.6-1.658,3.02-3.328.791-7.256-.5-9.033,3.438m1.919-29.341a8.439,8.439,0,0,0-1.354-1.693c.99-.825-.8-2.092-1.414-2.592A17.232,17.232,0,1,0,78.491,58.329C91.778,59.685,101.448,45.913,95.8,33.8c-.343-.735-.978-2.369-2.016-1.765" transform="translate(-51.447 -13.5)" fill="#b3e354"/>
          <path id="Path_990252" data-name="Path 990252" d="M53.755,224.245a1.3,1.3,0,0,0,.226,1.693l-.79,1.918c-1.331-.367-1.428,2.217-3.088,2.138-2.575-.123-5.012-3.956-8.583-3.482-2.206.293-5.691,3.7-7.428,3.467-1.568-.212-2.425-3.538-3-4.794-2.2-4.78-4.023-3.6-8.526-4.227-1.411-.2-2.653-.491-2.655-2.174,0-2.9,2.346-5.874.532-8.794-1.085-1.747-5.344-4.077-5.4-5.892-.057-1.774,3.737-3.945,4.858-5.244a26.824,26.824,0,0,0,30.288,26.053c1.2-.15,2.376-.487,3.57-.663" transform="translate(-13.338 -176.368)" fill="#a2d94a"/>
          <path id="Path_990253" data-name="Path 990253" d="M144.855,112.219a8.444,8.444,0,0,1,1.354,1.693c-.918.534.265,2.016.548,2.668a15.524,15.524,0,1,1-4.912-6.034c.523.384,1.995,1.889,2.485,1.866a1.632,1.632,0,0,0,.525-.192m-20.879,12.526V127a.866.866,0,0,0-.783.74,24.611,24.611,0,0,0,0,3.933c.217,1.6,2.026,1.775,3.318,1.645a2.128,2.128,0,0,0,1.939-1.47l11.824,0a2.385,2.385,0,0,0,1.762-2.085c.016-.331-.182-.741-.125-.988.01-.044.539-.4.683-.588a2.564,2.564,0,0,0,.442-2.021c-.036-.251-.3-.723-.3-.8.017-.209.786-.773.765-1.806a4.126,4.126,0,0,0-.765-1.8c-.006-.079.26-.55.3-.8.256-1.813-.8-2.83-2.531-2.979-1.7-.145-5.023.794-5.03-1.751,0-1.52.831-2.48.239-4.179-.533-1.532-2.852-3.22-3.977-1.373-.87,1.427-1.364,4.277-2.067,5.946a7.038,7.038,0,0,1-1.409,2.207c-.152.064-.553-.492-.75-.608a5.864,5.864,0,0,0-2.585-.248c-2.7.265-1.473,4.351-1.741,6.153a.851.851,0,0,0,.787.623" transform="translate(-103.874 -95.375)" fill="#f7f5f6"/>
          <path id="Path_990254" data-name="Path 990254" d="M131.447,98.855a1.633,1.633,0,0,1-.525.192c-.49.023-1.962-1.482-2.485-1.866a15.521,15.521,0,1,0,4.912,6.034c-.283-.652-1.467-2.134-.548-2.668,1.037-.6,1.673,1.03,2.016,1.765,5.65,12.112-4.02,25.884-17.307,24.527a17.232,17.232,0,1,1,12.523-30.578c.619.5,2.4,1.767,1.414,2.592" transform="translate(-90.466 -82.011)" fill="#040403"/>
          <path id="Path_990255" data-name="Path 990255" d="M171.023,143.012a.851.851,0,0,1-.787-.623c.269-1.8-.963-5.889,1.741-6.153a5.864,5.864,0,0,1,2.585.248c.2.116.6.671.75.608a7.039,7.039,0,0,0,1.409-2.207c.7-1.669,1.2-4.519,2.067-5.946,1.126-1.846,3.444-.159,3.977,1.373.591,1.7-.244,2.659-.239,4.179.007,2.545,3.332,1.606,5.03,1.751,1.736.149,2.787,1.166,2.531,2.979-.036.251-.3.722-.3.8a4.127,4.127,0,0,1,.765,1.8c.021,1.033-.748,1.6-.765,1.806-.006.079.26.55.3.8a2.564,2.564,0,0,1-.442,2.021c-.143.185-.672.544-.683.588-.057.247.141.657.125.988a2.385,2.385,0,0,1-1.762,2.085l-11.824,0a2.128,2.128,0,0,1-1.939,1.47c-1.292.13-3.1-.049-3.318-1.645a24.611,24.611,0,0,1,0-3.933.865.865,0,0,1,.783-.74c.322-.016.9.326.9.621v3.837a2.223,2.223,0,0,0,1.817.011,6.7,6.7,0,0,0,.1-1.986c.038-3.176-.029-6.358,0-9.536l-.185-.266a5.941,5.941,0,0,0-.831-.016c-.255.006-.793-.1-.887.185-.2,1.24.219,3.087-.04,4.248a.863.863,0,0,1-.879.645m4.514,4.74c.008.225-.007.453,0,.678l11.124.006c.5.024.643-.22.614-.684,0-.066.028-.149-.016-.205-1.331-.419-2.534.492-2.467-1.488.647-.78,3.149.106,3.555-.681a.827.827,0,0,0,.056-.448c-.072-1.455-3.209.038-3.588-1.209a2.664,2.664,0,0,1-.023-.709c.633-1.123,4,.318,4.063-1.129.057-1.367-2.89-.5-3.7-.873-.436-.2-.372-.761-.366-1.158.714-1.079,3.556.29,3.612-1.129a1.042,1.042,0,0,0-.1-.488c-.235-.362-3.259-.137-3.907-.185a3.5,3.5,0,0,1-3.549-4.009c.111-1.392,1.185-3.417-.678-4.121-1.212,3.241-1.626,7.038-4.607,9.218.036,2.864-.122,5.751-.021,8.612" transform="translate(-150.92 -113.642)" fill="#040303"/>
          <path id="Path_990256" data-name="Path 990256" d="M179.578,214.707l.007,9.19c.087.553.506.671,1.009.628a6.7,6.7,0,0,1-.1,1.986,2.222,2.222,0,0,1-1.817-.011v-3.837c0-.294-.581-.637-.9-.621v-2.257a.863.863,0,0,0,.879-.645c.259-1.161-.156-3.009.04-4.248.094-.285.632-.179.887-.185" transform="translate(-157.67 -190.415)" fill="#63d5f3"/>
          <path id="Path_990257" data-name="Path 990257" d="M217.426,161.8c-.1-2.861.058-5.748.021-8.612,2.981-2.18,3.4-5.977,4.608-9.218,1.862.7.788,2.729.678,4.121a3.5,3.5,0,0,0,3.549,4.009c.648.049,3.673-.176,3.907.185a1.041,1.041,0,0,1,.1.488c-.864.132-2.393-.2-3.167.05-.5.161-.438.671-.445,1.079s-.071.958.366,1.158c.807.369,3.754-.493,3.7.873-.977.16-2.775-.226-3.644.024-.494.142-.419.717-.419,1.1a2.663,2.663,0,0,0,.023.709c.379,1.247,3.516-.246,3.588,1.209-.784.132-3.184-.355-3.553.454a1.644,1.644,0,0,0-.058.675c-.067,1.979,1.136,1.069,2.467,1.488.044.056.012.139.016.205Z" transform="translate(-192.809 -127.687)" fill="#fcd0a3"/>
          <path id="Path_990258" data-name="Path 990258" d="M194.758,224.587c-.5.043-.922-.075-1.009-.628l-.007-9.19a5.948,5.948,0,0,1,.831.016l.185.266c-.029,3.178.038,6.36,0,9.536" transform="translate(-171.834 -190.478)" fill="#95e4fb"/>
          <path id="Path_990259" data-name="Path 990259" d="M229.416,301.645c.029.464-.114.707-.614.684l-11.124-.006c-.006-.225.008-.453,0-.678Z" transform="translate(-193.062 -267.535)" fill="#fdbc85"/>
          <path id="Path_990260" data-name="Path 990260" d="M303.1,276.482a.827.827,0,0,1-.056.448c-.407.787-2.908-.1-3.555.681a1.647,1.647,0,0,1,.058-.675c.37-.809,2.769-.322,3.553-.454" transform="translate(-265.616 -245.194)" fill="#f1b480"/>
          <path id="Path_990261" data-name="Path 990261" d="M303.564,249.259c-.061,1.447-3.43.006-4.063,1.129,0-.387-.075-.963.419-1.1.869-.25,2.667.136,3.644-.024" transform="translate(-265.63 -221.017)" fill="#f9b983"/>
          <path id="Path_990262" data-name="Path 990262" d="M303.145,221.442c-.056,1.418-2.9.05-3.611,1.129.007-.408-.052-.918.445-1.079.774-.251,2.3.082,3.167-.05" transform="translate(-265.663 -196.36)" fill="#fcbb85"/>
        </g>
      </g>
    </g>
  </g>
</svg>
