<svg xmlns="http://www.w3.org/2000/svg" xmlns:xlink="http://www.w3.org/1999/xlink" width="108" height="108" viewBox="0 0 108 108">
  <defs>
    <filter id="Path_978624" x="0" y="0" width="108" height="108" filterUnits="userSpaceOnUse">
      <feOffset dy="3" input="SourceAlpha"/>
      <feGaussianBlur stdDeviation="3" result="blur"/>
      <feFlood flood-opacity="0.161"/>
      <feComposite operator="in" in2="blur"/>
      <feComposite in="SourceGraphic"/>
    </filter>
  </defs>
  <g id="Group_1151642" data-name="Group 1151642" transform="translate(-1166.5 -7025.545)">
    <g id="Group_1144531" data-name="Group 1144531" transform="translate(979.5 5172.545)">
      <g transform="matrix(1, 0, 0, 1, 187, 1853)" filter="url(#Path_978624)">
        <g id="Path_978624-2" data-name="Path 978624" transform="translate(9 6)" fill="#f5e9a1">
          <path d="M 45 88.5 C 39.12687683105469 88.5 33.43022537231445 87.35007476806641 28.06830024719238 85.08217620849609 C 22.88852500915527 82.89131164550781 18.23629951477051 79.75458526611328 14.2408504486084 75.75914764404297 C 10.24541282653809 71.76370239257812 7.108687400817871 67.11147308349609 4.917825222015381 61.93170166015625 C 2.649924993515015 56.56977462768555 1.5 50.87312316894531 1.5 45 C 1.5 39.12687683105469 2.649924993515015 33.43022537231445 4.917825222015381 28.06830024719238 C 7.108687400817871 22.88852500915527 10.24541282653809 18.23629951477051 14.2408504486084 14.2408504486084 C 18.23629951477051 10.24541282653809 22.88852500915527 7.108687400817871 28.06830024719238 4.917825222015381 C 33.43022537231445 2.649924993515015 39.12687683105469 1.5 45 1.5 C 50.87312316894531 1.5 56.56977462768555 2.649924993515015 61.93170166015625 4.917825222015381 C 67.11147308349609 7.108687400817871 71.76370239257812 10.24541282653809 75.75914764404297 14.2408504486084 C 79.75458526611328 18.23629951477051 82.89131164550781 22.88852500915527 85.08217620849609 28.06830024719238 C 87.35007476806641 33.43022537231445 88.5 39.12687683105469 88.5 45 C 88.5 50.87312316894531 87.35007476806641 56.56977462768555 85.08217620849609 61.93170166015625 C 82.89131164550781 67.11147308349609 79.75458526611328 71.76370239257812 75.75914764404297 75.75914764404297 C 71.76370239257812 79.75458526611328 67.11147308349609 82.89131164550781 61.93170166015625 85.08217620849609 C 56.56977462768555 87.35007476806641 50.87312316894531 88.5 45 88.5 Z" stroke="none"/>
          <path d="M 45 3 C 39.32871246337891 3 33.82865524291992 4.110054016113281 28.65262985229492 6.299339294433594 C 23.65165710449219 8.414573669433594 19.15968322753906 11.44334411621094 15.301513671875 15.301513671875 C 11.44334411621094 19.15968322753906 8.414573669433594 23.65165710449219 6.299339294433594 28.65262985229492 C 4.110054016113281 33.82865524291992 3 39.32871246337891 3 45 C 3 50.67128753662109 4.110054016113281 56.17134475708008 6.299339294433594 61.34737396240234 C 8.414573669433594 66.34834289550781 11.44334411621094 70.84031677246094 15.301513671875 74.698486328125 C 19.15968322753906 78.55665588378906 23.65165710449219 81.58542633056641 28.65262985229492 83.70066070556641 C 33.82865524291992 85.88994598388672 39.32871246337891 87 45 87 C 50.67128753662109 87 56.17134475708008 85.88994598388672 61.34737396240234 83.70066070556641 C 66.34834289550781 81.58542633056641 70.84031677246094 78.55665588378906 74.698486328125 74.698486328125 C 78.55665588378906 70.84031677246094 81.58542633056641 66.34834289550781 83.70066070556641 61.34737396240234 C 85.88994598388672 56.17134475708008 87 50.67128753662109 87 45 C 87 39.32871246337891 85.88994598388672 33.82865524291992 83.70066070556641 28.65262985229492 C 81.58542633056641 23.65165710449219 78.55665588378906 19.15968322753906 74.698486328125 15.301513671875 C 70.84031677246094 11.44334411621094 66.34834289550781 8.414573669433594 61.34737396240234 6.299339294433594 C 56.17134475708008 4.110054016113281 50.67128753662109 3 45 3 M 45 0 C 69.85281372070312 0 90 20.14718627929688 90 45 C 90 69.85281372070312 69.85281372070312 90 45 90 C 20.14718627929688 90 0 69.85281372070312 0 45 C 0 20.14718627929688 20.14718627929688 0 45 0 Z" stroke="none" fill="#bcac89"/>
        </g>
      </g>
      <g id="justice-court_5863922_1_" data-name="justice-court_5863922 (1)" transform="translate(209.736 1874.363)">
        <g id="Group_1099741" data-name="Group 1099741" transform="translate(1.021 1.021)">
          <g id="Group_1099721" data-name="Group 1099721" transform="translate(20.411 4.082)">
            <path id="Path_875036" data-name="Path 875036" d="M41.411,11.123v4.082a2.047,2.047,0,0,0-2.041-2.041H37.329v-.776a3.306,3.306,0,0,0-3.307-3.307,3.344,3.344,0,0,0-1.47.347l-1.347.674-1.347-.674a3.344,3.344,0,0,0-1.47-.347,3.31,3.31,0,0,0-3.307,3.307v.776H23.041A2.056,2.056,0,0,0,21,15.205V11.123A6.128,6.128,0,0,1,27.123,5h8.164A6.128,6.128,0,0,1,41.411,11.123Z" transform="translate(-21 -5)" fill="#b27946"/>
          </g>
          <g id="Group_1099722" data-name="Group 1099722" transform="translate(26.534 0)">
            <path id="Path_875037" data-name="Path 875037" d="M35.164,5.082H27a4.082,4.082,0,0,1,8.164,0Z" transform="translate(-27 -1)" fill="#b27946"/>
          </g>
          <g id="Group_1099723" data-name="Group 1099723" transform="translate(0 26.534)">
            <path id="Path_875038" data-name="Path 875038" d="M13.246,28.021v2.041a1.024,1.024,0,0,1-1.021,1.021H2.021A1.024,1.024,0,0,1,1,30.062V28.021A1.024,1.024,0,0,1,2.021,27H12.226A1.024,1.024,0,0,1,13.246,28.021Z" transform="translate(-1 -27)" fill="#cf9e76"/>
          </g>
          <g id="Group_1099724" data-name="Group 1099724" transform="translate(4.082)">
            <path id="Path_875039" data-name="Path 875039" d="M9.082,2.021V27.534H5V2.021A1.024,1.024,0,0,1,6.021,1H8.062A1.024,1.024,0,0,1,9.082,2.021Z" transform="translate(-5 -1)" fill="#dfb28b"/>
          </g>
          <g id="Group_1099725" data-name="Group 1099725" transform="translate(4.082 30.616)">
            <path id="Path_875040" data-name="Path 875040" d="M9.082,39.164v3.062a1.024,1.024,0,0,1-1.021,1.021H6.021A1.024,1.024,0,0,1,5,42.226V31H9.082Z" transform="translate(-5 -31)" fill="#b27946"/>
          </g>
          <g id="Group_1099726" data-name="Group 1099726" transform="translate(29.983 40.954)">
            <path id="Path_875041" data-name="Path 875041" d="M35.881,41.13l2.827,7.776L30.38,44.273Z" transform="translate(-30.38 -41.13)" fill="#aab2bd"/>
          </g>
          <g id="Group_1099727" data-name="Group 1099727" transform="translate(23.187 38.78)">
            <path id="Path_875042" data-name="Path 875042" d="M35.232,39l.786,2.174-5.5,3.143-6.8,3.888L27.067,39Z" transform="translate(-23.72 -39)" fill="#ccd1d9"/>
          </g>
          <g id="Group_1099728" data-name="Group 1099728" transform="translate(18.37 44.097)">
            <path id="Path_875043" data-name="Path 875043" d="M37.37,61.345H19L23.817,48.1l6.8-3.888,8.328,4.633,4.552,12.5Z" transform="translate(-19 -44.21)" fill="#e6e9ed"/>
          </g>
          <g id="Group_1099729" data-name="Group 1099729" transform="translate(24.493 30.616)">
            <path id="Path_875044" data-name="Path 875044" d="M37.185,33.01a2.565,2.565,0,0,1-.122,1.51l-1.857,4.643H27.041l-1.857-4.643a.8.8,0,0,1-.051-.143A2.386,2.386,0,0,1,25,33.572,2.574,2.574,0,0,1,27.572,31h7.1a2.544,2.544,0,0,1,1.817.755A2.514,2.514,0,0,1,37.185,33.01Z" transform="translate(-25 -31)" fill="#e6e9ed"/>
          </g>
          <g id="Group_1099730" data-name="Group 1099730" transform="translate(53.068 34.698)">
            <path id="Path_875045" data-name="Path 875045" d="M53,35h8.164A4.082,4.082,0,1,1,53,35Z" transform="translate(-53 -35)" fill="#fcd770"/>
          </g>
          <g id="Group_1099731" data-name="Group 1099731" transform="translate(40.821 34.698)">
            <path id="Path_875046" data-name="Path 875046" d="M41,35h8.164A4.082,4.082,0,1,1,41,35Z" transform="translate(-41 -35)" fill="#fcd770"/>
          </g>
          <g id="Group_1099732" data-name="Group 1099732" transform="translate(48.986 4.082)">
            <path id="Path_875047" data-name="Path 875047" d="M53.082,13.164v1.021a1.024,1.024,0,0,1-1.021,1.021H50.021A1.024,1.024,0,0,1,49,14.185V6.021A1.024,1.024,0,0,1,50.021,5h2.041a1.024,1.024,0,0,1,1.021,1.021v7.144Z" transform="translate(-49 -5)" fill="#969faa"/>
          </g>
          <g id="Group_1099733" data-name="Group 1099733" transform="translate(53.068 6.123)">
            <path id="Path_875048" data-name="Path 875048" d="M57.082,9.041v4.082a2.047,2.047,0,0,1-2.041,2.041A2.056,2.056,0,0,1,53,13.123V9.041A2.047,2.047,0,0,1,55.041,7a2.056,2.056,0,0,1,2.041,2.041Z" transform="translate(-53 -7)" fill="#f0d0b4"/>
          </g>
          <g id="Group_1099734" data-name="Group 1099734" transform="translate(33.678 8.164)">
            <path id="Path_875049" data-name="Path 875049" d="M51.349,23.287V27.37H45.226L43,31.819a15.05,15.05,0,0,1-6,1.643,2.514,2.514,0,0,0-.694-1.255,2.544,2.544,0,0,0-1.817-.755H34l1.021-4.082A10.209,10.209,0,0,0,45.226,17.164V11.041A2.047,2.047,0,0,1,47.267,9h2.041v5.1a1.024,1.024,0,0,0,1.021,1.021h1.021v4.082a2.041,2.041,0,0,0,0,4.082Z" transform="translate(-34 -9)" fill="#f0d0b4"/>
          </g>
          <g id="Group_1099735" data-name="Group 1099735" transform="translate(8.164 26.534)">
            <path id="Path_875050" data-name="Path 875050" d="M27.37,27l1.021,4.082H27.9a2.574,2.574,0,0,0-2.572,2.572,2.386,2.386,0,0,0,.133.806L13.388,38.767a8.1,8.1,0,0,1-2.745.48H9V31.082h3.062L14.1,33.123l7.776-4.664A10.178,10.178,0,0,1,27.135,27Z" transform="translate(-9 -27)" fill="#f0d0b4"/>
          </g>
          <g id="Group_1099736" data-name="Group 1099736" transform="translate(36.739 12.246)">
            <path id="Path_875051" data-name="Path 875051" d="M39.041,13a2.047,2.047,0,0,1,2.041,2.041,2.056,2.056,0,0,1-2.041,2.041H37V13Z" transform="translate(-37 -13)" fill="#f0d0b4"/>
          </g>
          <g id="Group_1099737" data-name="Group 1099737" transform="translate(24.493 16.329)">
            <path id="Path_875052" data-name="Path 875052" d="M37.246,17v1.919a5.386,5.386,0,0,1-4.082,5.225v3.062h2.041l-1.021,4.082H28.062l-1.021-4.082h2.041V24.144A5.391,5.391,0,0,1,25,18.919V17Z" transform="translate(-25 -17)" fill="#f0d0b4"/>
          </g>
          <g id="Group_1099738" data-name="Group 1099738" transform="translate(20.411 12.246)">
            <path id="Path_875053" data-name="Path 875053" d="M25.082,13v4.082H23.041A2.047,2.047,0,0,1,21,15.041,2.056,2.056,0,0,1,23.041,13Z" transform="translate(-21 -13)" fill="#f0d0b4"/>
          </g>
          <g id="Group_1099739" data-name="Group 1099739" transform="translate(24.493 8.164)">
            <path id="Path_875054" data-name="Path 875054" d="M31.123,10.021l1.347-.674A3.344,3.344,0,0,1,33.94,9a3.306,3.306,0,0,1,3.307,3.307v.776H25v-.776A3.31,3.31,0,0,1,28.307,9a3.344,3.344,0,0,1,1.47.347Z" transform="translate(-25 -9)" fill="#f0d0b4"/>
          </g>
          <g id="Group_1099740" data-name="Group 1099740" transform="translate(24.493 12.246)">
            <path id="Path_875055" data-name="Path 875055" d="M25,13H37.246v4.082H25Z" transform="translate(-25 -13)" fill="#75b1f2"/>
          </g>
        </g>
        <path id="Path_875056" data-name="Path 875056" d="M58.8,26.534H53.068V24.305a3.057,3.057,0,0,0,2.041-2.874H53.068a1.021,1.021,0,1,1-1.021-1.021h1.021V16.329a2.024,2.024,0,0,0,1.351-.524,3.06,3.06,0,0,0,4.772-2.538V9.185a3.065,3.065,0,0,0-3.062-3.062,3.027,3.027,0,0,0-1.021.188V6.123a2.043,2.043,0,0,0-2.041-2.041H51.027a2.043,2.043,0,0,0-2.041,2.041V8.164H47.965A3.065,3.065,0,0,0,44.9,11.226v6.123a9.2,9.2,0,0,1-9.185,9.185H34.7v-1.3a6.4,6.4,0,0,0,4.082-5.973V18.37H39.8a3.065,3.065,0,0,0,3.062-3.062V11.226a7.151,7.151,0,0,0-6.219-7.077,5.1,5.1,0,0,0-10.013,0,7.151,7.151,0,0,0-6.219,7.077v4.082a3.065,3.065,0,0,0,3.062,3.062h1.021v.9a6.4,6.4,0,0,0,4.082,5.973v1.3H27.32a11.222,11.222,0,0,0-5.775,1.6l-7.1,4.259-.565-.565a2.032,2.032,0,0,0,.406-1.211V28.575a2.043,2.043,0,0,0-2.041-2.041H10.205V2.041A2.043,2.043,0,0,0,8.164,0H6.123A2.043,2.043,0,0,0,4.082,2.041V26.534H2.041A2.043,2.043,0,0,0,0,28.575v2.041a2.043,2.043,0,0,0,2.041,2.041H4.082V42.862A2.043,2.043,0,0,0,6.123,44.9H8.164a2.043,2.043,0,0,0,2.041-2.041V40.821h.627a9.169,9.169,0,0,0,3.088-.535L25.057,36.31l1.4,3.51L17.933,63.273H45.339L36.811,39.818l1.713-4.284a3.529,3.529,0,0,0,.222-.979,16.116,16.116,0,0,0,2.84-.608l-.765,1.531v.241a5.1,5.1,0,0,0,10.205,0v-.241l-3.451-6.9h8.944l-3.451,6.9v.241a5.1,5.1,0,1,0,10.205,0v-.241ZM56.129,8.164A1.022,1.022,0,0,1,57.15,9.185v4.082a1.021,1.021,0,1,1-2.041,0V9.185A1.022,1.022,0,0,1,56.129,8.164Zm-5.1-2.041h2.041v7.144s0,.006,0,.008v1.012H51.027Zm-14.4,28.655-1.6,4H28.245l-1.6-4a1.549,1.549,0,0,1,1.437-2.123h7.112a1.547,1.547,0,0,1,1.436,2.121ZM39.8,16.329H38.78V14.287H39.8a1.021,1.021,0,0,1,0,2.041Zm-3.062-2.041v2.041H26.534V14.287ZM26.558,12.246a2.277,2.277,0,0,1,2.257-2.041,2.3,2.3,0,0,1,1.021.241l1.8.9,1.8-.9a2.272,2.272,0,0,1,3.278,1.8ZM31.637,2.041A3.057,3.057,0,0,1,34.51,4.082H28.764a3.055,3.055,0,0,1,2.873-2.041ZM27.554,6.123h8.164a5.108,5.108,0,0,1,5.1,5.1v1.208a3.027,3.027,0,0,0-1.021-.188H38.756A4.309,4.309,0,0,0,32.523,8.62l-.887.444L30.75,8.62a4.309,4.309,0,0,0-6.232,3.626H23.472a3.027,3.027,0,0,0-1.021.188V11.226A5.108,5.108,0,0,1,27.554,6.123ZM23.472,16.329a1.021,1.021,0,0,1,0-2.041h1.021v2.041Zm3.062,2.936v-.9H36.739v.9A4.363,4.363,0,0,1,33.431,23.5l-.774.193v4.879h1.755l-.51,2.041H29.371l-.51-2.041h1.755V23.7l-.774-.193A4.363,4.363,0,0,1,26.534,19.265ZM6.123,2.041H8.164V26.534H6.123ZM2.041,28.575H12.246v2.041H2.041ZM6.123,42.862V32.657H8.164V42.862ZM24.493,34.2c0,.046.011.09.013.136L13.234,38.365a7.132,7.132,0,0,1-2.4.415h-.627V32.657h1.619l2.305,2.305,8.465-5.079a9.165,9.165,0,0,1,4.173-1.272l.525,2.1A3.592,3.592,0,0,0,24.493,34.2Zm3.776,6.617H35l.252.693L26.12,46.736Zm7.695,2.639,1.48,4.069-4.361-2.423Zm2.615,17.772-1.863-8.386-1.993.443,1.766,7.943h-3.83V51.027H30.616V61.232h-3.83l1.766-7.943-1.993-.443-1.863,8.386H20.848L25.04,49.7l5.972-3.413,7.5,4.165,3.918,10.777ZM45.924,38.78a3.056,3.056,0,0,1-2.873-2.041H48.8A3.056,3.056,0,0,1,45.924,38.78ZM48.355,34.7H43.493l2.431-4.862Zm-3.062-8.164-2.347,4.694a14.127,14.127,0,0,1-4.589,1.32,3.583,3.583,0,0,0-2.375-1.838l.544-2.176A11.232,11.232,0,0,0,46.945,17.349V11.226a1.022,1.022,0,0,1,1.021-1.021h1.021v4.082a2.043,2.043,0,0,0,2.041,2.041v2.216a3.053,3.053,0,0,0,0,5.761v2.229Zm12.877,3.3L60.6,34.7H55.74Zm0,8.944A3.056,3.056,0,0,1,55.3,36.739h5.746a3.056,3.056,0,0,1-2.873,2.041Z"/>
      </g>
    </g>
  </g>
</svg>
