<svg xmlns="http://www.w3.org/2000/svg" xmlns:xlink="http://www.w3.org/1999/xlink" width="108" height="108" viewBox="0 0 108 108">
  <defs>
    <filter id="Path_978624" x="0" y="0" width="108" height="108" filterUnits="userSpaceOnUse">
      <feOffset dy="3" input="SourceAlpha"/>
      <feGaussianBlur stdDeviation="3" result="blur"/>
      <feFlood flood-opacity="0.161"/>
      <feComposite operator="in" in2="blur"/>
      <feComposite in="SourceGraphic"/>
    </filter>
  </defs>
  <g id="Group_1151625" data-name="Group 1151625" transform="translate(-739 -2857)">
    <g id="Group_1151337" data-name="Group 1151337" transform="translate(525 -97)">
      <g id="Group_1151334" data-name="Group 1151334" transform="translate(13 2634)">
        <g transform="matrix(1, 0, 0, 1, 201, 320)" filter="url(#Path_978624)">
          <g id="Path_978624-2" data-name="Path 978624" transform="translate(9 6)" fill="#f8f4ec">
            <path d="M 45 88.5 C 39.12687683105469 88.5 33.43022537231445 87.35007476806641 28.06830024719238 85.08217620849609 C 22.88852500915527 82.89131164550781 18.23629951477051 79.75458526611328 14.2408504486084 75.75914764404297 C 10.24541282653809 71.76370239257812 7.108687400817871 67.11147308349609 4.917825222015381 61.93170166015625 C 2.649924993515015 56.56977462768555 1.5 50.87312316894531 1.5 45 C 1.5 39.12687683105469 2.649924993515015 33.43022537231445 4.917825222015381 28.06830024719238 C 7.108687400817871 22.88852500915527 10.24541282653809 18.23629951477051 14.2408504486084 14.2408504486084 C 18.23629951477051 10.24541282653809 22.88852500915527 7.108687400817871 28.06830024719238 4.917825222015381 C 33.43022537231445 2.649924993515015 39.12687683105469 1.5 45 1.5 C 50.87312316894531 1.5 56.56977462768555 2.649924993515015 61.93170166015625 4.917825222015381 C 67.11147308349609 7.108687400817871 71.76370239257812 10.24541282653809 75.75914764404297 14.2408504486084 C 79.75458526611328 18.23629951477051 82.89131164550781 22.88852500915527 85.08217620849609 28.06830024719238 C 87.35007476806641 33.43022537231445 88.5 39.12687683105469 88.5 45 C 88.5 50.87312316894531 87.35007476806641 56.56977462768555 85.08217620849609 61.93170166015625 C 82.89131164550781 67.11147308349609 79.75458526611328 71.76370239257812 75.75914764404297 75.75914764404297 C 71.76370239257812 79.75458526611328 67.11147308349609 82.89131164550781 61.93170166015625 85.08217620849609 C 56.56977462768555 87.35007476806641 50.87312316894531 88.5 45 88.5 Z" stroke="none"/>
            <path d="M 45 3 C 39.32871246337891 3 33.82865524291992 4.110054016113281 28.65262985229492 6.299339294433594 C 23.65165710449219 8.414573669433594 19.15968322753906 11.44334411621094 15.301513671875 15.301513671875 C 11.44334411621094 19.15968322753906 8.414573669433594 23.65165710449219 6.299339294433594 28.65262985229492 C 4.110054016113281 33.82865524291992 3 39.32871246337891 3 45 C 3 50.67128753662109 4.110054016113281 56.17134475708008 6.299339294433594 61.34737396240234 C 8.414573669433594 66.34834289550781 11.44334411621094 70.84031677246094 15.301513671875 74.698486328125 C 19.15968322753906 78.55665588378906 23.65165710449219 81.58542633056641 28.65262985229492 83.70066070556641 C 33.82865524291992 85.88994598388672 39.32871246337891 87 45 87 C 50.67128753662109 87 56.17134475708008 85.88994598388672 61.34737396240234 83.70066070556641 C 66.34834289550781 81.58542633056641 70.84031677246094 78.55665588378906 74.698486328125 74.698486328125 C 78.55665588378906 70.84031677246094 81.58542633056641 66.34834289550781 83.70066070556641 61.34737396240234 C 85.88994598388672 56.17134475708008 87 50.67128753662109 87 45 C 87 39.32871246337891 85.88994598388672 33.82865524291992 83.70066070556641 28.65262985229492 C 81.58542633056641 23.65165710449219 78.55665588378906 19.15968322753906 74.698486328125 15.301513671875 C 70.84031677246094 11.44334411621094 66.34834289550781 8.414573669433594 61.34737396240234 6.299339294433594 C 56.17134475708008 4.110054016113281 50.67128753662109 3 45 3 M 45 0 C 69.85281372070312 0 90 20.14718627929688 90 45 C 90 69.85281372070312 69.85281372070312 90 45 90 C 20.14718627929688 90 0 69.85281372070312 0 45 C 0 20.14718627929688 20.14718627929688 0 45 0 Z" stroke="none" fill="#decba5"/>
          </g>
        </g>
      </g>
      <g id="bombilla" transform="translate(243.846 2982.927)">
        <path id="Path_988815" data-name="Path 988815" d="M114.613,23.942A16.434,16.434,0,1,0,92.521,39.375V44.81a3.4,3.4,0,0,0,3.4,3.4h4.512a3.4,3.4,0,0,0,3.4-3.4V39.375a16.44,16.44,0,0,0,10.775-15.434Zm0,0" transform="translate(-74.026 -6.799)" fill="#ffe469"/>
        <path id="Path_988816" data-name="Path 988816" d="M237.635,7.508a16.543,16.543,0,0,0-1.889.109,16.437,16.437,0,0,1,3.769,31.758V44.81a3.4,3.4,0,0,1-3.4,3.4h3.778a3.4,3.4,0,0,0,3.4-3.4V39.375a16.436,16.436,0,0,0-5.658-31.867Zm0,0" transform="translate(-213.481 -6.799)" fill="#ffda30"/>
        <path id="Path_988817" data-name="Path 988817" d="M144.614,187.194a8.734,8.734,0,0,0,5.435,2.151.506.506,0,0,0,.538-.538A7.358,7.358,0,0,0,143,181.22a.506.506,0,0,0-.538.538A8.735,8.735,0,0,0,144.614,187.194Zm0,0" transform="translate(-129.007 -164.104)" fill="#09a66d"/>
        <path id="Path_988818" data-name="Path 988818" d="M150.594,188.8a7.359,7.359,0,0,0-7.587-7.587.506.506,0,0,0-.538.485,7.08,7.08,0,0,1,2.857,1.667,8.734,8.734,0,0,1,2.152,5.435.516.516,0,0,1,0,.053,10.875,10.875,0,0,0,2.578.485A.506.506,0,0,0,150.594,188.8Zm0,0" transform="translate(-129.014 -164.1)" fill="#028f5d"/>
        <path id="Path_988819" data-name="Path 988819" d="M288.955,187.194a8.733,8.733,0,0,1-5.433,2.151.508.508,0,0,1-.54-.541,7.357,7.357,0,0,1,7.584-7.584.508.508,0,0,1,.54.541A8.733,8.733,0,0,1,288.955,187.194Zm0,0" transform="translate(-256.254 -164.104)" fill="#09a66d"/>
        <path id="Path_988820" data-name="Path 988820" d="M290.565,181.22a10.648,10.648,0,0,0-2.995.631,8.423,8.423,0,0,1-2.11,4.964,6.842,6.842,0,0,1-2.438,1.52c-.019.175-.032.332-.041.468a.508.508,0,0,0,.54.541,7.357,7.357,0,0,0,7.584-7.584.508.508,0,0,0-.541-.541Zm0,0" transform="translate(-256.255 -164.103)" fill="#028f5d"/>
        <path id="Path_988821" data-name="Path 988821" d="M232.538,85.821A8.747,8.747,0,0,1,230.2,91.2a.49.49,0,0,1-.734,0,8.747,8.747,0,0,1-2.335-5.38,8.747,8.747,0,0,1,2.335-5.379.49.49,0,0,1,.734,0A8.747,8.747,0,0,1,232.538,85.821Zm0,0" transform="translate(-205.681 -72.694)" fill="#09a66d"/>
        <path id="Path_988822" data-name="Path 988822" d="M241.176,80.442a.49.49,0,0,0-.735,0,11.069,11.069,0,0,0-1.191,1.634,6.7,6.7,0,0,1,0,7.492,11.087,11.087,0,0,0,1.191,1.634.49.49,0,0,0,.735,0,8.747,8.747,0,0,0,2.335-5.38,8.747,8.747,0,0,0-2.335-5.379Zm0,0" transform="translate(-216.654 -72.695)" fill="#028f5d"/>
        <path id="Path_988823" data-name="Path 988823" d="M203.747,386.2h-4.512a3.4,3.4,0,0,1-3.4-3.4V377.27a3.4,3.4,0,0,1,3.4-3.4h4.512a3.4,3.4,0,0,1,3.4,3.4V382.8A3.4,3.4,0,0,1,203.747,386.2Zm0,0" transform="translate(-177.337 -338.557)" fill="#f0f0f0"/>
        <path id="Path_988824" data-name="Path 988824" d="M239.785,373.867h-4.156a3.4,3.4,0,0,1,3.4,3.4V382.8a3.4,3.4,0,0,1-3.4,3.4h4.156a3.4,3.4,0,0,0,3.4-3.4V377.27A3.4,3.4,0,0,0,239.785,373.867Zm0,0" transform="translate(-213.375 -338.557)" fill="#e8e8e8"/>
        <g id="Group_1150814" data-name="Group 1150814" transform="translate(16.145 34.669)">
          <path id="Path_988825" data-name="Path 988825" d="M186.207,370.262l-13.575.8a1.593,1.593,0,0,1-.189-3.18l13.575-.8a1.593,1.593,0,0,1,.189,3.18Zm0,0" transform="translate(-170.945 -367.079)" fill="#9e9e9e"/>
          <path id="Path_988826" data-name="Path 988826" d="M186.207,438.093l-13.575.8a1.592,1.592,0,1,1-.189-3.179l13.575-.8a1.592,1.592,0,1,1,.189,3.179Zm0,0" transform="translate(-170.945 -428.504)" fill="#9e9e9e"/>
          <path id="Path_988827" data-name="Path 988827" d="M186.207,438.093l-13.575.8a1.592,1.592,0,1,1-.189-3.179l13.575-.8a1.592,1.592,0,1,1,.189,3.179Zm0,0" transform="translate(-170.945 -428.504)" fill="#9e9e9e"/>
        </g>
        <path id="Path_988828" data-name="Path 988828" d="M105.366,27.063a17.148,17.148,0,0,0-20.682-25.7.709.709,0,0,0,.554,1.3A15.73,15.73,0,1,1,96.8,31.912a.708.708,0,0,0-.464.665v1.512l-4.242.251V27.949l2.125-1.984a9.6,9.6,0,0,0,6.214-2.373c2.439-2.44,2.38-6.343,2.376-6.508a.708.708,0,0,0-.692-.692c-.165,0-4.069-.063-6.508,2.377a9.579,9.579,0,0,0-2.373,6.177L92.093,26.01V19.185a11.6,11.6,0,0,0,1.669-2.319.709.709,0,0,0-1.245-.675,10.15,10.15,0,0,1-1.061,1.569c-.023,0-.047,0-.07,0s-.047,0-.07,0a7.819,7.819,0,0,1-1.924-4.633,7.9,7.9,0,0,1,2-4.719,7.863,7.863,0,0,1,1.993,4.719c0,.164-.008.332-.025.5a.709.709,0,0,0,1.41.139c.021-.213.031-.428.031-.638,0-3.45-2.8-6.169-2.922-6.283a.709.709,0,0,0-.979,0c-.12.114-2.922,2.832-2.922,6.283a9.587,9.587,0,0,0,2.7,6.059v6.822l-1.144-1.071a9.572,9.572,0,0,0-2.372-6.17c-2.44-2.44-6.344-2.381-6.508-2.376a.708.708,0,0,0-.692.692c0,.165-.063,4.069,2.376,6.508a9.6,9.6,0,0,0,6.222,2.374l2.118,1.984v6.475l-4.242.252v-2.1a.708.708,0,0,0-.464-.665A15.74,15.74,0,0,1,77.381,9.978a15.875,15.875,0,0,1,4.6-5.445A.709.709,0,0,0,81.138,3.4,17.3,17.3,0,0,0,76.12,9.332a17.153,17.153,0,0,0,8.9,23.732v1.7c-3.014.065-3.058,4.677,0,4.608v1.8a2.3,2.3,0,1,0,.29,4.593,4.116,4.116,0,0,0,3.821,2.6H93.64a4.117,4.117,0,0,0,4.036-3.331l1-.059c2.947-.175,2.708-4.77-.272-4.594l-.656.039v-1.7c0-.033,0-.066,0-.1l.931-.055c2.943-.174,2.715-4.771-.272-4.594L97.751,34v-.941a17.1,17.1,0,0,0,7.615-6ZM96.61,19.768a7.9,7.9,0,0,1,4.748-1.926,7.868,7.868,0,0,1-1.928,4.747,7.9,7.9,0,0,1-4.748,1.926A7.864,7.864,0,0,1,96.61,19.768Zm-15.2-1.926a7.9,7.9,0,0,1,4.747,1.926,7.824,7.824,0,0,1,1.916,4.646.725.725,0,0,0-.068.063l-.025.03a7.792,7.792,0,0,1-4.644-1.918,7.9,7.9,0,0,1-1.926-4.746ZM98.545,35.378a.886.886,0,0,1,.051,1.767l-13.575.8a.884.884,0,0,1-.937-.874.884.884,0,0,1,.832-.891l13.576-.8h.054Zm.6,6.644a.894.894,0,0,1-.551,1.529l-3.381.2a.709.709,0,0,0,.084,1.414l.891-.053a2.7,2.7,0,0,1-2.55,1.826H89.128a2.7,2.7,0,0,1-2.287-1.272l5.246-.311A.709.709,0,0,0,92,43.943l-6.984.414a.885.885,0,0,1-.1-1.765l13.576-.8a.877.877,0,0,1,.656.236Zm-12.713-.941v-1.8l9.9-.587s0,.01,0,.015V40.5Zm0,0" transform="translate(-67.23)"/>
        <path id="Path_988829" data-name="Path 988829" d="M75.268,5.892a.709.709,0,0,0,1.014-.99L73.51,2.064a.709.709,0,0,0-1.013.99Zm0,0" transform="translate(-65.467 -1.676)"/>
        <path id="Path_988830" data-name="Path 988830" d="M33.461,54.093l3.412,2.024A.709.709,0,0,0,37.6,54.9l-3.412-2.025a.709.709,0,0,0-.723,1.219Zm0,0" transform="translate(-29.996 -47.787)"/>
        <path id="Path_988831" data-name="Path 988831" d="M8.987,113.581l3.82,1.072a.709.709,0,0,0,.383-1.364l-3.82-1.072a.709.709,0,0,0-.383,1.364Zm0,0" transform="translate(-7.689 -101.592)"/>
        <path id="Path_988832" data-name="Path 988832" d="M4.651,177.468a.709.709,0,0,0,.008-1.417L.692,176a.709.709,0,0,0-.017,1.416l3.967.047Zm0,0" transform="translate(0 -159.381)"/>
        <path id="Path_988833" data-name="Path 988833" d="M13.463,229.967a.708.708,0,0,0-.861-.511l-3.844.981a.709.709,0,0,0,.35,1.372l3.844-.981a.708.708,0,0,0,.511-.861Zm0,0" transform="translate(-7.468 -207.764)"/>
        <path id="Path_988834" data-name="Path 988834" d="M37.414,279.119a.709.709,0,0,0-.964-.271l-3.459,1.942a.709.709,0,0,0,.694,1.235l3.459-1.942a.708.708,0,0,0,.271-.964Zm0,0" transform="translate(-29.558 -252.43)"/>
        <path id="Path_988835" data-name="Path 988835" d="M74.679,321.31l-2.839,2.772c-.642.627.334,1.654.99,1.013l2.838-2.771A.709.709,0,0,0,74.679,321.31Zm0,0" transform="translate(-64.866 -290.781)"/>
        <path id="Path_988836" data-name="Path 988836" d="M396.058,321.332a.709.709,0,0,0-1.014.99l2.771,2.839a.709.709,0,0,0,1.014-.989Zm0,0" transform="translate(-357.551 -290.791)"/>
        <path id="Path_988837" data-name="Path 988837" d="M431.92,280.84l-3.412-2.024a.709.709,0,0,0-.723,1.218l3.411,2.024A.709.709,0,0,0,431.92,280.84Zm0,0" transform="translate(-387.077 -252.389)"/>
        <path id="Path_988838" data-name="Path 988838" d="M452.69,230.5l-3.82-1.072a.709.709,0,0,0-.383,1.364l3.82,1.072A.709.709,0,0,0,452.69,230.5Zm0,0" transform="translate(-405.681 -207.735)"/>
        <path id="Path_988839" data-name="Path 988839" d="M459.658,176.551l-3.967-.047a.709.709,0,0,0-.017,1.416l3.967.047A.709.709,0,0,0,459.658,176.551Zm0,0" transform="translate(-412.026 -159.833)"/>
        <path id="Path_988840" data-name="Path 988840" d="M447.8,115.024a.723.723,0,0,0,.861.511l3.844-.981a.709.709,0,0,0-.35-1.372l-3.844.981A.708.708,0,0,0,447.8,115.024Zm0,0" transform="translate(-405.483 -102.47)"/>
        <path id="Path_988841" data-name="Path 988841" d="M427.435,56.637a.724.724,0,0,0,.965.27l3.459-1.942a.709.709,0,0,0-.694-1.235l-3.459,1.943A.708.708,0,0,0,427.435,56.637Zm0,0" transform="translate(-386.983 -48.569)"/>
        <path id="Path_988842" data-name="Path 988842" d="M395.607,6.734a.707.707,0,0,0,.5-.2l2.838-2.771a.709.709,0,0,0-.99-1.014l-2.839,2.772a.714.714,0,0,0,.495,1.215Zm0,0" transform="translate(-357.607 -2.305)"/>
      </g>
    </g>
  </g>
</svg>
