<svg xmlns="http://www.w3.org/2000/svg" xmlns:xlink="http://www.w3.org/1999/xlink" width="108" height="108" viewBox="0 0 108 108">
  <defs>
    <filter id="Fondo" x="0" y="0" width="108" height="108" filterUnits="userSpaceOnUse">
      <feOffset dy="3" input="SourceAlpha"/>
      <feGaussianBlur stdDeviation="3" result="blur"/>
      <feFlood flood-opacity="0.161"/>
      <feComposite operator="in" in2="blur"/>
      <feComposite in="SourceGraphic"/>
    </filter>
    <clipPath id="clip-path">
      <rect id="Rectangle_405840" data-name="Rectangle 405840" width="53.741" height="54.09" fill="none"/>
    </clipPath>
  </defs>
  <g id="Icono" transform="translate(9.012 -689)">
    <g transform="matrix(1, 0, 0, 1, -9.01, 689)" filter="url(#Fondo)">
      <g id="Fondo-2" data-name="Fondo" transform="translate(9 6)" fill="#effdfc" stroke="#70efea" stroke-width="3">
        <circle cx="45" cy="45" r="45" stroke="none"/>
        <circle cx="45" cy="45" r="43.5" fill="none"/>
      </g>
    </g>
    <g id="Group_1145580" data-name="Group 1145580" transform="translate(19.117 711.397)">
      <g id="Group_1145579" data-name="Group 1145579" clip-path="url(#clip-path)">
        <path id="Path_979719" data-name="Path 979719" d="M2.43,44.168c-1.738-1,2.612-3.591,3.856-3.591h5.546V38.147c0-.136-2.039-.974-2.42-1.224A13.208,13.208,0,0,1,4.25,30.148c-.116-.326-.313-1.5-.393-1.614-.066-.092-1.656-.565-2.094-.864-3.051-2.088-1.858-6.178,1.4-7.223C1.172,16.113-1.5,7.986,5.455,6.79c.38-.065,1.011.084,1.3-.069.094-.049.706-1.158.912-1.413,5.843-7.248,15.276.412,22.155-4.255.557-.378,1.138-1.486,1.966-.873.492.365,1.23,3.534,1.346,4.252.738,4.589,0,8.712-3.641,11.819l-.008,4.135a4.585,4.585,0,0,1,3.543,3.082l2.254,0a2.856,2.856,0,0,1,1.692-3.22c.977-.309,6.9-.287,7.815.1a2.469,2.469,0,0,1,1.325,1.528c.1.356.1,1.532.154,1.589.241.245,6.05-.223,6.873.047a.808.808,0,0,1,.516.646,33.118,33.118,0,0,1,.009,4.537c-.073.5-.316.821-.847.79-.23-.013-.739-.317-.739-.475v-3.8l-.158-.158H46.271c-.148,0,.186,1.854-.735,2.8-1.058,1.092-5.96.927-7.563.793-2.194-.184-2.8-1.542-2.689-3.6h-5.81V42.584c.788-.377,2.436-3.243,3.383-2.168.991,1.125-2.075,2.745-2,3.262.042.291,3.286,3.079,3.689,3.712,1.364,2.136-1.708,3.66-2.747,5.124H52.081V31.651c0-.195.612-.573.739-.581.366-.022.932.452.852.891l0,21.243a.824.824,0,0,1-.609.87L1.751,54.09c-.452-.046-.639-.488-.7-.889a47.1,47.1,0,0,1,0-6.553c.068-.459.47-.945.953-.9a2.027,2.027,0,0,1,.634.475v6.179H6.92l1.743-1.794c-.549-.1-2.336-.336-2.512-.922l.188-7.423a3.619,3.619,0,0,0-1.576.589c-.731.439-1.478,1.8-2.332,1.312M14.051,3.607A6.863,6.863,0,0,0,9.088,6.092c-.614.759-1.032,2.468-1.95,2.482-1.052.017-1.327-.432-2.624.127-3.19,1.375-1.66,6.431-.789,8.874a26.564,26.564,0,0,0,1.151,2.7c.494.293,2-.789,2.348-1.157C8.047,18.257,9,15.383,9.3,15.179c.5-.34,2.3.665,2.951.892,4.438,1.554,8.739,2.107,13.259.424,6.395-2.381,7.278-8.157,5.438-14.155-2.671,1.846-5.764,2.025-8.929,1.905-2.571-.1-5.425-.769-7.972-.638M9.931,17.972c-.842,1.38-1.67,2.789-3.2,3.506-.307.143-1.391.351-1.441.408a42.923,42.923,0,0,0,.132,6.142,11.176,11.176,0,0,0,8.1,8.957,11.084,11.084,0,0,0,10.025-1.965c5.775-4.557,4.1-11.206,4.342-17.681a20.493,20.493,0,0,1-14.87.767c-.445-.136-2.579-1.085-2.723-1.058-.213.041-.342.722-.366.924m29.157,9.084c1.641.058,3.27-.1,4.909-.109a.934.934,0,0,0,.483-.361,24.409,24.409,0,0,0,.1-4.021.983.983,0,0,0-.365-.692,38.231,38.231,0,0,0-5.131-.1c-.617,0-1.559-.378-2.032.346a14.536,14.536,0,0,0-.192,3.832c.168,1.386,1.168,1.066,2.224,1.1M3.7,22.092a2.338,2.338,0,0,0,0,4.648Zm27.467,1.373c.072-.507-1.357-1.441-1.636-1.375l-.054,1.375ZM27.889,40.894v-8.45a15.072,15.072,0,0,1-4.828,4.838c-.259.158-1.828.817-1.828.919v2.377c2.213.1,4.5-.259,6.655.317m-8.346-1.373c0-.115.32-.708-.061-.831-.079-.026-1.295.282-1.58.3a14.9,14.9,0,0,1-4.381-.314V41a14.685,14.685,0,0,0,1.8.951c.319.162.991.644,1.295.615l2.864-1.555a5.255,5.255,0,0,0,.067-1.49M9.508,42.161H8.029L7.718,48.81c3.551.631,4.525.973,1.473,3.7H12.36Zm2.853,4.331A12.586,12.586,0,0,0,15.1,43.707c-.062-.207-3.349-2.088-3.9-1.545Zm9.506-4.33c-1.524-.273-2.6.958-3.908,1.48l2.694,2.849Zm-.738,8.766,4.1-4.089-.182-4.632-1.5.016ZM27.874,42.6l-1.146-.332.106,2.957c.22-.2.963-.79,1.032-1.026a9.108,9.108,0,0,0,.007-1.6m-11.29,5.581,1.381-1.947L16.533,44.8l-1.519,1.444,1.351,1.871Zm10.777,1.8a20.071,20.071,0,0,0,2.324,2.275c.412-.617,3.484-3.211,3.576-3.618.1-.445-1.716-1.99-2.1-2.354-1.081-1.031-1-1.9-2.38-.742-1,.84-1.917,2.029-2.894,2.923-.031.216,1.249,1.286,1.47,1.516m-13.52,1.584,1.589-2.053-1.643-2.063c-1.595.966-.073,2.7.054,4.116m5.349-4.111-1.545,1.943,1.529,2.06a14.87,14.87,0,0,0,.908-3.009c-.022-.26-.693-1.021-.892-.994m6.8,3.583c-.273-.258-1.063-1.326-1.4-1.256l-2.61,2.578c-.045.244.108.138.261.157a23.978,23.978,0,0,0,2.59,0c.879,0,1.762,0,2.641,0a12.85,12.85,0,0,0-1.479-1.478m-8.134,1.479-1.319-1.69-1.216,1.69Z" transform="translate(0 0)" fill="#020202"/>
        <path id="Path_979720" data-name="Path 979720" d="M162.65,124.412c-.127.008-.739.387-.739.581v20.862H141.628c1.039-1.463,4.111-2.987,2.747-5.124-.4-.633-3.648-3.421-3.689-3.712-.074-.516,2.992-2.137,2-3.261-.947-1.075-2.594,1.791-3.383,2.168V118.391h5.81c-.114,2.055.495,3.412,2.689,3.6,1.6.134,6.5.3,7.563-.792.921-.95.587-2.8.735-2.8h5.652l.158.158v3.8c0,.159.51.462.739.475Zm-4.362,2.5a.812.812,0,0,0-.439-1.347H143.577c-1.118.289-.8,1.646.319,1.594,4.344-.345,9.374.445,13.637,0a1.412,1.412,0,0,0,.756-.248m0,4.648a.807.807,0,0,0-.548-1.344H143.686a.794.794,0,0,0,0,1.588c4.411-.346,9.518.454,13.846,0a1.414,1.414,0,0,0,.756-.248m0,3.547a1.414,1.414,0,0,0-.756-.248c-4.328-.45-9.435.35-13.846,0a.794.794,0,0,0,0,1.588H157.74a.807.807,0,0,0,.548-1.344m-2.116,4.652a1.341,1.341,0,0,0-.753-.252,66.691,66.691,0,0,0-9.512.007c-1.266.168-1.267,1.518.105,1.689a65.7,65.7,0,0,0,9.4,0c.764-.1,1.414-.824.759-1.443" transform="translate(-109.829 -93.341)" fill="#e3e3e3"/>
        <path id="Path_979721" data-name="Path 979721" d="M9.913,201.667c.854.489,1.6-.873,2.332-1.312a3.621,3.621,0,0,1,1.576-.589l-.188,7.423c.176.586,1.963.819,2.512.922L14.4,209.906H10.124v-6.179a2.028,2.028,0,0,0-.634-.475Z" transform="translate(-7.482 -157.499)" fill="#505e73"/>
        <path id="Path_979722" data-name="Path 979722" d="M46.321,81.5c.023-.2.153-.884.366-.924.143-.028,2.278.922,2.723,1.058a20.493,20.493,0,0,0,14.87-.767c-.242,6.475,1.433,13.125-4.342,17.681a11.083,11.083,0,0,1-10.025,1.965,14.976,14.976,0,0,1-3.6-9.344,73.195,73.195,0,0,1,0-9.669m2.925,5c-1.395-1.6-2.147,2.729-.84,3.011,1.459.315,1.272-2.515.84-3.011m7.823-.224c-.949.184-.786,2.962-.181,3.2,1.633.641,1.655-3.486.181-3.2m-7.65,7.094c-1.27,1.239,2.224,2.548,3.19,2.6,1.115.063,4.857-.912,3.966-2.486-.563-.994-1.658.366-2.257.609a3.525,3.525,0,0,1-2.607.03c-.714-.263-1.59-1.44-2.292-.755" transform="translate(-36.39 -63.524)" fill="#f7c0ae"/>
        <path id="Path_979723" data-name="Path 979723" d="M54.242,12.326c2.547-.131,5.4.54,7.972.638,3.165.12,6.258-.059,8.929-1.905,1.841,6,.957,11.774-5.438,14.155-4.52,1.683-8.821,1.13-13.259-.424a9.785,9.785,0,0,1,.335-10.809c.434-.611,1.01-1.073,1.461-1.655" transform="translate(-40.191 -8.719)" fill="#505e74"/>
        <path id="Path_979724" data-name="Path 979724" d="M23.682,17.049c-.451.582-1.027,1.044-1.461,1.655a9.785,9.785,0,0,0-.335,10.809c-.647-.227-2.446-1.232-2.951-.892-.3.2-1.257,3.078-2.079,3.943-.35.368-1.854,1.451-2.348,1.157a26.538,26.538,0,0,1-1.151-2.7c-.871-2.444-2.4-7.5.789-8.874,1.3-.559,1.572-.11,2.624-.127.918-.015,1.336-1.723,1.95-2.482a6.863,6.863,0,0,1,4.962-2.485" transform="translate(-9.631 -13.442)" fill="#3a475a"/>
        <path id="Path_979725" data-name="Path 979725" d="M32.932,103.956A11.176,11.176,0,0,1,24.829,95a42.923,42.923,0,0,1-.132-6.142c.049-.056,1.134-.264,1.441-.408,1.532-.717,2.36-2.126,3.2-3.506a73.231,73.231,0,0,0,0,9.669,14.976,14.976,0,0,0,3.6,9.344" transform="translate(-19.409 -66.97)" fill="#e89d8e"/>
        <path id="Path_979726" data-name="Path 979726" d="M183.95,108.069c.043-.259-.211-.72-.211-.9V103.58c0-.146.218-.577.211-.792a38.2,38.2,0,0,1,5.131.1.984.984,0,0,1,.365.691,24.434,24.434,0,0,1-.1,4.021.936.936,0,0,1-.484.361c-1.639.008-3.268.167-4.909.109" transform="translate(-144.863 -81.012)" fill="#f8c1ae"/>
        <path id="Path_979727" data-name="Path 979727" d="M38.271,199.265l2.852,10.352H37.954c3.052-2.729,2.078-3.072-1.472-3.7l.31-6.649Z" transform="translate(-28.763 -157.104)" fill="#4f5d72"/>
        <path id="Path_979728" data-name="Path 979728" d="M133.121,218.735c.382.364,2.2,1.909,2.1,2.354-.092.407-3.164,3-3.576,3.618a20.056,20.056,0,0,1-2.324-2.275Z" transform="translate(-101.956 -172.454)" fill="#f7c0ad"/>
        <path id="Path_979729" data-name="Path 979729" d="M99.866,208.2l2.415-8.705,1.5-.015.182,4.632Z" transform="translate(-78.736 -157.276)" fill="#4f5d72"/>
        <path id="Path_979730" data-name="Path 979730" d="M127.639,213.922l-3.8,3.7c-.222-.23-1.5-1.3-1.471-1.516.977-.894,1.892-2.083,2.894-2.923,1.376-1.153,1.3-.289,2.38.742" transform="translate(-96.475 -167.641)" fill="#eeab99"/>
        <path id="Path_979731" data-name="Path 979731" d="M176.3,102.545c.007.215-.211.647-.211.792v3.591c0,.177.255.639.211.9-1.056-.037-2.056.282-2.224-1.1a14.529,14.529,0,0,1,.193-3.832c.473-.723,1.415-.347,2.031-.345" transform="translate(-137.217 -80.769)" fill="#e4a494"/>
        <path id="Path_979732" data-name="Path 979732" d="M76.623,186.785a5.255,5.255,0,0,1-.067,1.49l-2.864,1.555c-.3.029-.976-.453-1.295-.615V187.1Z" transform="translate(-57.079 -147.264)" fill="#f6c0ad"/>
        <path id="Path_979733" data-name="Path 979733" d="M54.092,203.233,52.93,198.9c.553-.542,3.84,1.339,3.9,1.545a12.588,12.588,0,0,1-2.74,2.785" transform="translate(-41.731 -156.741)" fill="#eaeaea"/>
        <path id="Path_979734" data-name="Path 979734" d="M88.793,199.122l-1.214,4.329L84.885,200.6c1.308-.523,2.383-1.754,3.908-1.48" transform="translate(-66.925 -156.96)" fill="#ededed"/>
        <path id="Path_979735" data-name="Path 979735" d="M69.933,183.636l-4.226.316v2.113a14.671,14.671,0,0,1-1.8-.951v-2.324a14.9,14.9,0,0,0,4.381.314c.285-.018,1.5-.325,1.579-.3.381.123.063.715.061.831" transform="translate(-50.389 -144.115)" fill="#e49a8c"/>
        <path id="Path_979736" data-name="Path 979736" d="M9.737,104.413v4.648a2.338,2.338,0,0,1,0-4.648" transform="translate(-6.038 -82.321)" fill="#df9688"/>
        <path id="Path_979737" data-name="Path 979737" d="M107.843,236.508l-1.162,1.479a23.982,23.982,0,0,1-2.59,0c-.153-.019-.306.088-.261-.157l2.61-2.578c.34-.07,1.131,1,1.4,1.256" transform="translate(-81.854 -185.474)" fill="#384557"/>
        <path id="Path_979738" data-name="Path 979738" d="M72.531,215.114l-.219-.066-1.351-1.871,1.519-1.444,1.431,1.435Z" transform="translate(-55.947 -166.933)" fill="#f24664"/>
        <path id="Path_979739" data-name="Path 979739" d="M84.941,224.264c.2-.028.87.734.892.994a14.873,14.873,0,0,1-.908,3.009l-1.529-2.06Z" transform="translate(-65.751 -176.813)" fill="#ececec"/>
        <path id="Path_979740" data-name="Path 979740" d="M62.52,228.356c-.128-1.417-1.649-3.15-.054-4.116l1.643,2.063Z" transform="translate(-48.679 -176.794)" fill="#ececec"/>
        <path id="Path_979741" data-name="Path 979741" d="M127.471,200.1a9.107,9.107,0,0,1-.007,1.6c-.069.236-.812.822-1.032,1.026l-.106-2.957Z" transform="translate(-99.597 -157.499)" fill="#4e5b70"/>
        <path id="Path_979742" data-name="Path 979742" d="M74.935,241.892H72.4l1.216-1.69Z" transform="translate(-57.081 -189.379)" fill="#e84360"/>
        <path id="Path_979743" data-name="Path 979743" d="M118.5,241.2a12.834,12.834,0,0,1,1.479,1.477c-.879.005-1.762,0-2.641,0Z" transform="translate(-92.509 -190.166)" fill="#505e74"/>
        <path id="Path_979744" data-name="Path 979744" d="M140.993,105.768H139.3l.055-1.375c.279-.066,1.708.868,1.636,1.375" transform="translate(-109.829 -82.302)" fill="#e49a8c"/>
        <path id="Path_979745" data-name="Path 979745" d="M171.615,153.661a1.413,1.413,0,0,1-.756.248c-4.263.443-9.292-.347-13.637,0-1.119.052-1.436-1.3-.318-1.594h14.272a.812.812,0,0,1,.439,1.347" transform="translate(-123.156 -120.086)" fill="#030303"/>
        <path id="Path_979746" data-name="Path 979746" d="M171.668,175.639a1.413,1.413,0,0,1-.756.248c-4.328.45-9.436-.35-13.846,0a.794.794,0,0,1,0-1.588h14.054a.807.807,0,0,1,.548,1.344" transform="translate(-123.209 -137.417)" fill="#010101"/>
        <path id="Path_979747" data-name="Path 979747" d="M171.668,195.965a.807.807,0,0,1-.548,1.344H157.066a.794.794,0,0,1,0-1.588c4.411.346,9.518-.454,13.846,0a1.413,1.413,0,0,1,.756.248" transform="translate(-123.209 -154.195)" fill="#010101"/>
        <path id="Path_979748" data-name="Path 979748" d="M177.284,217.839c.655.619.006,1.342-.759,1.443a65.7,65.7,0,0,1-9.4,0c-1.372-.171-1.371-1.521-.105-1.689a66.68,66.68,0,0,1,9.512-.007,1.341,1.341,0,0,1,.753.252" transform="translate(-130.942 -171.417)" fill="#0b0b0b"/>
        <path id="Path_979749" data-name="Path 979749" d="M60.552,140.116c.7-.684,1.578.492,2.292.755a3.525,3.525,0,0,0,2.607-.03c.6-.243,1.694-1.6,2.257-.609.891,1.574-2.851,2.549-3.966,2.486-.967-.054-4.461-1.363-3.19-2.6" transform="translate(-47.524 -110.278)" fill="#050403"/>
        <path id="Path_979750" data-name="Path 979750" d="M55.109,107.233c.431.5.618,3.326-.84,3.011-1.306-.282-.555-4.614.84-3.011" transform="translate(-42.253 -84.264)" fill="#0a0707"/>
        <path id="Path_979751" data-name="Path 979751" d="M95.226,107.442c1.474-.286,1.452,3.841-.181,3.2-.6-.238-.768-3.015.181-3.2" transform="translate(-74.547 -84.698)" fill="#050403"/>
      </g>
    </g>
  </g>
</svg>
