<svg xmlns="http://www.w3.org/2000/svg" xmlns:xlink="http://www.w3.org/1999/xlink" width="108" height="108" viewBox="0 0 108 108">
  <defs>
    <filter id="Fondo" x="0" y="0" width="108" height="108" filterUnits="userSpaceOnUse">
      <feOffset dy="3" input="SourceAlpha"/>
      <feGaussianBlur stdDeviation="3" result="blur"/>
      <feFlood flood-opacity="0.161"/>
      <feComposite operator="in" in2="blur"/>
      <feComposite in="SourceGraphic"/>
    </filter>
    <clipPath id="clip-path">
      <rect id="Rectangle_405915" data-name="Rectangle 405915" width="50.862" height="60.608" fill="none"/>
    </clipPath>
  </defs>
  <g id="Group_1151656" data-name="Group 1151656" transform="translate(-127.218 -1478)">
    <g id="Group_1151655" data-name="Group 1151655">
      <g id="Group_1151654" data-name="Group 1151654">
        <g id="Icono" transform="translate(136.218 789)">
          <g transform="matrix(1, 0, 0, 1, -9, 689)" filter="url(#Fondo)">
            <g id="Fondo-2" data-name="Fondo" transform="translate(9 6)" fill="#effdfc" stroke="#70efea" stroke-width="3">
              <circle cx="45" cy="45" r="45" stroke="none"/>
              <circle cx="45" cy="45" r="43.5" fill="none"/>
            </g>
          </g>
          <g id="Group_1151304" data-name="Group 1151304" transform="translate(19.569 706.27)">
            <g id="Group_1151304-2" data-name="Group 1151304" clip-path="url(#clip-path)">
              <path id="Path_990263" data-name="Path 990263" d="M28.48,156.735a4.975,4.975,0,0,1,.491,7.256c-.236.269-.639.367-.613.667a5.923,5.923,0,0,1,4.329,3.171,5.872,5.872,0,0,1,2.13-1.1c-2.807-2.086-1.657-6.8,1.884-7.073a3.929,3.929,0,0,1,2.747,7.073,3.9,3.9,0,0,1,2.563,1.828l1.7-.853a3.462,3.462,0,0,1,3.5-5.872A3.506,3.506,0,0,1,48.1,167.7a3.791,3.791,0,0,1,2.649,3.02,27.775,27.775,0,0,1,.037,4.485c-.057.621-.26.956-.917,1.033l-6.815-.01c-.136.037-.031.875-.986.986l-8.764-.011c-.136.037-.031.875-.986.986-4.4-.305-9.323.4-13.659,0-1.132-.1-.948-.946-1.1-.989l-8.764.011c-.955-.111-.849-.948-.986-.986l-7.123-.047a.936.936,0,0,1-.6-.745A28.851,28.851,0,0,1,.1,170.828,3.805,3.805,0,0,1,2.764,167.7a3.461,3.461,0,0,1,2.729-6.08c2.917.354,3.845,4.209,1.659,6.08l1.7.853a3.9,3.9,0,0,1,2.564-1.828,3.934,3.934,0,1,1,4.631,0,5.872,5.872,0,0,1,2.13,1.1,5.923,5.923,0,0,1,4.329-3.171c.032-.169.025-.156-.078-.254a6.288,6.288,0,0,1-.715-.6,5.009,5.009,0,0,1,.672-7.071,5.169,5.169,0,0,1,6.094,0m-3.566,1.005c-3.6.572-2.918,6.294.936,5.81,3.74-.47,3.044-6.442-.936-5.81m-11.578,3.9a1.962,1.962,0,0,0,.795,3.842,1.962,1.962,0,0,0-.795-3.842m23.4,0a1.962,1.962,0,0,0,.795,3.842,1.962,1.962,0,0,0-.795-3.842M4.682,163.59a1.464,1.464,0,0,0,.443,2.891,1.463,1.463,0,1,0-.443-2.891m40.951,0a1.464,1.464,0,0,0,.443,2.891,1.464,1.464,0,1,0-.443-2.891m-14.35,12.649v-6.4c0-1.164-1.387-2.63-2.439-3.046a16.239,16.239,0,0,0-6.822,0c-1.051.415-2.439,1.881-2.439,3.046v6.4Zm-13.651-.975v-4.328a3.248,3.248,0,0,0-2.038-2.349,8.4,8.4,0,0,0-4.083.127c-.6.282-1.678,1.442-1.678,2.1v4.449Zm23.4,0v-4.328a3.247,3.247,0,0,0-2.039-2.349,8.4,8.4,0,0,0-4.083.127c-.6.282-1.678,1.442-1.678,2.1v4.449Zm-33.151-.975v-3.352c0-.439-.845-1.257-1.274-1.408a9.823,9.823,0,0,0-3.215-.034c-.463.134-1.362.973-1.362,1.442v3.352Zm40.951,0v-3.352c0-.439-.844-1.257-1.274-1.408a9.823,9.823,0,0,0-3.215-.034c-.463.134-1.362.973-1.362,1.442v3.352Z" transform="translate(0 -117.711)" fill="#020202"/>
              <path id="Path_990264" data-name="Path 990264" d="M66.174,79.763c-.649,0-1.3,0-1.95,0V71.047a11.481,11.481,0,0,1,.393-1.435,6.9,6.9,0,0,1,5.945-4.478,6.244,6.244,0,0,1-1.849-8.248,6.132,6.132,0,0,1,10.478-.077,6.243,6.243,0,0,1-1.8,8.325,6.882,6.882,0,0,1,5.945,4.478,11.481,11.481,0,0,1,.393,1.435v8.716c-.649,0-1.3,0-1.95,0-.169-2.623.224-5.52,0-8.111-.168-1.982-2.085-4.567-4.209-4.567H75.315l1.579,5.905A16.924,16.924,0,0,1,74.385,76.7a.915.915,0,0,1-1.263-.289,22.144,22.144,0,0,1-2.068-3.3,1.637,1.637,0,0,1,.05-.666l1.529-5.357H70.379a12.222,12.222,0,0,0-1.2.382,4.949,4.949,0,0,0-3.006,4.185c-.22,2.591.173,5.488,0,8.111M73.335,55.9c-5.163.7-4.324,8.843,1.175,8.244,5.278-.575,4.488-9.011-1.175-8.244m.76,13.865c-.322-.036-.192.007-.245.18a21.773,21.773,0,0,0-.735,2.687c0,.456.554,1.014.8,1.4,1.711-1.174.31-2.686.181-4.267" transform="translate(-48.541 -40.739)" fill="#030202"/>
              <path id="Path_990265" data-name="Path 990265" d="M71.983,120.57c.169-2.623-.224-5.52,0-8.111a4.95,4.95,0,0,1,3.006-4.185,12.265,12.265,0,0,1,1.2-.382h2.255l-1.529,5.357a1.641,1.641,0,0,0-.05.666,22.157,22.157,0,0,0,2.068,3.3.915.915,0,0,0,1.263.289A16.938,16.938,0,0,0,82.7,113.8l-1.579-5.906h2.255c2.124,0,4.041,2.585,4.209,4.567.22,2.591-.173,5.488,0,8.111-1.582.012-3.171-.009-4.753,0a5.169,5.169,0,0,0-6.094,0c-1.583-.009-3.171.012-4.753,0" transform="translate(-54.351 -81.546)" fill="#fd6567"/>
              <path id="Path_990266" data-name="Path 990266" d="M87.494,3.275c.749.325,3.248.235,3.711.8.959,1.167-1.7,2.672-2.262,3.467-.038.934.823,3.058.284,3.81-.845,1.18-2.995-.971-4.009-1.093-1.214.343-3.7,2.83-4.1.426l.478-3.143c-.425-.706-2.321-2-2.416-2.72-.206-1.563,2.9-1.155,3.869-1.541C83.454,2.668,84.2.456,84.734.152c1.525-.87,2.115,2.251,2.76,3.124m-2.105.032c-.284-.062-.195.039-.271.157-.256.4-.452,1.216-.826,1.487a5.8,5.8,0,0,1-1.948.43c.267.481,1.181,1.032,1.314,1.554.117.461-.344,1.8-.216,1.98.5-.166,1.293-.792,1.785-.818s1.374.651,1.869.818c-.017-1.152-.652-1.642.242-2.624.144-.158,1.024-.749.856-.911-1.642-.052-2.368-.455-2.8-2.072" transform="translate(-59.836 0)" fill="#040303"/>
              <path id="Path_990267" data-name="Path 990267" d="M173.933,62.467l1.043,1.586L171.5,66.92c-.416.312-1.523-1.428-1.458-1.523Z" transform="translate(-128.514 -47.213)" fill="#050505"/>
              <path id="Path_990268" data-name="Path 990268" d="M22.3,134.832c.085.4,1.166,1.225.977,1.551l-3.448,2.708c-.448.42-1.514-1.186-1.356-1.474,1.107-.715,2.163-1.925,3.244-2.614.151-.1.414-.271.584-.172" transform="translate(-13.952 -101.885)" fill="#050505"/>
              <path id="Path_990269" data-name="Path 990269" d="M175.539,137.7c.107.155-.985,1.669-1.368,1.559l-3.324-2.661c-.539-.367.764-1.786,1.08-1.7Z" transform="translate(-129.031 -101.953)" fill="#050505"/>
              <path id="Path_990270" data-name="Path 990270" d="M22.311,67.438l-.463-.04-3.36-2.743c-.147-.32.849-1.741,1.283-1.524L23.253,66v.242Z" transform="translate(-13.962 -47.698)" fill="#050505"/>
              <rect id="Rectangle_405913" data-name="Rectangle 405913" width="4.875" height="1.95" transform="translate(2.033 25.371)"/>
              <rect id="Rectangle_405914" data-name="Rectangle 405914" width="4.875" height="1.95" transform="translate(43.959 25.371)"/>
              <path id="Path_990271" data-name="Path 990271" d="M91.9,209.326h-11.7v-6.4c0-1.165,1.388-2.631,2.439-3.046a16.244,16.244,0,0,1,6.822,0c1.052.416,2.439,1.882,2.439,3.046Z" transform="translate(-60.612 -150.798)" fill="#4992f1"/>
              <path id="Path_990272" data-name="Path 990272" d="M48.067,214.433h-7.8v-4.449c0-.658,1.079-1.818,1.678-2.1a8.4,8.4,0,0,1,4.083-.127,3.248,3.248,0,0,1,2.039,2.349Z" transform="translate(-30.434 -156.88)" fill="#4183d8"/>
              <path id="Path_990273" data-name="Path 990273" d="M143.9,214.433h-7.8v-4.449c0-.658,1.079-1.818,1.678-2.1a8.4,8.4,0,0,1,4.083-.127,3.248,3.248,0,0,1,2.039,2.349Z" transform="translate(-102.863 -156.88)" fill="#4183d8"/>
              <path id="Path_990274" data-name="Path 990274" d="M14.174,216.5H8.324v-3.352c0-.469.9-1.308,1.362-1.442a9.824,9.824,0,0,1,3.215.034c.429.15,1.274.969,1.274,1.408Z" transform="translate(-6.291 -159.922)" fill="#3972bd"/>
              <path id="Path_990275" data-name="Path 990275" d="M181.875,216.5h-5.85v-3.352c0-.469.9-1.308,1.362-1.442a9.823,9.823,0,0,1,3.214.034c.43.15,1.274.969,1.274,1.408Z" transform="translate(-133.041 -159.922)" fill="#3972bd"/>
              <path id="Path_990276" data-name="Path 990276" d="M94.719,163.781c3.98-.631,4.676,5.341.936,5.811-3.854.484-4.538-5.239-.936-5.811" transform="translate(-69.805 -123.752)" fill="#fcbe71"/>
              <path id="Path_990277" data-name="Path 990277" d="M49.851,179.79a1.962,1.962,0,0,1,.795,3.842,1.962,1.962,0,0,1-.795-3.842" transform="translate(-36.516 -135.861)" fill="#f9bd70"/>
              <path id="Path_990278" data-name="Path 990278" d="M145.68,179.79a1.962,1.962,0,0,1,.795,3.842,1.962,1.962,0,0,1-.795-3.842" transform="translate(-108.944 -135.861)" fill="#f9bd70"/>
              <path id="Path_990279" data-name="Path 990279" d="M15.555,187.793A1.463,1.463,0,1,1,16,190.685a1.463,1.463,0,0,1-.443-2.891" transform="translate(-10.873 -141.914)" fill="#fabd71"/>
              <path id="Path_990280" data-name="Path 990280" d="M183.257,187.793a1.463,1.463,0,1,1,.443,2.891,1.463,1.463,0,0,1-.443-2.891" transform="translate(-137.624 -141.914)" fill="#fabd71"/>
              <path id="Path_990281" data-name="Path 990281" d="M90.87,61.942c5.663-.767,6.452,7.669,1.175,8.244-5.5.6-6.338-7.545-1.175-8.244" transform="translate(-66.075 -46.779)" fill="#fcbf72"/>
              <path id="Path_990282" data-name="Path 990282" d="M101.616,118.837c.129,1.581,1.53,3.093-.181,4.267-.245-.386-.8-.944-.8-1.4a21.775,21.775,0,0,1,.735-2.687c.053-.173-.077-.216.245-.18" transform="translate(-76.062 -89.809)" fill="#e8e8e8"/>
              <path id="Path_990283" data-name="Path 990283" d="M95.219,13.485c.436,1.618,1.162,2.021,2.8,2.072.168.162-.712.753-.856.911-.894.982-.259,1.472-.242,2.624-.5-.167-1.369-.844-1.869-.818s-1.289.652-1.785.818c-.128-.175.333-1.518.216-1.98-.132-.522-1.046-1.074-1.314-1.554a5.8,5.8,0,0,0,1.948-.43c.373-.272.569-1.092.826-1.487.076-.118-.013-.219.271-.157" transform="translate(-69.666 -10.178)" fill="#fad757"/>
            </g>
          </g>
        </g>
      </g>
    </g>
  </g>
</svg>
