<svg xmlns="http://www.w3.org/2000/svg" xmlns:xlink="http://www.w3.org/1999/xlink" width="103" height="103" viewBox="0 0 103 103">
  <defs>
    <filter id="Path_978624" x="0" y="0" width="103" height="103" filterUnits="userSpaceOnUse">
      <feOffset dy="3" input="SourceAlpha"/>
      <feGaussianBlur stdDeviation="3" result="blur"/>
      <feFlood flood-opacity="0.161"/>
      <feComposite operator="in" in2="blur"/>
      <feComposite in="SourceGraphic"/>
    </filter>
  </defs>
  <g id="Group_1151667" data-name="Group 1151667" transform="translate(-171 -7288.262)">
    <g id="Group_1145532" data-name="Group 1145532" transform="translate(-31 1276.262)">
      <g transform="matrix(1, 0, 0, 1, 202, 6012)" filter="url(#Path_978624)">
        <g id="Path_978624-2" data-name="Path 978624" transform="translate(9 6)" fill="#f5e9a1">
          <path d="M 42.5 83.5 C 36.96437835693359 83.5 31.59512901306152 82.41617584228516 26.54141235351562 80.27863311767578 C 21.65934181213379 78.21369171142578 17.27447128295898 75.25723266601562 13.50862312316895 71.49137878417969 C 9.742764472961426 67.72553253173828 6.786305904388428 63.34066009521484 4.721364498138428 58.45858764648438 C 2.583823442459106 53.40486907958984 1.5 48.03562164306641 1.5 42.5 C 1.5 36.96437835693359 2.583823442459106 31.59512901306152 4.721364498138428 26.54141235351562 C 6.786305904388428 21.65934181213379 9.742764472961426 17.27447128295898 13.50862312316895 13.50862312316895 C 17.27447128295898 9.742764472961426 21.65934181213379 6.786305904388428 26.54141235351562 4.721364498138428 C 31.59512901306152 2.583823442459106 36.96437835693359 1.5 42.5 1.5 C 48.03562164306641 1.5 53.40486907958984 2.583823442459106 58.45858764648438 4.721364498138428 C 63.34066009521484 6.786305904388428 67.72553253173828 9.742764472961426 71.49137878417969 13.50862312316895 C 75.25723266601562 17.27447128295898 78.21369171142578 21.65934181213379 80.27863311767578 26.54141235351562 C 82.41617584228516 31.59512901306152 83.5 36.96437835693359 83.5 42.5 C 83.5 48.03562164306641 82.41617584228516 53.40486907958984 80.27863311767578 58.45858764648438 C 78.21369171142578 63.34066009521484 75.25723266601562 67.72553253173828 71.49137878417969 71.49137878417969 C 67.72553253173828 75.25723266601562 63.34066009521484 78.21369171142578 58.45858764648438 80.27863311767578 C 53.40486907958984 82.41617584228516 48.03562164306641 83.5 42.5 83.5 Z" stroke="none"/>
          <path d="M 42.5 3 C 37.16621398925781 3 31.99356079101562 4.043960571289062 27.125732421875 6.102882385253906 C 22.42246627807617 8.092185974121094 18.19785308837891 10.94070434570312 14.56928253173828 14.56928253173828 C 10.94070434570312 18.19785308837891 8.092185974121094 22.42246627807617 6.102882385253906 27.125732421875 C 4.043960571289062 31.99356079101562 3 37.16621398925781 3 42.5 C 3 47.83378601074219 4.043960571289062 53.00643920898438 6.102882385253906 57.87425231933594 C 8.092185974121094 62.57753372192383 10.94070434570312 66.80213165283203 14.56928253173828 70.43071746826172 C 18.19786834716797 74.05929565429688 22.42246627807617 76.90781402587891 27.125732421875 78.89711761474609 C 31.99356079101562 80.95603942871094 37.16621398925781 82 42.5 82 C 47.83378601074219 82 53.00642395019531 80.95603942871094 57.87425231933594 78.89711761474609 C 62.57753372192383 76.90781402587891 66.80213165283203 74.05929565429688 70.43071746826172 70.43071746826172 C 74.05929565429688 66.80213165283203 76.90781402587891 62.57753372192383 78.89711761474609 57.87425231933594 C 80.95603942871094 53.00642395019531 82 47.83378601074219 82 42.5 C 82 37.16621398925781 80.95603942871094 31.99356079101562 78.89711761474609 27.125732421875 C 76.90781402587891 22.42246627807617 74.05929565429688 18.19786834716797 70.43071746826172 14.56928253173828 C 66.80213165283203 10.94070434570312 62.57753372192383 8.092185974121094 57.87425231933594 6.102882385253906 C 53.00643920898438 4.043960571289062 47.83378601074219 3 42.5 3 M 42.5 0 C 65.97209167480469 0 85 19.02789306640625 85 42.5 C 85 65.97209167480469 65.97209167480469 85 42.5 85 C 19.02789306640625 85 0 65.97209167480469 0 42.5 C 0 19.02789306640625 19.02789306640625 0 42.5 0 Z" stroke="none" fill="#bcac89"/>
        </g>
      </g>
      <g id="lista-de-verificacion" transform="translate(228.043 6037.641)">
        <g id="Group_1145765" data-name="Group 1145765" transform="translate(0.822 0.988)">
          <g id="Group_1145758" data-name="Group 1145758" transform="translate(26.295 6.574)">
            <path id="Path_981325" data-name="Path 981325" d="M39.752,16.574h-4.93A.824.824,0,0,1,34,15.752v-4.93A.824.824,0,0,1,34.822,10h4.93a.824.824,0,0,1,.822.822v4.93A.824.824,0,0,1,39.752,16.574Z" transform="translate(-34 -10)" fill="#fcd770"/>
          </g>
          <g id="Group_1145759" data-name="Group 1145759" transform="translate(26.295 21.365)">
            <path id="Path_981326" data-name="Path 981326" d="M39.752,34.574h-4.93A.824.824,0,0,1,34,33.752v-4.93A.824.824,0,0,1,34.822,28h4.93a.824.824,0,0,1,.822.822v4.93A.824.824,0,0,1,39.752,34.574Z" transform="translate(-34 -28)" fill="#fcd770"/>
          </g>
          <g id="Group_1145760" data-name="Group 1145760" transform="translate(26.295 34.513)">
            <path id="Path_981327" data-name="Path 981327" d="M39.752,50.574h-4.93A.824.824,0,0,1,34,49.752v-4.93A.824.824,0,0,1,34.822,44h4.93a.824.824,0,0,1,.822.822v4.93A.824.824,0,0,1,39.752,50.574Z" transform="translate(-34 -44)" fill="#fcd770"/>
          </g>
          <g id="Group_1145761" data-name="Group 1145761" transform="translate(0 0)">
            <path id="Path_981328" data-name="Path 981328" d="M17.646,19.988,13.5,22.4v-.682a1.648,1.648,0,0,0-1.643-1.643,1.655,1.655,0,0,0-1.643,1.643V22.4L6.076,19.988A8.214,8.214,0,0,1,2,12.9V2.822l1.52.756A6.539,6.539,0,0,0,10.1,3.167L11.861,2l1.759,1.167a6.539,6.539,0,0,0,6.582.411l1.52-.756V12.9A8.214,8.214,0,0,1,17.646,19.988Z" transform="translate(-2 -2)" fill="#aab2bd"/>
          </g>
          <g id="Group_1145762" data-name="Group 1145762" transform="translate(7.396 42.73)">
            <path id="Path_981329" data-name="Path 981329" d="M20.861,54,22.5,60.574H11L11.822,54Z" transform="translate(-11 -54)" fill="#b4dd7f"/>
          </g>
          <g id="Group_1145763" data-name="Group 1145763" transform="translate(0 18.078)">
            <path id="Path_981330" data-name="Path 981330" d="M20.078,33.861h1.643A1.648,1.648,0,0,1,23.365,35.5v1.857a16.389,16.389,0,0,1-2.5,8.71l-1.611,2.58H10.217l-1.126-.846A8.217,8.217,0,0,1,6.15,43.6L5.057,39.95A5.715,5.715,0,0,0,2.74,36.819l-.107-.074a1.423,1.423,0,0,1,.156-2.457l.131-.066a3.432,3.432,0,0,1,4.791,1.989l.649,1.931a.953.953,0,0,0,1.857-.3V25.643A1.655,1.655,0,0,1,11.861,24,1.648,1.648,0,0,1,13.5,25.643v4.93h1.643a1.648,1.648,0,0,1,1.643,1.643h1.643a1.648,1.648,0,0,1,1.643,1.643Z" transform="translate(-2 -24)" fill="#f0d0b4"/>
          </g>
          <g id="Group_1145764" data-name="Group 1145764" transform="translate(4.93 4.93)">
            <path id="Path_981331" data-name="Path 981331" d="M17.861,12.109v1.643a.824.824,0,0,1-.822.822H14.574v2.465a.824.824,0,0,1-.822.822H12.109a.824.824,0,0,1-.822-.822V14.574H8.822A.824.824,0,0,1,8,13.752V12.109a.824.824,0,0,1,.822-.822h2.465V8.822A.824.824,0,0,1,12.109,8h1.643a.824.824,0,0,1,.822.822v2.465h2.465A.824.824,0,0,1,17.861,12.109Z" transform="translate(-8 -8)" fill="#ff826e"/>
          </g>
        </g>
        <g id="Group_1145766" data-name="Group 1145766" transform="translate(0 0)">
          <path id="Path_981332" data-name="Path 981332" d="M10.287,16.861A1.645,1.645,0,0,0,11.93,18.5h1.643a1.645,1.645,0,0,0,1.643-1.643V15.217h1.643A1.645,1.645,0,0,0,18.5,13.574V11.93a1.645,1.645,0,0,0-1.643-1.643H15.217V8.643A1.645,1.645,0,0,0,13.574,7H11.93a1.645,1.645,0,0,0-1.643,1.643v1.643H8.643A1.645,1.645,0,0,0,7,11.93v1.643a1.645,1.645,0,0,0,1.643,1.643h1.643ZM8.643,13.574V11.93H11.93V8.643h1.643V11.93h3.287v1.643H13.574v3.287H11.93V13.574Z" transform="translate(-2.07 -1.904)"/>
          <path id="Path_981333" data-name="Path 981333" d="M21.543,28.9H20.57a2.462,2.462,0,0,0-2.314-1.643h-.973a2.462,2.462,0,0,0-2.314-1.643h-.822V22.664l3.733-2.178a9.07,9.07,0,0,0,4.484-7.808V1.278L19.657,2.631a5.764,5.764,0,0,1-5.764-.359L11.683.8,9.471,2.273a5.762,5.762,0,0,1-5.764.359L1,1.278v11.4a9.068,9.068,0,0,0,4.484,7.807l3.733,2.178V33.7a.138.138,0,0,1-.26.042l-.643-1.929a4.257,4.257,0,0,0-5.943-2.461l-.13.065A2.246,2.246,0,0,0,2,33.295l.108.072A4.945,4.945,0,0,1,4.1,36.054L5.188,39.7a8.972,8.972,0,0,0,3.235,4.635l.742.556-.879,7.024H21.774L19.96,44.655l1.425-2.28a17.24,17.24,0,0,0,2.624-9.147v-1.86A2.468,2.468,0,0,0,21.543,28.9ZM2.643,12.679V3.937l.329.164a7.41,7.41,0,0,0,7.41-.462l1.3-.866,1.3.867a7.413,7.413,0,0,0,7.41.462l.329-.164v8.742a7.421,7.421,0,0,1-3.669,6.388l-3.013,1.758a2.449,2.449,0,0,0-4.713,0L6.312,19.067a7.42,7.42,0,0,1-3.669-6.388Zm7.5,37.589.616-4.93h7.672l1.233,4.93ZM22.365,33.228A15.6,15.6,0,0,1,19.992,41.5l-1.369,2.191h-8.31l-.9-.678a7.344,7.344,0,0,1-2.646-3.791L5.67,35.582A6.591,6.591,0,0,0,3.02,32l-.108-.072a.6.6,0,0,1,.065-1.042l.129-.065a2.615,2.615,0,0,1,3.65,1.511L7.4,34.262a1.777,1.777,0,0,0,3.462-.562V21.507a.822.822,0,1,1,1.643,0V33.833h1.643V27.259h.822a.822.822,0,0,1,.822.822v5.752h1.643V28.9h.822a.822.822,0,0,1,.822.822v4.109h1.643V30.546h.822a.822.822,0,0,1,.822.822Z" transform="translate(-1 -0.798)"/>
          <path id="Path_981334" data-name="Path 981334" d="M32.642,1,28.293,5.349l1.162,1.162,3.868-3.868h23.49V1Z" transform="translate(-5.866 -0.834)"/>
          <path id="Path_981335" data-name="Path 981335" d="M40.549,8.845a1.631,1.631,0,0,0-.975-.328h-4.93A1.645,1.645,0,0,0,33,10.161v4.93a1.645,1.645,0,0,0,1.643,1.643h4.93a1.645,1.645,0,0,0,1.643-1.643V10.5l3.046-3.046L43.1,6.293Zm-.975,6.246h-4.93v-4.93h4.59l-2.125,2.125-1.063-1.062-1.162,1.162,2.224,2.224,2.465-2.465Z" transform="translate(-6.705 -1.778)"/>
          <path id="Path_981336" data-name="Path 981336" d="M40.549,26.845a1.631,1.631,0,0,0-.975-.328h-4.93A1.645,1.645,0,0,0,33,28.161v4.93a1.645,1.645,0,0,0,1.643,1.643h4.93a1.645,1.645,0,0,0,1.643-1.643V28.5l3.046-3.046L43.1,24.293Zm-.975,6.246h-4.93v-4.93h4.59l-2.125,2.125-1.063-1.062-1.162,1.162,2.224,2.224,2.465-2.465Z" transform="translate(-6.705 -4.986)"/>
          <path id="Path_981337" data-name="Path 981337" d="M43.1,40.293l-2.552,2.552a1.631,1.631,0,0,0-.975-.328h-4.93A1.645,1.645,0,0,0,33,44.161v4.93a1.645,1.645,0,0,0,1.643,1.643h4.93a1.645,1.645,0,0,0,1.643-1.643V44.5l3.046-3.046Zm-3.528,8.8h-4.93v-4.93h4.59l-2.125,2.125-1.063-1.062-1.162,1.162,2.224,2.224,2.465-2.465Z" transform="translate(-6.705 -7.839)"/>
          <path id="Path_981338" data-name="Path 981338" d="M47,15H60.148v1.643H47Z" transform="translate(-9.2 -3.33)"/>
          <path id="Path_981339" data-name="Path 981339" d="M47,11h3.287v1.643H47Z" transform="translate(-9.2 -2.617)"/>
          <path id="Path_981340" data-name="Path 981340" d="M53,11h8.217v1.643H53Z" transform="translate(-10.27 -2.617)"/>
          <path id="Path_981341" data-name="Path 981341" d="M47,33H60.148v1.643H47Z" transform="translate(-9.2 -6.539)"/>
          <path id="Path_981342" data-name="Path 981342" d="M47,29h3.287v1.643H47Z" transform="translate(-9.2 -5.826)"/>
          <path id="Path_981343" data-name="Path 981343" d="M53,29h8.217v1.643H53Z" transform="translate(-10.27 -5.826)"/>
          <path id="Path_981344" data-name="Path 981344" d="M47,49H60.148v1.643H47Z" transform="translate(-9.2 -9.391)"/>
          <path id="Path_981345" data-name="Path 981345" d="M47,45h3.287v1.643H47Z" transform="translate(-9.2 -8.678)"/>
          <path id="Path_981346" data-name="Path 981346" d="M53,45h8.217v1.643H53Z" transform="translate(-10.27 -8.678)"/>
        </g>
      </g>
    </g>
  </g>
</svg>
