<svg xmlns="http://www.w3.org/2000/svg" xmlns:xlink="http://www.w3.org/1999/xlink" width="108" height="108" viewBox="0 0 108 108">
  <defs>
    <filter id="Path_978624" x="0" y="0" width="108" height="108" filterUnits="userSpaceOnUse">
      <feOffset dy="3" input="SourceAlpha"/>
      <feGaussianBlur stdDeviation="3" result="blur"/>
      <feFlood flood-opacity="0.161"/>
      <feComposite operator="in" in2="blur"/>
      <feComposite in="SourceGraphic"/>
    </filter>
  </defs>
  <g id="Group_1151645" data-name="Group 1151645" transform="translate(-746 -7026)">
    <g id="Group_1151641" data-name="Group 1151641">
      <g id="Group_1144532" data-name="Group 1144532" transform="translate(755 7032)">
        <g id="Group_1144123" data-name="Group 1144123">
          <g transform="matrix(1, 0, 0, 1, -9, -6)" filter="url(#Path_978624)">
            <g id="Path_978624-2" data-name="Path 978624" transform="translate(9 6)" fill="#f5e9a1">
              <path d="M 45 88.5 C 39.12687683105469 88.5 33.43022537231445 87.35007476806641 28.06830024719238 85.08217620849609 C 22.88852500915527 82.89131164550781 18.23629951477051 79.75458526611328 14.2408504486084 75.75914764404297 C 10.24541282653809 71.76370239257812 7.108687400817871 67.11147308349609 4.917825222015381 61.93170166015625 C 2.649924993515015 56.56977462768555 1.5 50.87312316894531 1.5 45 C 1.5 39.12687683105469 2.649924993515015 33.43022537231445 4.917825222015381 28.06830024719238 C 7.108687400817871 22.88852500915527 10.24541282653809 18.23629951477051 14.2408504486084 14.2408504486084 C 18.23629951477051 10.24541282653809 22.88852500915527 7.108687400817871 28.06830024719238 4.917825222015381 C 33.43022537231445 2.649924993515015 39.12687683105469 1.5 45 1.5 C 50.87312316894531 1.5 56.56977462768555 2.649924993515015 61.93170166015625 4.917825222015381 C 67.11147308349609 7.108687400817871 71.76370239257812 10.24541282653809 75.75914764404297 14.2408504486084 C 79.75458526611328 18.23629951477051 82.89131164550781 22.88852500915527 85.08217620849609 28.06830024719238 C 87.35007476806641 33.43022537231445 88.5 39.12687683105469 88.5 45 C 88.5 50.87312316894531 87.35007476806641 56.56977462768555 85.08217620849609 61.93170166015625 C 82.89131164550781 67.11147308349609 79.75458526611328 71.76370239257812 75.75914764404297 75.75914764404297 C 71.76370239257812 79.75458526611328 67.11147308349609 82.89131164550781 61.93170166015625 85.08217620849609 C 56.56977462768555 87.35007476806641 50.87312316894531 88.5 45 88.5 Z" stroke="none"/>
              <path d="M 45 3 C 39.32871246337891 3 33.82865524291992 4.110054016113281 28.65262985229492 6.299339294433594 C 23.65165710449219 8.414573669433594 19.15968322753906 11.44334411621094 15.301513671875 15.301513671875 C 11.44334411621094 19.15968322753906 8.414573669433594 23.65165710449219 6.299339294433594 28.65262985229492 C 4.110054016113281 33.82865524291992 3 39.32871246337891 3 45 C 3 50.67128753662109 4.110054016113281 56.17134475708008 6.299339294433594 61.34737396240234 C 8.414573669433594 66.34834289550781 11.44334411621094 70.84031677246094 15.301513671875 74.698486328125 C 19.15968322753906 78.55665588378906 23.65165710449219 81.58542633056641 28.65262985229492 83.70066070556641 C 33.82865524291992 85.88994598388672 39.32871246337891 87 45 87 C 50.67128753662109 87 56.17134475708008 85.88994598388672 61.34737396240234 83.70066070556641 C 66.34834289550781 81.58542633056641 70.84031677246094 78.55665588378906 74.698486328125 74.698486328125 C 78.55665588378906 70.84031677246094 81.58542633056641 66.34834289550781 83.70066070556641 61.34737396240234 C 85.88994598388672 56.17134475708008 87 50.67128753662109 87 45 C 87 39.32871246337891 85.88994598388672 33.82865524291992 83.70066070556641 28.65262985229492 C 81.58542633056641 23.65165710449219 78.55665588378906 19.15968322753906 74.698486328125 15.301513671875 C 70.84031677246094 11.44334411621094 66.34834289550781 8.414573669433594 61.34737396240234 6.299339294433594 C 56.17134475708008 4.110054016113281 50.67128753662109 3 45 3 M 45 0 C 69.85281372070312 0 90 20.14718627929688 90 45 C 90 69.85281372070312 69.85281372070312 90 45 90 C 20.14718627929688 90 0 69.85281372070312 0 45 C 0 20.14718627929688 20.14718627929688 0 45 0 Z" stroke="none" fill="#bcac89"/>
            </g>
          </g>
        </g>
        <g id="justice_3292568" transform="translate(16.405 15.405)">
          <path id="Path_978713" data-name="Path 978713" d="M434.526,294.5l-5.026,5.026h3.351a5.026,5.026,0,0,0,5.026-5.026Z" transform="translate(-381.525 -261.605)" fill="#ffbb6e"/>
          <path id="Path_978714" data-name="Path 978714" d="M333.7,294.5H316a5.026,5.026,0,0,0,5.026,5.026h7.651A5.026,5.026,0,0,0,333.7,294.5Z" transform="translate(-280.703 -261.605)" fill="#ffd478"/>
          <path id="Path_978715" data-name="Path 978715" d="M126.026,294.5,121,299.526h3.351a5.026,5.026,0,0,0,5.026-5.026Z" transform="translate(-107.484 -261.605)" fill="#ffbb6e"/>
          <path id="Path_978716" data-name="Path 978716" d="M25.2,294.5H7.5a5.026,5.026,0,0,0,5.026,5.026h7.651A5.026,5.026,0,0,0,25.2,294.5Z" transform="translate(-6.662 -261.605)" fill="#ffd478"/>
          <path id="Path_978717" data-name="Path 978717" d="M301,384.5h5.026v8.377H301Z" transform="translate(-267.379 -341.552)" fill="#ff8053"/>
          <path id="Path_978718" data-name="Path 978718" d="M166,384.5h16.755v8.377H166Z" transform="translate(-147.458 -341.552)" fill="#ffa061"/>
          <path id="Path_978719" data-name="Path 978719" d="M92.208,429.5H61.776l-2.422,3.632a3.131,3.131,0,0,1-2.6,1.394V436.2h42.5Z" transform="translate(-50.411 -381.525)" fill="#ffd478"/>
          <path id="Path_978720" data-name="Path 978720" d="M380.644,433.132l-2.422-3.632H374.2l2.422,3.632a3.131,3.131,0,0,0,2.6,1.394l2.014,1.675,2.014-1.675A3.131,3.131,0,0,1,380.644,433.132Z" transform="translate(-332.398 -381.525)" fill="#ffbb6e"/>
          <path id="Path_978721" data-name="Path 978721" d="M241,67.5h5.026v8.377H241Z" transform="translate(-214.08 -59.96)" fill="#ff8053"/>
          <path id="Path_978722" data-name="Path 978722" d="M226,67.5h3.351v8.377H226Z" transform="translate(-200.756 -59.96)" fill="#ffa061"/>
          <path id="Path_978723" data-name="Path 978723" d="M241,142.5h5.026v27.031H241Z" transform="translate(-214.08 -126.583)" fill="#ffe7ad"/>
          <path id="Path_978724" data-name="Path 978724" d="M226,142.5h3.351v27.031H226Z" transform="translate(-200.756 -126.583)" fill="#fff5de"/>
          <path id="Path_978725" data-name="Path 978725" d="M259.351,127.5H256v3.351h3.351a1.675,1.675,0,1,0,0-3.351Z" transform="translate(-227.405 -113.258)" fill="#ffbb6e"/>
          <path id="Path_978726" data-name="Path 978726" d="M217.7,129.175a1.676,1.676,0,0,0-1.675-1.675h-3.351a1.675,1.675,0,0,0,0,3.351h3.351A1.676,1.676,0,0,0,217.7,129.175Z" transform="translate(-187.431 -113.258)" fill="#ffd478"/>
          <path id="Path_978727" data-name="Path 978727" d="M319.351,369.5H316v3.351h3.351a1.675,1.675,0,1,0,0-3.351Z" transform="translate(-280.703 -328.227)" fill="#ffbb6e"/>
          <path id="Path_978728" data-name="Path 978728" d="M171.106,371.176a1.676,1.676,0,0,0-1.675-1.675H152.675a1.675,1.675,0,1,0,0,3.351H169.43A1.676,1.676,0,0,0,171.106,371.176Z" transform="translate(-134.133 -328.227)" fill="#ffd478"/>
          <path id="Path_978729" data-name="Path 978729" d="M383.6,37.5H380.25v3.351H383.6a1.675,1.675,0,1,0,0-3.351Z" transform="translate(-337.776 -33.311)" fill="#ffbb6e"/>
          <path id="Path_978730" data-name="Path 978730" d="M121.209,39.175a1.676,1.676,0,0,0-1.675-1.675H88.425a1.675,1.675,0,0,0,0,3.351h31.108A1.676,1.676,0,0,0,121.209,39.175Z" transform="translate(-77.06 -33.311)" fill="#ffd478"/>
          <path id="Path_978731" data-name="Path 978731" d="M428.6,474.5H425.25l3.351,3.351h3.351A3.351,3.351,0,0,0,428.6,474.5Z" transform="translate(-377.75 -421.499)" fill="#ffd478"/>
          <path id="Path_978732" data-name="Path 978732" d="M71.262,474.5H30.1a3.351,3.351,0,0,0-3.351,3.351H74.613A3.351,3.351,0,0,0,71.262,474.5Z" transform="translate(-23.762 -421.499)" fill="#ffe7ad"/>
          <circle id="Ellipse_11622" data-name="Ellipse 11622" cx="5.026" cy="5.026" r="5.026" transform="translate(23.569 0.838)" fill="#ffe7ad"/>
          <circle id="Ellipse_11623" data-name="Ellipse 11623" cx="1.675" cy="1.675" r="1.675" transform="translate(26.92 4.189)" fill="#ffd478"/>
          <circle id="Ellipse_11624" data-name="Ellipse 11624" cx="1.675" cy="1.675" r="1.675" transform="translate(9.69 7.54)" fill="#ffe7ad"/>
          <circle id="Ellipse_11625" data-name="Ellipse 11625" cx="1.675" cy="1.675" r="1.675" transform="translate(44.149 7.54)" fill="#ffe7ad"/>
          <path id="Path_978733" data-name="Path 978733" d="M34.459,32.9a5.871,5.871,0,0,0,5.864,5.864h11A5.871,5.871,0,0,0,57.19,32.9a.839.839,0,0,0-.082-.362l-10.1-21.1A2.51,2.51,0,0,0,47.7,7.54a2.512,2.512,0,0,0-1.871-4.189H33.892a5.862,5.862,0,0,0-10.594,0H11.365A2.512,2.512,0,0,0,9.494,7.54a2.51,2.51,0,0,0,.685,3.89l-10.1,21.1A.839.839,0,0,0,0,32.9,5.871,5.871,0,0,0,5.864,38.76h11A5.871,5.871,0,0,0,22.731,32.9a.839.839,0,0,0-.082-.362l-10.1-21.1a2.511,2.511,0,0,0,1.182-3.053H23.3a5.887,5.887,0,0,0,1.108,1.585v3.585a2.513,2.513,0,0,0,0,4.738V40.435H18.542a2.513,2.513,0,0,0-.838,4.883v1.819H11.365a.838.838,0,0,0-.7.373L8.247,51.143a2.288,2.288,0,0,1-1.908,1.021A4.193,4.193,0,0,0,2.15,56.352a.838.838,0,0,0,.838.838H54.2a.838.838,0,0,0,.838-.838,4.193,4.193,0,0,0-4.189-4.189,2.288,2.288,0,0,1-1.908-1.021L46.522,47.51a.838.838,0,0,0-.7-.373H39.486v-1.82a2.513,2.513,0,0,0-.838-4.882H32.784V18.286a2.513,2.513,0,0,0,0-4.738V9.963a5.89,5.89,0,0,0,1.109-1.585h9.563a2.511,2.511,0,0,0,1.182,3.053l-10.1,21.1A.838.838,0,0,0,34.459,32.9Zm16.867,4.189h-11a4.2,4.2,0,0,1-4.1-3.351H55.43A4.2,4.2,0,0,1,51.326,37.084Zm-14.7-5.026,9.2-19.226,9.2,19.226ZM11.365,12.832l9.2,19.226H2.167Zm5.5,24.252h-11a4.2,4.2,0,0,1-4.1-3.351H20.97A4.2,4.2,0,0,1,16.867,37.084ZM12.2,9.215a.838.838,0,1,1-.838-.838A.839.839,0,0,1,12.2,9.215ZM11.365,6.7a.838.838,0,1,1,0-1.675H22.792a5.805,5.805,0,0,0,0,1.675Zm14.716,6.7V11.161a5.854,5.854,0,0,0,5.026,0V13.4ZM53.221,55.515H3.969a2.518,2.518,0,0,1,2.37-1.675H50.851A2.518,2.518,0,0,1,53.221,55.515Zm-5.672-3.443c.021.031.044.061.065.092H9.576c.022-.031.044-.06.065-.092l2.173-3.259H45.376Zm-8.063-9.123a.839.839,0,0,1-.838.838H21.893a.838.838,0,1,0,0,1.675H37.81v1.675H19.38V44.624a.838.838,0,0,0-.838-.838.838.838,0,1,1,0-1.675H38.648A.839.839,0,0,1,39.486,42.948Zm-13.4-2.513v-22h5.026v22Zm5.864-23.68h-6.7a.838.838,0,1,1,0-1.675h6.7a.838.838,0,0,1,0,1.675Zm-3.351-6.7a4.189,4.189,0,1,1,4.189-4.189A4.193,4.193,0,0,1,28.6,10.053Zm5.8-5.026H45.825a.838.838,0,0,1,0,1.675H34.4a5.806,5.806,0,0,0,0-1.675ZM46.662,9.215a.838.838,0,1,1-.838-.838A.839.839,0,0,1,46.662,9.215Z" transform="translate(0 0)"/>
          <path id="Path_978734" data-name="Path 978734" d="M236.013,30a2.513,2.513,0,1,0,2.513,2.513A2.516,2.516,0,0,0,236.013,30Zm0,3.351a.838.838,0,1,1,.838-.838A.839.839,0,0,1,236.013,33.351Z" transform="translate(-207.418 -26.649)"/>
        </g>
      </g>
    </g>
  </g>
</svg>
