<svg xmlns="http://www.w3.org/2000/svg" xmlns:xlink="http://www.w3.org/1999/xlink" width="108" height="108" viewBox="0 0 108 108">
  <defs>
    <filter id="Path_982547" x="0" y="0" width="108" height="108" filterUnits="userSpaceOnUse">
      <feOffset dy="3" input="SourceAlpha"/>
      <feGaussianBlur stdDeviation="3" result="blur"/>
      <feFlood flood-opacity="0.161"/>
      <feComposite operator="in" in2="blur"/>
      <feComposite in="SourceGraphic"/>
    </filter>
  </defs>
  <g id="Group_1151672" data-name="Group 1151672" transform="translate(-206 -3128)">
    <g id="Group_1149953" data-name="Group 1149953" transform="translate(32 -5116)">
      <g id="Group_1149711" data-name="Group 1149711" transform="translate(-18 -1942)">
        <g id="Group_1149261" data-name="Group 1149261" transform="translate(-83 6759)">
          <g id="Group_1147065" data-name="Group 1147065" transform="translate(-341 -556)">
            <g transform="matrix(1, 0, 0, 1, 616, 3983)" filter="url(#Path_982547)">
              <g id="Path_982547-2" data-name="Path 982547" transform="translate(9 6)" fill="#eff4fa">
                <path d="M 45 88.5 C 39.12687683105469 88.5 33.43022537231445 87.35007476806641 28.06830024719238 85.08217620849609 C 22.88852500915527 82.89131164550781 18.23629951477051 79.75458526611328 14.2408504486084 75.75914764404297 C 10.24541282653809 71.76370239257812 7.108687400817871 67.11147308349609 4.917825222015381 61.93170166015625 C 2.649924993515015 56.56977462768555 1.5 50.87312316894531 1.5 45 C 1.5 39.12687683105469 2.649924993515015 33.43022537231445 4.917825222015381 28.06830024719238 C 7.108687400817871 22.88852500915527 10.24541282653809 18.23629951477051 14.2408504486084 14.2408504486084 C 18.23629951477051 10.24541282653809 22.88852500915527 7.108687400817871 28.06830024719238 4.917825222015381 C 33.43022537231445 2.649924993515015 39.12687683105469 1.5 45 1.5 C 50.87312316894531 1.5 56.56977462768555 2.649924993515015 61.93170166015625 4.917825222015381 C 67.11147308349609 7.108687400817871 71.76370239257812 10.24541282653809 75.75914764404297 14.2408504486084 C 79.75458526611328 18.23629951477051 82.89131164550781 22.88852500915527 85.08217620849609 28.06830024719238 C 87.35007476806641 33.43022537231445 88.5 39.12687683105469 88.5 45 C 88.5 50.87312316894531 87.35007476806641 56.56977462768555 85.08217620849609 61.93170166015625 C 82.89131164550781 67.11147308349609 79.75458526611328 71.76370239257812 75.75914764404297 75.75914764404297 C 71.76370239257812 79.75458526611328 67.11147308349609 82.89131164550781 61.93170166015625 85.08217620849609 C 56.56977462768555 87.35007476806641 50.87312316894531 88.5 45 88.5 Z" stroke="none"/>
                <path d="M 45 3 C 39.32871246337891 3 33.82865524291992 4.110054016113281 28.65262985229492 6.299339294433594 C 23.65165710449219 8.414573669433594 19.15968322753906 11.44334411621094 15.301513671875 15.301513671875 C 11.44334411621094 19.15968322753906 8.414573669433594 23.65165710449219 6.299339294433594 28.65262985229492 C 4.110054016113281 33.82865524291992 3 39.32871246337891 3 45 C 3 50.67128753662109 4.110054016113281 56.17134475708008 6.299339294433594 61.34737396240234 C 8.414573669433594 66.34834289550781 11.44334411621094 70.84031677246094 15.301513671875 74.698486328125 C 19.15968322753906 78.55665588378906 23.65165710449219 81.58542633056641 28.65262985229492 83.70066070556641 C 33.82865524291992 85.88994598388672 39.32871246337891 87 45 87 C 50.67128753662109 87 56.17134475708008 85.88994598388672 61.34737396240234 83.70066070556641 C 66.34834289550781 81.58542633056641 70.84031677246094 78.55665588378906 74.698486328125 74.698486328125 C 78.55665588378906 70.84031677246094 81.58542633056641 66.34834289550781 83.70066070556641 61.34737396240234 C 85.88994598388672 56.17134475708008 87 50.67128753662109 87 45 C 87 39.32871246337891 85.88994598388672 33.82865524291992 83.70066070556641 28.65262985229492 C 81.58542633056641 23.65165710449219 78.55665588378906 19.15968322753906 74.698486328125 15.301513671875 C 70.84031677246094 11.44334411621094 66.34834289550781 8.414573669433594 61.34737396240234 6.299339294433594 C 56.17134475708008 4.110054016113281 50.67128753662109 3 45 3 M 45 0 C 69.85281372070312 0 90 20.14718627929688 90 45 C 90 69.85281372070312 69.85281372070312 90 45 90 C 20.14718627929688 90 0 69.85281372070312 0 45 C 0 20.14718627929688 20.14718627929688 0 45 0 Z" stroke="none" fill="#3ad1e9"/>
              </g>
            </g>
          </g>
        </g>
      </g>
      <g id="innovacion" transform="translate(190.541 8264)">
        <path id="Path_985528" data-name="Path 985528" d="M169.807,74.213a17.8,17.8,0,0,0-3.359.368l.564.564a.9.9,0,0,1,0,1.267L164.8,78.619a.9.9,0,0,0-.159,1.05,11.855,11.855,0,0,1,.737,1.775.9.9,0,0,0,.854.629h3.12a.9.9,0,0,1,.9.9v4.284a.9.9,0,0,1-.9.9h-3.12a.9.9,0,0,0-.854.629,11.859,11.859,0,0,1-.737,1.775.9.9,0,0,0,.159,1.05l2.208,2.208a.9.9,0,0,1,0,1.267l-3.029,3.029a.9.9,0,0,1-1.267,0L160.508,95.9a.9.9,0,0,0-1.05-.159,11.859,11.859,0,0,1-1.775.737.9.9,0,0,0-.629.854v3.12a.9.9,0,0,1-.9.9H154.67a18.021,18.021,0,0,0,3.664,4.36,16.758,16.758,0,0,1,4.1,5.384l.886,1.831h13.493l.886-1.831a17.164,17.164,0,0,1,4.162-5.442,17.931,17.931,0,0,0-12.051-31.435Z" transform="translate(-129.415 -65.24)" fill="#fed402"/>
        <path id="Path_985529" data-name="Path 985529" d="M163.371,263.272a17.971,17.971,0,0,1-4.973-7.026c-.235.093-.473.181-.715.259a.9.9,0,0,0-.629.854v3.12a.9.9,0,0,1-.9.9H154.67a18.022,18.022,0,0,0,3.664,4.36,16.758,16.758,0,0,1,4.1,5.384l.886,1.831h6.23l-2.078-4.294A16.762,16.762,0,0,0,163.371,263.272Z" transform="translate(-129.415 -225.269)" fill="#fac600"/>
        <path id="Path_985530" data-name="Path 985530" d="M234.678,148.025v4.118a.9.9,0,0,1-.9.9h-3.12a.9.9,0,0,0-.854.629,11.86,11.86,0,0,1-.737,1.775.9.9,0,0,0,.159,1.05l2.208,2.208a.9.9,0,0,1,0,1.267L228.408,163a.89.89,0,0,1-.453.244,9.011,9.011,0,1,0,6.723-15.214Z" transform="translate(-193.841 -130.131)" fill="#fff"/>
        <g id="Group_1149943" data-name="Group 1149943" transform="translate(34.114 22.908)">
          <path id="Path_985531" data-name="Path 985531" d="M231.814,193.493a8.97,8.97,0,0,1,.933-3.995h-2.085a.9.9,0,0,0-.854.629,11.861,11.861,0,0,1-.737,1.775.9.9,0,0,0,.159,1.05l2.208,2.208a.9.9,0,0,1,0,1.267l-3.029,3.029a.891.891,0,0,1-.453.244,9.012,9.012,0,0,0,9.7,2.233A9.015,9.015,0,0,1,231.814,193.493Z" transform="translate(-227.955 -189.498)" fill="#fff3de"/>
        </g>
        <path id="Path_985532" data-name="Path 985532" d="M238.926,464.059l.576,4.073a.949.949,0,0,0,.939.816h7.382a.949.949,0,0,0,.939-.816l.576-4.073Z" transform="translate(-203.485 -407.96)" fill="#8b8089"/>
        <g id="Group_1149944" data-name="Group 1149944" transform="translate(35.458 56.22)">
          <path id="Path_985533" data-name="Path 985533" d="M243.379,469.011l-.559-3.952h-3.753l.559,3.952a.949.949,0,0,0,.939.816h3.753A.949.949,0,0,1,243.379,469.011Z" transform="translate(-239.067 -465.059)" fill="#7b7179"/>
        </g>
        <g id="Group_1149949" data-name="Group 1149949" transform="translate(8.366 3.635)">
          <g id="Group_1149945" data-name="Group 1149945" transform="translate(0 0)">
            <path id="Path_985534" data-name="Path 985534" d="M47.431,48.444V44.16a.9.9,0,0,0-.9-.9h-3.12a.9.9,0,0,1-.854-.629,11.867,11.867,0,0,0-.737-1.775.9.9,0,0,1,.159-1.05L44.19,37.6a.9.9,0,0,0,0-1.267l-3.029-3.029a.9.9,0,0,0-1.267,0l-2.208,2.208a.9.9,0,0,1-1.05.158,11.861,11.861,0,0,0-1.775-.737.9.9,0,0,1-.629-.854v-3.12a.9.9,0,0,0-.9-.9H29.053a.9.9,0,0,0-.9.9v3.12a.9.9,0,0,1-.629.854,11.86,11.86,0,0,0-1.775.737.9.9,0,0,1-1.05-.158L22.5,33.307a.9.9,0,0,0-1.267,0L18.2,36.336a.9.9,0,0,0,0,1.267l2.208,2.208a.9.9,0,0,1,.159,1.05,11.856,11.856,0,0,0-.737,1.775.9.9,0,0,1-.854.629h-3.12a.9.9,0,0,0-.9.9v4.284a.9.9,0,0,0,.9.9h3.12a.9.9,0,0,1,.854.629,11.861,11.861,0,0,0,.737,1.775.9.9,0,0,1-.159,1.05L18.2,55a.9.9,0,0,0,0,1.267L21.229,59.3a.9.9,0,0,0,1.267,0L24.7,57.089a.9.9,0,0,1,1.05-.159,11.859,11.859,0,0,0,1.775.737.9.9,0,0,1,.629.854v3.12a.9.9,0,0,0,.9.9h4.284a.9.9,0,0,0,.9-.9v-3.12a.9.9,0,0,1,.629-.854,11.86,11.86,0,0,0,1.775-.737.9.9,0,0,1,1.05.159L39.894,59.3a.9.9,0,0,0,1.267,0l3.029-3.029a.9.9,0,0,0,0-1.267l-2.208-2.208a.9.9,0,0,1-.159-1.05,11.86,11.86,0,0,0,.737-1.775.9.9,0,0,1,.854-.629h3.12a.9.9,0,0,0,.9-.9Z" transform="translate(-14.959 -30.066)" fill="#baafb9"/>
          </g>
          <g id="Group_1149946" data-name="Group 1149946" transform="translate(0)">
            <path id="Path_985535" data-name="Path 985535" d="M24.061,46.3a14.678,14.678,0,0,1,10.17-13.967V30.962a.9.9,0,0,0-.9-.9H29.052a.9.9,0,0,0-.9.9v3.12a.9.9,0,0,1-.629.854,11.86,11.86,0,0,0-1.775.737.9.9,0,0,1-1.05-.158l-2.208-2.208a.9.9,0,0,0-1.267,0L18.2,36.336a.9.9,0,0,0,0,1.267l2.208,2.208a.9.9,0,0,1,.158,1.05,11.856,11.856,0,0,0-.737,1.775.9.9,0,0,1-.854.629h-3.12a.9.9,0,0,0-.9.9v4.284a.9.9,0,0,0,.9.9h3.12a.9.9,0,0,1,.854.629,11.86,11.86,0,0,0,.737,1.775.9.9,0,0,1-.159,1.05L18.2,55a.9.9,0,0,0,0,1.267L21.228,59.3a.9.9,0,0,0,1.267,0L24.7,57.089a.9.9,0,0,1,1.05-.159,11.861,11.861,0,0,0,1.775.737.9.9,0,0,1,.629.854v3.12a.9.9,0,0,0,.9.9h4.284a.9.9,0,0,0,.9-.9V60.269A14.678,14.678,0,0,1,24.061,46.3Z" transform="translate(-14.958 -30.066)" fill="#aa9ea9"/>
          </g>
          <g id="Group_1149947" data-name="Group 1149947" transform="translate(9.192 9.191)">
            <circle id="Ellipse_11695" data-name="Ellipse 11695" cx="7.044" cy="7.044" r="7.044" fill="#e5e1e5"/>
          </g>
          <g id="Group_1149948" data-name="Group 1149948" transform="translate(13.857 13.857)">
            <circle id="Ellipse_11696" data-name="Ellipse 11696" cx="2.379" cy="2.379" r="2.379" fill="#baafb9"/>
          </g>
        </g>
        <g id="Group_1149950" data-name="Group 1149950" transform="translate(30.875 47.681)">
          <path id="Path_985536" data-name="Path 985536" d="M219.755,402.964H202.108a.949.949,0,0,1-.949-.949v-6.641a.949.949,0,0,1,.949-.949h17.647a.949.949,0,0,1,.949.949v6.641A.949.949,0,0,1,219.755,402.964Z" transform="translate(-201.159 -394.425)" fill="#baafb9"/>
        </g>
        <g id="Group_1149951" data-name="Group 1149951" transform="translate(30.875 47.681)">
          <path id="Path_985537" data-name="Path 985537" d="M206.217,402.014v-6.641a.949.949,0,0,1,.949-.949h-5.058a.949.949,0,0,0-.949.949v6.641a.949.949,0,0,0,.949.949h5.058A.949.949,0,0,1,206.217,402.014Z" transform="translate(-201.159 -394.424)" fill="#aa9ea9"/>
        </g>
        <g id="Group_1149952" data-name="Group 1149952" transform="translate(7.459)">
          <path id="Path_985538" data-name="Path 985538" d="M83.492,106.55a7.952,7.952,0,0,0,15.53,2.405.907.907,0,0,0-1.728-.548,6.136,6.136,0,1,1,.009-3.687.907.907,0,1,0,1.731-.54,7.952,7.952,0,0,0-15.542,2.37Z" transform="translate(-74.301 -86.68)"/>
          <path id="Path_985539" data-name="Path 985539" d="M122.083,140.477a3.286,3.286,0,1,0,3.286-3.286A3.289,3.289,0,0,0,122.083,140.477Zm4.758,0A1.472,1.472,0,1,1,125.369,139,1.474,1.474,0,0,1,126.841,140.477Z" transform="translate(-108.226 -120.606)"/>
          <path id="Path_985540" data-name="Path 985540" d="M59.613,47.723H57.684A26.91,26.91,0,0,0,27.935,3.181a1.793,1.793,0,0,0-1.191-.454H22.459a1.8,1.8,0,0,0-1.8,1.8V7.641a11.913,11.913,0,0,0-1.905.8L16.543,6.234a1.8,1.8,0,0,0-2.549,0L10.965,9.263a1.8,1.8,0,0,0,0,2.549l2.2,2.2a11.892,11.892,0,0,0-.785,1.911H9.261a1.8,1.8,0,0,0-1.8,1.8v4.284a1.8,1.8,0,0,0,1.8,1.8h3.111a11.908,11.908,0,0,0,.8,1.905l-2.208,2.208a1.8,1.8,0,0,0,0,2.549l3.029,3.029a1.791,1.791,0,0,0,.686.428A26.919,26.919,0,0,0,25.526,49.156a.907.907,0,0,0,1.02-1.5,25.1,25.1,0,0,1-10.082-14.08c.026-.023.053-.046.079-.071l2.2-2.2a11.885,11.885,0,0,0,1.911.785v3.12a1.8,1.8,0,0,0,1.8,1.8h2.294a18.867,18.867,0,0,0,3.572,4.139A15.763,15.763,0,0,1,32.2,46.246l.256.529h-.631a1.857,1.857,0,0,0-1.855,1.855v6.641a1.858,1.858,0,0,0,1.855,1.856H34.67l.449,3.172a1.864,1.864,0,0,0,1.837,1.6h7.382a1.864,1.864,0,0,0,1.837-1.6l.449-3.172h2.846a1.858,1.858,0,0,0,1.856-1.856V48.63a1.858,1.858,0,0,0-1.856-1.855H48.84l.256-.529a16.173,16.173,0,0,1,3.943-5.154A18.84,18.84,0,0,0,37.332,8.358L35.208,6.234a1.8,1.8,0,0,0-2.549,0l-2.2,2.2a11.885,11.885,0,0,0-1.911-.785V4.931a25.087,25.087,0,0,1,27.43,41.836v-2.68a.907.907,0,0,0-1.813,0V48.63a.907.907,0,0,0,.907.907h4.544a.907.907,0,1,0,0-1.813ZM33.831,45.455a17.563,17.563,0,0,0-4.319-5.675A17.046,17.046,0,0,1,26.944,37a1.8,1.8,0,0,0,1.6-1.79V32.1a11.914,11.914,0,0,0,1.905-.8l2.208,2.208a1.789,1.789,0,0,0,1.093.519,9.943,9.943,0,0,0,3.379,2.15v10.6H34.469Zm5.114-8.782a9.868,9.868,0,0,0,3.4,0v10.1h-3.4ZM49.513,48.63v6.641a.042.042,0,0,1-.042.042h-5.68a.907.907,0,1,0,0,1.813h1l-.413,2.918a.042.042,0,0,1-.042.036H36.956a.042.042,0,0,1-.042-.036L36.5,57.127H39.56a.907.907,0,1,0,0-1.813H31.824a.042.042,0,0,1-.042-.042V48.63a.042.042,0,0,1,.042-.042H49.471a.042.042,0,0,1,.042.042ZM38.237,11.812a1.8,1.8,0,0,0,.444-1.818A17.023,17.023,0,0,1,51.846,39.726a17.979,17.979,0,0,0-4.382,5.729l-.639,1.319H44.163V36.18a9.9,9.9,0,0,0,6.1-6.822A.907.907,0,1,0,48.5,28.91a8.1,8.1,0,0,1-12.972,4.273l2.706-2.706a1.8,1.8,0,0,0,0-2.549l-2.2-2.2a11.888,11.888,0,0,0,.785-1.911h3.12a1.8,1.8,0,0,0,1.8-1.8V18.872A7.986,7.986,0,0,1,45.738,20.6,8.142,8.142,0,0,1,48.551,25.1a.907.907,0,1,0,1.768-.4A9.916,9.916,0,0,0,41.6,17.031a1.8,1.8,0,0,0-1.662-1.105H36.83a11.906,11.906,0,0,0-.8-1.905Zm-8.609-1.764a1.8,1.8,0,0,0,2.106-.324l2.2-2.2,3.014,3.014-2.2,2.2a1.8,1.8,0,0,0-.324,2.106,10.993,10.993,0,0,1,.681,1.639,1.8,1.8,0,0,0,1.717,1.257H39.93V22H36.822A1.8,1.8,0,0,0,35.1,23.258a11.012,11.012,0,0,1-.681,1.639A1.8,1.8,0,0,0,34.748,27l2.2,2.2-3.014,3.014-2.2-2.2a1.8,1.8,0,0,0-2.106-.324,10.991,10.991,0,0,1-1.639.681,1.8,1.8,0,0,0-1.257,1.717V35.2H22.47V32.09a1.8,1.8,0,0,0-1.257-1.717,10.992,10.992,0,0,1-1.639-.681,1.8,1.8,0,0,0-2.106.324l-2.2,2.2L12.255,29.2l2.2-2.2a1.8,1.8,0,0,0,.324-2.106,10.989,10.989,0,0,1-.681-1.639A1.8,1.8,0,0,0,12.381,22H9.272V17.739h3.109A1.8,1.8,0,0,0,14.1,16.483a11,11,0,0,1,.681-1.639,1.8,1.8,0,0,0-.324-2.106l-2.2-2.2,3.014-3.014,2.2,2.2a1.8,1.8,0,0,0,2.106.324,10.981,10.981,0,0,1,1.639-.681A1.8,1.8,0,0,0,22.47,7.65V4.541h4.262V7.65a1.8,1.8,0,0,0,1.257,1.717,11,11,0,0,1,1.639.681Z" transform="translate(-7.459)"/>
        </g>
      </g>
    </g>
  </g>
</svg>
