<svg xmlns="http://www.w3.org/2000/svg" xmlns:xlink="http://www.w3.org/1999/xlink" width="108" height="108" viewBox="0 0 108 108">
  <defs>
    <filter id="Path_978624" x="0" y="0" width="108" height="108" filterUnits="userSpaceOnUse">
      <feOffset dy="3" input="SourceAlpha"/>
      <feGaussianBlur stdDeviation="3" result="blur"/>
      <feFlood flood-opacity="0.161"/>
      <feComposite operator="in" in2="blur"/>
      <feComposite in="SourceGraphic"/>
    </filter>
  </defs>
  <g id="Group_1151624" data-name="Group 1151624" transform="translate(-739 -2718)">
    <g id="Group_1151336" data-name="Group 1151336" transform="translate(525 -236)">
      <g id="Group_1151334" data-name="Group 1151334" transform="translate(13 2634)">
        <g transform="matrix(1, 0, 0, 1, 201, 320)" filter="url(#Path_978624)">
          <g id="Path_978624-2" data-name="Path 978624" transform="translate(9 6)" fill="#f8f4ec">
            <path d="M 45 88.5 C 39.12687683105469 88.5 33.43022537231445 87.35007476806641 28.06830024719238 85.08217620849609 C 22.88852500915527 82.89131164550781 18.23629951477051 79.75458526611328 14.2408504486084 75.75914764404297 C 10.24541282653809 71.76370239257812 7.108687400817871 67.11147308349609 4.917825222015381 61.93170166015625 C 2.649924993515015 56.56977462768555 1.5 50.87312316894531 1.5 45 C 1.5 39.12687683105469 2.649924993515015 33.43022537231445 4.917825222015381 28.06830024719238 C 7.108687400817871 22.88852500915527 10.24541282653809 18.23629951477051 14.2408504486084 14.2408504486084 C 18.23629951477051 10.24541282653809 22.88852500915527 7.108687400817871 28.06830024719238 4.917825222015381 C 33.43022537231445 2.649924993515015 39.12687683105469 1.5 45 1.5 C 50.87312316894531 1.5 56.56977462768555 2.649924993515015 61.93170166015625 4.917825222015381 C 67.11147308349609 7.108687400817871 71.76370239257812 10.24541282653809 75.75914764404297 14.2408504486084 C 79.75458526611328 18.23629951477051 82.89131164550781 22.88852500915527 85.08217620849609 28.06830024719238 C 87.35007476806641 33.43022537231445 88.5 39.12687683105469 88.5 45 C 88.5 50.87312316894531 87.35007476806641 56.56977462768555 85.08217620849609 61.93170166015625 C 82.89131164550781 67.11147308349609 79.75458526611328 71.76370239257812 75.75914764404297 75.75914764404297 C 71.76370239257812 79.75458526611328 67.11147308349609 82.89131164550781 61.93170166015625 85.08217620849609 C 56.56977462768555 87.35007476806641 50.87312316894531 88.5 45 88.5 Z" stroke="none"/>
            <path d="M 45 3 C 39.32871246337891 3 33.82865524291992 4.110054016113281 28.65262985229492 6.299339294433594 C 23.65165710449219 8.414573669433594 19.15968322753906 11.44334411621094 15.301513671875 15.301513671875 C 11.44334411621094 19.15968322753906 8.414573669433594 23.65165710449219 6.299339294433594 28.65262985229492 C 4.110054016113281 33.82865524291992 3 39.32871246337891 3 45 C 3 50.67128753662109 4.110054016113281 56.17134475708008 6.299339294433594 61.34737396240234 C 8.414573669433594 66.34834289550781 11.44334411621094 70.84031677246094 15.301513671875 74.698486328125 C 19.15968322753906 78.55665588378906 23.65165710449219 81.58542633056641 28.65262985229492 83.70066070556641 C 33.82865524291992 85.88994598388672 39.32871246337891 87 45 87 C 50.67128753662109 87 56.17134475708008 85.88994598388672 61.34737396240234 83.70066070556641 C 66.34834289550781 81.58542633056641 70.84031677246094 78.55665588378906 74.698486328125 74.698486328125 C 78.55665588378906 70.84031677246094 81.58542633056641 66.34834289550781 83.70066070556641 61.34737396240234 C 85.88994598388672 56.17134475708008 87 50.67128753662109 87 45 C 87 39.32871246337891 85.88994598388672 33.82865524291992 83.70066070556641 28.65262985229492 C 81.58542633056641 23.65165710449219 78.55665588378906 19.15968322753906 74.698486328125 15.301513671875 C 70.84031677246094 11.44334411621094 66.34834289550781 8.414573669433594 61.34737396240234 6.299339294433594 C 56.17134475708008 4.110054016113281 50.67128753662109 3 45 3 M 45 0 C 69.85281372070312 0 90 20.14718627929688 90 45 C 90 69.85281372070312 69.85281372070312 90 45 90 C 20.14718627929688 90 0 69.85281372070312 0 45 C 0 20.14718627929688 20.14718627929688 0 45 0 Z" stroke="none" fill="#decba5"/>
          </g>
        </g>
      </g>
      <g id="Group_1151335" data-name="Group 1151335" transform="translate(1462.496 -1462.76)">
        <path id="Path_979795" data-name="Path 979795" d="M44.682,430.6c.045-.029.1-.318.2-.439a2.6,2.6,0,0,1,1.734-1.048c3.639.231,7.65-.306,11.244,0a.6.6,0,0,1,.753.753c.364,4.337-.287,9.172,0,13.563l-.436.607-11.446.025a2.7,2.7,0,0,1-2.109-1.509c-.89.121-2.644-.37-3.434-.095-.169.059-.659.853-1.111.8.367,1.083.824,1.936.089,3.041-.651.979-1.567,1.032-2.65,1.057-.49,1.647-1.849,2.168-3.462,1.81a2.352,2.352,0,0,1-2.269,1.737c-1.423,0-2.038-1.293-3.029-2.076-2.841,1.43-4.931.82-7.226-1.117-1.119-.944-3.106-2.654-3.728-3.918-.275-.559-.368-1.154-.633-1.707L15,442.109c-.688.874-1.127,1.591-2.341,1.714-3.753.38-8.116-.284-11.935,0A.828.828,0,0,1,0,443.4l.063-14.255.223-.24,12.729-.022a2.541,2.541,0,0,1,1.871,1.629c.957-.085,2.057.1,2.993,0,1.507-.17,2.629-2.378,4.078-3.221,1.864-1.085,7.943-1.185,9.946-.491.423.146,1.086.638,1.391.694,1.359.253,2.975-.325,4.372.263,1.288.542,2.275,2.548,3.553,2.818a24.215,24.215,0,0,0,3.465.033m-17.361-2.877c-1.743.008-3.357-.244-4.9.715-1.352.839-2.553,3.338-4.307,3.338h-3.07c.006,2.122-.008,4.249,0,6.371,0,.925,0,1.855,0,2.78h2.607a33.928,33.928,0,0,0,3.478-3.126c1.936-2.163,2.635-4.566,5.539-5.814a9.436,9.436,0,0,1,4.192-.674c1.224.139,1.85,1.392,3.04,1.595.829.141,2.857.03,2-1.189a24.642,24.642,0,0,0-3.511-3.323c-1.564-.932-3.3-.68-5.062-.673M23.034,447.3a4.055,4.055,0,0,0,4.748.521,2.511,2.511,0,0,1-.577-2.027,2.3,2.3,0,0,1,2.086-1.854,2.271,2.271,0,0,1,1.964-2.9,2.628,2.628,0,0,1,2.909-3.057,2.408,2.408,0,0,1,3.38-1.773,5.9,5.9,0,0,1,1.246,1.012c.6.565,2.614,2.541,2.754,3.211a4.553,4.553,0,0,1,.026.843h2.9v-9.382c-.616-.016-1.239.022-1.854,0a4.976,4.976,0,0,1-2.439-.4c-1.262-.645-2.424-2.844-3.875-2.844H34.62c.98,1.316,4.309,3.269,2.027,4.98a4.282,4.282,0,0,1-4.5-.134c-.477-.3-.789-.836-1.407-.91a6.979,6.979,0,0,0-4.849,1.3c-1.34.978-1.747,2.084-2.694,3.329a23.761,23.761,0,0,1-2.711,2.965c-.289.267-1.845,1.42-1.916,1.561-.162.322.119,1.024.27,1.355.533,1.173,3.094,3.375,4.193,4.206M1.252,442.549H12.78a1.371,1.371,0,0,0,.984-1.216c-.233-3.194.311-6.826.006-9.967-.055-.563-.475-1.326-1.107-1.326H1.252Zm56.076-12.278H46.959c-.457,0-1.263.56-1.22,1.1.289,3.289-.376,7.218,0,10.43.039.33.441.982.756.982H57.329Zm-21,6.972A1.171,1.171,0,0,0,35.561,439c.109.211,2.618,2.72,2.89,2.9,1.222.819,2.44-.357,1.666-1.55a38.842,38.842,0,0,0-2.89-2.9,1.209,1.209,0,0,0-.9-.209m-3.019,2.087c-1,.225-.924,1.372-.373,2.061a42.043,42.043,0,0,0,4.355,4.333c1.278.917,2.4-.027,1.847-1.384-1-.685-4.36-4.824-5.183-5.011a1.465,1.465,0,0,0-.646,0m2.657,8.39c.588-.587.257-1.333-.188-1.873a32.556,32.556,0,0,0-3.671-3.512,1.111,1.111,0,0,0-1.375,1.721c.949,1.28,2.779,2.546,3.841,3.806a1.228,1.228,0,0,0,1.393-.142m-6.711-2.6a1.151,1.151,0,0,0-.6,1.826,35.979,35.979,0,0,0,2.558,2.539,1.161,1.161,0,0,0,1.535-1.65,30.294,30.294,0,0,0-2.361-2.389,1.327,1.327,0,0,0-1.132-.326" transform="translate(-1223.857 4046.186)" fill="#050504"/>
        <path id="Path_979796" data-name="Path 979796" d="M71.454,291.125c4.121.516,8.745,2.989,10.283,7.037s-.391,7.9-3.665,10.3c.387,1.358,2.669,1.907,2.66,3.345a1.648,1.648,0,0,1-1.019,1.422c-1.379.521-5-.3-6.468-.782-.834-.274-2.253-1.113-2.918-1.252a14.442,14.442,0,0,0-2.175.088,17.133,17.133,0,0,1-8.9-2.8c-2.6-1.831-4.64-4.784-4.251-8.086a24.082,24.082,0,0,1-5.852,1.5c-1.26.087-3.481.285-3.422-1.559.044-1.4,2.345-1.98,2.679-3.354-5.77-4-5.544-11.017.255-14.92a17.119,17.119,0,0,1,8.132-2.643c6.9-.392,15.6,3.644,14.662,11.7M47.586,294.6a9.648,9.648,0,0,0,.694.754c.356.31,1.587.99,1.627,1.393.069.7-1.455,2.3-1.972,2.777-.334.308-1.77,1.137-.4,1.218a17.924,17.924,0,0,0,6.425-1.339c.44-.175,1.5-.81,1.805-.859,1.7-.273,3.56.094,5.5-.292,7.231-1.436,12.935-8.82,5.789-14.541-4.053-3.244-10.005-3.842-14.859-2.056-5.654,2.081-9.389,7.8-4.606,12.944m30.124.463a9.6,9.6,0,0,0-.937-.743,14.557,14.557,0,0,0-5.71-2.047c-2.305,5.713-9.04,7.9-14.787,7.54A6.679,6.679,0,0,0,57.9,305.49c2.27,2.878,6.161,4.317,9.791,4.516.847.046,2.241-.21,2.888-.11.322.05,1.624.817,2.119,1.01a15.228,15.228,0,0,0,6.638,1.131c.169-.122.134-.244.056-.409-.088-.185-1.258-1.006-1.562-1.335-.487-.527-1.658-1.889-1.038-2.537.443-.462,1.43-.966,1.967-1.508,3.611-3.648,2.716-8.2-1.048-11.183" transform="translate(-1257.794 4159.038)" fill="#040404"/>
        <path id="Path_979797" data-name="Path 979797" d="M103.9,439.5a8.553,8.553,0,0,1-1.3,2.237,23.218,23.218,0,0,1-2.527,3.091,5.913,5.913,0,0,0-1.247-1.012,2.408,2.408,0,0,0-3.38,1.773,2.628,2.628,0,0,0-2.909,3.057,2.271,2.271,0,0,0-1.964,2.9,2.3,2.3,0,0,0-2.086,1.854L84.323,454.9c-1.1-.83-3.661-3.033-4.193-4.206-.151-.332-.432-1.033-.27-1.355.071-.142,1.627-1.295,1.916-1.561a23.759,23.759,0,0,0,2.711-2.965c.947-1.245,1.354-2.352,2.695-3.329a6.978,6.978,0,0,1,4.849-1.3c.618.074.93.611,1.407.91a4.282,4.282,0,0,0,4.5.134c2.283-1.711-1.046-3.663-2.027-4.98h1.68c1.451,0,2.613,2.2,3.875,2.844a4.976,4.976,0,0,0,2.439.4" transform="translate(-1285.147 4038.582)" fill="#e9d6ac"/>
        <path id="Path_979798" data-name="Path 979798" d="M5.395,454.752V442.243H16.807c.631,0,1.052.763,1.107,1.326.3,3.141-.239,6.772-.006,9.967a1.372,1.372,0,0,1-.985,1.216Z" transform="translate(-1228 4033.983)" fill="#f68620"/>
        <path id="Path_979799" data-name="Path 979799" d="M208.291,443.241v12.51H197.458c-.314,0-.717-.651-.756-.982-.377-3.212.289-7.141,0-10.43-.044-.538.762-1.1,1.219-1.1Z" transform="translate(-1374.82 4033.217)" fill="#0e9b49"/>
        <path id="Path_979800" data-name="Path 979800" d="M77.078,432.18a6.523,6.523,0,0,1-.751,1.74A17.617,17.617,0,0,1,64.8,442.6c-.008-2.122.006-4.249,0-6.371h3.071c1.754,0,2.955-2.5,4.307-3.339,1.547-.959,3.161-.708,4.9-.715" transform="translate(-1273.615 4041.729)" fill="#eeb1a2"/>
        <path id="Path_979801" data-name="Path 979801" d="M77.084,432.139c1.765-.008,3.5-.26,5.062.672a24.671,24.671,0,0,1,3.511,3.323c.858,1.22-1.171,1.33-2,1.189-1.19-.2-1.816-1.456-3.04-1.595a9.438,9.438,0,0,0-4.192.674c-2.9,1.248-3.6,3.651-5.539,5.814a34.022,34.022,0,0,1-3.477,3.126H64.8c0-.925,0-1.855,0-2.78a17.617,17.617,0,0,0,11.531-8.685,6.524,6.524,0,0,0,.751-1.74" transform="translate(-1273.621 4041.771)" fill="#d09a8c"/>
        <path id="Path_979802" data-name="Path 979802" d="M170.975,450.216c.615.022,1.238-.016,1.854,0V459.6h-2.9a4.55,4.55,0,0,0-.026-.843c-.141-.67-2.151-2.646-2.754-3.211a23.216,23.216,0,0,0,2.527-3.091,8.553,8.553,0,0,0,1.3-2.237" transform="translate(-1352.218 4027.864)" fill="#cebd99"/>
        <path id="Path_979803" data-name="Path 979803" d="M140.987,482.157a1.472,1.472,0,0,1,.646,0c.823.187,4.181,4.326,5.183,5.011.555,1.357-.569,2.3-1.847,1.384a42.09,42.09,0,0,1-4.356-4.333c-.55-.69-.625-1.837.373-2.062" transform="translate(-1331.532 4003.359)" fill="#ebaea0"/>
        <path id="Path_979804" data-name="Path 979804" d="M136.715,500.179a1.228,1.228,0,0,1-1.393.142c-1.061-1.26-2.892-2.526-3.841-3.805a1.111,1.111,0,0,1,1.375-1.721,32.593,32.593,0,0,1,3.67,3.512c.445.54.775,1.286.188,1.873" transform="translate(-1324.603 3993.728)" fill="#ebae9f"/>
        <path id="Path_979805" data-name="Path 979805" d="M153.5,473.233a1.208,1.208,0,0,1,.9.209,38.886,38.886,0,0,1,2.89,2.9c.773,1.194-.444,2.369-1.666,1.55-.272-.182-2.781-2.692-2.89-2.9a1.171,1.171,0,0,1,.769-1.758" transform="translate(-1341.028 4010.196)" fill="#ebaea0"/>
        <path id="Path_979806" data-name="Path 979806" d="M123.332,507.13a1.327,1.327,0,0,1,1.132.326,30.268,30.268,0,0,1,2.361,2.389,1.161,1.161,0,0,1-1.535,1.65,35.974,35.974,0,0,1-2.558-2.539,1.151,1.151,0,0,1,.6-1.826" transform="translate(-1317.931 3984.176)" fill="#ebaea0"/>
        <path id="Path_979807" data-name="Path 979807" d="M103.425,510.123A2.511,2.511,0,0,0,104,512.15a4.055,4.055,0,0,1-4.748-.521Z" transform="translate(-1300.078 3981.856)" fill="#cbbb97"/>
        <path id="Path_979808" data-name="Path 979808" d="M71.028,287.918a12.655,12.655,0,0,1-2.108,5.711c-.117.178-.3.572-.557.544a1.965,1.965,0,1,0-1.274,1.506c-.144.449-.728.855-1.1,1.155a14.1,14.1,0,0,1-11.851,2.7c-.881-.194-1.687-.57-2.57-.732-4.783-5.148-1.048-10.863,4.606-12.944,4.854-1.786,10.806-1.188,14.859,2.056M57.1,291.88c-2.552.2-2.214,4,.194,3.92,2.584-.084,2.4-4.127-.194-3.92m4.517,0c-2.443.294-2.172,4.053.312,3.921,2.62-.139,2.229-4.227-.312-3.921" transform="translate(-1261.772 4154.833)" fill="#465ca8"/>
        <path id="Path_979809" data-name="Path 979809" d="M117.317,337.68a12.811,12.811,0,0,1-18.386,11.142A5.039,5.039,0,0,0,97.5,348.1a6.679,6.679,0,0,1-1.621-5.675c5.746.364,12.481-1.827,14.787-7.54a14.558,14.558,0,0,1,5.71,2.047,9.624,9.624,0,0,1,.937.743m-14.049,4.082a1.929,1.929,0,0,0-.018,3.784c3.163.451,2.931-4.274.018-3.784m4.517,0a2.226,2.226,0,0,0-1.226.859,1.946,1.946,0,1,0,1.226-.859m4.636,0c-2.01.326-2.055,3.409-.117,3.767a1.93,1.93,0,1,0,.117-3.767" transform="translate(-1297.401 4116.423)" fill="#ef4e49"/>
        <path id="Path_979810" data-name="Path 979810" d="M76.18,298c7.146,5.72,1.442,13.1-5.789,14.541-1.941.385-3.8.019-5.5.292-.305.049-1.365.684-1.805.859a17.923,17.923,0,0,1-6.425,1.339c-1.365-.081.071-.91.4-1.218.517-.476,2.041-2.082,1.972-2.777-.04-.4-1.271-1.083-1.627-1.393a9.611,9.611,0,0,1-.694-.754c.883.162,1.689.538,2.57.732a14.1,14.1,0,0,0,11.851-2.7c.377-.3.96-.706,1.1-1.155a2.517,2.517,0,0,0,1.275-1.506c.253.028.44-.366.557-.544A12.654,12.654,0,0,0,76.18,298" transform="translate(-1266.924 4144.753)" fill="#3f5397"/>
        <path id="Path_979811" data-name="Path 979811" d="M103.248,357.336a5.038,5.038,0,0,1,1.426.717,12.811,12.811,0,0,0,18.386-11.142c3.764,2.981,4.659,7.535,1.048,11.183-.537.542-1.524,1.046-1.966,1.508-.62.647.551,2.009,1.038,2.537.3.33,1.474,1.15,1.562,1.335.078.165.113.287-.056.409a15.227,15.227,0,0,1-6.638-1.131c-.5-.194-1.8-.96-2.12-1.01-.647-.1-2.041.156-2.888.11-3.63-.2-7.522-1.638-9.791-4.516" transform="translate(-1303.145 4107.191)" fill="#d74641"/>
        <path id="Path_979812" data-name="Path 979812" d="M118.3,317.4a2.518,2.518,0,0,1-1.274,1.506A1.964,1.964,0,1,1,118.3,317.4m-2.116-1.022a.706.706,0,1,0,.411,1.346.706.706,0,0,0-.411-1.346" transform="translate(-1311.708 4131.604)" fill="#020304"/>
        <path id="Path_979813" data-name="Path 979813" d="M76.822,315.045c2.6-.207,2.779,3.836.194,3.919-2.408.078-2.747-3.715-.194-3.919m-.124,1.274a.722.722,0,0,0,.529,1.343.722.722,0,0,0-.529-1.343" transform="translate(-1281.493 4131.668)" fill="#020304"/>
        <path id="Path_979814" data-name="Path 979814" d="M96.517,315.011c2.542-.306,2.931,3.781.312,3.921-2.484.132-2.755-3.626-.312-3.921m-.292,1.4a.746.746,0,0,0,.964,1.136c.83-.592-.288-1.775-.964-1.136" transform="translate(-1296.671 4131.701)" fill="#030304"/>
        <path id="Path_979815" data-name="Path 979815" d="M162.426,364.387a1.93,1.93,0,1,1-.117,3.767c-1.938-.358-1.893-3.441.117-3.767m.927,1.391a.734.734,0,0,0-1.066,1.009c.653.757,1.649-.4,1.066-1.009" transform="translate(-1347.407 4093.798)" fill="#060303"/>
        <path id="Path_979816" data-name="Path 979816" d="M122.909,364.383c2.913-.49,3.145,4.235-.018,3.784a1.929,1.929,0,0,1,.018-3.784m.341,1.16a.739.739,0,0,0,.086,1.474c.948-.058.759-1.508-.086-1.474" transform="translate(-1317.043 4093.802)" fill="#050303"/>
        <path id="Path_979817" data-name="Path 979817" d="M142.531,364.368a1.946,1.946,0,1,1-1.225.859,2.225,2.225,0,0,1,1.225-.859m.347,1.149c-1.2.183-.435,2.141.556,1.258a.724.724,0,0,0-.556-1.258" transform="translate(-1332.147 4093.815)" fill="#050303"/>
        <path id="Path_979818" data-name="Path 979818" d="M120.215,320.48a.706.706,0,0,1,.411,1.346.706.706,0,1,1-.411-1.346" transform="translate(-1315.74 4127.504)" fill="#dfe8ef"/>
        <path id="Path_979819" data-name="Path 979819" d="M80.672,320.416a.722.722,0,0,1,.529,1.343.722.722,0,0,1-.529-1.343" transform="translate(-1285.468 4127.571)" fill="#dee7ee"/>
        <path id="Path_979820" data-name="Path 979820" d="M100.055,320.479c.676-.639,1.794.543.964,1.135a.746.746,0,0,1-.964-1.135" transform="translate(-1300.502 4127.63)" fill="#dde7ed"/>
        <path id="Path_979821" data-name="Path 979821" d="M167.3,369.748c.583.613-.413,1.765-1.066,1.009a.734.734,0,0,1,1.066-1.009" transform="translate(-1351.359 4089.828)" fill="#dfe8ef"/>
        <path id="Path_979822" data-name="Path 979822" d="M127.327,369.5c.845-.034,1.034,1.417.086,1.474a.739.739,0,0,1-.086-1.474" transform="translate(-1321.12 4089.846)" fill="#dde7ee"/>
        <path id="Path_979823" data-name="Path 979823" d="M147.012,369.429a.724.724,0,0,1,.556,1.258c-.99.883-1.757-1.074-.556-1.258" transform="translate(-1336.281 4089.905)" fill="#dce5ec"/>
      </g>
    </g>
  </g>
</svg>
