<svg id="Group_1157324" data-name="Group 1157324" xmlns="http://www.w3.org/2000/svg" xmlns:xlink="http://www.w3.org/1999/xlink" width="53.57" height="53.548" viewBox="0 0 53.57 53.548">
  <defs>
    <clipPath id="clip-path">
      <rect id="Rectangle_409847" data-name="Rectangle 409847" width="53.57" height="53.548" fill="none"/>
    </clipPath>
  </defs>
  <g id="Group_1157227" data-name="Group 1157227" clip-path="url(#clip-path)">
    <path id="Path_1012781" data-name="Path 1012781" d="M.6,19.687A.922.922,0,0,1,.038,18.6l2.195-3.945c.041-.224-.029-.122-.148-.156-.641-.185-1.14-.156-1.076-1.058L3.4,9.159c.086-.279-.682-.13-.892-.163a.841.841,0,0,1-.672-1.079L6.011.355a.844.844,0,0,1,1.2-.185l4.429,7.853c.059,1.053-.912.989-1.675,1.03l2.413,4.364c.154.779-.613,1.1-1.249,1.137l2.2,3.937c.209.376-.172,1.195-.559,1.195H7.528v6.982h12.75a16.085,16.085,0,0,0,3.281-6.981,18.162,18.162,0,0,0,.537-3.233,1.933,1.933,0,0,0-.562-.561c-.268-.071-.953.21-1.351.2a3.631,3.631,0,0,1-3.357-4.705,3.628,3.628,0,0,1-.344-5.88c.18-.152.717-.395.764-.453.1-.117.264-.911.428-1.212a3.663,3.663,0,0,1,2.239-1.676,7.19,7.19,0,0,0,1.17-.1c.091-.045.742-.9,1.007-1.109a4.264,4.264,0,0,1,5.5.1c.223.189.817.97.9,1.008a7.187,7.187,0,0,0,1.17.1A3.6,3.6,0,0,1,34,4.064c.118.243.237.889.325,1,.047.058.584.3.764.453a3.628,3.628,0,0,1-.344,5.879A3.631,3.631,0,0,1,31.387,16.1c-.4.006-1.083-.276-1.351-.2-.819.217-.459,1.5-.363,2.123.335,2.175,1.76,6.966,3.4,8.446.336.3.523.145.878.286a.852.852,0,0,1-.341,1.615l-12.754.049c-.7,1.084.247,2.4.482,3.542a3.7,3.7,0,0,1-.212,2.758c-.685,1.285-2.693,1.65-2.065,3.488a10.092,10.092,0,0,0,3.123-2.113c1.8-1.621,3.883-4.969,6.455-4.767,1.3.1,2.5,1.383,3.406,1.462,1.208.1,2.04-.455,3.544.052,1.463.493,1.908,2.2,2.726,2.458,1.186.381,2.116.122,2.809,1.529.909,1.845.028,3.475-.151,5.251a5.919,5.919,0,0,0,1.734,4.058,24.775,24.775,0,0,0,9.047-17.769c-1.421.422-1.916-1.5-.575-1.685.793-.11,2.225-.206,2.366.793a14.951,14.951,0,0,1-.219,2.835A26.784,26.784,0,0,1,.121,29.366c-.055-.587-.264-2.055.134-2.457A3.825,3.825,0,0,1,.7,26.669H5.835V19.687Zm28.728-5.712c.768-.352,1.288.422,2.062.422a1.957,1.957,0,0,0,1.851-1.851c0-.776-.724-1.2-.48-1.963.159-.5.765-.506,1.152-.752a1.835,1.835,0,0,0,.018-3.051c-.368-.254-.869-.249-1.114-.579-.444-.6.08-1.417-.957-2.111-.876-.587-1.51-.031-2.111-.209-.462-.137-.617-.774-.894-1.124a2.587,2.587,0,0,0-3.829-.384c-.414.379-.669,1.279-1.123,1.472-.354.15-1.089-.1-1.6-.02a1.972,1.972,0,0,0-1.28,1.153c-.11.412.025.843-.258,1.223-.348.466-1.23.3-1.678,1.179a1.811,1.811,0,0,0,.4,2.312c.424.343,1.171.393,1.33.891.244.764-.48,1.187-.48,1.963A1.957,1.957,0,0,0,22.182,14.4c.775,0,1.294-.773,2.063-.422a6.845,6.845,0,0,0-.934-4.3c-.209-.36-.836-1.024-.925-1.3a.878.878,0,0,1,1.431-.9l.85,1.1c.195-.765.024-1.519.485-2.214a1.946,1.946,0,0,1,3.169-.115c.572.743.382,1.475.581,2.329l.851-1.1a.888.888,0,0,1,1.108-.06c.937.68-.146,1.5-.523,2.126a6.745,6.745,0,0,0-1.013,4.435M2.343,17.994h8.676L8.8,13.808a.824.824,0,0,1,.361-.9c.313-.175.981.018.9-.256l-2.4-4.463c.063-.939.952-.89,1.661-.935l-2.54-4.6-2.641,4.5c-.08.278.676.128.89.161a.835.835,0,0,1,.691.989c-.132.578-2.519,4.322-2.325,4.505.752-.1,1.233.164,1.226.958Zm20.1,8.675h8.676c-3.944-5.633-3.247-12.6-4.031-19.088-.019-.154-.051-.416-.254-.385l-.276.069c-.861,6.576-.149,13.686-4.115,19.4m-3.492,1.693H1.814a21.134,21.134,0,0,0,1.64,7.509c1.1-1.452,3.664-3.675,5.484-2.2,1.946,1.576.409,4.982,1.072,6.862.261.74.824.443,1.369.536,2.556.435,2.865,2.915,5.973,2.247,2.487-.534,4.6-1.914,7.338-1.381,2.5.486,4.862,3.307,2.985,5.672-1.217,1.532-3.568,1.364-5.275,1.92-1.085.354-1.262.472-1.33,1.686a25.825,25.825,0,0,0,20.2-3.923c-.417-.892-1.1-1.616-1.494-2.564-1.194-2.88.3-4,.019-6.472-.153-1.338-.87-1.035-1.806-1.263-1.675-.407-1.77-2.053-2.882-2.514-1.161-.481-2.084.065-3.162,0-1.834-.116-3.014-2.429-4.849-.982-2.247,1.772-3.969,4.818-6.838,6.069-3.037,1.325-3.748-2.23-2.3-4.1.557-.722,1.751-1.111,1.846-2.071.159-1.6-1.358-3.34-.85-5.026m.529,22.322c-.162-3.139,3.809-2.841,5.844-3.52s1.441-2.565-.128-3.3c-3.19-1.5-7.169,2.309-10.687.952-1.071-.413-2.338-1.927-3.238-2.052-1.008-.14-1.511.168-2.32-.749-1.354-1.534-.517-4.042-.682-5.877-.157-1.743-1.169-1.374-2.228-.526-.358.287-1.834,1.826-1.783,2.2a12.567,12.567,0,0,0,.919,1.737,25.335,25.335,0,0,0,11.8,10.315,11.811,11.811,0,0,0,2.5.828" transform="translate(0 0)"/>
    <path id="Path_1012782" data-name="Path 1012782" d="M196.327,15.843c6.775-1.054,7.623,8.776,1.443,9.377s-6.976-8.516-1.443-9.377m-1.2,6.813c2.816,2.816,7.09-1.459,4.342-4.288-2.785-2.866-7.2,1.426-4.342,4.288" transform="translate(-151.794 -12.423)"/>
    <path id="Path_1012783" data-name="Path 1012783" d="M167.341,125.725a4.769,4.769,0,0,0,7.462.742c.606-.637.94-2.116,1.994-1.575.959.492-.011,1.814-.465,2.363a6.414,6.414,0,0,1-10.579-.9c-.107-.073-.414.691-.635.791a.857.857,0,0,1-1.247-.922,23.722,23.722,0,0,1,1.016-3.223c.316-.729.756-.83,1.432-.437.251.146,2.472,1.987,2.6,2.164a.879.879,0,0,1-.861,1.4c-.309-.064-.408-.4-.712-.4" transform="translate(-129.129 -96.411)"/>
    <path id="Path_1012784" data-name="Path 1012784" d="M183.133,99.163l.21-.069c.248-1.269,1.917-1.023,1.645.392a23.065,23.065,0,0,1-.987,3.138c-.474.98-1.17.465-1.766.027a22.885,22.885,0,0,1-2.22-1.906c-.667-1.06.675-1.887,1.477-.948.078.017.072-.111.052-.157a4.794,4.794,0,0,0-1.76-1.52,4.7,4.7,0,0,0-5.961,1.31c-.426.5-.74,1.631-1.693.947C171,99.563,173.218,97.5,173.936,97a6.369,6.369,0,0,1,9.2,2.159" transform="translate(-135.397 -75.563)"/>
    <path id="Path_1012785" data-name="Path 1012785" d="M181.845,17.083a4.227,4.227,0,0,1,1.935.878.862.862,0,0,1-.958,1.382,6.233,6.233,0,0,1-1.483-.95.9.9,0,0,1,.507-1.31" transform="translate(-142.814 -13.457)"/>
    <path id="Path_1012786" data-name="Path 1012786" d="M225.442,58.435a.894.894,0,0,1,.825.188,10.3,10.3,0,0,1,.814,1.408.82.82,0,0,1-.925,1.143c-.679-.063-2.074-2.443-.715-2.739" transform="translate(-177.207 -46.027)"/>
    <path id="Path_1012787" data-name="Path 1012787" d="M241.4,34a.858.858,0,0,1-.279,1.4c-.569.178-2.266.216-2.421-.56-.273-1.37,2.171-1.325,2.7-.84" transform="translate(-188.09 -26.548)"/>
    <path id="Path_1012788" data-name="Path 1012788" d="M211.969.269c.427.466.437,2.315-.311,2.637-1.464.631-1.38-2.316-.817-2.72a.872.872,0,0,1,1.128.084" transform="translate(-165.855 -0.014)"/>
    <path id="Path_1012789" data-name="Path 1012789" d="M194.332,4.569c.747-.155,1.345.953,1.587,1.545a.862.862,0,0,1-1.284,1.072,11.394,11.394,0,0,1-.827-1.288c-.194-.542-.113-1.2.524-1.328" transform="translate(-152.656 -3.589)"/>
    <path id="Path_1012790" data-name="Path 1012790" d="M235.8,48.062a4.251,4.251,0,0,1,1.828.981c.585.744-.114,1.5-.985,1.3a13.4,13.4,0,0,1-1.395-.828.91.91,0,0,1,.551-1.455" transform="translate(-185.239 -37.874)"/>
    <path id="Path_1012791" data-name="Path 1012791" d="M226.752,4.782c.539.54-.127,1.628-.518,2.12a.851.851,0,0,1-1.567-.608,12.217,12.217,0,0,1,.8-1.431.887.887,0,0,1,1.288-.081" transform="translate(-177.036 -3.579)"/>
    <path id="Path_1012792" data-name="Path 1012792" d="M237.637,17.37a.925.925,0,0,1-.079,1.29,7.788,7.788,0,0,1-1.541.8.841.841,0,0,1-.5-1.567c.5-.4,1.566-1.074,2.121-.518" transform="translate(-185.277 -13.523)"/>
    <path id="Path_1012793" data-name="Path 1012793" d="M177.309,33.9a4.083,4.083,0,0,1,1.926.145.868.868,0,0,1-.258,1.523,8.02,8.02,0,0,1-1.847-.053.884.884,0,0,1,.179-1.615" transform="translate(-139.234 -26.676)"/>
    <path id="Path_1012794" data-name="Path 1012794" d="M195.134,58.468a.885.885,0,0,1,1.041.939c-.058.43-.824,1.718-1.285,1.788-1.858.283-.6-2.551.244-2.727" transform="translate(-152.824 -46.062)"/>
    <path id="Path_1012795" data-name="Path 1012795" d="M210.84,62.51a1.316,1.316,0,0,1,.953-.115c.664.2.632,2.116.288,2.571a.892.892,0,0,1-1.461-.235c-.107-.366-.089-1.971.22-2.221" transform="translate(-165.932 -49.139)"/>
    <path id="Path_1012796" data-name="Path 1012796" d="M183.1,48.1a.935.935,0,0,1,.889.868c0,.985-3.041,2.338-2.752.431.071-.468,1.43-1.275,1.863-1.3" transform="translate(-142.807 -37.908)"/>
  </g>
</svg>
