<svg xmlns="http://www.w3.org/2000/svg" xmlns:xlink="http://www.w3.org/1999/xlink" width="103" height="103" viewBox="0 0 103 103">
  <defs>
    <filter id="Path_978624" x="0" y="0" width="103" height="103" filterUnits="userSpaceOnUse">
      <feOffset dy="3" input="SourceAlpha"/>
      <feGaussianBlur stdDeviation="3" result="blur"/>
      <feFlood flood-opacity="0.161"/>
      <feComposite operator="in" in2="blur"/>
      <feComposite in="SourceGraphic"/>
    </filter>
  </defs>
  <g id="Group_1157304" data-name="Group 1157304" transform="translate(-171 -277)">
    <g id="Group_1151298" data-name="Group 1151298" transform="translate(-30 -43)">
      <g id="Group_1151609" data-name="Group 1151609">
        <g transform="matrix(1, 0, 0, 1, 201, 320)" filter="url(#Path_978624)">
          <g id="Path_978624-2" data-name="Path 978624" transform="translate(9 6)" fill="#effdfc">
            <path d="M 42.5 83.5 C 36.96437835693359 83.5 31.59512901306152 82.41617584228516 26.54141235351562 80.27863311767578 C 21.65934181213379 78.21369171142578 17.27447128295898 75.25723266601562 13.50862312316895 71.49137878417969 C 9.742764472961426 67.72553253173828 6.786305904388428 63.34066009521484 4.721364498138428 58.45858764648438 C 2.583823442459106 53.40486907958984 1.5 48.03562164306641 1.5 42.5 C 1.5 36.96437835693359 2.583823442459106 31.59512901306152 4.721364498138428 26.54141235351562 C 6.786305904388428 21.65934181213379 9.742764472961426 17.27447128295898 13.50862312316895 13.50862312316895 C 17.27447128295898 9.742764472961426 21.65934181213379 6.786305904388428 26.54141235351562 4.721364498138428 C 31.59512901306152 2.583823442459106 36.96437835693359 1.5 42.5 1.5 C 48.03562164306641 1.5 53.40486907958984 2.583823442459106 58.45858764648438 4.721364498138428 C 63.34066009521484 6.786305904388428 67.72553253173828 9.742764472961426 71.49137878417969 13.50862312316895 C 75.25723266601562 17.27447128295898 78.21369171142578 21.65934181213379 80.27863311767578 26.54141235351562 C 82.41617584228516 31.59512901306152 83.5 36.96437835693359 83.5 42.5 C 83.5 48.03562164306641 82.41617584228516 53.40486907958984 80.27863311767578 58.45858764648438 C 78.21369171142578 63.34066009521484 75.25723266601562 67.72553253173828 71.49137878417969 71.49137878417969 C 67.72553253173828 75.25723266601562 63.34066009521484 78.21369171142578 58.45858764648438 80.27863311767578 C 53.40486907958984 82.41617584228516 48.03562164306641 83.5 42.5 83.5 Z" stroke="none"/>
            <path d="M 42.5 3 C 37.16621398925781 3 31.99356079101562 4.043960571289062 27.125732421875 6.102882385253906 C 22.42246627807617 8.092185974121094 18.19785308837891 10.94070434570312 14.56928253173828 14.56928253173828 C 10.94070434570312 18.19785308837891 8.092185974121094 22.42246627807617 6.102882385253906 27.125732421875 C 4.043960571289062 31.99356079101562 3 37.16621398925781 3 42.5 C 3 47.83378601074219 4.043960571289062 53.00643920898438 6.102882385253906 57.87425231933594 C 8.092185974121094 62.57753372192383 10.94070434570312 66.80213165283203 14.56928253173828 70.43071746826172 C 18.19786834716797 74.05929565429688 22.42246627807617 76.90781402587891 27.125732421875 78.89711761474609 C 31.99356079101562 80.95603942871094 37.16621398925781 82 42.5 82 C 47.83378601074219 82 53.00642395019531 80.95603942871094 57.87425231933594 78.89711761474609 C 62.57753372192383 76.90781402587891 66.80213165283203 74.05929565429688 70.43071746826172 70.43071746826172 C 74.05929565429688 66.80213165283203 76.90781402587891 62.57753372192383 78.89711761474609 57.87425231933594 C 80.95603942871094 53.00642395019531 82 47.83378601074219 82 42.5 C 82 37.16621398925781 80.95603942871094 31.99356079101562 78.89711761474609 27.125732421875 C 76.90781402587891 22.42246627807617 74.05929565429688 18.19786834716797 70.43071746826172 14.56928253173828 C 66.80213165283203 10.94070434570312 62.57753372192383 8.092185974121094 57.87425231933594 6.102882385253906 C 53.00643920898438 4.043960571289062 47.83378601074219 3 42.5 3 M 42.5 0 C 65.97209167480469 0 85 19.02789306640625 85 42.5 C 85 65.97209167480469 65.97209167480469 85 42.5 85 C 19.02789306640625 85 0 65.97209167480469 0 42.5 C 0 19.02789306640625 19.02789306640625 0 42.5 0 Z" stroke="none" fill="#70efea"/>
          </g>
        </g>
        <g id="controlar" transform="translate(224.74 338.74)">
          <g id="Group_1157013" data-name="Group 1157013" transform="translate(1.863 1.863)">
            <g id="Group_1156988" data-name="Group 1156988" transform="translate(3.453 45.751)">
              <path id="Path_991059" data-name="Path 991059" d="M6,55H16.359v6.043H6Z" transform="translate(-6 -55)" fill="#969faa"/>
            </g>
            <g id="Group_1156989" data-name="Group 1156989" transform="translate(37.982 45.751)">
              <path id="Path_991060" data-name="Path 991060" d="M46,55H56.359v6.043H46Z" transform="translate(-46 -55)" fill="#969faa"/>
            </g>
            <g id="Group_1156990" data-name="Group 1156990" transform="translate(3.453 37.982)">
              <path id="Path_991061" data-name="Path 991061" d="M16.359,50.316v3.453H6V46a4.318,4.318,0,0,0,4.316,4.316Z" transform="translate(-6 -46)" fill="#b4dd7f"/>
            </g>
            <g id="Group_1156991" data-name="Group 1156991" transform="translate(8.011 28.53)">
              <path id="Path_991062" data-name="Path 991062" d="M11.28,35.05a4.682,4.682,0,0,1,.622.164A6.926,6.926,0,0,1,16.8,41.093l.285,2.547H11.9V36.733A2.592,2.592,0,0,0,11.28,35.05Z" transform="translate(-11.28 -35.05)" fill="#b4dd7f"/>
            </g>
            <g id="Group_1156992" data-name="Group 1156992" transform="translate(3.453 27.626)">
              <path id="Path_991063" data-name="Path 991063" d="M8.072,34.052a2.59,2.59,0,0,1,3.108,2.538v4.316H6V36.694a2.69,2.69,0,0,1,1.726-2.547A2.261,2.261,0,0,1,8.072,34.052Z" transform="translate(-6 -34.003)" fill="#b4dd7f"/>
            </g>
            <g id="Group_1156993" data-name="Group 1156993" transform="translate(37.982 37.982)">
              <path id="Path_991064" data-name="Path 991064" d="M56.359,46v7.769H46V50.316h6.043A4.318,4.318,0,0,0,56.359,46Z" transform="translate(-46 -46)" fill="#ff826e"/>
            </g>
            <g id="Group_1156994" data-name="Group 1156994" transform="translate(37.982 28.53)">
              <path id="Path_991065" data-name="Path 991065" d="M51.179,35.214a4.682,4.682,0,0,1,.622-.164,2.592,2.592,0,0,0-.622,1.683v6.906H46l.285-2.547A6.926,6.926,0,0,1,51.179,35.214Z" transform="translate(-46 -35.05)" fill="#ff826e"/>
            </g>
            <g id="Group_1156995" data-name="Group 1156995" transform="translate(43.161 27.626)">
              <path id="Path_991066" data-name="Path 991066" d="M55.453,34.147a2.69,2.69,0,0,1,1.726,2.547v4.213H52V36.59a2.59,2.59,0,0,1,3.108-2.538,2.261,2.261,0,0,1,.345.095Z" transform="translate(-52 -34.003)" fill="#ff826e"/>
            </g>
            <g id="Group_1156996" data-name="Group 1156996" transform="translate(16.401 19.172)">
              <path id="Path_991067" data-name="Path 991067" d="M33.085,30.071l.734-5.861,1.511.38a6.093,6.093,0,0,1,2.2,1.045,6.281,6.281,0,0,1,1.813,2.175,6.089,6.089,0,0,1,.647,2.745v6.6l-2.78-2.78-1.977,1.174a10.28,10.28,0,0,0-1.588-.665l-.561-2.218H27.906l-.561,2.218a10.28,10.28,0,0,0-1.588.665L23.78,34.37,21,37.15v-6.6a6.169,6.169,0,0,1,2.46-4.92,6.093,6.093,0,0,1,2.2-1.045l1.511-.38.734,5.861,2.59-3.453Z" transform="translate(-21 -24.21)" fill="#75b1f2"/>
            </g>
            <g id="Group_1156997" data-name="Group 1156997" transform="translate(25.897 18.991)">
              <path id="Path_991068" data-name="Path 991068" d="M35.323,24.181l-.734,5.861L32,26.59,34.59,24Z" transform="translate(-32 -24)" fill="#5d9cec"/>
            </g>
            <g id="Group_1156998" data-name="Group 1156998" transform="translate(22.573 18.991)">
              <path id="Path_991069" data-name="Path 991069" d="M31.473,26.59l-2.59,3.453-.734-5.861L28.884,24Z" transform="translate(-28.15 -24)" fill="#5d9cec"/>
            </g>
            <g id="Group_1156999" data-name="Group 1156999" transform="translate(15.521 41.979)">
              <path id="Path_991070" data-name="Path 991070" d="M40.223,51.51a10.28,10.28,0,0,1-.665,1.588l1.174,1.977-3.66,3.66L35.1,57.562a10.28,10.28,0,0,1-1.588.665l-.561,2.218H27.766l-.561-2.218a10.28,10.28,0,0,1-1.588-.665L23.64,58.736l-3.66-3.66L21.154,53.1a10.281,10.281,0,0,1-.665-1.588l.035-.561h2.063a2.537,2.537,0,0,0,1.243-.319,6.911,6.911,0,0,0,13.052,0,2.537,2.537,0,0,0,1.243.319H40.4Z" transform="translate(-19.98 -50.63)" fill="#ffc729"/>
            </g>
            <g id="Group_1157000" data-name="Group 1157000" transform="translate(15.521 27.623)">
              <path id="Path_991071" data-name="Path 991071" d="M39.558,41.346a10.28,10.28,0,0,1,.665,1.588l.207.561h-2.3a2.537,2.537,0,0,0-1.243.319,6.911,6.911,0,0,0-13.052,0,2.537,2.537,0,0,0-1.243-.319H20.481l.009-.561a10.28,10.28,0,0,1,.665-1.588L19.98,39.369l.88-.88,2.78-2.78,1.977,1.174a10.28,10.28,0,0,1,1.588-.665L27.766,34h5.179l.561,2.218a10.28,10.28,0,0,1,1.588.665l1.977-1.174,2.78,2.78.88.88Z" transform="translate(-19.98 -34)" fill="#ffc729"/>
            </g>
            <g id="Group_1157001" data-name="Group 1157001" transform="translate(19.371 32.803)">
              <path id="Path_991072" data-name="Path 991072" d="M34.419,46.906a3.453,3.453,0,1,0-3.453,3.453A3.452,3.452,0,0,0,34.419,46.906Zm1.726,0a2.58,2.58,0,0,0,1.347,2.27,6.911,6.911,0,0,1-13.052,0,2.586,2.586,0,0,0,.587-4.1,2.678,2.678,0,0,0-.587-.44,6.911,6.911,0,0,1,13.052,0,2.678,2.678,0,0,0-.587.44A2.583,2.583,0,0,0,36.145,46.906Z" transform="translate(-24.44 -40)" fill="#fcd770"/>
            </g>
            <g id="Group_1157002" data-name="Group 1157002" transform="translate(0 11.222)">
              <path id="Path_991073" data-name="Path 991073" d="M14.085,15a1.732,1.732,0,0,1,1.726,1.726,3.475,3.475,0,0,1-1.01,2.443,3.51,3.51,0,0,1-2.443,1.01H11.029a2.588,2.588,0,0,0-2.538,2.08L7.179,28.812l-.38-.129A7.021,7.021,0,0,1,9.027,15Z" transform="translate(-2 -15)" fill="#b27946"/>
            </g>
            <g id="Group_1157003" data-name="Group 1157003" transform="translate(37.982 11.222)">
              <path id="Path_991074" data-name="Path 991074" d="M57.326,38.652l-.967.8V34.095a2.69,2.69,0,0,0-1.726-2.547V28.812L53.32,22.26a2.588,2.588,0,0,0-2.538-2.08H49.453A3.459,3.459,0,0,1,46,16.726,1.739,1.739,0,0,1,47.726,15h5.179a6.9,6.9,0,0,1,6.906,6.906V33.344A6.89,6.89,0,0,1,57.326,38.652Z" transform="translate(-46 -15)" fill="#b27946"/>
            </g>
            <g id="Group_1157004" data-name="Group 1157004" transform="translate(18.128)">
              <path id="Path_991075" data-name="Path 991075" d="M38.538,8.906v.2a4.82,4.82,0,0,1-.8,2.659,1.7,1.7,0,0,0-.924-.268H35.085v-.009h-.147A5.9,5.9,0,0,1,30.769,9.76,5.9,5.9,0,0,1,26.6,11.487h-.147V11.5H24.726a1.7,1.7,0,0,0-.924.268A4.82,4.82,0,0,1,23,9.1a6.722,6.722,0,0,1,1.968-4.756l.544-.544A6.162,6.162,0,0,1,35.154,5l.794,1.321a2.586,2.586,0,0,1,2.59,2.59Z" transform="translate(-23 -2)" fill="#656d78"/>
            </g>
            <g id="Group_1157005" data-name="Group 1157005" transform="translate(30.213 9.496)">
              <path id="Path_991076" data-name="Path 991076" d="M39.944,13.509a1.688,1.688,0,0,1,.509,1.217,1.732,1.732,0,0,1-1.726,1.726H37V13h1.726a1.7,1.7,0,0,1,.924.268A1.562,1.562,0,0,1,39.944,13.509Z" transform="translate(-37 -13)" fill="#f0d0b4"/>
            </g>
            <g id="Group_1157006" data-name="Group 1157006" transform="translate(21.581 7.76)">
              <path id="Path_991077" data-name="Path 991077" d="M35.632,12.725v3.453a4.316,4.316,0,0,1-8.632,0V12.716h.147a5.9,5.9,0,0,0,4.169-1.726,5.9,5.9,0,0,0,4.169,1.726h.147Z" transform="translate(-27 -10.99)" fill="#f0d0b4"/>
            </g>
            <g id="Group_1157007" data-name="Group 1157007" transform="translate(23.307 16.755)">
              <path id="Path_991078" data-name="Path 991078" d="M29.561,21.41a4.36,4.36,0,0,0,4.057,0l.561,2.236-2.59,2.59L29,23.646Z" transform="translate(-29 -21.41)" fill="#f0d0b4"/>
            </g>
            <g id="Group_1157008" data-name="Group 1157008" transform="translate(18.128 9.496)">
              <path id="Path_991079" data-name="Path 991079" d="M26.453,16.444v.009H24.726A1.739,1.739,0,0,1,23,14.726a1.73,1.73,0,0,1,.8-1.459A1.7,1.7,0,0,1,24.726,13h1.726Z" transform="translate(-23 -13)" fill="#f0d0b4"/>
            </g>
            <g id="Group_1157009" data-name="Group 1157009" transform="translate(5.179 15.857)">
              <path id="Path_991080" data-name="Path 991080" d="M11.453,30.409v2.8a4.682,4.682,0,0,0-.622-.164,2.6,2.6,0,0,0-2.486-.855A2.261,2.261,0,0,0,8,32.283V29.546l1.312-6.552a2.588,2.588,0,0,1,2.538-2.08h1.329a3.415,3.415,0,0,0,1.856-.544l1.6,4-.863.863v1.726a3.452,3.452,0,0,1-3.453,3.453Z" transform="translate(-8 -20.37)" fill="#f0d0b4"/>
            </g>
            <g id="Group_1157010" data-name="Group 1157010" transform="translate(3.453 34.529)">
              <path id="Path_991081" data-name="Path 991081" d="M11.179,42v2.59h9.5a2.537,2.537,0,0,1,1.243.319,2.678,2.678,0,0,1,.587.44,2.586,2.586,0,0,1-.587,4.1,2.537,2.537,0,0,1-1.243.319H10.316A4.318,4.318,0,0,1,6,45.453V42Z" transform="translate(-6 -42)" fill="#f0d0b4"/>
            </g>
            <g id="Group_1157011" data-name="Group 1157011" transform="translate(31.076 34.529)">
              <path id="Path_991082" data-name="Path 991082" d="M55.265,44.59v.863a4.318,4.318,0,0,1-4.316,4.316H40.59a2.537,2.537,0,0,1-1.243-.319,2.586,2.586,0,0,1-.587-4.1,2.678,2.678,0,0,1,.587-.44,2.537,2.537,0,0,1,1.243-.319h9.5V42h5.179v2.59Z" transform="translate(-38 -42)" fill="#f0d0b4"/>
            </g>
            <g id="Group_1157012" data-name="Group 1157012" transform="translate(37.982 15.857)">
              <path id="Path_991083" data-name="Path 991083" d="M54.287,32.188a2.6,2.6,0,0,0-2.486.855,4.683,4.683,0,0,0-.622.164v-2.8h-.863a3.452,3.452,0,0,1-3.453-3.453V25.23L46,24.367l1.6-4a3.415,3.415,0,0,0,1.856.544h1.329a2.588,2.588,0,0,1,2.538,2.08l1.312,6.552v2.736a2.261,2.261,0,0,0-.345-.095Z" transform="translate(-46 -20.37)" fill="#f0d0b4"/>
            </g>
          </g>
          <g id="Group_1157014" data-name="Group 1157014" transform="translate(1 1)">
            <path id="Path_991084" data-name="Path 991084" d="M31.316,51.632A4.316,4.316,0,1,0,27,47.316,4.321,4.321,0,0,0,31.316,51.632Zm0-6.906a2.59,2.59,0,1,1-2.59,2.59A2.593,2.593,0,0,1,31.316,44.726Z" transform="translate(-4.556 -6.744)"/>
            <path id="Path_991085" data-name="Path 991085" d="M46.751,12.222H41.572a2.593,2.593,0,0,0-2.59,2.59,4.29,4.29,0,0,0,1.423,3.181l-1.574,3.933,1.013,1.013v1.369a4.321,4.321,0,0,0,4.316,4.316V29.94a7.776,7.776,0,0,0-4.891,6.4l-.2,1.782h-.638a10.918,10.918,0,0,0-.49-1.248l1.277-2.149-1.1-1.1V27.381a7.045,7.045,0,0,0-2.8-5.609,6.972,6.972,0,0,0-2.507-1.193l-1.745-.437-.284-1.136a5.176,5.176,0,0,0,2.083-3.332H33.8a2.593,2.593,0,0,0,2.59-2.59,2.564,2.564,0,0,0-.586-1.62,5.634,5.634,0,0,0,.586-2.5v-.2a3.458,3.458,0,0,0-2.941-3.415l-.565-.943A7.064,7.064,0,0,0,26.86,1a6.98,6.98,0,0,0-4.968,2.058l-.54.54a7.543,7.543,0,0,0-2.225,5.371,5.635,5.635,0,0,0,.586,2.5,2.562,2.562,0,0,0-.586,1.62,2.593,2.593,0,0,0,2.59,2.59h.942a5.18,5.18,0,0,0,2.083,3.332l-.284,1.136-1.745.437a6.955,6.955,0,0,0-2.506,1.193A7.043,7.043,0,0,0,17.4,27.382V33.62l-1.1,1.1,1.277,2.149a10.918,10.918,0,0,0-.49,1.248h-.638l-.2-1.782a7.776,7.776,0,0,0-4.891-6.4V28.623a4.321,4.321,0,0,0,4.316-4.316V22.938l1.013-1.013-1.574-3.933a4.29,4.29,0,0,0,1.423-3.181,2.593,2.593,0,0,0-2.59-2.59H8.886A7.883,7.883,0,0,0,6.179,27.51v1.584a3.573,3.573,0,0,0-1.726,3.085V54.52H16.538V48.661l4.371,4.371,2.149-1.277c.274.127.551.243.825.345L24.5,54.52h6.522l.615-2.419c.275-.1.552-.218.825-.345l2.149,1.277,4.371-4.371V54.52H51.067V37.948l.657-.548a7.747,7.747,0,0,0,2.8-5.968V19.991a7.778,7.778,0,0,0-7.769-7.769ZM41.572,24.307V22.223l-.713-.714,1.052-2.631a4.255,4.255,0,0,0,1.387.249h1.33a1.731,1.731,0,0,1,1.693,1.388l1.293,6.466v1.65a3.434,3.434,0,0,0-1.726.473V26.9H44.161A2.593,2.593,0,0,1,41.572,24.307Zm-.585,12.22a6.047,6.047,0,0,1,3.2-4.693c-.006.081-.027.16-.027.242v6.043H40.809ZM31.818,22.111l.571.142a5.242,5.242,0,0,1,1.889.9,5.311,5.311,0,0,1,2.115,4.229v4.511l-1.782-1.782-2.149,1.277c-.274-.127-.551-.243-.825-.345l-.616-2.42H31Zm-4.058.112-1.634-1.634.2-.811a5.088,5.088,0,0,0,2.862,0l.2.811Zm2.284.157-.287,2.289L28.9,23.525Zm-3.424,1.145-.858,1.145-.287-2.289Zm1.139,1.358,2.805,3.74H24.955ZM33.8,13.948h-.863V12.222H33.8a.863.863,0,0,1,0,1.726Zm-11.222,0h-.863a.863.863,0,0,1,0-1.726h.863Zm1.012-3.459H22.581V10.5h-.863a2.582,2.582,0,0,0-.527.054,3.934,3.934,0,0,1-.337-1.581,5.83,5.83,0,0,1,1.719-4.15l.54-.54A5.267,5.267,0,0,1,26.86,2.726,5.329,5.329,0,0,1,31.405,5.3l1.045,1.744h.489a1.728,1.728,0,0,1,1.726,1.726v.2a3.926,3.926,0,0,1-.338,1.581A2.574,2.574,0,0,0,33.8,10.5h-.863v-.006H31.928A5,5,0,0,1,28.37,9.016L27.76,8.4l-.61.611a5,5,0,0,1-3.557,1.474Zm.715,4.316V12.179a6.686,6.686,0,0,0,3.453-1.4,6.693,6.693,0,0,0,3.453,1.4v2.627a3.453,3.453,0,1,1-6.906,0ZM19.128,27.382a5.31,5.31,0,0,1,2.115-4.228,5.25,5.25,0,0,1,1.889-.9l.571-.142.814,6.511H24.5l-.615,2.419c-.275.1-.552.218-.825.345L20.91,30.111l-1.783,1.782Zm-.66,7.611,2.713-2.713,1.808,1.076.426-.22a9.509,9.509,0,0,1,1.455-.609l.456-.145.515-2.032h3.837l.516,2.032.456.145a9.51,9.51,0,0,1,1.455.609l.426.22,1.808-1.076,2.713,2.713L35.976,36.8l.22.426c.151.293.281.59.4.892H35.529a3.415,3.415,0,0,0-.768.093,7.762,7.762,0,0,0-14,0,3.415,3.415,0,0,0-.768-.093H18.924a9.435,9.435,0,0,1,.4-.892l.22-.426Zm3.83,4.029a6.017,6.017,0,0,1,10.923,0,3.412,3.412,0,0,0,0,5.1,6.017,6.017,0,0,1-10.923,0,3.411,3.411,0,0,0,0-5.1Zm-7.765-2.495.177,1.592H11.359V32.076c0-.082-.021-.161-.027-.242A6.047,6.047,0,0,1,14.534,36.527Zm-.585-14.3v2.084a2.593,2.593,0,0,1-2.59,2.59H9.632v2.21a3.437,3.437,0,0,0-1.726-.473v-1.65L9.2,20.516a1.731,1.731,0,0,1,1.693-1.388h1.33a4.255,4.255,0,0,0,1.387-.249l1.052,2.631ZM2.726,20.108a6.167,6.167,0,0,1,6.16-6.16h5.062a.864.864,0,0,1,.863.863,2.593,2.593,0,0,1-2.59,2.59h-1.33a3.462,3.462,0,0,0-3.386,2.775L6.393,25.741a6.151,6.151,0,0,1-3.667-5.633Zm3.453,12.07a1.805,1.805,0,0,1,1.375-1.794,1.905,1.905,0,0,1,.354-.035A1.7,1.7,0,0,1,9,30.743a1.725,1.725,0,0,1,.63,1.333v3.453H6.179Zm0,6.8V37.256H9.632v1.369L8.159,40.1l1.221,1.221,1.474-1.474h9.138a1.726,1.726,0,1,1,0,3.453H9.632a3.456,3.456,0,0,1-3.453-3.453Zm8.632,13.812h-2.59v-.506a2.07,2.07,0,0,1,.61-1.474l-1.221-1.221A3.785,3.785,0,0,0,10.5,52.288v.506H6.179V48.478h8.632Zm0-6.043H6.179V43.7a5.153,5.153,0,0,0,3.453,1.329h5.179Zm1.726,1.268V45.025h.548a10.918,10.918,0,0,0,.49,1.248Zm17.8,2.844L32.53,49.788l-.426.22a9.509,9.509,0,0,1-1.455.609l-.456.145-.515,2.032H25.842l-.516-2.032-.456-.145a9.509,9.509,0,0,1-1.455-.609l-.426-.22-1.808,1.076L18.468,48.15l1.076-1.808-.22-.426a9.65,9.65,0,0,1-.4-.892h1.067a3.415,3.415,0,0,0,.768-.093,7.762,7.762,0,0,0,14,0,3.421,3.421,0,0,0,.768.093H36.6c-.118.3-.248.6-.4.892l-.22.426,1.076,1.808Zm3.606-4.591a11.116,11.116,0,0,0,.49-1.248h.547v2.995Zm11.4,6.521H45.025v-.506a3.785,3.785,0,0,0-1.116-2.694l-1.221,1.221a2.071,2.071,0,0,1,.61,1.474v.506h-2.59V48.478h8.632Zm0-6.043H40.708V45.025h5.179A5.153,5.153,0,0,0,49.341,43.7Zm0-7.769v.863A3.456,3.456,0,0,1,45.888,43.3H35.529a1.726,1.726,0,1,1,0-3.453h9.138l1.474,1.474L47.361,40.1l-1.474-1.474V37.256h3.453Zm0-3.453H45.888V32.076a1.73,1.73,0,0,1,2.078-1.692,1.805,1.805,0,0,1,1.375,1.794Zm3.453-4.1a6.02,6.02,0,0,1-1.726,4.225V32.178a3.574,3.574,0,0,0-1.726-3.085V26.9l-1.327-6.719A3.462,3.462,0,0,0,44.628,17.4H43.3a2.593,2.593,0,0,1-2.59-2.59.864.864,0,0,1,.863-.863h5.179a6.05,6.05,0,0,1,6.043,6.043Z" transform="translate(-1 -1)"/>
          </g>
        </g>
      </g>
    </g>
  </g>
</svg>
