<svg xmlns="http://www.w3.org/2000/svg" xmlns:xlink="http://www.w3.org/1999/xlink" width="108" height="108" viewBox="0 0 108 108">
  <defs>
    <filter id="Fondo" x="0" y="0" width="108" height="108" filterUnits="userSpaceOnUse">
      <feOffset dy="3" input="SourceAlpha"/>
      <feGaussianBlur stdDeviation="3" result="blur"/>
      <feFlood flood-opacity="0.161"/>
      <feComposite operator="in" in2="blur"/>
      <feComposite in="SourceGraphic"/>
    </filter>
  </defs>
  <g id="Group_1157336" data-name="Group 1157336" transform="translate(-121.166 -1478)">
    <g id="Icono" transform="translate(130.166 789)">
      <g transform="matrix(1, 0, 0, 1, -9, 689)" filter="url(#Fondo)">
        <g id="Fondo-2" data-name="Fondo" transform="translate(9 6)" fill="#effdfc" stroke="#70efea" stroke-width="3">
          <circle cx="45" cy="45" r="45" stroke="none"/>
          <circle cx="45" cy="45" r="43.5" fill="none"/>
        </g>
      </g>
      <g id="controlar" transform="translate(15.999 709.999)">
        <g id="Group_1157013" data-name="Group 1157013" transform="translate(2 2)">
          <g id="Group_1156988" data-name="Group 1156988" transform="translate(4 47.002)">
            <path id="Path_991059" data-name="Path 991059" d="M6,55H18v7H6Z" transform="translate(-6 -55)" fill="#969faa"/>
          </g>
          <g id="Group_1156989" data-name="Group 1156989" transform="translate(38.002 47.002)">
            <path id="Path_991060" data-name="Path 991060" d="M46,55H58v7H46Z" transform="translate(-46 -55)" fill="#969faa"/>
          </g>
          <g id="Group_1156990" data-name="Group 1156990" transform="translate(4 38.002)">
            <path id="Path_991061" data-name="Path 991061" d="M18,51v4H6V46a5,5,0,0,0,5,5Z" transform="translate(-6 -46)" fill="#b4dd7f"/>
          </g>
          <g id="Group_1156991" data-name="Group 1156991" transform="translate(8.235 29.089)">
            <path id="Path_991062" data-name="Path 991062" d="M11.28,35.05a5.425,5.425,0,0,1,.72.19,8.023,8.023,0,0,1,5.67,6.81L18,45H12V37A3,3,0,0,0,11.28,35.05Z" transform="translate(-11.28 -35.05)" fill="#b4dd7f"/>
          </g>
          <g id="Group_1156992" data-name="Group 1156992" transform="translate(4 28.311)">
            <path id="Path_991063" data-name="Path 991063" d="M8.4,34.06A3,3,0,0,1,12,37v5H6V37.12a3.116,3.116,0,0,1,2-2.95A2.619,2.619,0,0,1,8.4,34.06Z" transform="translate(-6 -34.003)" fill="#b4dd7f"/>
          </g>
          <g id="Group_1156993" data-name="Group 1156993" transform="translate(38.002 38.002)">
            <path id="Path_991064" data-name="Path 991064" d="M58,46v9H46V51h7A5,5,0,0,0,58,46Z" transform="translate(-46 -46)" fill="#ff826e"/>
          </g>
          <g id="Group_1156994" data-name="Group 1156994" transform="translate(39.046 29.089)">
            <path id="Path_991065" data-name="Path 991065" d="M52,35.24a5.424,5.424,0,0,1,.72-.19A3,3,0,0,0,52,37v8H46l.33-2.95A8.023,8.023,0,0,1,52,35.24Z" transform="translate(-46 -35.05)" fill="#ff826e"/>
          </g>
          <g id="Group_1156995" data-name="Group 1156995" transform="translate(44.002 28.311)">
            <path id="Path_991066" data-name="Path 991066" d="M56,34.17a3.116,3.116,0,0,1,2,2.95V42H52V37a3,3,0,0,1,3.6-2.94,2.619,2.619,0,0,1,.4.11Z" transform="translate(-52 -34.003)" fill="#ff826e"/>
          </g>
          <g id="Group_1156996" data-name="Group 1156996" transform="translate(16.001 19.25)">
            <path id="Path_991067" data-name="Path 991067" d="M35,31l.85-6.79,1.75.44a7.058,7.058,0,0,1,2.55,1.21,7.276,7.276,0,0,1,2.1,2.52A7.054,7.054,0,0,1,43,31.56V39.2l-3.22-3.22-2.29,1.36a11.91,11.91,0,0,0-1.84-.77L35,34H29l-.65,2.57a11.91,11.91,0,0,0-1.84.77l-2.29-1.36L21,39.2V31.56a7.147,7.147,0,0,1,2.85-5.7,7.059,7.059,0,0,1,2.55-1.21l1.75-.44L29,31l3-4Z" transform="translate(-21 -24.21)" fill="#75b1f2"/>
          </g>
          <g id="Group_1156997" data-name="Group 1156997" transform="translate(26.795 19.51)">
            <path id="Path_991068" data-name="Path 991068" d="M35.85,24.21,35,31l-3-4,3-3Z" transform="translate(-32 -24)" fill="#5d9cec"/>
          </g>
          <g id="Group_1156998" data-name="Group 1156998" transform="translate(23.356 19.51)">
            <path id="Path_991069" data-name="Path 991069" d="M32,27l-3,4-.85-6.79L29,24Z" transform="translate(-28.15 -24)" fill="#5d9cec"/>
          </g>
          <g id="Group_1156999" data-name="Group 1156999" transform="translate(14.981 42.632)">
            <path id="Path_991070" data-name="Path 991070" d="M43.43,51.65a11.91,11.91,0,0,1-.77,1.84l1.36,2.29-4.24,4.24-2.29-1.36a11.91,11.91,0,0,1-1.84.77L35,62H29l-.65-2.57a11.91,11.91,0,0,1-1.84-.77l-2.29,1.36-4.24-4.24,1.36-2.29a11.91,11.91,0,0,1-.77-1.84l.04-.65H23a2.939,2.939,0,0,0,1.44-.37,8.007,8.007,0,0,0,15.12,0A2.939,2.939,0,0,0,41,51h2.64Z" transform="translate(-19.98 -50.63)" fill="#ffc729"/>
          </g>
          <g id="Group_1157000" data-name="Group 1157000" transform="translate(14.981 28.053)">
            <path id="Path_991071" data-name="Path 991071" d="M42.66,42.51a11.91,11.91,0,0,1,.77,1.84l.24.65H41a2.939,2.939,0,0,0-1.44.37,8.007,8.007,0,0,0-15.12,0A2.939,2.939,0,0,0,23,45H20.56l.01-.65a11.909,11.909,0,0,1,.77-1.84l-1.36-2.29L21,39.2l3.22-3.22,2.29,1.36a11.91,11.91,0,0,1,1.84-.77L29,34h6l.65,2.57a11.91,11.91,0,0,1,1.84.77l2.29-1.36L43,39.2l1.02,1.02Z" transform="translate(-19.98 -34)" fill="#ffc729"/>
          </g>
          <g id="Group_1157001" data-name="Group 1157001" transform="translate(19.441 32.002)">
            <path id="Path_991072" data-name="Path 991072" d="M36,48a4,4,0,1,0-4,4A4,4,0,0,0,36,48Zm2,0a2.989,2.989,0,0,0,1.56,2.63,8.007,8.007,0,0,1-15.12,0,3,3,0,0,0,.68-4.75,3.1,3.1,0,0,0-.68-.51,8.007,8.007,0,0,1,15.12,0,3.1,3.1,0,0,0-.68.51A2.993,2.993,0,0,0,38,48Z" transform="translate(-24.44 -40)" fill="#fcd770"/>
          </g>
          <g id="Group_1157002" data-name="Group 1157002" transform="translate(0 11.228)">
            <path id="Path_991073" data-name="Path 991073" d="M16,15a2.006,2.006,0,0,1,2,2,4.025,4.025,0,0,1-1.17,2.83A4.066,4.066,0,0,1,14,21H12.46a3,3,0,0,0-2.94,2.41L8,31l-.44-.15A8.133,8.133,0,0,1,10.14,15Z" transform="translate(-2 -15)" fill="#b27946"/>
          </g>
          <g id="Group_1157003" data-name="Group 1157003" transform="translate(38.002 10.538)">
            <path id="Path_991074" data-name="Path 991074" d="M59.12,42.4,58,43.33V37.12a3.116,3.116,0,0,0-2-2.95V31l-1.52-7.59A3,3,0,0,0,51.54,21H50a4.007,4.007,0,0,1-4-4,2.015,2.015,0,0,1,2-2h6a8,8,0,0,1,8,8V36.25A7.982,7.982,0,0,1,59.12,42.4Z" transform="translate(-46 -15)" fill="#b27946"/>
          </g>
          <g id="Group_1157004" data-name="Group 1157004" transform="translate(18.001)">
            <path id="Path_991075" data-name="Path 991075" d="M41,10v.23a5.583,5.583,0,0,1-.93,3.08A1.97,1.97,0,0,0,39,13H37v-.01h-.17a6.835,6.835,0,0,1-4.83-2,6.835,6.835,0,0,1-4.83,2H27V13H25a1.97,1.97,0,0,0-1.07.31A5.583,5.583,0,0,1,23,10.23a7.788,7.788,0,0,1,2.28-5.51l.63-.63A7.138,7.138,0,0,1,37.08,5.47L38,7a3,3,0,0,1,3,3Z" transform="translate(-23 -2)" fill="#656d78"/>
          </g>
          <g id="Group_1157005" data-name="Group 1157005" transform="translate(31.251 9.822)">
            <path id="Path_991076" data-name="Path 991076" d="M40.41,13.59A1.955,1.955,0,0,1,41,15a2.006,2.006,0,0,1-2,2H37V13h2a1.97,1.97,0,0,1,1.07.31A1.809,1.809,0,0,1,40.41,13.59Z" transform="translate(-37 -13)" fill="#f0d0b4"/>
          </g>
          <g id="Group_1157006" data-name="Group 1157006" transform="translate(22.001 8.99)">
            <path id="Path_991077" data-name="Path 991077" d="M37,13v4a5,5,0,0,1-10,0V12.99h.17a6.835,6.835,0,0,0,4.83-2,6.835,6.835,0,0,0,4.83,2H37Z" transform="translate(-27 -10.99)" fill="#f0d0b4"/>
          </g>
          <g id="Group_1157007" data-name="Group 1157007" transform="translate(24.001 17.27)">
            <path id="Path_991078" data-name="Path 991078" d="M29.65,21.41a5.051,5.051,0,0,0,4.7,0L35,24l-3,3-3-3Z" transform="translate(-29 -21.41)" fill="#f0d0b4"/>
          </g>
          <g id="Group_1157008" data-name="Group 1157008" transform="translate(18.751 9.822)">
            <path id="Path_991079" data-name="Path 991079" d="M27,16.99V17H25a2.015,2.015,0,0,1-2-2,2,2,0,0,1,.93-1.69A1.97,1.97,0,0,1,25,13h2Z" transform="translate(-23 -13)" fill="#f0d0b4"/>
          </g>
          <g id="Group_1157009" data-name="Group 1157009" transform="translate(6 15.928)">
            <path id="Path_991080" data-name="Path 991080" d="M12,32v3.24a5.424,5.424,0,0,0-.72-.19,3.01,3.01,0,0,0-2.88-.99,2.619,2.619,0,0,0-.4.11V31l1.52-7.59A3,3,0,0,1,12.46,21H14a3.956,3.956,0,0,0,2.15-.63L18,25l-1,1v2a4,4,0,0,1-4,4Z" transform="translate(-8 -20.37)" fill="#f0d0b4"/>
          </g>
          <g id="Group_1157010" data-name="Group 1157010" transform="translate(4 35.295)">
            <path id="Path_991081" data-name="Path 991081" d="M12,42v3H23a2.939,2.939,0,0,1,1.44.37,3.1,3.1,0,0,1,.68.51,3,3,0,0,1-.68,4.75A2.939,2.939,0,0,1,23,51H11a5,5,0,0,1-5-5V42Z" transform="translate(-6 -42)" fill="#f0d0b4"/>
          </g>
          <g id="Group_1157011" data-name="Group 1157011" transform="translate(30.002 35.295)">
            <path id="Path_991082" data-name="Path 991082" d="M58,45v1a5,5,0,0,1-5,5H41a2.939,2.939,0,0,1-1.44-.37,3,3,0,0,1-.68-4.75,3.1,3.1,0,0,1,.68-.51A2.939,2.939,0,0,1,41,45H52V42h6v3Z" transform="translate(-38 -42)" fill="#f0d0b4"/>
          </g>
          <g id="Group_1157012" data-name="Group 1157012" transform="translate(38.002 15.928)">
            <path id="Path_991083" data-name="Path 991083" d="M55.6,34.06a3.01,3.01,0,0,0-2.88.99,5.425,5.425,0,0,0-.72.19V32H51a4,4,0,0,1-4-4V26l-1-1,1.85-4.63A3.956,3.956,0,0,0,50,21h1.54a3,3,0,0,1,2.94,2.41L56,31v3.17a2.619,2.619,0,0,0-.4-.11Z" transform="translate(-46 -20.37)" fill="#f0d0b4"/>
          </g>
        </g>
        <g id="Group_1157014" data-name="Group 1157014" transform="translate(1 1)">
          <path id="Path_991084" data-name="Path 991084" d="M32,53a5,5,0,1,0-5-5A5.006,5.006,0,0,0,32,53Zm0-8a3,3,0,1,1-3,3A3,3,0,0,1,32,45Z" transform="translate(-3.999 -5.845)"/>
          <path id="Path_991085" data-name="Path 991085" d="M48.872,12.742h-5.42a2.713,2.713,0,0,0-2.71,2.71,4.489,4.489,0,0,0,1.489,3.328L40.586,22.9l1.06,1.06v1.433A4.521,4.521,0,0,0,46.163,29.9v1.377a8.137,8.137,0,0,0-5.118,6.694l-.207,1.864H40.17a11.424,11.424,0,0,0-.513-1.306l1.336-2.248L39.84,35.131V28.6a7.372,7.372,0,0,0-2.935-5.869,7.3,7.3,0,0,0-2.623-1.248l-1.826-.457-.3-1.189a5.416,5.416,0,0,0,2.18-3.487h.985a2.713,2.713,0,0,0,2.71-2.71,2.683,2.683,0,0,0-.613-1.7,5.9,5.9,0,0,0,.613-2.611V9.129a3.618,3.618,0,0,0-3.077-3.573l-.592-.986A7.392,7.392,0,0,0,28.059,1a7.3,7.3,0,0,0-5.2,2.153l-.565.565a7.893,7.893,0,0,0-2.328,5.62,5.9,5.9,0,0,0,.613,2.612,2.681,2.681,0,0,0-.613,1.7,2.713,2.713,0,0,0,2.71,2.71h.985a5.42,5.42,0,0,0,2.18,3.487l-.3,1.189-1.826.457A7.277,7.277,0,0,0,21.1,22.736a7.37,7.37,0,0,0-2.936,5.869v6.527l-1.153,1.153,1.336,2.248a11.424,11.424,0,0,0-.513,1.306h-.668l-.207-1.864a8.137,8.137,0,0,0-5.118-6.694V29.9a4.521,4.521,0,0,0,4.516-4.516V23.955l1.06-1.06-1.647-4.115a4.489,4.489,0,0,0,1.489-3.328,2.713,2.713,0,0,0-2.71-2.71h-5.3a8.248,8.248,0,0,0-2.833,16V30.4a3.738,3.738,0,0,0-1.807,3.228V57H17.259v-6.13l4.574,4.574,2.248-1.336c.286.133.576.254.864.361L25.589,57h6.824l.644-2.531c.287-.107.577-.229.864-.361l2.248,1.336,4.574-4.574V57H53.389V39.661l.687-.574A8.107,8.107,0,0,0,57,32.842V20.872a8.139,8.139,0,0,0-8.129-8.129Zm-5.42,12.646v-2.18l-.746-.747,1.1-2.753a4.452,4.452,0,0,0,1.452.261h1.392a1.812,1.812,0,0,1,1.771,1.452l1.353,6.766v1.727a3.594,3.594,0,0,0-1.807.495V28.1H46.163a2.713,2.713,0,0,1-2.71-2.71Zm-.612,12.786a6.327,6.327,0,0,1,3.35-4.91c-.006.085-.028.167-.028.253V39.84H42.655ZM33.247,23.09l.6.149a5.486,5.486,0,0,1,1.976.941,5.558,5.558,0,0,1,2.213,4.425v4.72l-1.864-1.864L33.921,32.8c-.286-.133-.576-.254-.864-.361L32.412,29.9H32.4ZM29,23.207l-1.71-1.71.212-.848a5.324,5.324,0,0,0,3,0l.212.848Zm2.39.164-.3,2.4-.9-1.2Zm-3.582,1.2-.9,1.2-.3-2.4ZM29,25.99,31.936,29.9H26.065Zm6.323-11.442h-.9V12.742h.9a.9.9,0,1,1,0,1.807Zm-11.742,0h-.9a.9.9,0,1,1,0-1.807h.9Zm1.059-3.619H23.581v.006h-.9a2.7,2.7,0,0,0-.551.057,4.116,4.116,0,0,1-.352-1.655A6.1,6.1,0,0,1,23.573,5l.565-.565a5.511,5.511,0,0,1,3.921-1.624A5.576,5.576,0,0,1,32.815,5.5l1.094,1.825h.511a1.808,1.808,0,0,1,1.807,1.807v.209a4.108,4.108,0,0,1-.353,1.655,2.693,2.693,0,0,0-.55-.057h-.9v-.006H33.362a5.227,5.227,0,0,1-3.722-1.542L29,8.748l-.639.64a5.232,5.232,0,0,1-3.722,1.542Zm.748,4.516V12.7A7,7,0,0,0,29,11.232,7,7,0,0,0,32.614,12.7v2.749a3.613,3.613,0,1,1-7.226,0Zm-5.42,13.16a5.556,5.556,0,0,1,2.213-4.424,5.493,5.493,0,0,1,1.976-.941l.6-.149.852,6.813h-.017l-.644,2.531c-.287.107-.577.229-.864.361L21.834,31.46l-1.865,1.864Zm-.69,7.964,2.839-2.839,1.892,1.125.445-.23a9.95,9.95,0,0,1,1.522-.637l.477-.152.539-2.126h4.015l.54,2.126.477.152a9.95,9.95,0,0,1,1.522.637l.445.23,1.892-1.125,2.839,2.839L37.6,38.462l.23.445c.158.306.294.617.419.933H37.13a3.573,3.573,0,0,0-.8.1,8.122,8.122,0,0,0-14.651,0,3.573,3.573,0,0,0-.8-.1H19.755a9.872,9.872,0,0,1,.419-.933l.23-.445Zm4.008,4.215a6.3,6.3,0,0,1,11.43,0,3.57,3.57,0,0,0,0,5.337,6.3,6.3,0,0,1-11.43,0,3.569,3.569,0,0,0,0-5.336Zm-8.125-2.61.185,1.666H11.839V33.517c0-.086-.022-.168-.028-.253a6.327,6.327,0,0,1,3.35,4.91Zm-.612-14.967v2.18a2.713,2.713,0,0,1-2.71,2.71H10.033V30.41a3.6,3.6,0,0,0-1.807-.495V28.189l1.353-6.768a1.812,1.812,0,0,1,1.771-1.452h1.392a4.452,4.452,0,0,0,1.452-.261l1.1,2.753ZM2.807,20.994a6.453,6.453,0,0,1,6.446-6.446h5.3a.9.9,0,0,1,.9.9,2.713,2.713,0,0,1-2.71,2.71H11.35a3.623,3.623,0,0,0-3.543,2.9L6.644,26.888a6.436,6.436,0,0,1-3.837-5.894ZM6.42,33.624a1.889,1.889,0,0,1,1.439-1.877,1.994,1.994,0,0,1,.37-.036,1.78,1.78,0,0,1,1.144.412,1.805,1.805,0,0,1,.659,1.395V37.13H6.42Zm0,7.119V38.937h3.613v1.433L8.491,41.911l1.277,1.277,1.542-1.542h9.562a1.807,1.807,0,0,1,0,3.613H10.033A3.617,3.617,0,0,1,6.42,41.646ZM15.452,55.2h-2.71v-.529a2.166,2.166,0,0,1,.639-1.542L12.1,51.847a3.96,3.96,0,0,0-1.168,2.819V55.2H6.42V50.679h9.033Zm0-6.323H6.42v-3.2a5.392,5.392,0,0,0,3.613,1.391h5.42ZM17.259,50.2V47.066h.574a11.424,11.424,0,0,0,.513,1.306Zm18.626,2.976L33.992,52.05l-.445.23a9.95,9.95,0,0,1-1.522.637l-.477.152L31.009,55.2H26.994l-.54-2.126-.477-.152a9.95,9.95,0,0,1-1.522-.637l-.445-.23-1.892,1.125-2.839-2.839L20.4,48.444,20.173,48a10.1,10.1,0,0,1-.418-.933h1.116a3.574,3.574,0,0,0,.8-.1,8.122,8.122,0,0,0,14.651,0,3.58,3.58,0,0,0,.8.1h1.117c-.124.312-.259.623-.419.933l-.23.445,1.125,1.892Zm3.773-4.8a11.632,11.632,0,0,0,.513-1.306h.573V50.2ZM51.582,55.2H47.066v-.529A3.96,3.96,0,0,0,45.9,51.847l-1.277,1.277a2.167,2.167,0,0,1,.639,1.542V55.2H42.55V50.679h9.033Zm0-6.323H42.55V47.066h5.42a5.392,5.392,0,0,0,3.613-1.391Zm0-8.129v.9a3.617,3.617,0,0,1-3.613,3.613H37.13a1.807,1.807,0,1,1,0-3.613h9.562l1.542,1.542,1.277-1.277-1.542-1.542V38.937h3.613Zm0-3.613H47.969V33.517a1.81,1.81,0,0,1,2.174-1.77,1.889,1.889,0,0,1,1.439,1.877ZM55.2,32.842a6.3,6.3,0,0,1-1.807,4.421V33.624A3.739,3.739,0,0,0,51.582,30.4V28.1l-1.388-7.031a3.623,3.623,0,0,0-3.543-2.9H45.259a2.713,2.713,0,0,1-2.71-2.71.9.9,0,0,1,.9-.9h5.42A6.33,6.33,0,0,1,55.2,20.872Z" transform="translate(-1 -1)"/>
        </g>
      </g>
    </g>
  </g>
</svg>
