<svg xmlns="http://www.w3.org/2000/svg" xmlns:xlink="http://www.w3.org/1999/xlink" width="108" height="108" viewBox="0 0 108 108">
  <defs>
    <filter id="Fondo" x="0" y="0" width="108" height="108" filterUnits="userSpaceOnUse">
      <feOffset dy="3" input="SourceAlpha"/>
      <feGaussianBlur stdDeviation="3" result="blur"/>
      <feFlood flood-opacity="0.161"/>
      <feComposite operator="in" in2="blur"/>
      <feComposite in="SourceGraphic"/>
    </filter>
  </defs>
  <g id="Group_1157320" data-name="Group 1157320" transform="translate(-69 -1478)">
    <g id="Icono" transform="translate(78.5 789)">
      <g transform="matrix(1, 0, 0, 1, -9.5, 689)" filter="url(#Fondo)">
        <g id="Fondo-2" data-name="Fondo" transform="translate(9 6)" fill="#effdfc" stroke="#70efea" stroke-width="3">
          <circle cx="45" cy="45" r="45" stroke="none"/>
          <circle cx="45" cy="45" r="43.5" fill="none"/>
        </g>
      </g>
      <g id="controlar" transform="translate(17.5 710.654)">
        <g id="Group_1145601" data-name="Group 1145601" transform="translate(0.947 0.947)">
          <g id="Group_1145579" data-name="Group 1145579" transform="translate(8.52 53.012)">
            <path id="Path_979720" data-name="Path 979720" d="M31.773,58.893v1.893H10V57H31.773Z" transform="translate(-10 -57)" fill="#969faa"/>
          </g>
          <g id="Group_1145580" data-name="Group 1145580" transform="translate(12.306 47.332)">
            <path id="Path_979721" data-name="Path 979721" d="M14,51H34.154a6.636,6.636,0,0,0-.275,1.893H29.146a2.836,2.836,0,0,0-2.84,2.84v.947H14Z" transform="translate(-14 -51)" fill="#aab2bd"/>
          </g>
          <g id="Group_1145581" data-name="Group 1145581" transform="translate(0 39.759)">
            <path id="Path_979722" data-name="Path 979722" d="M37.616,46.067a6.8,6.8,0,0,0-4.156,4.506H3.878A2.877,2.877,0,0,1,1,47.7V43H32.239a9.458,9.458,0,0,0,5.68,1.893h4.733a10.536,10.536,0,0,0-3.664.663Z" transform="translate(-1 -43)" fill="#ccd1d9"/>
          </g>
          <g id="Group_1145582" data-name="Group 1145582" transform="translate(52.066 22.72)">
            <path id="Path_979723" data-name="Path 979723" d="M56.947,27.84H56V25h3.787v5.68A2.836,2.836,0,0,0,56.947,27.84Z" transform="translate(-56 -25)" fill="#656d78"/>
          </g>
          <g id="Group_1145583" data-name="Group 1145583" transform="translate(23.666 22.72)">
            <path id="Path_979724" data-name="Path 979724" d="M26,25h3.787v2.84H28.84A2.844,2.844,0,0,0,26,30.68Z" transform="translate(-26 -25)" fill="#656d78"/>
          </g>
          <g id="Group_1145584" data-name="Group 1145584" transform="translate(0 18.923)">
            <path id="Path_979725" data-name="Path 979725" d="M28.453,34.253v-.947h-.947a2.83,2.83,0,0,1-2.357-1.25,2.865,2.865,0,0,1-.483-1.59v-5.68a.949.949,0,0,1-.947-.947V21.946A.949.949,0,0,1,24.666,21H20.842l-.009-.009a.46.46,0,0,1-.1.133l-.672.672a1.959,1.959,0,0,1-1.382.577,1.991,1.991,0,0,1-.89-.218,1.923,1.923,0,0,0-1.628-.057l-.341.142A1.937,1.937,0,0,0,14.7,23.432a1.973,1.973,0,0,1-1.865,1.354h-.947a1.973,1.973,0,0,1-1.865-1.354A1.937,1.937,0,0,0,8.9,22.24L8.564,22.1a1.854,1.854,0,0,0-.748-.151,1.912,1.912,0,0,0-.88.208,1.955,1.955,0,0,1-2.272-.36l-.672-.672a.46.46,0,0,1-.1-.133L3.878,21A2.877,2.877,0,0,0,1,23.877V41.826H32.239a9.458,9.458,0,0,1-3.787-7.573Z" transform="translate(-1 -20.99)" fill="#69d6f4"/>
          </g>
          <g id="Group_1145585" data-name="Group 1145585" transform="translate(32.186 41.652)">
            <path id="Path_979726" data-name="Path 979726" d="M41.787,46.108a3.81,3.81,0,0,0-1.108,2.679v3.787H35a6.636,6.636,0,0,1,.275-1.893,6.8,6.8,0,0,1,4.156-4.506l1.373-.511A10.536,10.536,0,0,1,44.466,45a3.81,3.81,0,0,0-2.679,1.108Z" transform="translate(-35 -45)" fill="#ff826e"/>
          </g>
          <g id="Group_1145586" data-name="Group 1145586" transform="translate(30.293 41.652)">
            <path id="Path_979727" data-name="Path 979727" d="M40.573,52.573V48.787a3.787,3.787,0,1,1,7.573,0v5.68a5.684,5.684,0,0,1-5.68,5.68H34.893A1.9,1.9,0,0,1,33,58.253V54.466a1.9,1.9,0,0,1,1.893-1.893Z" transform="translate(-33 -45)" fill="#ff826e"/>
          </g>
          <g id="Group_1145587" data-name="Group 1145587" transform="translate(24.613 49.226)">
            <path id="Path_979728" data-name="Path 979728" d="M32.68,54.893v1.893H27V55.84A2.836,2.836,0,0,1,29.84,53h4.733A1.9,1.9,0,0,0,32.68,54.893Z" transform="translate(-27 -53)" fill="#f0d0b4"/>
          </g>
          <g id="Group_1145588" data-name="Group 1145588" transform="translate(27.453 22.72)">
            <path id="Path_979729" data-name="Path 979729" d="M54.613,27.84v6.627a9.47,9.47,0,0,1-9.466,9.466h-5.68A9.466,9.466,0,0,1,30,34.466V25H54.613Z" transform="translate(-30 -25)" fill="#f0d0b4"/>
          </g>
          <g id="Group_1145589" data-name="Group 1145589" transform="translate(52.066 25.559)">
            <path id="Path_979730" data-name="Path 979730" d="M56.947,28a2.84,2.84,0,0,1,0,5.68H56V28Z" transform="translate(-56 -28)" fill="#f0d0b4"/>
          </g>
          <g id="Group_1145590" data-name="Group 1145590" transform="translate(23.666 25.559)">
            <path id="Path_979731" data-name="Path 979731" d="M29.787,28v5.68H28.84a2.83,2.83,0,0,1-2.357-1.25A2.865,2.865,0,0,1,26,30.84,2.844,2.844,0,0,1,28.84,28Z" transform="translate(-26 -28)" fill="#f0d0b4"/>
          </g>
          <g id="Group_1145591" data-name="Group 1145591" transform="translate(35.973 34.079)">
            <path id="Path_979732" data-name="Path 979732" d="M39,37h7.573A3.787,3.787,0,1,1,39,37Z" transform="translate(-39 -37)" fill="#ff826e"/>
          </g>
          <g id="Group_1145592" data-name="Group 1145592" transform="translate(3.787 30.293)">
            <path id="Path_979733" data-name="Path 979733" d="M5,33h7.573v5.68H5Z" transform="translate(-5 -33)" fill="#ff826e"/>
          </g>
          <g id="Group_1145593" data-name="Group 1145593" transform="translate(0)">
            <path id="Path_979734" data-name="Path 979734" d="M20.88,16.9a1.912,1.912,0,0,0,.208.88,1.925,1.925,0,0,1-.256,2.139.46.46,0,0,1-.1.133l-.672.672a1.959,1.959,0,0,1-1.382.577,1.991,1.991,0,0,1-.89-.218,1.923,1.923,0,0,0-1.628-.057l-.341.142A1.937,1.937,0,0,0,14.7,22.366a1.973,1.973,0,0,1-1.865,1.354h-.947a1.973,1.973,0,0,1-1.865-1.354A1.937,1.937,0,0,0,8.9,21.173l-.341-.142a1.854,1.854,0,0,0-.748-.151,1.912,1.912,0,0,0-.88.208,1.955,1.955,0,0,1-2.272-.36l-.672-.672a.46.46,0,0,1-.1-.133,1.906,1.906,0,0,1-.473-1.25,1.991,1.991,0,0,1,.218-.89,1.923,1.923,0,0,0,.057-1.628l-.142-.341A1.937,1.937,0,0,0,2.354,14.7,1.973,1.973,0,0,1,1,12.833v-.947a1.973,1.973,0,0,1,1.354-1.865A1.937,1.937,0,0,0,3.546,8.9l.142-.341a1.854,1.854,0,0,0,.151-.748,1.912,1.912,0,0,0-.208-.88,1.955,1.955,0,0,1,.36-2.272l.672-.672a1.959,1.959,0,0,1,1.382-.577,1.991,1.991,0,0,1,.89.218,1.923,1.923,0,0,0,1.628.057L8.9,3.546a1.937,1.937,0,0,0,1.117-1.193A1.973,1.973,0,0,1,11.886,1h.947A1.973,1.973,0,0,1,14.7,2.354a1.937,1.937,0,0,0,1.117,1.193l.341.142a1.854,1.854,0,0,0,.748.151,1.912,1.912,0,0,0,.88-.208,1.955,1.955,0,0,1,2.272.36l.672.672a1.959,1.959,0,0,1,.577,1.382,1.991,1.991,0,0,1-.218.89,1.923,1.923,0,0,0-.057,1.628l.142.341a1.937,1.937,0,0,0,1.193,1.117,1.973,1.973,0,0,1,1.354,1.865v.947A1.973,1.973,0,0,1,22.366,14.7a1.937,1.937,0,0,0-1.193,1.117l-.142.341a1.854,1.854,0,0,0-.151.748ZM18.04,12.36a5.68,5.68,0,1,0-5.68,5.68,5.684,5.684,0,0,0,5.68-5.68Z" transform="translate(-1 -1)" fill="#a0d468"/>
          </g>
          <g id="Group_1145594" data-name="Group 1145594" transform="translate(5.68 5.68)">
            <path id="Path_979735" data-name="Path 979735" d="M12.68,7A5.68,5.68,0,1,1,7,12.68,5.684,5.684,0,0,1,12.68,7Zm1.893,5.68a1.893,1.893,0,1,0-1.893,1.893A1.9,1.9,0,0,0,14.573,12.68Z" transform="translate(-7 -7)" fill="#b4dd7f"/>
          </g>
          <g id="Group_1145595" data-name="Group 1145595" transform="translate(41.652 5.68)">
            <path id="Path_979736" data-name="Path 979736" d="M58.253,20.253h-5.68V13.627a.949.949,0,0,0-.947-.947H49.733a.949.949,0,0,0-.947.947v6.627H45V7A13.255,13.255,0,0,1,58.253,20.253Z" transform="translate(-45 -7)" fill="#ffeaa7"/>
          </g>
          <g id="Group_1145596" data-name="Group 1145596" transform="translate(24.613 5.68)">
            <path id="Path_979737" data-name="Path 979737" d="M40.253,7V20.253H36.466V13.627a.949.949,0,0,0-.947-.947H33.627a.949.949,0,0,0-.947.947v6.627H27A13.255,13.255,0,0,1,40.253,7Z" transform="translate(-27 -7)" fill="#ffeaa7"/>
          </g>
          <g id="Group_1145597" data-name="Group 1145597" transform="translate(45.439 11.36)">
            <path id="Path_979738" data-name="Path 979738" d="M52.787,13.947v6.627H49V13.947A.949.949,0,0,1,49.947,13H51.84A.949.949,0,0,1,52.787,13.947Z" transform="translate(-49 -13)" fill="#fcd770"/>
          </g>
          <g id="Group_1145598" data-name="Group 1145598" transform="translate(37.866 3.787)">
            <path id="Path_979739" data-name="Path 979739" d="M44.787,6.893V20.146H41V5.947A.949.949,0,0,1,41.947,5H43.84a.949.949,0,0,1,.947.947Z" transform="translate(-41 -5)" fill="#fcd770"/>
          </g>
          <g id="Group_1145599" data-name="Group 1145599" transform="translate(22.72 18.933)">
            <path id="Path_979740" data-name="Path 979740" d="M59.079,21.947V23.84a.949.949,0,0,1-.947.947H25.947A.949.949,0,0,1,25,23.84V21.947A.949.949,0,0,1,25.947,21H58.133A.949.949,0,0,1,59.079,21.947Z" transform="translate(-25 -21)" fill="#fcd770"/>
          </g>
          <g id="Group_1145600" data-name="Group 1145600" transform="translate(30.293 11.36)">
            <path id="Path_979741" data-name="Path 979741" d="M36.787,13.947v6.627H33V13.947A.949.949,0,0,1,33.947,13H35.84A.949.949,0,0,1,36.787,13.947Z" transform="translate(-33 -13)" fill="#fcd770"/>
          </g>
        </g>
        <g id="Group_1145602" data-name="Group 1145602" transform="translate(0)">
          <path id="Path_979742" data-name="Path 979742" d="M38,36.946a4.733,4.733,0,1,0,9.466,0V36H38Zm7.411.947a2.841,2.841,0,0,1-5.356,0Z" transform="translate(-2.027 -1.921)"/>
          <path id="Path_979743" data-name="Path 979743" d="M48.787,28A3.79,3.79,0,0,0,45,31.786h1.893a1.893,1.893,0,1,1,3.787,0h1.893A3.79,3.79,0,0,0,48.787,28Z" transform="translate(-2.401 -1.494)"/>
          <path id="Path_979744" data-name="Path 979744" d="M38.68,31.786h1.893a3.787,3.787,0,1,0-7.573,0h1.893a1.893,1.893,0,0,1,3.787,0Z" transform="translate(-1.761 -1.494)"/>
          <path id="Path_979745" data-name="Path 979745" d="M56.8,18.932h-.048a14.2,14.2,0,0,0-13.2-13.206V5.679a1.9,1.9,0,0,0-1.893-1.893H39.759a1.9,1.9,0,0,0-1.893,1.893v.048a14.2,14.2,0,0,0-13.2,13.2H22.17a2.9,2.9,0,0,0-.29-1.629.973.973,0,0,1-.036-.827c.053-.122.1-.246.152-.369a.969.969,0,0,1,.613-.564,2.906,2.906,0,0,0,2-2.765v-.943a2.905,2.905,0,0,0-2-2.765A.97.97,0,0,1,22,8.508c-.048-.125-.1-.249-.152-.372a.975.975,0,0,1,.036-.826,2.9,2.9,0,0,0-.54-3.371l-.667-.666a2.905,2.905,0,0,0-3.371-.54.973.973,0,0,1-.827.036c-.121-.053-.245-.1-.369-.152A.971.971,0,0,1,15.543,2a2.906,2.906,0,0,0-2.765-2h-.943A2.905,2.905,0,0,0,9.07,2a.976.976,0,0,1-.565.612c-.123.047-.247.1-.369.151a.965.965,0,0,1-.826-.036,2.905,2.905,0,0,0-3.371.54l-.666.667a2.9,2.9,0,0,0-.54,3.371.973.973,0,0,1,.036.827c-.053.122-.1.246-.152.369A.969.969,0,0,1,2,9.07a2.906,2.906,0,0,0-2,2.765v.943a2.905,2.905,0,0,0,2,2.765.97.97,0,0,1,.612.562c.048.125.1.249.152.372a.975.975,0,0,1-.036.826,2.9,2.9,0,0,0-.251,1.886A3.824,3.824,0,0,0,0,22.758V45.4a3.83,3.83,0,0,0,3.825,3.825h8.481v3.787H8.52v5.68H32.186v-.174a2.808,2.808,0,0,0,.947.174h7.573a6.634,6.634,0,0,0,6.627-6.627V46.385a4.7,4.7,0,0,0-1.241-3.167,10.423,10.423,0,0,0,7.868-10.085,3.79,3.79,0,0,0,3.787-3.787v-5a1.887,1.887,0,0,0,.947-1.63V20.824A1.9,1.9,0,0,0,56.8,18.932ZM27.453,31.239a1.893,1.893,0,0,1,0-3.787Zm0-5.68a3.748,3.748,0,0,0-1.893.526V24.611h1.893Zm-2.84-2.841V20.826H56.8v1.893Zm9.466-3.787H32.186v-5.68h1.893Zm15.146,0H47.332v-5.68h1.893Zm4.733,5.68h1.893v1.475a3.739,3.739,0,0,0-1.893-.527Zm.9-5.68H51.119v-5.68a1.9,1.9,0,0,0-1.893-1.893H47.332a1.9,1.9,0,0,0-1.893,1.893v5.68H43.546V7.62A12.31,12.31,0,0,1,54.857,18.932ZM41.652,5.679V18.932H39.759V5.679ZM37.866,7.62V18.931H35.973v-5.68a1.9,1.9,0,0,0-1.893-1.893H32.186a1.9,1.9,0,0,0-1.893,1.893v5.68H26.554A12.31,12.31,0,0,1,37.866,7.62ZM2.593,13.744a1.015,1.015,0,0,1-.7-.967v-.943a1.016,1.016,0,0,1,.7-.967A2.855,2.855,0,0,0,4.379,9.191c.04-.1.081-.2.124-.3a2.858,2.858,0,0,0-.082-2.435A1.016,1.016,0,0,1,4.61,5.277l.666-.666a1.013,1.013,0,0,1,1.179-.188A2.86,2.86,0,0,0,8.889,4.5c.1-.044.2-.085.3-.124a2.864,2.864,0,0,0,1.677-1.786,1.013,1.013,0,0,1,.966-.7h.943a1.016,1.016,0,0,1,.967.7,2.859,2.859,0,0,0,1.677,1.785c.1.04.2.081.3.124a2.862,2.862,0,0,0,2.435-.082,1.015,1.015,0,0,1,1.179.188L20,5.276a1.016,1.016,0,0,1,.188,1.179,2.856,2.856,0,0,0-.082,2.434q.064.149.125.3a2.858,2.858,0,0,0,1.786,1.677,1.015,1.015,0,0,1,.7.967v.943a1.016,1.016,0,0,1-.7.967,2.856,2.856,0,0,0-1.785,1.677c-.04.1-.081.2-.124.3a2.858,2.858,0,0,0,.082,2.435A1.014,1.014,0,0,1,20,19.335L19.336,20a1.013,1.013,0,0,1-1.178.188,2.863,2.863,0,0,0-2.434-.082q-.149.064-.3.125a2.858,2.858,0,0,0-1.677,1.786,1.015,1.015,0,0,1-.967.7h-.943a1.016,1.016,0,0,1-.967-.7,2.856,2.856,0,0,0-1.677-1.785c-.1-.04-.2-.081-.3-.124a2.8,2.8,0,0,0-1.123-.234,2.917,2.917,0,0,0-1.312.315A1.014,1.014,0,0,1,5.278,20l-.667-.667a1.014,1.014,0,0,1-.188-1.178A2.856,2.856,0,0,0,4.5,15.724q-.064-.149-.125-.3a2.857,2.857,0,0,0-1.786-1.676Zm.867,7.119.478.478a2.907,2.907,0,0,0,3.371.54.967.967,0,0,1,.827-.036c.122.053.246.1.369.152a.969.969,0,0,1,.564.613,2.906,2.906,0,0,0,2.765,2h.943a2.905,2.905,0,0,0,2.765-2A.97.97,0,0,1,16.105,22c.125-.048.249-.1.372-.152a.972.972,0,0,1,.826.036,2.906,2.906,0,0,0,3.371-.54l.516-.516H22.72v1.892a1.887,1.887,0,0,0,.947,1.63v5a3.79,3.79,0,0,0,3.787,3.787,10.361,10.361,0,0,0,2.388,6.627H1.893v-17a1.934,1.934,0,0,1,1.567-1.9ZM1.893,45.4V41.652H31.9a10.346,10.346,0,0,0,4.259,1.739,7.823,7.823,0,0,0-3.406,3.941H3.825A1.935,1.935,0,0,1,1.893,45.4Zm35.974,3.825H34.161A5.911,5.911,0,0,1,37.9,44.664l.347-.131a4.717,4.717,0,0,0-.379,1.852Zm-7.574,3.787H26.506A1.9,1.9,0,0,1,28.4,51.119h2.067a2.812,2.812,0,0,0-.174.947ZM14.2,49.226H28.4a3.791,3.791,0,0,0-3.787,3.787H14.2ZM30.293,56.8H10.413V54.906h19.88V56.8Zm15.146-4.733A4.739,4.739,0,0,1,40.706,56.8H33.133a.948.948,0,0,1-.947-.947V52.066a.949.949,0,0,1,.945-.947h5.176l1.611,2.419,1.575-1.05-1.733-2.6v-3.5a2.835,2.835,0,0,1,2.813-2.838l.026,0h0a2.843,2.843,0,0,1,2.84,2.84ZM43.546,41.652h-5.68a8.53,8.53,0,0,1-8.52-8.52v-8.52h22.72v8.52A8.53,8.53,0,0,1,43.546,41.652ZM53.959,31.239V27.453a1.893,1.893,0,0,1,0,3.787Z" transform="translate(0)"/>
          <circle id="Ellipse_11649" data-name="Ellipse 11649" cx="0.92" cy="0.92" r="0.92" transform="translate(3.68 43.241)"/>
          <circle id="Ellipse_11650" data-name="Ellipse 11650" cx="0.92" cy="0.92" r="0.92" transform="translate(7.36 43.241)"/>
          <path id="Path_979746" data-name="Path 979746" d="M12.627,19.253A6.627,6.627,0,1,0,6,12.627,6.634,6.634,0,0,0,12.627,19.253Zm0-11.36a4.733,4.733,0,1,1-4.733,4.733A4.739,4.739,0,0,1,12.627,7.893Z" transform="translate(-0.32 -0.32)"/>
          <path id="Path_979747" data-name="Path 979747" d="M12.84,15.68A2.84,2.84,0,1,0,10,12.84,2.843,2.843,0,0,0,12.84,15.68Zm0-3.787a.947.947,0,1,1-.947.947A.948.948,0,0,1,12.84,11.893Z" transform="translate(-0.534 -0.534)"/>
          <path id="Path_979748" data-name="Path 979748" d="M13.466,32H4v7.573h9.466Zm-1.893,5.68H5.893V33.893h5.68Z" transform="translate(-0.213 -1.707)"/>
          <path id="Path_979749" data-name="Path 979749" d="M27.36,37.36H25.466V33.573H23.573V37.36H21.68V28.84H19.787v8.52H17.893V26H16V39.253H27.36Z" transform="translate(-0.854 -1.387)"/>
          <path id="Path_979750" data-name="Path 979750" d="M4,28H5.893v1.893H4Z" transform="translate(-0.213 -1.494)"/>
          <path id="Path_979751" data-name="Path 979751" d="M8,28h5.68v1.893H8Z" transform="translate(-0.427 -1.494)"/>
        </g>
      </g>
    </g>
  </g>
</svg>
