<svg xmlns="http://www.w3.org/2000/svg" xmlns:xlink="http://www.w3.org/1999/xlink" width="52" height="51.974" viewBox="0 0 52 51.974">
  <defs>
    <clipPath id="clip-path">
      <rect id="Rectangle_409846" data-name="Rectangle 409846" width="52" height="51.974" fill="none"/>
    </clipPath>
  </defs>
  <g id="Group_1157323" data-name="Group 1157323" transform="translate(-774 -3712)">
    <g id="Group_1157226" data-name="Group 1157226" transform="translate(774 3712)">
      <g id="Group_1157225" data-name="Group 1157225" clip-path="url(#clip-path)">
        <path id="Path_1012774" data-name="Path 1012774" d="M14.805,31.766H21.34c1.638-1.415,3.113-3.407,4.76-4.763.644-.53.9-.586,1.574-.049a23.19,23.19,0,0,1,2.383,2.379.967.967,0,0,1,.049,1.371c-1.541,2.183-4.034,4.216-5.623,6.432-.19.193-.659.708-.913.708H16.528l0,10.279,3.43,19.563c.124.713-.1,1.167-.845,1.256a35.336,35.336,0,0,1-5.172,0,1,1,0,0,1-.893-.931l-1.689-8.187v8.458c0,.344-.636.634-.958.663a35.474,35.474,0,0,1-5.073,0c-.256-.03-.859-.282-.859-.559V50.049L4.319,49.9H.671c-.192,0-.611-.617-.56-.859C.4,45.233-.28,40.85.142,37.112a6.152,6.152,0,0,1,6.051-5.347c-3.5-3.5-1.4-9.88,3.6-10.329a6.1,6.1,0,0,1,5.014,10.33m-1.251-1.251c4.012-4.011-2.138-10.174-6.15-6.1-3.98,4.044,2.17,10.075,6.15,6.1M1.836,37.489V48.175H4.471V37.844H6.193V67.217H9.638V50.555A1.681,1.681,0,0,1,9.99,50.1a.853.853,0,0,1,1.321.405L14.6,67.217h3.445l-3.24-18.892L14.829,36.8a.817.817,0,0,1,.732-.686l7.485-.012,5.2-5.957-.007-.2-1.308-1.211-4.419,4.4-.668.346-15.7,0a4.464,4.464,0,0,0-4.3,4" transform="translate(0 -17.062)"/>
        <path id="Path_1012775" data-name="Path 1012775" d="M152.575,141.381H154.3V143.1H128.359v-1.722h1.722V134.24c0-.184.565-.658.76-.658h4.407v-5.216a1.131,1.131,0,0,1,.861-.861h4.306v-6.027c0-.264.494-.861.76-.861h4.509V115.1c0-.279.8-.529,1.065-.556a33.234,33.234,0,0,1,4.663-.005c.418.037,1.161.249,1.161.764Zm-1.723,0V116.413l-.152-.152h-3.293v25.12Zm-5.167-19.042H142.24v19.042h3.445Zm-5.268,6.888h-3.293l-.152.152v12h3.445Zm-5.167,6.077H131.8v6.077h3.445Z" transform="translate(-102.307 -91.226)"/>
        <path id="Path_1012776" data-name="Path 1012776" d="M171.027.047a9.514,9.514,0,1,1-7.8,13.206,9.546,9.546,0,0,1,7.8-13.206m.2,1.722a7.782,7.782,0,1,0,8.3,9.613,7.805,7.805,0,0,0-8.3-9.613" transform="translate(-129.494 -0.001)"/>
        <path id="Path_1012777" data-name="Path 1012777" d="M98.407,111.98v-1.722a15.671,15.671,0,0,0,12.748-6.653,16.317,16.317,0,0,0,2.654-6.564l-2.686,2.58-1.158-1.25,4.476-4.444a.98.98,0,0,1,1.137.23l4.2,4.214-1.158,1.25-2.938-2.933c-.155,0-.253,1.2-.3,1.42A17.38,17.38,0,0,1,98.407,111.98" transform="translate(-78.434 -74.79)"/>
        <path id="Path_1012778" data-name="Path 1012778" d="M125.69,18.688h-1.824v-1.57l.168-.136c.516.031,1.239-.173,1.656.136Z" transform="translate(-98.726 -13.506)"/>
        <rect id="Rectangle_409844" data-name="Rectangle 409844" width="1.723" height="1.722" transform="translate(21.695 3.461)"/>
        <rect id="Rectangle_409845" data-name="Rectangle 409845" width="1.723" height="1.722" transform="translate(28.686 3.461)"/>
        <path id="Path_1012779" data-name="Path 1012779" d="M46.439,89.414v1.722h-.811v7.8H43.906v-7.8h-.912V89.414Z" transform="translate(-34.268 -71.267)"/>
        <path id="Path_1012780" data-name="Path 1012780" d="M199.939,17.051l.016,1.1a2.588,2.588,0,0,1,1.707,2.344h-1.824a.814.814,0,0,0-1.615-.146,4.847,4.847,0,0,0,.039,1.367c.189.6,1.242.546,1.777.755,2,.782,2.176,3.967.6,5.257-.161.132-.663.347-.684.38-.131.207.157.889-.169,1.1h-1.571l-.016-.946a2.752,2.752,0,0,1-1.706-2.6h1.571c.241.388.293.8.836.894.765.126,1.033-.618,1.045-1.247.035-1.8-1.331-1.053-2.432-1.831-1.415-1-1.44-3.91-.11-4.959.671-.53.974-.253.813-1.466Z" transform="translate(-156.561 -13.59)"/>
      </g>
    </g>
  </g>
</svg>
