<svg xmlns="http://www.w3.org/2000/svg" xmlns:xlink="http://www.w3.org/1999/xlink" width="108" height="108" viewBox="0 0 108 108">
  <defs>
    <filter id="Fondo" x="0" y="0" width="108" height="108" filterUnits="userSpaceOnUse">
      <feOffset dy="3" input="SourceAlpha"/>
      <feGaussianBlur stdDeviation="3" result="blur"/>
      <feFlood flood-opacity="0.161"/>
      <feComposite operator="in" in2="blur"/>
      <feComposite in="SourceGraphic"/>
    </filter>
  </defs>
  <g id="Group_1157335" data-name="Group 1157335" transform="translate(-121.166 -1478)">
    <g id="Icono" transform="translate(130.166 789)">
      <g transform="matrix(1, 0, 0, 1, -9, 689)" filter="url(#Fondo)">
        <g id="Fondo-2" data-name="Fondo" transform="translate(9 6)" fill="#effdfc" stroke="#70efea" stroke-width="3">
          <circle cx="45" cy="45" r="45" stroke="none"/>
          <circle cx="45" cy="45" r="43.5" fill="none"/>
        </g>
      </g>
      <g id="administrar" transform="translate(16.971 680.227)">
        <g id="Group_1156565" data-name="Group 1156565" transform="translate(4.801 42.602)">
          <path id="Path_990783" data-name="Path 990783" d="M57.009,93.85v-3.6H45.661a1.636,1.636,0,0,0-1.636,1.636V95.7h11.03Z" transform="translate(-44.025 -90.248)" fill="#02c7dd"/>
          <path id="Path_990784" data-name="Path 990784" d="M330.715,92a6.768,6.768,0,0,1,.23-1.749h-6.319v3.6L326.58,95.7h5.239A6.729,6.729,0,0,1,330.715,92Z" transform="translate(-294.027 -90.247)" fill="#02c7dd"/>
        </g>
        <path id="Path_990785" data-name="Path 990785" d="M49.584,91.884a1.636,1.636,0,0,1,1.636-1.636H45.661a1.636,1.636,0,0,0-1.636,1.636V95.7h5.559Z" transform="translate(-39.224 -47.646)" fill="#07b2cd"/>
        <path id="Path_990786" data-name="Path 990786" d="M87.7,143.285a6.8,6.8,0,0,1-5.689-3.062h-7.23v7.994l-4.821,4.142-3.71-3.725a.455.455,0,0,0-.644,0l-3.71,3.725-4.821-4.142v-7.994H44.025v27.408a1.64,1.64,0,0,0,1.644,1.636H53.33v-1.1a.375.375,0,0,1,.376-.374H65.13a.375.375,0,0,1,.376.374v1.1H71.83l.8-.793a1.086,1.086,0,0,0,.238-1.188l-.221-.531a1.1,1.1,0,0,0-1.013-.674H69.624a1.093,1.093,0,0,1-1.1-1.09v-2.606a1.093,1.093,0,0,1,1.1-1.09h2.007a1.1,1.1,0,0,0,1.013-.674l.221-.531a1.086,1.086,0,0,0-.238-1.188l-1.419-1.412a1.087,1.087,0,0,1,0-1.542l1.852-1.843a1.1,1.1,0,0,1,1.55,0l1.419,1.412a1.1,1.1,0,0,0,1.194.237l.534-.22a1.09,1.09,0,0,0,.677-1.008v-2a1.093,1.093,0,0,1,1.1-1.09h2.62a1.093,1.093,0,0,1,1.1,1.09v2a1.09,1.09,0,0,0,.677,1.008l.534.22a1.1,1.1,0,0,0,1.194-.237l1.419-1.412a1.1,1.1,0,0,1,.761-.319v-10.5c-.044,0-.088,0-.132,0Z" transform="translate(-39.224 -92.055)" fill="#eaf9fa"/>
        <g id="Group_1156566" data-name="Group 1156566" transform="translate(4.801 48.168)">
          <path id="Path_990787" data-name="Path 990787" d="M44.025,140.223h5.559v12.53H44.025Z" transform="translate(-44.025 -140.223)" fill="#d4f2f6"/>
          <path id="Path_990788" data-name="Path 990788" d="M49.584,367.005V364H44.025v3.005a1.636,1.636,0,0,0,1.636,1.636h5.559A1.636,1.636,0,0,1,49.584,367.005Z" transform="translate(-44.025 -339.598)" fill="#d4f2f6"/>
        </g>
        <g id="Group_1156569" data-name="Group 1156569" transform="translate(12.446 38.082)">
          <g id="Group_1156567" data-name="Group 1156567" transform="translate(0 0)">
            <path id="Path_990789" data-name="Path 990789" d="M218.317,51.962l-3.187-3.014a.545.545,0,0,0-.749,0l-3.187,3.014Z" transform="translate(-200.507 -48.799)" fill="#ffe177"/>
            <path id="Path_990790" data-name="Path 990790" d="M136.258,123.282v9.841l-4.8,4.142-3.691-3.725a.451.451,0,0,0-.641,0l-3.691,3.725-4.8-4.142v-9.841l-5.44,5.143v9.234h5.577a.545.545,0,0,1,.545.545v9.391h10.711v-.3a1.09,1.09,0,0,1,1.09-1.09h2a1.09,1.09,0,0,0,1.008-.674l.22-.531a1.09,1.09,0,0,0-.237-1.188l-1.412-1.412a1.091,1.091,0,0,1,0-1.542l1.843-1.843a1.091,1.091,0,0,1,1.542,0l1.412,1.412a1.09,1.09,0,0,0,1.188.237l.531-.22a1.09,1.09,0,0,0,.674-1.008v-2a1.09,1.09,0,0,1,1.09-1.09h.716v-7.918Z" transform="translate(-113.203 -115.16)" fill="#ffe177"/>
          </g>
          <path id="Path_990791" data-name="Path 990791" d="M167.885,96.744l3.691-3.725a.451.451,0,0,1,.641,0l3.691,3.725,4.8-4.142V78.346a.545.545,0,0,0-.545-.545H163.634a.545.545,0,0,0-.545.545V92.6Z" transform="translate(-157.649 -74.638)" fill="#eaf9fa"/>
          <path id="Path_990792" data-name="Path 990792" d="M166.787,95.8V78.346a.545.545,0,0,1,.545-.545h-3.7a.545.545,0,0,0-.545.545V92.6Z" transform="translate(-157.649 -74.638)" fill="#d4f2f6"/>
          <g id="Group_1156568" data-name="Group 1156568" transform="translate(0 13.266)">
            <path id="Path_990793" data-name="Path 990793" d="M113.2,179.682h5.577a.545.545,0,0,1,.545.545v3.213l4.114-4.151-10.236-8.84v9.234Z" transform="translate(-113.201 -170.448)" fill="#ffc344"/>
            <path id="Path_990794" data-name="Path 990794" d="M283.727,181.033a1.091,1.091,0,0,1,1.542,0l1.412,1.412a1.09,1.09,0,0,0,1.188.237l.531-.22a1.09,1.09,0,0,0,.674-1.008v-2a1.09,1.09,0,0,1,1.09-1.09h.716v-7.918l-10.236,8.84,2.4,2.425Z" transform="translate(-262.385 -170.448)" fill="#ffc344"/>
          </g>
          <path id="Path_990795" data-name="Path 990795" d="M169.343,230.323h10.711v-.3a1.09,1.09,0,0,1,1.09-1.09h2a1.09,1.09,0,0,0,1.008-.674l.22-.531a1.09,1.09,0,0,0-.237-1.188l-1.412-1.412a1.09,1.09,0,0,1,0-1.542l1.162-1.162-6.094-6.149a.451.451,0,0,0-.641,0l-7.805,7.876Z" transform="translate(-163.221 -197.888)" fill="#ffe177"/>
          <path id="Path_990796" data-name="Path 990796" d="M177.149,216.269l-7.805,7.876v3.719l9.968-10.059-1.522-1.536A.451.451,0,0,0,177.149,216.269Z" transform="translate(-163.222 -197.888)" fill="#ffd15b"/>
        </g>
        <g id="Group_1156573" data-name="Group 1156573" transform="translate(29.403 59.459)">
          <g id="Group_1156570" data-name="Group 1156570" transform="translate(0 0)">
            <path id="Path_990797" data-name="Path 990797" d="M290.976,252.915h-2a1.09,1.09,0,0,1-1.008-.674l-.22-.531a1.09,1.09,0,0,1,.237-1.188l1.412-1.412a1.091,1.091,0,0,0,0-1.542l-1.843-1.843a1.091,1.091,0,0,0-1.542,0l-1.412,1.412a1.09,1.09,0,0,1-1.188.237l-.531-.22a1.09,1.09,0,0,1-.674-1.008v-2a1.09,1.09,0,0,0-1.09-1.09h-2.606a1.09,1.09,0,0,0-1.09,1.09v2a1.09,1.09,0,0,1-.674,1.008l-.531.22a1.09,1.09,0,0,1-1.188-.237l-1.412-1.412a1.091,1.091,0,0,0-1.542,0l-1.843,1.843a1.09,1.09,0,0,0,0,1.542l1.412,1.412a1.09,1.09,0,0,1,.237,1.188l-.22.531a1.09,1.09,0,0,1-1.008.674h-2a1.09,1.09,0,0,0-1.09,1.09v2.606a1.09,1.09,0,0,0,1.09,1.09h2a1.09,1.09,0,0,1,1.008.674l.22.531a1.09,1.09,0,0,1-.237,1.188l-1.412,1.412a1.091,1.091,0,0,0,0,1.542l1.843,1.843a1.091,1.091,0,0,0,1.542,0l1.412-1.412a1.09,1.09,0,0,1,1.188-.237l.531.22a1.09,1.09,0,0,1,.674,1.008v2a1.09,1.09,0,0,0,1.09,1.09h2.606a1.09,1.09,0,0,0,1.09-1.09v-2a1.09,1.09,0,0,1,.674-1.008l.531-.22a1.09,1.09,0,0,1,1.188.237l1.412,1.412a1.091,1.091,0,0,0,1.542,0l1.843-1.843a1.091,1.091,0,0,0,0-1.542l-1.412-1.412a1.09,1.09,0,0,1-.237-1.188l.22-.531a1.09,1.09,0,0,1,1.008-.674h2a1.09,1.09,0,0,0,1.09-1.09v-2.606A1.091,1.091,0,0,0,290.976,252.915Z" transform="translate(-267.567 -243.059)" fill="#af66da"/>
          </g>
          <g id="Group_1156571" data-name="Group 1156571" transform="translate(0 0)">
            <path id="Path_990798" data-name="Path 990798" d="M274.643,255.309a10.666,10.666,0,0,1,7.567-10.2v-.954a1.09,1.09,0,0,0-1.09-1.09h-2.606a1.09,1.09,0,0,0-1.09,1.09v2a1.09,1.09,0,0,1-.674,1.008l-.531.22a1.09,1.09,0,0,1-1.188-.237l-1.412-1.412a1.09,1.09,0,0,0-1.542,0l-1.843,1.843a1.09,1.09,0,0,0,0,1.542l1.412,1.412a1.09,1.09,0,0,1,.237,1.188l-.22.531a1.09,1.09,0,0,1-1.008.674h-2a1.09,1.09,0,0,0-1.09,1.09v2.606a1.09,1.09,0,0,0,1.09,1.09h2a1.09,1.09,0,0,1,1.008.674l.22.531a1.09,1.09,0,0,1-.237,1.188l-1.412,1.412a1.09,1.09,0,0,0,0,1.542l1.843,1.843a1.091,1.091,0,0,0,1.542,0l1.412-1.412a1.09,1.09,0,0,1,1.188-.237l.531.22a1.09,1.09,0,0,1,.674,1.008v2a1.09,1.09,0,0,0,1.09,1.09h2.606a1.09,1.09,0,0,0,1.09-1.09v-.954A10.666,10.666,0,0,1,274.643,255.309Z" transform="translate(-267.567 -243.059)" fill="#9857bd"/>
          </g>
          <g id="Group_1156572" data-name="Group 1156572" transform="translate(5.71 5.73)">
            <circle id="Ellipse_11750" data-name="Ellipse 11750" cx="5.437" cy="5.437" r="5.437" transform="translate(0 10.58) rotate(-76.7)" fill="#cb97e7"/>
          </g>
          <circle id="Ellipse_11751" data-name="Ellipse 11751" cx="1.914" cy="1.914" r="1.914" transform="translate(10.335 10.335)" fill="#fff"/>
        </g>
        <g id="Group_1156578" data-name="Group 1156578" transform="translate(41.715 37.588)">
          <g id="Group_1156574" data-name="Group 1156574" transform="translate(0 0)">
            <circle id="Ellipse_11752" data-name="Ellipse 11752" cx="6.763" cy="6.763" r="6.763" fill="#05e39c"/>
          </g>
          <g id="Group_1156575" data-name="Group 1156575" transform="translate(0 0)">
            <path id="Path_990799" data-name="Path 990799" d="M384.123,51.034a6.764,6.764,0,0,1,4.934-6.511,6.763,6.763,0,1,0,0,13.021,6.764,6.764,0,0,1-4.934-6.511Z" transform="translate(-380.466 -44.271)" fill="#0ed290"/>
          </g>
          <path id="Path_990800" data-name="Path 990800" d="M409.426,126.981a3.048,3.048,0,0,1-3.786,0,5.88,5.88,0,0,0-2.385,2.981,6.761,6.761,0,0,0,8.555,0A5.882,5.882,0,0,0,409.426,126.981Z" transform="translate(-400.771 -117.962)" fill="#814aa0"/>
          <g id="Group_1156576" data-name="Group 1156576" transform="translate(3.711 3.575)">
            <circle id="Ellipse_11753" data-name="Ellipse 11753" cx="3.051" cy="3.051" r="3.051" fill="#af66da"/>
          </g>
          <g id="Group_1156577" data-name="Group 1156577" transform="translate(3.711 3.575)">
            <path id="Path_990801" data-name="Path 990801" d="M416.845,80.109a3.052,3.052,0,0,1,1.879-2.818,3.051,3.051,0,1,0,0,5.636A3.052,3.052,0,0,1,416.845,80.109Z" transform="translate(-414.5 -77.058)" fill="#9857bd"/>
          </g>
        </g>
        <g id="Group_1156584" data-name="Group 1156584" transform="translate(0.818 60.709)">
          <g id="Group_1156579" data-name="Group 1156579" transform="translate(0 0)">
            <path id="Path_990802" data-name="Path 990802" d="M25.149,266.451V255.669a.545.545,0,0,0-.545-.545H8.045a.545.545,0,0,0-.545.545v10.782a.545.545,0,0,0,.545.545H24.6A.545.545,0,0,0,25.149,266.451Z" transform="translate(-7.5 -255.124)" fill="#fe7701"/>
          </g>
          <g id="Group_1156580" data-name="Group 1156580" transform="translate(0 0.145)">
            <path id="Path_990803" data-name="Path 990803" d="M7.677,256.454a.542.542,0,0,0-.177.4v10.782a.542.542,0,0,0,.173.4l6.89-5.95Z" transform="translate(-7.5 -256.454)" fill="#fe9738"/>
            <path id="Path_990804" data-name="Path 990804" d="M111.463,256.454l-6.885,5.628,6.89,5.95a.542.542,0,0,0,.173-.4V256.854A.542.542,0,0,0,111.463,256.454Z" transform="translate(-93.992 -256.454)" fill="#fe9738"/>
          </g>
          <g id="Group_1156582" data-name="Group 1156582" transform="translate(0 0)">
            <g id="Group_1156581" data-name="Group 1156581" transform="translate(0 0)">
              <path id="Path_990805" data-name="Path 990805" d="M10.281,255.669a.545.545,0,0,1,.545-.545H8.045a.545.545,0,0,0-.545.545v10.782a.542.542,0,0,0,.173.4l2.608-2.253Z" transform="translate(-7.5 -255.124)" fill="#fe860a"/>
            </g>
          </g>
          <g id="Group_1156583" data-name="Group 1156583" transform="translate(0.177 0)">
            <path id="Path_990806" data-name="Path 990806" d="M17.774,262.337l8.647-7.068a.541.541,0,0,0-.368-.145H9.495a.541.541,0,0,0-.368.145Z" transform="translate(-9.127 -255.124)" fill="#fe7701"/>
          </g>
        </g>
        <g id="Group_1156588" data-name="Group 1156588" transform="translate(14.13 75.809)">
          <g id="Group_1156585" data-name="Group 1156585" transform="translate(0 0)">
            <path id="Path_990807" data-name="Path 990807" d="M141.029,400.775v-7.4a.374.374,0,0,0-.374-.374H129.289a.374.374,0,0,0-.374.374v7.4a.374.374,0,0,0,.374.374h11.365A.374.374,0,0,0,141.029,400.775Z" transform="translate(-128.915 -393)" fill="#ffd15b"/>
          </g>
          <g id="Group_1156586" data-name="Group 1156586" transform="translate(0 0.1)">
            <path id="Path_990808" data-name="Path 990808" d="M129.037,393.913a.372.372,0,0,0-.122.275v7.4a.372.372,0,0,0,.118.272l4.729-4.084Z" transform="translate(-128.915 -393.913)" fill="#ffc344"/>
            <path id="Path_990809" data-name="Path 990809" d="M200.273,393.913l-4.726,3.863,4.729,4.084a.372.372,0,0,0,.118-.272v-7.4A.372.372,0,0,0,200.273,393.913Z" transform="translate(-188.281 -393.913)" fill="#ffc344"/>
          </g>
          <g id="Group_1156587" data-name="Group 1156587" transform="translate(0.122 0)">
            <path id="Path_990810" data-name="Path 990810" d="M135.967,397.951,141.9,393.1a.372.372,0,0,0-.252-.1H130.284a.372.372,0,0,0-.252.1Z" transform="translate(-130.032 -393)" fill="#ffe177"/>
          </g>
        </g>
        <g id="Group_1156589" data-name="Group 1156589" transform="translate(0 36.77)">
          <path id="Path_990811" data-name="Path 990811" d="M196.2,115.884h8.937a.818.818,0,0,0,0-1.636H196.2a.818.818,0,0,0,0,1.636Z" transform="translate(-173.967 -105.764)"/>
          <path id="Path_990812" data-name="Path 990812" d="M196.2,147.954h8.937a.818.818,0,1,0,0-1.636H196.2a.818.818,0,1,0,0,1.636Z" transform="translate(-173.967 -134.322)"/>
          <path id="Path_990813" data-name="Path 990813" d="M202.779,179.206a.818.818,0,0,0-.818-.818H196.2a.818.818,0,0,0,0,1.636h5.764A.818.818,0,0,0,202.779,179.206Z" transform="translate(-173.974 -162.88)"/>
          <path id="Path_990814" data-name="Path 990814" d="M333.194,302.867a.818.818,0,1,0,1.556-.5,6.253,6.253,0,1,0-.2,4.391.818.818,0,1,0-1.5-.644,4.619,4.619,0,1,1,.146-3.242Z" transform="translate(-287.191 -269.355)"/>
          <path id="Path_990815" data-name="Path 990815" d="M354.845,333.07a2.732,2.732,0,1,0,2.732-2.732A2.736,2.736,0,0,0,354.845,333.07Zm3.829,0a1.1,1.1,0,1,1-1.1-1.1A1.1,1.1,0,0,1,358.674,333.07Z" transform="translate(-315.976 -298.179)"/>
          <path id="Path_990816" data-name="Path 990816" d="M52.8,68.431H50.794a.273.273,0,0,1-.253-.169l-.221-.533a.273.273,0,0,1,.059-.3L51.8,66.013a1.919,1.919,0,0,0,0-2.71l-1.85-1.85a1.9,1.9,0,0,0-.547-.38V51.931A7.61,7.61,0,1,0,41.286,41.8H36.364A1.37,1.37,0,0,0,35,40.441H30.6l-2.963-2.8a1.369,1.369,0,0,0-1.881,0l-2.963,2.8H18.4A1.37,1.37,0,0,0,17.035,41.8h-1.05a.821.821,0,1,0,0,1.642h1.05v2.442l-1.468,1.388H5.641V44.268a.822.822,0,0,1,.821-.821h5.691a.821.821,0,1,0,0-1.642H6.462A2.466,2.466,0,0,0,4,44.268V59.856H1.369A1.37,1.37,0,0,0,0,61.225V72.051a1.37,1.37,0,0,0,1.369,1.369H4v2.2a2.466,2.466,0,0,0,2.463,2.463h6.831v5.5a1.2,1.2,0,0,0,1.2,1.2H25.9a1.2,1.2,0,0,0,1.2-1.2v-5.5h3.822a1.917,1.917,0,0,0,.471,1.929l1.85,1.851a1.919,1.919,0,0,0,2.71,0l1.418-1.418a.273.273,0,0,1,.3-.059l.533.221a.273.273,0,0,1,.169.253V82.86a1.918,1.918,0,0,0,1.916,1.916H42.9a1.918,1.918,0,0,0,1.916-1.916V80.855a.273.273,0,0,1,.169-.253l.533-.221a.273.273,0,0,1,.3.059l1.418,1.418a1.918,1.918,0,0,0,2.71,0l1.85-1.85a1.919,1.919,0,0,0,0-2.71L50.38,75.881a.273.273,0,0,1-.06-.3l.221-.533a.273.273,0,0,1,.253-.169H52.8a1.918,1.918,0,0,0,1.916-1.916V70.347A1.918,1.918,0,0,0,52.8,68.431Zm-9.9-9.9H41.826V51.406a.821.821,0,0,0-.257-.6l-2-1.891H42.34a7.61,7.61,0,0,0,5.418,3.042v9.125a1.9,1.9,0,0,0-.52.368L45.82,62.871a.272.272,0,0,1-.3.059l-.533-.221a.273.273,0,0,1-.169-.253V60.451A1.918,1.918,0,0,0,42.9,58.535ZM36.364,48.149l3.416,3.23-3.416,2.951Zm12.083,2.2a5.932,5.932,0,0,1-3.274-.982,5.073,5.073,0,0,1,1.379-1.734,3.873,3.873,0,0,0,3.79,0,5.073,5.073,0,0,1,1.379,1.734,5.931,5.931,0,0,1-3.274.982ZM46.2,44.245a2.243,2.243,0,1,1,2.243,2.243A2.245,2.245,0,0,1,46.2,44.245Zm2.243-5.832a5.964,5.964,0,0,1,4.535,9.844,6.675,6.675,0,0,0-1.4-1.725,3.885,3.885,0,1,0-6.277,0,6.675,6.675,0,0,0-1.4,1.725,5.964,5.964,0,0,1,4.535-9.843Zm-7.038,8.863H37.832l-1.468-1.388V43.446H40.9a7.542,7.542,0,0,0,.514,3.829ZM40.184,53.2v5.34a1.917,1.917,0,0,0-1.813,1.911v2.005a.273.273,0,0,1-.169.253l-.534.221a.273.273,0,0,1-.3-.059l-1.418-1.418a1.919,1.919,0,0,0-2.71,0l-.1.1L31.93,60.329ZM26.7,39.011l1.513,1.43H25.187Zm-8.022,3.072H34.722V55.748L30.771,59.16,27.6,55.965a1.274,1.274,0,0,0-1.81,0L22.628,59.16l-3.951-3.412V42.084ZM21.47,60.329l-2.107,2.126V61.225a1.37,1.37,0,0,0-1.369-1.369H13.216V53.2Zm-4.434-6-3.416-2.951,3.416-3.23ZM5.641,48.918h8.189l-2,1.891a.821.821,0,0,0-.257.6v8.45H5.641Zm10.6,12.58L9.681,66.859,3.123,61.5Zm1.481.911V70.8l-4.994-4.313Zm-16.078,0,4.994,4.082L1.642,70.8Zm6.284,5.137,1.235,1.009a.821.821,0,0,0,1.039,0l1.235-1.009,4.9,4.23H3.028Zm9.779,12.223-2.77,2.392V77.505Zm-1.289-3.175h7.558L20.2,79.684Zm-.095,6.54L19,80.824l.68.556a.821.821,0,0,0,1.039,0l.68-.556,2.674,2.31Zm9.134-.973-2.77-2.392,2.77-2.264Zm.445-7.209H14.491a1.2,1.2,0,0,0-1.2,1.2v.288H6.462a.822.822,0,0,1-.821-.821v-2.2H17.994a1.37,1.37,0,0,0,1.369-1.369v-.576H21.35a.821.821,0,0,0,0-1.642H19.362V64.788l7.337-7.4,5.282,5.33-.589.589a1.918,1.918,0,0,0,0,2.71l1.418,1.418a.273.273,0,0,1,.06.3l-.221.533a.273.273,0,0,1-.253.169H30.39a1.918,1.918,0,0,0-1.844,1.4H25.182a.821.821,0,0,0,0,1.642h3.292v1.49A1.918,1.918,0,0,0,30.39,74.88H32.4a.273.273,0,0,1,.253.169l.221.533a.273.273,0,0,1-.059.3l-.556.556H27.1v-.288a1.2,1.2,0,0,0-1.2-1.2Zm27.172-1.988a.274.274,0,0,1-.274.274H50.794a1.91,1.91,0,0,0-1.77,1.183l-.221.533a1.911,1.911,0,0,0,.416,2.087l1.418,1.418a.274.274,0,0,1,0,.387l-1.85,1.85a.274.274,0,0,1-.387,0L46.981,79.28a1.911,1.911,0,0,0-2.087-.416l-.533.221a1.91,1.91,0,0,0-1.184,1.77V82.86a.274.274,0,0,1-.274.274H40.287a.274.274,0,0,1-.274-.274V80.855a1.911,1.911,0,0,0-1.184-1.771l-.533-.221a1.911,1.911,0,0,0-2.087.416L34.791,80.7a.274.274,0,0,1-.387,0l-1.85-1.851a.274.274,0,0,1,0-.387l1.418-1.418a1.911,1.911,0,0,0,.416-2.088l-.221-.533A1.91,1.91,0,0,0,32.4,73.238H30.391a.274.274,0,0,1-.274-.274V70.347a.274.274,0,0,1,.274-.274H32.4a1.91,1.91,0,0,0,1.77-1.183l.221-.533a1.911,1.911,0,0,0-.416-2.087l-1.418-1.418a.274.274,0,0,1,0-.387l1.85-1.85a.274.274,0,0,1,.387,0l1.418,1.418a1.91,1.91,0,0,0,2.087.416l.533-.221a1.91,1.91,0,0,0,1.184-1.77V60.451a.274.274,0,0,1,.274-.274H42.9a.274.274,0,0,1,.274.274v2.005a1.91,1.91,0,0,0,1.184,1.771l.533.221a1.91,1.91,0,0,0,2.087-.416L48.4,62.614a.274.274,0,0,1,.387,0l1.85,1.85a.274.274,0,0,1,0,.387l-1.418,1.418a1.911,1.911,0,0,0-.416,2.088l.221.533a1.91,1.91,0,0,0,1.771,1.184H52.8a.274.274,0,0,1,.274.274Z" transform="translate(0 -36.77)"/>
        </g>
      </g>
    </g>
  </g>
</svg>
