<svg id="Group_1157224" data-name="Group 1157224" xmlns="http://www.w3.org/2000/svg" xmlns:xlink="http://www.w3.org/1999/xlink" width="53.227" height="53.045" viewBox="0 0 53.227 53.045">
  <defs>
    <clipPath id="clip-path">
      <rect id="Rectangle_409843" data-name="Rectangle 409843" width="53.227" height="53.045" fill="none"/>
    </clipPath>
  </defs>
  <g id="Group_1157223" data-name="Group 1157223" clip-path="url(#clip-path)">
    <path id="Path_1012770" data-name="Path 1012770" d="M1.839,14.5a2.909,2.909,0,0,1,2.277-2.147l14.534-.01a18.034,18.034,0,0,1,3.875-9.671C24.632.042,26.8-1.15,29.6,1.454a17.657,17.657,0,0,1,4.977,10.892l14.534.01a3.15,3.15,0,0,1,1.929,1.278,8.567,8.567,0,0,1,.348.869v29.69c.621,0,1.569-.158,1.746.632a26.3,26.3,0,0,1,.027,4.072,4.478,4.478,0,0,1-4.257,4.148L3.916,53.009A4.482,4.482,0,0,1,.065,48.9a26.323,26.323,0,0,1,.028-4.072c.177-.79,1.125-.634,1.746-.632ZM29.593,4.375c.149-.214-1.183-1.608-1.43-1.816-1.358-1.145-1.915-1.04-3.21.11-.261.232-1.375,1.394-1.334,1.652a6.12,6.12,0,0,0,1.579.76,5.548,5.548,0,0,0,4.395-.707M31.133,25.6c.4-2.367.8-4.75,1.106-7.133.342-2.665.813-5.123.313-7.8A13.145,13.145,0,0,0,30.64,5.83a7.314,7.314,0,0,1-8.052,0,13.591,13.591,0,0,0-2.057,8.893c.285,3.625,1.048,7.23,1.535,10.829ZM18.65,14.116H4.217a1.377,1.377,0,0,0-.608.608V44.193H49.619V14.724c0-.137-.578-.608-.719-.608H34.688A17.23,17.23,0,0,1,39,24.125c.053.819.279,2.559-.831,2.605-.892.037-.865-.726-1.179-1.259a9.63,9.63,0,0,0-3.351-3.613c-.175.1-.14.228-.168.387a33.535,33.535,0,0,1-.717,4.591c-.215.545-.81.517-.838.619-.206,1.1.659,3.334-.928,3.476-2.781.249-5.927-.2-8.748,0-1.576-.079-.727-2.42-.928-3.476-.029-.1-.658-.083-.841-.616l-.715-4.98c-.242-.258-2.044,1.506-2.268,1.767a10.81,10.81,0,0,0-.874,1.227c-.444.709-.727,2.056-1.753,1.851s-.612-2.751-.51-3.561a16.514,16.514,0,0,1,4.3-9.026m.767,5.851-.49-3.417a13.77,13.77,0,0,0-2.6,5.75,10.5,10.5,0,0,1,3.089-2.332M36.9,22.188a12.863,12.863,0,0,0-2.652-5.639l-.386,3.324A16.142,16.142,0,0,1,36.9,22.188m-6.746,5.2H23.075v1.769h7.078ZM17.876,45.962H1.839v3.152a3.005,3.005,0,0,0,2.377,2.157l44.578,0a2.934,2.934,0,0,0,2.594-2.161V45.962H35.351A4.416,4.416,0,0,1,31.318,49.5a76.471,76.471,0,0,1-9.3,0,4.4,4.4,0,0,1-4.143-3.543m15.595,0H19.756a2.526,2.526,0,0,0,2.169,1.757c2.947-.146,6.145.235,9.062.017a2.578,2.578,0,0,0,2.484-1.774" transform="translate(0 0)"/>
    <path id="Path_1012771" data-name="Path 1012771" d="M100.832,147.471c1.356-.3,1.338,1.981,1.634,2.964.256.852,1.064,3.148,2.11,3.205,1.12.062,1.946-2.348,2.2-3.205a20.08,20.08,0,0,1,.666-2.652.9.9,0,0,1,1.6.711c-.082,2-1.66,6.526-3.955,6.89-2.809.446-4.108-3.262-4.6-5.411-.163-.715-.7-2.276.337-2.5" transform="translate(-78.01 -114.756)"/>
    <path id="Path_1012772" data-name="Path 1012772" d="M116.524,147.564a.91.91,0,0,1,1.013.378,7.886,7.886,0,0,1,.1,2.507.9.9,0,0,1-1.739-.093c-.107-.686-.219-2.607.627-2.791" transform="translate(-90.161 -114.848)"/>
    <path id="Path_1012773" data-name="Path 1012773" d="M107.239,43.713c4.836-.7,5.59,6.5,1.065,7.035-4.723.562-5.463-6.4-1.065-7.035m.219,1.767a1.78,1.78,0,0,0,.722,3.486,1.78,1.78,0,0,0-.722-3.486" transform="translate(-81.205 -33.99)"/>
  </g>
</svg>
