<svg xmlns="http://www.w3.org/2000/svg" xmlns:xlink="http://www.w3.org/1999/xlink" width="108" height="108" viewBox="0 0 108 108">
  <defs>
    <filter id="Fondo" x="0" y="0" width="108" height="108" filterUnits="userSpaceOnUse">
      <feOffset dy="3" input="SourceAlpha"/>
      <feGaussianBlur stdDeviation="3" result="blur"/>
      <feFlood flood-opacity="0.161"/>
      <feComposite operator="in" in2="blur"/>
      <feComposite in="SourceGraphic"/>
    </filter>
  </defs>
  <g id="Group_1157322" data-name="Group 1157322" transform="translate(-69 -1478)">
    <g id="Icono" transform="translate(78.5 789)">
      <g transform="matrix(1, 0, 0, 1, -9.5, 689)" filter="url(#Fondo)">
        <g id="Fondo-2" data-name="Fondo" transform="translate(9 6)" fill="#effdfc" stroke="#70efea" stroke-width="3">
          <circle cx="45" cy="45" r="45" stroke="none"/>
          <circle cx="45" cy="45" r="43.5" fill="none"/>
        </g>
      </g>
      <g id="compra-en-linea" transform="translate(15.867 707.63)">
        <path id="Path_990613" data-name="Path 990613" d="M77.807,119.926H35.817A3.817,3.817,0,0,0,32,123.743v36.264H81.624V123.743A3.817,3.817,0,0,0,77.807,119.926Zm0,0" transform="translate(-28.183 -105.586)" fill="#4398d1"/>
        <path id="Path_990614" data-name="Path 990614" d="M104.081,151.926H64.954a.954.954,0,0,0-.954.954v33.4h41.989V153.835A1.909,1.909,0,0,0,104.081,151.926Zm0,0" transform="translate(-56.366 -133.769)" fill="#87ced9"/>
        <path id="Path_990615" data-name="Path 990615" d="M211.675,207.926,184,235.6h27.675Zm0,0" transform="translate(-162.052 -183.089)" fill="#71c4d1"/>
        <path id="Path_990616" data-name="Path 990616" d="M246.315,7.926l2.964,3.253,4.193-1.335.94,4.3,4.3.94-1.335,4.193,3.253,2.964L257.376,25.2l1.335,4.193-4.3.94-.94,4.3L249.279,33.3l-2.964,3.253L243.351,33.3l-4.193,1.335-.94-4.3-4.3-.94,1.335-4.193L232,22.24l3.253-2.964-1.335-4.193,4.3-.94.94-4.3,4.193,1.335Zm0,0" transform="translate(-204.326 -6.946)" fill="#fdb62f"/>
        <g id="Group_1156507" data-name="Group 1156507" transform="translate(34.354 9.569)">
          <path id="Path_990617" data-name="Path 990617" d="M306.344,91.813l9.543-9.543,1.35,1.349-9.543,9.543Zm0,0" transform="translate(-304.156 -81.99)" fill="#fd6d2f"/>
          <path id="Path_990618" data-name="Path 990618" d="M290.863,85.652a2.863,2.863,0,1,1,2.863-2.863A2.863,2.863,0,0,1,290.863,85.652Zm0-3.817a.954.954,0,1,0,.954.954A.954.954,0,0,0,290.863,81.835Zm0,0" transform="translate(-288 -79.926)" fill="#fd6d2f"/>
          <path id="Path_990619" data-name="Path 990619" d="M370.863,133.652a2.863,2.863,0,1,1,2.863-2.863A2.863,2.863,0,0,1,370.863,133.652Zm0-3.817a.954.954,0,1,0,.954.954A.954.954,0,0,0,370.863,129.835Zm0,0" transform="translate(-358.457 -122.2)" fill="#fd6d2f"/>
        </g>
        <path id="Path_990620" data-name="Path 990620" d="M123.292,342.316l-3.428,1.39,2.237,4.527h3.754Zm0,0" transform="translate(-105.566 -301.447)" fill="#e0e3e6"/>
        <path id="Path_990621" data-name="Path 990621" d="M141.54,236.41l-11.857-.192-2.562-5.072,9.4-9.3Zm0,0" transform="translate(-111.958 -195.35)" fill="#e0e3e6"/>
        <path id="Path_990622" data-name="Path 990622" d="M96.147,304.414A2.767,2.767,0,0,0,100,306l2.275-1.126L99.718,299.8,97.347,301.2A2.721,2.721,0,0,0,96.147,304.414Zm0,0" transform="translate(-84.554 -264)" fill="#e3584b"/>
        <path id="Path_990623" data-name="Path 990623" d="M249.281,265.867l3.156-1.1.626,1.8-3.156,1.1Zm0,0" transform="translate(-219.545 -233.151)" fill="#5eb3d1"/>
        <path id="Path_990624" data-name="Path 990624" d="M228.492,204.584l2.1-2.194,1.377,1.322-2.105,2.194Zm0,0" transform="translate(-201.236 -178.213)" fill="#5eb3d1"/>
        <path id="Path_990625" data-name="Path 990625" d="M272,327.926h2.863v1.909H272Zm0,0" transform="translate(-239.554 -288.774)" fill="#5eb3d1"/>
        <path id="Path_990626" data-name="Path 990626" d="M320,279.926h18.132v11.452H320Zm0,0" transform="translate(-281.828 -246.5)" fill="#e3584b"/>
        <path id="Path_990627" data-name="Path 990627" d="M344,303.926h3.817v1.909H344Zm0,0" transform="translate(-302.965 -267.637)" fill="#c9433c"/>
        <path id="Path_990628" data-name="Path 990628" d="M392,303.926h6.68v1.909H392Zm0,0" transform="translate(-345.24 -267.637)" fill="#c9433c"/>
        <path id="Path_990629" data-name="Path 990629" d="M344,335.926h12.406v1.909H344Zm0,0" transform="translate(-302.965 -295.82)" fill="#c9433c"/>
        <path id="Path_990630" data-name="Path 990630" d="M8,183.926H22.315v7.634H8Zm0,0" transform="translate(-7.046 -161.951)" fill="#fd6d2f"/>
        <path id="Path_990631" data-name="Path 990631" d="M32,207.926h1.909v1.909H32Zm0,0" transform="translate(-28.183 -183.089)" fill="#e3584b"/>
        <path id="Path_990632" data-name="Path 990632" d="M64,207.926h4.772v1.909H64Zm0,0" transform="translate(-56.366 -183.089)" fill="#e3584b"/>
        <path id="Path_990633" data-name="Path 990633" d="M60.487,429.652H10.863A2.863,2.863,0,0,1,8,426.789v-2.863H29.836a1.726,1.726,0,0,1,1.544.954,1.726,1.726,0,0,0,1.544.954h5.5a1.726,1.726,0,0,0,1.544-.954,1.726,1.726,0,0,1,1.544-.954H63.35v2.863a2.863,2.863,0,0,1-2.863,2.863Zm0,0" transform="translate(-7.046 -373.322)" fill="#d6d9db"/>
        <path id="Path_990634" data-name="Path 990634" d="M71.634,199.926v5.726H64v1.909h9.543v-7.634Zm0,0" transform="translate(-56.366 -176.043)" fill="#71c4d1"/>
        <path id="Path_990635" data-name="Path 990635" d="M32,247.926h3.817v1.909H32Zm0,0" transform="translate(-28.183 -218.317)" fill="#3e8cc7"/>
        <path id="Path_990636" data-name="Path 990636" d="M416,375.926h3.817v1.909H416Zm0,0" transform="translate(-366.377 -331.048)" fill="#3e8cc7"/>
        <path id="Path_990637" data-name="Path 990637" d="M56.3,289.1H54.395v-1.909H52.486V289.1H50.578v-1.909H48.669V289.1h-14.2a2.666,2.666,0,0,0-2.4,1.482.764.764,0,0,1-.69.426h-5.5a.764.764,0,0,1-.69-.426,2.666,2.666,0,0,0-2.4-1.482H8.588V271.926H6.68V289.1H4.771V271.926H2.862V289.1H.954a.954.954,0,0,0-.954.954v2.863a3.817,3.817,0,0,0,3.817,3.817H53.44a3.817,3.817,0,0,0,3.817-3.817v-2.863a.954.954,0,0,0-.954-.954Zm-.954,3.817a1.909,1.909,0,0,1-1.909,1.909H3.817a1.909,1.909,0,0,1-1.909-1.909v-1.909H22.79a.764.764,0,0,1,.69.426,2.666,2.666,0,0,0,2.4,1.482h5.5a2.665,2.665,0,0,0,2.4-1.482.764.764,0,0,1,.685-.426H55.349Zm0,0" transform="translate(0 -239.454)"/>
        <path id="Path_990638" data-name="Path 990638" d="M45.949,113.835v-1.909H28.772A4.777,4.777,0,0,0,24,116.7v.954h1.909V116.7a2.863,2.863,0,0,1,2.863-2.863Zm0,0" transform="translate(-21.138 -98.54)"/>
        <path id="Path_990639" data-name="Path 990639" d="M56,145.835H76.04v-1.909H57.909A1.909,1.909,0,0,0,56,145.835Zm0,0" transform="translate(-49.32 -126.723)"/>
        <path id="Path_990640" data-name="Path 990640" d="M251.414,12.037l1.145-3.61a.954.954,0,0,0-.7-1.223l-3.7-.809-.805-3.7a.955.955,0,0,0-1.219-.709l-3.61,1.145-2.556-2.8a.984.984,0,0,0-1.41,0L236,3.139l-3.614-1.15a.954.954,0,0,0-1.222.705l-.809,3.7-3.694.809a.954.954,0,0,0-.705,1.223l1.145,3.61-2.8,2.552a.953.953,0,0,0,0,1.41l2.8,2.552-1.145,3.61a.954.954,0,0,0,.705,1.223l3.7.809.809,3.7a.955.955,0,0,0,1.223.705L236,27.45l2.552,2.8a.954.954,0,0,0,1.41,0l2.552-2.8,3.61,1.15a.954.954,0,0,0,1.222-.705l.809-3.7,3.7-.809a.954.954,0,0,0,.7-1.223l-1.145-3.61,2.8-2.552a.954.954,0,0,0,0-1.41Zm-1.738,5.515a.954.954,0,0,0-.266,1l1.013,3.2-3.276.717a.955.955,0,0,0-.727.727l-.713,3.272-3.2-1.018a.96.96,0,0,0-1,.267l-2.258,2.483L237,25.711a.947.947,0,0,0-.991-.266l-3.2,1.015-.717-3.276a.956.956,0,0,0-.727-.727l-3.272-.713,1.018-3.2a.954.954,0,0,0-.267-1l-2.483-2.258,2.481-2.258a.953.953,0,0,0,.266-1l-1.015-3.2,3.276-.717A.955.955,0,0,0,232.1,7.4l.713-3.272L236,5.146a.954.954,0,0,0,1-.267L239.258,2.4l2.258,2.481a.953.953,0,0,0,1,.266l3.2-1.015.717,3.276a.955.955,0,0,0,.727.727l3.276.717-1.017,3.2a.954.954,0,0,0,.266,1l2.479,2.254Zm0,0" transform="translate(-197.269 0)"/>
        <path id="Path_990641" data-name="Path 990641" d="M306.344,91.813l9.543-9.543,1.35,1.349-9.543,9.543Zm0,0" transform="translate(-269.801 -72.422)"/>
        <path id="Path_990642" data-name="Path 990642" d="M293.726,82.789a2.863,2.863,0,1,0-2.863,2.863A2.863,2.863,0,0,0,293.726,82.789Zm-3.817,0a.954.954,0,1,1,.954.954A.954.954,0,0,1,289.909,82.789Zm0,0" transform="translate(-253.646 -70.357)"/>
        <path id="Path_990643" data-name="Path 990643" d="M370.863,127.926a2.863,2.863,0,1,0,2.863,2.863A2.863,2.863,0,0,0,370.863,127.926Zm0,3.817a.954.954,0,1,1,.954-.954A.954.954,0,0,1,370.863,131.743Zm0,0" transform="translate(-324.103 -112.632)"/>
        <path id="Path_990644" data-name="Path 990644" d="M102.253,213.871a.947.947,0,0,0-.888.25l-9.314,9.218-2.265,1.348a3.668,3.668,0,0,0,1.381,6.8l1.988,4.022a.954.954,0,0,0,.859.532h3.754a.955.955,0,0,0,.876-1.336l-1.976-4.561,10.374.172h.016a.954.954,0,0,0,.9-1.266l-5.022-14.562A.954.954,0,0,0,102.253,213.871ZM89.977,228.408a1.759,1.759,0,0,1,.783-2.085l1.491-.884,1.669,3.3-1.413.7a1.827,1.827,0,0,1-1.515.049A1.768,1.768,0,0,1,89.977,228.408Zm4.63,5.726-1.443-2.915c.06-.027.125-.037.185-.067l1.376-.681,1.586,3.663Zm1.191-5.908-1.989-3.937,7.825-7.743,4.084,11.841Zm0,0" transform="translate(-77.476 -188.301)"/>
        <path id="Path_990645" data-name="Path 990645" d="M249.281,265.867l3.156-1.1.626,1.8-3.156,1.1Zm0,0" transform="translate(-219.545 -233.151)"/>
        <path id="Path_990646" data-name="Path 990646" d="M228.492,204.584l2.1-2.194,1.377,1.322-2.105,2.194Zm0,0" transform="translate(-201.236 -178.213)"/>
        <path id="Path_990647" data-name="Path 990647" d="M272,327.926h2.863v1.909H272Zm0,0" transform="translate(-239.554 -288.774)"/>
        <path id="Path_990648" data-name="Path 990648" d="M331.086,222.606h-1.909v-6.68h-1.909v6.68H325.36V220.7h-1.909v1.909h-10.5a.954.954,0,0,0-.954.954v11.452a.954.954,0,0,0,.954.954h18.132a.954.954,0,0,0,.954-.954V223.56A.954.954,0,0,0,331.086,222.606Zm-.954,11.452H313.909v-9.543h16.223Zm0,0" transform="translate(-274.783 -190.134)"/>
        <path id="Path_990649" data-name="Path 990649" d="M344,303.926h3.817v1.909H344Zm0,0" transform="translate(-302.965 -267.637)"/>
        <path id="Path_990650" data-name="Path 990650" d="M392,303.926h6.68v1.909H392Zm0,0" transform="translate(-345.24 -267.637)"/>
        <path id="Path_990651" data-name="Path 990651" d="M344,335.926h12.406v1.909H344Zm0,0" transform="translate(-302.965 -295.82)"/>
        <path id="Path_990652" data-name="Path 990652" d="M.954,185.469H15.269a.954.954,0,0,0,.954-.954V176.88a.954.954,0,0,0-.954-.954H.954A.954.954,0,0,0,0,176.88v7.634A.954.954,0,0,0,.954,185.469Zm.954-7.634H14.315v5.726H1.909Zm0,0" transform="translate(-0.001 -154.906)"/>
        <path id="Path_990653" data-name="Path 990653" d="M32,207.926h1.909v1.909H32Zm0,0" transform="translate(-28.183 -183.089)"/>
        <path id="Path_990654" data-name="Path 990654" d="M64,207.926h4.772v1.909H64Zm0,0" transform="translate(-56.366 -183.089)"/>
      </g>
    </g>
  </g>
</svg>
